<?xml version="1.0" encoding="utf-8"?>
<!-- Generator: Adobe Illustrator 16.0.0, SVG Export Plug-In . SVG Version: 6.00 Build 0)  -->
<!DOCTYPE svg PUBLIC "-//W3C//DTD SVG 1.1//EN" "http://www.w3.org/Graphics/SVG/1.1/DTD/svg11.dtd">
<svg version="1.1" id="Layer_1" xmlns="http://www.w3.org/2000/svg" xmlns:xlink="http://www.w3.org/1999/xlink" x="0px" y="0px"
	 width="37.333px" height="38px" viewBox="0 0 37.333 38" enable-background="new 0 0 37.333 38" xml:space="preserve">
<path fill="#FFFFFF" d="M34.988,5.316h-3.326V2.173h-0.014C31.594,1.517,31.105,1,30.438,1s-1.213,0.517-1.269,1.173h-0.011v3.142
	L7.808,5.312V2.173H7.797C7.742,1.517,7.252,1,6.583,1C5.916,1,5.371,1.517,5.317,2.173H5.306v3.139H1c0,0,0.051,18.18,0.052,27.079
	C1.052,34.55,2.441,36,4.585,36c9.599,0,17.495,0,27.093-0.001c1.941,0,3.319-1.478,3.319-3.41
	C35.005,23.57,34.996,5.467,34.988,5.316z M31.713,32.609H4.365V12.095h27.348V32.609z"/>
</svg>
