<?xml version="1.0" encoding="utf-8"?>
<!-- Generator: Adobe Illustrator 16.0.0, SVG Export Plug-In . SVG Version: 6.00 Build 0)  -->
<!DOCTYPE svg PUBLIC "-//W3C//DTD SVG 1.1//EN" "http://www.w3.org/Graphics/SVG/1.1/DTD/svg11.dtd">
<svg version="1.1" id="Layer_1" xmlns="http://www.w3.org/2000/svg" xmlns:xlink="http://www.w3.org/1999/xlink" x="0px" y="0px"
	 width="35px" height="29px" viewBox="0 0 35 29" enable-background="new 0 0 35 29" xml:space="preserve">
<g>
	<path fill="#FFFFFF" d="M17.773,22.104c-0.479,0.479-1.145,0.754-1.829,0.754c-0.683,0-1.35-0.274-1.83-0.756l-9.278-9.276
		c-0.479-0.479-0.754-1.146-0.754-1.829s0.275-1.35,0.754-1.829L7.37,6.633c0.957-0.958,2.698-0.959,3.658,0l4.916,4.933l8.897-8.91
		V2.551H1v23.842h23.842V15.034L17.773,22.104z"/>
</g>
<path fill="#FFFFFF" d="M16.708,21.064c-0.361,0.362-1.047,0.36-1.41,0L6.02,11.786c-0.182-0.181-0.289-0.444-0.289-0.705
	c0-0.261,0.107-0.524,0.289-0.705l2.535-2.534c0.18-0.181,0.443-0.288,0.703-0.288c0.262,0,0.525,0.108,0.705,0.288l6.039,6.061
	L28.785,1.099c0.363-0.363,1.047-0.364,1.41,0l2.535,2.533c0.182,0.181,0.289,0.445,0.289,0.705c0,0.26-0.107,0.524-0.289,0.705
	L16.708,21.064z"/>
</svg>
