<?xml version="1.0" encoding="utf-8"?>
<!-- Generator: Adobe Illustrator 16.0.0, SVG Export Plug-In . SVG Version: 6.00 Build 0)  -->
<!DOCTYPE svg PUBLIC "-//W3C//DTD SVG 1.1//EN" "http://www.w3.org/Graphics/SVG/1.1/DTD/svg11.dtd">
<svg version="1.1" id="Layer_1" xmlns="http://www.w3.org/2000/svg" xmlns:xlink="http://www.w3.org/1999/xlink" x="0px" y="0px"
	 width="37.125px" height="10.5px" viewBox="0 0 37.125 10.5" enable-background="new 0 0 37.125 10.5" xml:space="preserve">
<g>
	<path fill="#FFFFFF" d="M1,1v8.4h35V1H1z M32.855,8.078c-1.58,0-2.881,0-4.463,0c-0.353,0-0.582-0.239-0.582-0.594
		c0-1.463-0.009-4.452-0.009-4.452h0.709V2.517h0.003c0.008-0.108,0.098-0.193,0.209-0.193c0.109,0,0.19,0.084,0.2,0.193h0.001
		v0.516h3.518V2.517l0,0c0.01-0.108,0.101-0.193,0.209-0.193c0.109,0,0.191,0.084,0.201,0.193h0.002v0.517H33.4
		c0,0.024,0.002,3.001,0.002,4.484C33.402,7.834,33.176,8.078,32.855,8.078z"/>
	<rect x="28.357" y="4.147" fill="#FFFFFF" width="4.504" height="3.372"/>
</g>
</svg>
