<?xml version="1.0" encoding="utf-8"?>
<!-- Generator: Adobe Illustrator 16.0.0, SVG Export Plug-In . SVG Version: 6.00 Build 0)  -->
<!DOCTYPE svg PUBLIC "-//W3C//DTD SVG 1.1//EN" "http://www.w3.org/Graphics/SVG/1.1/DTD/svg11.dtd">
<svg version="1.1" id="Layer_1" xmlns="http://www.w3.org/2000/svg" xmlns:xlink="http://www.w3.org/1999/xlink" x="0px" y="0px"
	 width="37.188px" height="9.938px" viewBox="0 0 37.188 9.938" enable-background="new 0 0 37.188 9.938" xml:space="preserve">
<path fill="#FFFFFF" d="M1,1v8h35V1H1z M6.515,2.672l1.087,3.143H7.62l1.096-3.143h1.119v4.265H8.979V5.665l0.082-1.883L9.044,3.78
	L7.901,6.937H7.327L6.19,3.791L6.173,3.794l0.082,1.871v1.271H5.399V2.672H6.515z M12.051,2.672l1.087,3.143h0.019l1.096-3.143
	h1.119v4.265h-0.855V5.665l0.082-1.883L14.579,3.78l-1.144,3.157h-0.574l-1.137-3.146l-0.018,0.003l0.082,1.871v1.271h-0.855V2.672
	H12.051z M16.47,6.937V2.672h1.465c0.522,0,0.952,0.167,1.289,0.5c0.338,0.333,0.506,0.761,0.506,1.282v0.705
	c0,0.522-0.168,0.95-0.506,1.281c-0.337,0.331-0.767,0.496-1.289,0.496H16.47z M17.325,3.331v2.946h0.564
	c0.307,0,0.546-0.104,0.72-0.31c0.175-0.207,0.263-0.478,0.263-0.812V4.446c0-0.329-0.088-0.599-0.263-0.806
	c-0.174-0.207-0.414-0.31-0.72-0.31L17.325,3.331L17.325,3.331z M20.701,6.937V2.672h1.465c0.521,0,0.951,0.167,1.289,0.5
	s0.507,0.761,0.507,1.282v0.705c0,0.522-0.169,0.95-0.507,1.281s-0.769,0.496-1.289,0.496H20.701z M21.557,3.331v2.946h0.565
	c0.307,0,0.547-0.104,0.721-0.31c0.174-0.207,0.261-0.478,0.261-0.812V4.446c0-0.329-0.087-0.599-0.261-0.806
	s-0.414-0.31-0.721-0.31L21.557,3.331L21.557,3.331z M26.272,4.637h0.019l0.932-1.965h0.938l-1.466,2.766v1.499h-0.853V5.393
	l-1.438-2.721h0.938L26.272,4.637z M30.418,4.637h0.018l0.933-1.965h0.938L30.84,5.438v1.499h-0.854V5.393l-1.438-2.721h0.938
	L30.418,4.637z"/>
</svg>
