<?xml version="1.0" encoding="utf-8"?>
<!-- Generator: Adobe Illustrator 16.0.0, SVG Export Plug-In . SVG Version: 6.00 Build 0)  -->
<!DOCTYPE svg PUBLIC "-//W3C//DTD SVG 1.1//EN" "http://www.w3.org/Graphics/SVG/1.1/DTD/svg11.dtd">
<svg version="1.1" id="Layer_1" xmlns="http://www.w3.org/2000/svg" xmlns:xlink="http://www.w3.org/1999/xlink" x="0px" y="0px"
	 width="22.5px" height="37.667px" viewBox="0 0 22.5 37.667" enable-background="new 0 0 22.5 37.667" xml:space="preserve">
<path fill="#FFFFFF" d="M18.787,17.4c-1.367,0-1.367,1.376-1.367,1.642s0,1.111,0,1.111l-0.591,0.027c0,0,0-3.061,0-3.283
	c0-0.223-0.024-1.686-1.324-1.686c-1.3,0-1.34,1.419-1.34,1.642s-0.028,3.3-0.028,3.3l-0.574,0.011c0,0,0-4.72,0-4.925
	c0-0.205-0.023-1.669-1.34-1.669s-1.368,1.343-1.368,1.642s0,4.941,0,4.941l-0.567,0.002c0,0,0-9.679,0-9.85
	c0-0.171,0.02-1.661-1.348-1.661s-1.368,1.249-1.368,1.642s0,12.632,0,12.632l-0.553-0.012c0-5.258,0-5.152,0-5.518
	c0-0.689-0.273-1.63-1.362-1.63c-1.1,0-1.367,0.924-1.367,1.642c0,0.427,0,5.473,0,5.473v2.037c0,0-0.092,2.186,0.758,3.584
	c0.236,0.389,1.373,1.625,1.373,1.625s0.844,1.084,1.208,1.609c0.126,0.18,0.703,0.846,0.694,1.594
	c-0.003,0.352-0.006,0.312-0.005,0.553c0.002,0.465,0.085,1.23,0.553,1.584c0.175,0.133,0.729,0.523,1.287,0.523
	c0.881,0,7.479,0,7.479,0s1.346,0.151,1.952-0.455c0.548-0.547,0.526-1.67,0.526-1.67v-8.181v-5.473c0,0,0-0.829,0-1.094
	C20.115,18.845,20.155,17.4,18.787,17.4z"/>
<path fill="#FFFFFF" d="M16.027,11.945c0.455,0,0.823-0.351,0.823-0.782l0.02-9.379c0-0.431-0.368-0.781-0.823-0.781L1.824,1
	C1.369,1,1,1.351,1,1.782l0.006,9.381c0,0.432,0.369,0.782,0.824,0.782l5.189-0.021c0-0.004,0-1.286,0-2.122
	c0-1.391,0.867-2.007,1.916-2.007c1.049,0,1.949,0.707,1.949,2.028c0,0.831,0,2.118,0,2.122H16.027z"/>
</svg>
