<?xml version="1.0" encoding="utf-8"?>
<!-- Generator: Adobe Illustrator 16.0.0, SVG Export Plug-In . SVG Version: 6.00 Build 0)  -->
<!DOCTYPE svg PUBLIC "-//W3C//DTD SVG 1.1//EN" "http://www.w3.org/Graphics/SVG/1.1/DTD/svg11.dtd">
<svg version="1.1" id="Layer_1" xmlns="http://www.w3.org/2000/svg" xmlns:xlink="http://www.w3.org/1999/xlink" x="0px" y="0px"
	 width="37.417px" height="30.917px" viewBox="0 0 37.417 30.917" enable-background="new 0 0 37.417 30.917" xml:space="preserve">
<rect x="3.75" y="24.833" fill="#FFFFFF" width="30" height="4"/>
<g>
	<path fill="#FFFFFF" d="M14.155,4.496H9.566v13.708H6.314V4.496H1.75V1.99h12.405V4.496L14.155,4.496z"/>
	<path fill="#FFFFFF" d="M19.649,18.202c-0.121-0.275-0.223-0.564-0.307-0.869c-0.086-0.305-0.146-0.619-0.184-0.934
		c-0.334,0.586-0.777,1.068-1.32,1.457c-0.545,0.387-1.197,0.578-1.955,0.578c-1.262,0-2.232-0.324-2.918-0.973
		c-0.681-0.648-1.023-1.535-1.023-2.656c0-1.18,0.457-2.094,1.363-2.741c0.908-0.652,2.236-0.977,3.98-0.977h1.816v-0.958
		c0-0.58-0.152-1.028-0.459-1.346c-0.305-0.32-0.752-0.479-1.346-0.479c-0.527,0-0.934,0.124-1.217,0.382
		c-0.289,0.257-0.43,0.612-0.43,1.062L12.51,9.742l-0.01-0.07c-0.053-1.014,0.389-1.894,1.324-2.632
		c0.936-0.74,2.164-1.11,3.686-1.11c1.441,0,2.609,0.368,3.508,1.099c0.896,0.729,1.346,1.771,1.346,3.124v4.976
		c0,0.564,0.043,1.094,0.129,1.592s0.219,0.99,0.406,1.48h-3.25V18.202z M16.674,16.032c0.572,0,1.08-0.141,1.525-0.424
		c0.445-0.284,0.746-0.608,0.902-0.98v-1.706h-1.814c-0.689,0-1.211,0.176-1.57,0.521c-0.355,0.346-0.533,0.764-0.533,1.252
		c0,0.399,0.135,0.724,0.402,0.97C15.85,15.907,16.213,16.032,16.674,16.032z"/>
	<path fill="#FFFFFF" d="M35.667,12.511c0,1.794-0.4,3.234-1.205,4.31c-0.799,1.078-1.957,1.613-3.475,1.613
		c-0.697,0-1.309-0.145-1.83-0.438c-0.525-0.293-0.971-0.723-1.332-1.289L27.581,18.2h-2.787V0.832h3.24v6.602
		c0.35-0.479,0.768-0.852,1.254-1.113c0.486-0.258,1.045-0.391,1.676-0.391c1.531,0,2.695,0.578,3.496,1.734
		c0.801,1.152,1.203,2.692,1.203,4.614L35.667,12.511L35.667,12.511z M32.424,12.28c0-1.183-0.172-2.116-0.518-2.807
		c-0.346-0.689-0.936-1.04-1.766-1.04c-0.506,0-0.934,0.108-1.281,0.32s-0.623,0.518-0.824,0.914v5.132
		c0.201,0.366,0.479,0.646,0.83,0.84c0.354,0.193,0.785,0.291,1.297,0.291c0.84,0,1.426-0.295,1.76-0.887
		c0.334-0.594,0.5-1.436,0.5-2.526L32.424,12.28L32.424,12.28z"/>
</g>
</svg>
