<?xml version="1.0" encoding="utf-8"?>
<!-- Generator: Adobe Illustrator 16.0.0, SVG Export Plug-In . SVG Version: 6.00 Build 0)  -->
<!DOCTYPE svg PUBLIC "-//W3C//DTD SVG 1.1//EN" "http://www.w3.org/Graphics/SVG/1.1/DTD/svg11.dtd">
<svg version="1.1" id="Layer_1" xmlns="http://www.w3.org/2000/svg" xmlns:xlink="http://www.w3.org/1999/xlink" x="0px" y="0px"
	 width="37.833px" height="37.667px" viewBox="0 0 37.833 37.667" enable-background="new 0 0 37.833 37.667" xml:space="preserve">
<path fill="#FFFFFF" d="M19.084,25.551c0.551,0.184,1.124,0.275,1.721,0.275h0.412c0.367-0.047,0.744-0.08,1.133-0.104
	c0.392-0.023,0.793-0.104,1.205-0.242c-0.093,0.184-0.275,0.426-0.551,0.725c-0.273,0.297-0.596,0.676-0.963,1.134l-6.875,6.601
	c-1.606,1.375-3.256,2.064-4.952,2.064c-1.331,0-2.555-0.264-3.678-0.791c-1.125-0.527-2.098-1.205-2.924-2.029
	c-0.826-0.826-1.467-1.764-1.925-2.817C1.229,29.309,1,28.256,1,27.201c0-1.695,0.732-3.277,2.2-4.746
	c2.796-2.75,5.02-4.824,6.669-6.224c1.651-1.398,2.751-2.21,3.302-2.44c0.963-0.458,2.085-0.688,3.37-0.688
	c1.054,0,2.085,0.185,3.094,0.55c1.008,0.368,1.902,0.94,2.682,1.719c-0.045,0.046-0.104,0.104-0.172,0.173
	c-0.067,0.068-0.194,0.148-0.377,0.24l-2.477,1.788c-0.458-0.412-0.952-0.71-1.478-0.895c-0.527-0.181-1.042-0.275-1.547-0.275
	c-1.375,0-2.591,0.527-3.645,1.583l-7.082,6.807c-0.78,0.92-1.169,1.789-1.169,2.613c0,0.918,0.504,1.881,1.514,2.891
	c1.006,1.053,1.866,1.707,2.578,1.959c0.71,0.252,1.34,0.379,1.891,0.379c0.367-0.045,0.766-0.127,1.204-0.242
	c0.435-0.113,0.834-0.354,1.203-0.723L19.084,25.551z M34.145,4.713C34.741,5.495,35.2,6.32,35.52,7.189
	C35.84,8.059,36,8.955,36,9.871c0,1.008-0.273,1.949-0.824,2.819c-0.275,0.458-1.09,1.421-2.441,2.888
	c-1.354,1.468-3.334,3.438-5.946,5.914c-1.881,1.789-3.944,2.683-6.188,2.683c-1.146,0-2.339-0.284-3.578-0.86
	c-1.238-0.571-2.245-1.434-3.025-2.578c0.504-0.182,0.938-0.333,1.307-0.445c0.367-0.114,0.664-0.196,0.893-0.242l1.719-0.274
	c0.413,0.412,0.848,0.699,1.305,0.859c0.459,0.163,0.94,0.241,1.445,0.241c1.283,0,2.521-0.55,3.713-1.651l7.084-6.739
	c0.412-0.366,0.688-0.78,0.826-1.238c0.137-0.458,0.229-0.894,0.271-1.307c0-0.688-0.158-1.375-0.479-2.063
	c-0.322-0.688-0.748-1.295-1.271-1.822c-0.528-0.526-1.111-0.952-1.754-1.272c-0.644-0.32-1.307-0.481-1.996-0.481
	c-1.055,0-2.018,0.368-2.889,1.1l-5.843,5.983h-2.407c-0.643,0-1.627,0.229-2.957,0.687c0.091-0.182,0.319-0.458,0.687-0.825
	c6.143-6.145,9.671-9.375,10.591-9.697C25.25,1.183,26.168,1,26.993,1c1.056,0,2.143,0.218,3.266,0.653
	C31.381,2.088,32.677,3.109,34.145,4.713z"/>
</svg>
