<?xml version="1.0" encoding="utf-8"?>
<!-- Generator: Adobe Illustrator 16.0.0, SVG Export Plug-In . SVG Version: 6.00 Build 0)  -->
<!DOCTYPE svg PUBLIC "-//W3C//DTD SVG 1.1//EN" "http://www.w3.org/Graphics/SVG/1.1/DTD/svg11.dtd">
<svg version="1.1" id="Layer_1" xmlns="http://www.w3.org/2000/svg" xmlns:xlink="http://www.w3.org/1999/xlink" x="0px" y="0px"
	 width="37.625px" height="10.125px" viewBox="0 0 37.625 10.125" enable-background="new 0 0 37.625 10.125" xml:space="preserve">
<g>
	<path fill="#FFFFFF" d="M30.219,3.714c-0.221,0-0.429,0.086-0.585,0.243c-0.157,0.157-0.243,0.365-0.243,0.587
		c0,0.221,0.086,0.429,0.242,0.585c0.314,0.315,0.86,0.313,1.174,0c0.322-0.323,0.322-0.849,0-1.172
		C30.648,3.801,30.439,3.714,30.219,3.714z"/>
	<path fill="#FFFFFF" d="M1,1v8h35V1H1z M32.191,7.094l-1.139-1.139c-0.251,0.149-0.535,0.234-0.835,0.234
		c-0.438,0-0.853-0.171-1.163-0.482c-0.311-0.31-0.481-0.723-0.481-1.163s0.172-0.854,0.483-1.165c0.618-0.62,1.702-0.621,2.325,0
		c0.542,0.542,0.62,1.369,0.248,2l1.138,1.138L32.191,7.094z"/>
</g>
</svg>
