<?xml version="1.0" encoding="utf-8"?>
<!-- Generator: Adobe Illustrator 16.0.0, SVG Export Plug-In . SVG Version: 6.00 Build 0)  -->
<!DOCTYPE svg PUBLIC "-//W3C//DTD SVG 1.1//EN" "http://www.w3.org/Graphics/SVG/1.1/DTD/svg11.dtd">
<svg version="1.1" id="Layer_1" xmlns="http://www.w3.org/2000/svg" xmlns:xlink="http://www.w3.org/1999/xlink" x="0px" y="0px"
	 width="30px" height="30px" viewBox="0 0 30 30" enable-background="new 0 0 30 30" xml:space="preserve">
<path fill="#D1D3D4" d="M24.498,1H4.5C2.571,1,1,2.57,1,4.5V10v14.5C1,26.432,2.571,28,4.5,28h19.998c1.93,0,3.5-1.568,3.5-3.5V10
	V4.5C27.998,2.57,26.428,1,24.498,1 M2,4.5C2,3.122,3.122,2,4.5,2h19.998c1.379,0,2.5,1.122,2.502,2.5V13H2V4.5z M24.498,27H4.5
	C3.122,27,2,25.879,2,24.5V14h25v10.5C26.998,25.879,25.877,27,24.498,27"/>
<path fill="#D1D3D4" d="M24,6c0,0.553-0.447,1-1,1s-1-0.447-1-1s0.447-1,1-1S24,5.447,24,6"/>
<path fill="#D1D3D4" d="M19.001,7H5C4.448,7,4,6.552,4,6s0.448-1,1-1h14.001c0.553,0,1,0.448,1,1S19.554,7,19.001,7"/>
<path fill="#D1D3D4" d="M12,11H5c-0.551,0-0.999-0.448-0.999-1S4.449,9,5,9h7c0.553,0,1,0.448,1,1S12.553,11,12,11"/>
<path fill="#D1D3D4" d="M22.998,11h-6.999C15.448,11,15,10.552,15,10s0.448-1,0.999-1h6.999c0.553,0,1,0.448,1,1
	S23.551,11,22.998,11"/>
</svg>
