<?xml version="1.0" encoding="utf-8"?>
<!-- Generator: Adobe Illustrator 16.0.0, SVG Export Plug-In . SVG Version: 6.00 Build 0)  -->
<!DOCTYPE svg PUBLIC "-//W3C//DTD SVG 1.1//EN" "http://www.w3.org/Graphics/SVG/1.1/DTD/svg11.dtd">
<svg version="1.1" id="Layer_1" xmlns="http://www.w3.org/2000/svg" xmlns:xlink="http://www.w3.org/1999/xlink" x="0px" y="0px"
	 width="30px" height="30px" viewBox="0 0 30 30" enable-background="new 0 0 30 30" xml:space="preserve">
<path fill="#D1D3D4" d="M22.549,21H6.586c-1.39,0-2.52-1.129-2.52-2.518v-7.964C4.066,9.13,5.196,8,6.586,8h15.963
	c1.389,0,2.518,1.13,2.518,2.519v7.964C25.066,19.871,23.938,21,22.549,21z M6.586,9c-0.838,0-1.52,0.681-1.52,1.519v7.964
	c0,0.837,0.682,1.518,1.52,1.518h15.963c0.837,0,1.518-0.681,1.518-1.518v-7.964C24.066,9.681,23.386,9,22.549,9H6.586z"/>
<g>
	<g>
		<path fill="#D1D3D4" d="M25.066,2c1.103,0,2,0.897,2,2v21c0,1.103-0.897,2-2,2h-21c-1.103,0-2-0.897-2-2V4c0-1.103,0.897-2,2-2
			H25.066 M25.066,1h-21c-1.658,0-3,1.344-3,3v21c0,1.656,1.342,3,3,3h21c1.656,0,3-1.344,3-3V4C28.066,2.344,26.723,1,25.066,1
			L25.066,1z"/>
	</g>
</g>
<path fill="#D1D3D4" d="M15.635,6H5.113c-0.551,0-1-0.447-1-1c0-0.552,0.449-1,1-1h10.521c0.551,0,1,0.448,1,1
	C16.635,5.553,16.186,6,15.635,6"/>
<path fill="#D1D3D4" d="M15.635,25H5.113c-0.551,0-1-0.447-1-1c0-0.552,0.449-1,1-1h10.521c0.551,0,1,0.448,1,1
	C16.635,24.553,16.186,25,15.635,25"/>
<path fill="#D1D3D4" d="M24.066,25h-1c-0.551,0-1-0.447-1-1s0.449-1,1-1h1c0.553,0,1,0.447,1,1S24.619,25,24.066,25"/>
<g>
	<rect x="9.066" y="11" fill="#D1D3D4" width="1" height="1"/>
	<rect x="11.066" y="11" fill="#D1D3D4" width="1" height="1"/>
	<rect x="13.066" y="11" fill="#D1D3D4" width="1" height="1"/>
	<rect x="8.066" y="12" fill="#D1D3D4" width="1" height="1"/>
	<rect x="19.066" y="11" fill="#D1D3D4" width="1" height="1"/>
	<rect x="17.066" y="11" fill="#D1D3D4" width="1" height="1"/>
	<rect x="15.066" y="11" fill="#D1D3D4" width="1" height="1"/>
	<rect x="20.066" y="12" fill="#D1D3D4" width="1" height="1"/>
	<rect x="9.066" y="13" fill="#D1D3D4" width="1" height="1"/>
	<rect x="11.066" y="13" fill="#D1D3D4" width="1" height="1"/>
	<rect x="13.066" y="13" fill="#D1D3D4" width="1" height="1"/>
	<rect x="19.066" y="13" fill="#D1D3D4" width="1" height="1"/>
	<rect x="17.066" y="13" fill="#D1D3D4" width="1" height="1"/>
	<rect x="15.066" y="13" fill="#D1D3D4" width="1" height="1"/>
</g>
<g>
	<rect x="9.066" y="15" fill="#D1D3D4" width="1" height="1"/>
	<rect x="11.066" y="15" fill="#D1D3D4" width="1" height="1"/>
	<rect x="13.066" y="15" fill="#D1D3D4" width="1" height="1"/>
	<rect x="8.066" y="16" fill="#D1D3D4" width="1" height="1"/>
	<rect x="19.066" y="15" fill="#D1D3D4" width="1" height="1"/>
	<rect x="17.066" y="15" fill="#D1D3D4" width="1" height="1"/>
	<rect x="15.066" y="15" fill="#D1D3D4" width="1" height="1"/>
	<rect x="20.066" y="16" fill="#D1D3D4" width="1" height="1"/>
	<rect x="9.066" y="17" fill="#D1D3D4" width="1" height="1"/>
	<rect x="11.066" y="17" fill="#D1D3D4" width="1" height="1"/>
	<rect x="13.066" y="17" fill="#D1D3D4" width="1" height="1"/>
	<rect x="19.066" y="17" fill="#D1D3D4" width="1" height="1"/>
	<rect x="17.066" y="17" fill="#D1D3D4" width="1" height="1"/>
	<rect x="15.066" y="17" fill="#D1D3D4" width="1" height="1"/>
</g>
</svg>
