<?xml version="1.0" encoding="utf-8"?>
<!-- Generator: Adobe Illustrator 16.0.0, SVG Export Plug-In . SVG Version: 6.00 Build 0)  -->
<!DOCTYPE svg PUBLIC "-//W3C//DTD SVG 1.1//EN" "http://www.w3.org/Graphics/SVG/1.1/DTD/svg11.dtd">
<svg version="1.1" id="Layer_1" xmlns="http://www.w3.org/2000/svg" xmlns:xlink="http://www.w3.org/1999/xlink" x="0px" y="0px"
	 width="30px" height="30px" viewBox="0 0 30 30" enable-background="new 0 0 30 30" xml:space="preserve">
<path fill="#D1D3D4" d="M22.936,21H6.973c-1.39,0-2.52-1.129-2.52-2.518v-7.964C4.453,9.13,5.583,8,6.973,8h15.963
	c1.389,0,2.518,1.13,2.518,2.519v7.964C25.453,19.871,24.324,21,22.936,21z M6.973,9c-0.838,0-1.52,0.681-1.52,1.519v7.964
	c0,0.837,0.682,1.518,1.52,1.518h15.963c0.837,0,1.518-0.681,1.518-1.518v-7.964C24.453,9.681,23.772,9,22.936,9H6.973z"/>
<path fill="#D1D3D4" d="M16.021,6H5.5c-0.551,0-1-0.447-1-1c0-0.552,0.449-1,1-1h10.521c0.551,0,1,0.448,1,1
	C17.021,5.553,16.572,6,16.021,6"/>
<path fill="#D1D3D4" d="M16.021,25H5.5c-0.551,0-1-0.447-1-1c0-0.552,0.449-1,1-1h10.521c0.551,0,1,0.448,1,1
	C17.021,24.553,16.572,25,16.021,25"/>
<path fill="#D1D3D4" d="M20.953,14h-12c-0.827,0-1.5-0.673-1.5-1.5s0.673-1.5,1.5-1.5h12c0.827,0,1.5,0.673,1.5,1.5
	S21.78,14,20.953,14z M8.953,12c-0.275,0-0.5,0.224-0.5,0.5s0.225,0.5,0.5,0.5h12c0.275,0,0.5-0.224,0.5-0.5s-0.225-0.5-0.5-0.5
	H8.953z"/>
<path fill="#D1D3D4" d="M20.953,18h-12c-0.827,0-1.5-0.673-1.5-1.5s0.673-1.5,1.5-1.5h12c0.827,0,1.5,0.673,1.5,1.5
	S21.78,18,20.953,18z M8.953,16c-0.275,0-0.5,0.225-0.5,0.5s0.225,0.5,0.5,0.5h12c0.275,0,0.5-0.225,0.5-0.5s-0.225-0.5-0.5-0.5
	H8.953z"/>
<path fill="#D1D3D4" d="M24.453,25h-1c-0.551,0-1-0.447-1-1s0.449-1,1-1h1c0.553,0,1,0.447,1,1S25.006,25,24.453,25"/>
<g>
	<rect x="3.453" y="1" fill="#D1D3D4" width="1" height="1"/>
	<rect x="5.453" y="1" fill="#D1D3D4" width="1" height="1"/>
	<rect x="7.453" y="1" fill="#D1D3D4" width="1" height="1"/>
	<rect x="9.453" y="1" fill="#D1D3D4" width="1" height="1"/>
	<rect x="11.453" y="1" fill="#D1D3D4" width="1" height="1"/>
	<rect x="13.453" y="1" fill="#D1D3D4" width="1" height="1"/>
	<rect x="15.453" y="1" fill="#D1D3D4" width="1" height="1"/>
	<rect x="17.453" y="1" fill="#D1D3D4" width="1" height="1"/>
	<rect x="19.453" y="1" fill="#D1D3D4" width="1" height="1"/>
	<rect x="21.453" y="1" fill="#D1D3D4" width="1" height="1"/>
	<rect x="23.453" y="1" fill="#D1D3D4" width="1" height="1"/>
	<rect x="25.453" y="1" fill="#D1D3D4" width="1" height="1"/>
	<rect x="3.453" y="27" fill="#D1D3D4" width="1" height="1"/>
	<rect x="5.453" y="27" fill="#D1D3D4" width="1" height="1"/>
	<rect x="7.453" y="27" fill="#D1D3D4" width="1" height="1"/>
	<rect x="9.453" y="27" fill="#D1D3D4" width="1" height="1"/>
	<rect x="11.453" y="27" fill="#D1D3D4" width="1" height="1"/>
	<rect x="13.453" y="27" fill="#D1D3D4" width="1" height="1"/>
	<rect x="15.453" y="27" fill="#D1D3D4" width="1" height="1"/>
	<rect x="17.453" y="27" fill="#D1D3D4" width="1" height="1"/>
	<rect x="19.453" y="27" fill="#D1D3D4" width="1" height="1"/>
	<rect x="21.453" y="27" fill="#D1D3D4" width="1" height="1"/>
	<rect x="23.453" y="27" fill="#D1D3D4" width="1" height="1"/>
	<rect x="25.453" y="27" fill="#D1D3D4" width="1" height="1"/>
	<rect x="1.453" y="3" fill="#D1D3D4" width="1" height="1"/>
	<rect x="27.453" y="3" fill="#D1D3D4" width="1" height="1"/>
	<rect x="1.453" y="5" fill="#D1D3D4" width="1" height="1"/>
	<rect x="27.453" y="5" fill="#D1D3D4" width="1" height="1"/>
	<rect x="1.453" y="7" fill="#D1D3D4" width="1" height="1"/>
	<rect x="27.453" y="7" fill="#D1D3D4" width="1" height="1"/>
	<rect x="1.453" y="9" fill="#D1D3D4" width="1" height="1"/>
	<rect x="27.453" y="9" fill="#D1D3D4" width="1" height="1"/>
	<rect x="1.453" y="11" fill="#D1D3D4" width="1" height="1"/>
	<rect x="27.453" y="11" fill="#D1D3D4" width="1" height="1"/>
	<rect x="1.453" y="13" fill="#D1D3D4" width="1" height="1"/>
	<rect x="27.453" y="13" fill="#D1D3D4" width="1" height="1"/>
	<rect x="1.453" y="15" fill="#D1D3D4" width="1" height="1"/>
	<rect x="27.453" y="15" fill="#D1D3D4" width="1" height="1"/>
	<rect x="1.453" y="17" fill="#D1D3D4" width="1" height="1"/>
	<rect x="27.453" y="17" fill="#D1D3D4" width="1" height="1"/>
	<rect x="1.453" y="19" fill="#D1D3D4" width="1" height="1"/>
	<rect x="27.453" y="19" fill="#D1D3D4" width="1" height="1"/>
	<rect x="1.453" y="21" fill="#D1D3D4" width="1" height="1"/>
	<rect x="27.453" y="21" fill="#D1D3D4" width="1" height="1"/>
	<rect x="1.453" y="23" fill="#D1D3D4" width="1" height="1"/>
	<rect x="27.453" y="23" fill="#D1D3D4" width="1" height="1"/>
	<rect x="1.453" y="25" fill="#D1D3D4" width="1" height="1"/>
	<rect x="27.453" y="25" fill="#D1D3D4" width="1" height="1"/>
</g>
</svg>
