<?xml version="1.0" encoding="utf-8"?>
<!-- Generator: Adobe Illustrator 16.0.0, SVG Export Plug-In . SVG Version: 6.00 Build 0)  -->
<!DOCTYPE svg PUBLIC "-//W3C//DTD SVG 1.1//EN" "http://www.w3.org/Graphics/SVG/1.1/DTD/svg11.dtd">
<svg version="1.1" id="Layer_1" xmlns="http://www.w3.org/2000/svg" xmlns:xlink="http://www.w3.org/1999/xlink" x="0px" y="0px"
	 width="30px" height="30px" viewBox="0 0 30 30" enable-background="new 0 0 30 30" xml:space="preserve">
<path fill="#D1D3D4" d="M25.043,1H5.104c-1.928,0-3.5,1.57-3.5,3.5V10v14.5c0,1.931,1.619,3.454,3.547,3.454H25.09
	c1.93,0,3.312-1.645,3.312-3.575v-14.5v-5.5C28.402,2.449,26.973,1,25.043,1 M2.511,4.5c0-1.379,1.217-2.5,2.594-2.5h19.938
	c1.379,0,2.5,1.121,2.5,2.5V10H2.511V4.5z M25.043,27H5.104c-1.377,0-2.594-1.121-2.594-2.5V10.906h25.032V24.5
	C27.543,25.879,26.422,27,25.043,27"/>
<path fill="#D1D3D4" d="M24.533,5h-7c-0.551,0-1,0.448-1,1c0,0.553,0.45,1,1.001,1h7c0.552,0,1-0.447,1-1
	C25.534,5.448,25.085,5,24.533,5z"/>
<path fill="#D1D3D4" d="M12.533,5h-7c-0.551,0-1,0.448-1,1c0,0.553,0.45,1,1.001,1h7c0.552,0,1-0.447,1-1
	C13.534,5.448,13.085,5,12.533,5z"/>
</svg>
