<?xml version="1.0" encoding="utf-8"?>
<!-- Generator: Adobe Illustrator 16.0.0, SVG Export Plug-In . SVG Version: 6.00 Build 0)  -->
<!DOCTYPE svg PUBLIC "-//W3C//DTD SVG 1.1//EN" "http://www.w3.org/Graphics/SVG/1.1/DTD/svg11.dtd">
<svg version="1.1" id="Layer_1" xmlns="http://www.w3.org/2000/svg" xmlns:xlink="http://www.w3.org/1999/xlink" x="0px" y="0px"
	 width="30px" height="30px" viewBox="0 0 30 30" enable-background="new 0 0 30 30" xml:space="preserve">
<path fill="#D1D3D4" d="M24.5,28h-20c-1.93,0-3.354-1.568-3.354-3.5v-20C1.146,2.57,2.57,1,4.5,1h20c1.93,0,3.521,1.603,3.521,3.532
	v20.001C28.021,26.465,26.43,28,24.5,28 M4.5,2C3.121,2,2.146,3.123,2.146,4.5v20c0,1.379,0.975,2.5,2.354,2.5h20
	c1.379,0,2.715-1.088,2.715-2.467V4.532C27.215,3.155,25.879,2,24.5,2H4.5z"/>
<path fill="#D1D3D4" d="M22.64,4.167h-16c-0.826,0-1.444,0.462-1.444,1.301L5.187,6.473c0,0.839,0.674,1.522,1.5,1.522h16
	c0.828,0,1.5-0.683,1.5-1.522l0.009-1.006C24.195,4.628,23.468,4.167,22.64,4.167z"/>
<path fill="#D1D3D4" d="M22.654,21.002h-16c-0.826,0-1.468,0.64-1.468,1.467v1c0,0.827,0.674,1.5,1.5,1.5h16
	c0.828,0,1.5-0.673,1.5-1.5v-1C24.187,21.642,23.482,21.002,22.654,21.002z"/>
<path fill="#D1D3D4" d="M22.68,11.933c0.275,0,0.476,0.199,0.476,0.475l0.014,4.234c0,0.275-0.2,0.525-0.476,0.525h-16
	c-0.275,0-0.5-0.225-0.5-0.5L6.18,12.433c0-0.276,0.225-0.5,0.5-0.5H22.68 M22.68,11.067h-16c-0.826,0-1.5,0.673-1.5,1.5
	l0.014,3.917c0,0.827,0.674,1.5,1.5,1.5h16c0.828,0,1.455-0.719,1.455-1.546l-0.014-3.917C24.135,11.694,23.508,11.067,22.68,11.067
	L22.68,11.067z"/>
</svg>
