<?xml version="1.0" encoding="utf-8"?>
<!-- Generator: Adobe Illustrator 16.0.0, SVG Export Plug-In . SVG Version: 6.00 Build 0)  -->
<!DOCTYPE svg PUBLIC "-//W3C//DTD SVG 1.1//EN" "http://www.w3.org/Graphics/SVG/1.1/DTD/svg11.dtd">
<svg version="1.1" id="Layer_1" xmlns="http://www.w3.org/2000/svg" xmlns:xlink="http://www.w3.org/1999/xlink" x="0px" y="0px"
	 width="30px" height="30px" viewBox="0 0 30 30" enable-background="new 0 0 30 30" xml:space="preserve">
<path fill="#D1D3D4" d="M24.258,15.005c-0.002-0.02-0.008-0.036-0.014-0.056c-0.007-0.025-0.001-0.056-0.019-0.073l-0.05-0.05
	c-0.005-0.006-0.005-0.012-0.01-0.018c-0.006-0.005-0.012-0.005-0.018-0.01l-1.779-1.779c-0.072-0.073-0.219-0.046-0.324,0.061
	c-0.107,0.106-0.135,0.252-0.061,0.325l1.599,1.6l-1.599,1.6c-0.074,0.073-0.047,0.219,0.061,0.325
	c0.105,0.106,0.252,0.134,0.324,0.061l1.779-1.779c0.006-0.005,0.012-0.004,0.018-0.01c0.005-0.005,0.005-0.012,0.01-0.018
	l0.05-0.05c0.018-0.018,0.012-0.048,0.019-0.073C24.25,15.041,24.256,15.024,24.258,15.005z"/>
<path fill="#D1D3D4" d="M25.911,11c0.553,0,1,0.448,1,1v6c0,0.553-0.447,1.001-1,1.001h-22c-0.552,0-1-0.448-1-1.001v-6
	c0-0.552,0.448-1,1-1H25.911 M25.911,10h-22c-1.103,0-2,0.897-2,2v6c0,1.104,0.897,1.833,2,1.833h22c1.103,0,2-0.729,2-1.833v-6
	C27.911,10.897,27.014,10,25.911,10"/>
</svg>
