<?xml version="1.0" encoding="UTF-8" standalone="no"?>
<svg width="17px" height="17px" viewBox="0 0 17 17" version="1.1" xmlns="http://www.w3.org/2000/svg" xmlns:xlink="http://www.w3.org/1999/xlink" xmlns:sketch="http://www.bohemiancoding.com/sketch/ns">
    <!-- Generator: Sketch 3.2.2 (9983) - http://www.bohemiancoding.com/sketch -->
    <title>search 2 + Rectangle 75</title>
    <desc>Created with Sketch.</desc>
    <defs></defs>
    <g id="Page-1" stroke="none" stroke-width="1" fill="none" fill-rule="evenodd" sketch:type="MSPage">
        <g id="UI-TOOLKIT" sketch:type="MSArtboardGroup" transform="translate(-873.000000, -2371.000000)" fill="#132232">
            <g id="UI-Bar-2" sketch:type="MSLayerGroup" transform="translate(74.000000, 2243.000000)">
                <g id="CREATE-POP" transform="translate(787.000000, 31.000000)" sketch:type="MSShapeGroup">
                    <g id="search-2-+-Rectangle-75" transform="translate(12.000000, 97.000000)">
                        <path d="M7,14 C10.8659932,14 14,10.8659932 14,7 C14,3.13400675 10.8659932,0 7,0 C3.13400675,0 0,3.13400675 0,7 C0,10.8659932 3.13400675,14 7,14 Z M7,11.7894737 C9.64515328,11.7894737 11.7894737,9.64515328 11.7894737,7 C11.7894737,4.35484672 9.64515328,2.21052632 7,2.21052632 C4.35484672,2.21052632 2.21052632,4.35484672 2.21052632,7 C2.21052632,9.64515328 4.35484672,11.7894737 7,11.7894737 Z" id="search-2"></path>
                        <rect id="Rectangle-75" transform="translate(13.537151, 13.462849) rotate(-315.000000) translate(-13.537151, -13.462849) " x="9.92027192" y="12.1825194" width="7.23375721" height="2.56066017"></rect>
                    </g>
                </g>
            </g>
        </g>
    </g>
</svg>