<?xml version="1.0" encoding="utf-8"?>
<!-- Generator: Adobe Illustrator 16.0.0, SVG Export Plug-In . SVG Version: 6.00 Build 0)  -->
<!DOCTYPE svg PUBLIC "-//W3C//DTD SVG 1.0//EN" "http://www.w3.org/TR/2001/REC-SVG-20010904/DTD/svg10.dtd">
<svg version="1.0" id="Layer_1" xmlns:sketch="http://www.bohemiancoding.com/sketch/ns"
	 xmlns="http://www.w3.org/2000/svg" xmlns:xlink="http://www.w3.org/1999/xlink" x="0px" y="0px" width="15px" height="23px"
	 viewBox="0 0 15 23" enable-background="new 0 0 15 23" xml:space="preserve">
<title>Imported Layers</title>
<desc>Created with Sketch.</desc>
<g id="Page-1" sketch:type="MSPage">
	<path id="Imported-Layers" sketch:type="MSShapeGroup" d="M14.132,3.563c0-0.153-0.059-0.285-0.175-0.396S13.702,3,13.543,3H1.495
		C1.336,3,1.197,3.056,1.081,3.167C0.965,3.278,0.906,3.41,0.906,3.563v13.875c0,0.152,0.059,0.285,0.175,0.396
		C1.197,17.943,1.336,18,1.495,18h12.048c0.159,0,0.298-0.057,0.414-0.167s0.175-0.243,0.175-0.396V3.563L14.132,3.563z M8.955,20.5
		c0-0.406-0.148-0.758-0.445-1.055S7.861,19,7.455,19c-0.406,0-0.758,0.148-1.054,0.445c-0.297,0.297-0.446,0.648-0.446,1.055
		s0.149,0.758,0.446,1.055C6.697,21.852,7.049,22,7.455,22c0.406,0,0.758-0.148,1.055-0.445S8.955,20.906,8.955,20.5L8.955,20.5z
		 M14.924,20.104c0,0.787-0.253,1.461-0.812,2.021c-0.561,0.561-1.442,0.841-2.229,0.841L2.861,23c-0.787,0-1.46-0.279-2.021-0.841
		C0.28,21.598,0,20.924,0,20.137V2.863c0-0.787,0.28-1.461,0.84-2.022C1.401,0.28,2.074,0,2.861,0h9.213
		c0.787,0,1.406,0.28,1.966,0.841s0.84,1.235,0.84,2.022L14.924,20.104L14.924,20.104z"/>
</g>
</svg>
