<?xml version="1.0" encoding="utf-8"?>
<!-- Generator: Adobe Illustrator 16.0.0, SVG Export Plug-In . SVG Version: 6.00 Build 0)  -->
<!DOCTYPE svg PUBLIC "-//W3C//DTD SVG 1.0//EN" "http://www.w3.org/TR/2001/REC-SVG-20010904/DTD/svg10.dtd">
<svg version="1.0" id="Layer_1" xmlns:sketch="http://www.bohemiancoding.com/sketch/ns"
	 xmlns="http://www.w3.org/2000/svg" xmlns:xlink="http://www.w3.org/1999/xlink" x="0px" y="0px" width="30px" height="27px"
	 viewBox="0 0 30 27" enable-background="new 0 0 30 27" xml:space="preserve">
<title>Imported Layers</title>
<desc>Created with Sketch.</desc>
<g id="Page-1" sketch:type="MSPage">
	<path id="Imported-Layers" sketch:type="MSShapeGroup" d="M28,2.597c0-0.173-0.057-0.322-0.172-0.449
		c-0.113-0.126-0.249-0.19-0.405-0.19H2.577c-0.156,0-0.292,0.064-0.405,0.19C2.057,2.275,2,2.424,2,2.597v15.736
		c0,0.173,0.057,0.323,0.172,0.449c0.113,0.126,0.249,0.19,0.405,0.19h24.846c0.156,0,0.292-0.064,0.405-0.19
		C27.943,18.656,28,18.506,28,18.333V2.597L28,2.597z M30,20.061c0,0.789-0.281,1.463-0.842,2.023
		c-0.561,0.562-1.236,0.842-2.025,0.842l-9.175-0.029c0,0.441,0.097,0.603,0.286,1.086c0.191,0.484,0.383,0.607,0.574,0.971
		c0.191,0.365,0.302,0.609,0.302,0.764c0,0.311-0.129,0.596-0.356,0.822c-0.227,0.227-0.494,0.34-0.806,0.34l-5.899,0.03
		c-0.311,0-0.579-0.113-0.806-0.339c-0.228-0.229-0.341-0.496-0.341-0.807c0-0.168,0.095-0.431,0.286-0.789
		c0.192-0.357,0.383-0.475,0.575-0.951c0.19-0.479,0.286-0.644,0.286-1.098H2.867c-0.789,0-1.464-0.279-2.025-0.842
		C0.281,21.523,0,20.85,0,20.061V2.865c0-0.788,0.281-1.462,0.842-2.023C1.403,0.28,2.078,0,2.867,0h24.266
		c0.789,0,1.465,0.28,2.025,0.842C29.719,1.403,30,2.077,30,2.865V20.061L30,20.061z"/>
</g>
</svg>
