<svg width="381" height="332" viewBox="0 0 381 332" xmlns="http://www.w3.org/2000/svg" xmlns:xlink="http://www.w3.org/1999/xlink"><svg width="21" height="21" viewBox="-1 -1 21 21" x="295" y="162.33"><title>Delete_Drk_Nmrl_sml</title><g fill="none" fill-rule="evenodd"><circle stroke="#2C3E50" stroke-width="2" fill="#E74C3C" cx="9.5" cy="9.5" r="9.5"/><path d="M6 11.04l1.96-2-1.96-2L7.092 6l1.923 1.968L10.945 6l1.092 1.04-1.962 2 1.962 2-1.092 1.04-1.93-1.96-1.923 1.96L6 11.04z" fill="#FFF"/></g></svg><svg width="21" height="21" viewBox="-1 -1 21 21" x="349" y="233"><title>Delete_Drk_Nmrl_sml</title><g fill="none" fill-rule="evenodd"><path d="M9.5 19c5.247 0 9.5-4.253 9.5-9.5S14.747 0 9.5 0 0 4.253 0 9.5 4.253 19 9.5 19z" stroke="#C0392B" stroke-width="2" fill="#132232"/><path d="M6 11.04l1.96-2-1.96-2L7.092 6l1.923 1.968L10.945 6l1.092 1.04-1.962 2 1.962 2-1.092 1.04-1.93-1.96-1.923 1.96L6 11.04z" fill="#D0011B"/></g></svg><svg width="18" height="18" viewBox="-1 -1 18 18" x="297" y="144.33"><title>Delete_WhiteRed_Hover</title><g fill="none" fill-rule="evenodd"><path d="M8 16c4.418 0 8-3.582 8-8s-3.582-8-8-8-8 3.582-8 8 3.582 8 8 8z" fill="#FFF"/><path d="M5 10.04l1.96-2-1.96-2L6.092 5l1.923 1.968L9.945 5l1.092 1.04-1.962 2 1.962 2-1.092 1.04-1.93-1.96-1.923 1.96L5 10.04z" fill="#D0011B"/></g></svg><svg width="18" height="18" viewBox="-1 -1 18 18" x="280" y="216.33"><title>Delete_White_Normal</title><path d="M8 16c4.418 0 8-3.582 8-8s-3.582-8-8-8-8 3.582-8 8 3.582 8 8 8zm-3-5.96l1.96-2-1.96-2L6.092 5l1.923 1.968L9.945 5l1.092 1.04-1.962 2 1.962 2-1.092 1.04-1.93-1.96-1.923 1.96L5 10.04z" fill="#FFF" fill-rule="evenodd"/></svg><svg width="22" height="22" viewBox="-1 -1 40 40" x="349" y="211"><title>Checkbox</title><path d="M18.563.547c2.578 0 5.003.492 7.277 1.476 2.273.985 4.254 2.32 5.94 4.008 1.69 1.69 3.025 3.67 4.01 5.944.983 2.273 1.476 4.7 1.476 7.277 0 2.53-.493 4.923-1.477 7.173-.986 2.25-2.32 4.22-4.01 5.906-1.687 1.687-3.668 3.023-5.94 4.007-2.275.984-4.7 1.477-7.278 1.477-5.157 0-9.516-1.83-13.08-5.485C1.83 28.765 0 24.405 0 19.25c0-2.578.492-5.004 1.477-7.277C2.46 9.7 3.797 7.72 5.484 6.03 7.172 4.345 9.14 3.01 11.39 2.024 13.64 1.04 16.03.547 18.563.547zm9.914 10.687l-4.36-4.43L15.68 23.54l-7.102-5.696-2.25 4.5 11.04 11.04 11.11-22.15z" fill="#FFF" fill-rule="evenodd"/></svg><svg width="24" height="24" viewBox="-1 -1 24 24" x="349" y="187"><title>New Page</title><defs><filter x="-50%" y="-50%" width="200%" height="200%" filterUnits="objectBoundingBox" id="a"><feOffset dy="1" in="SourceAlpha" result="shadowOffsetOuter1"/><feGaussianBlur stdDeviation=".5" in="shadowOffsetOuter1" result="shadowBlurOuter1"/><feColorMatrix values="0 0 0 0 0 0 0 0 0 0 0 0 0 0 0 0 0 0 0.21 0" in="shadowBlurOuter1" result="shadowMatrixOuter1"/><feMerge><feMergeNode in="shadowMatrixOuter1"/><feMergeNode in="SourceGraphic"/></feMerge></filter></defs><g fill="none" fill-rule="evenodd"><circle fill="#007CC0" cx="11" cy="11" r="11"/><path d="M10 12H6v-2h4V6h2v4h4v2h-4v4h-2v-4z" fill="#FFF" filter="url(#a)"/></g></svg><svg width="24" height="12" viewBox="-1 -1 24 12" x="349" y="175"><title>links 2</title><defs><filter x="-50%" y="-50%" width="200%" height="200%" filterUnits="objectBoundingBox" id="b"><feOffset dy="1" in="SourceAlpha" result="shadowOffsetOuter1"/><feGaussianBlur stdDeviation=".5" in="shadowOffsetOuter1" result="shadowBlurOuter1"/><feColorMatrix values="0 0 0 0 0 0 0 0 0 0 0 0 0 0 0 0 0 0 0.21 0" in="shadowBlurOuter1" result="shadowMatrixOuter1"/><feMerge><feMergeNode in="shadowMatrixOuter1"/><feMergeNode in="SourceGraphic"/></feMerge></filter></defs><path d="M162.198 565.735c-.465-1.314-.13-2.888.978-3.998l1.556-1.555c1.504-1.504 3.863-1.583 5.27-.177 1.405 1.406 1.326 3.765-.178 5.268l-1.556 1.556c-1.115 1.113-2.7 1.445-4.017.97l-.45.452c.47 1.317.137 2.897-.975 4.01l-1.556 1.555c-1.505 1.504-3.864 1.583-5.27.177-1.406-1.406-1.327-3.765.177-5.268l1.556-1.556c1.11-1.11 2.69-1.444 4.006-.974l.46-.46zm2.076-2.028c.084-.186.203-.36.357-.515l1.558-1.556c.644-.644 1.655-.678 2.258-.075.602.604.568 1.615-.076 2.26l-1.557 1.555c-.162.163-.348.287-.545.37.384-.566.33-1.34-.176-1.844-.492-.492-1.253-.555-1.818-.192zm-2.536 6.56c-.085.195-.208.38-.37.54l-1.555 1.557c-.644.644-1.655.678-2.258.075-.602-.604-.568-1.615.076-2.26l1.558-1.555c.16-.16.34-.282.534-.366-.362.563-.3 1.32.196 1.816.493.493 1.256.556 1.822.19z" transform="rotate(45 767.1 103.227)" filter="url(#b)" fill="#FFF" fill-rule="evenodd"/></svg><svg width="32" height="32" viewBox="-1 -1 32 32" x="261" y="184.33"><title>Oval 287 + links 9</title><defs><filter x="-50%" y="-50%" width="200%" height="200%" filterUnits="objectBoundingBox" id="c"><feOffset dy="2" in="SourceAlpha" result="shadowOffsetOuter1"/><feGaussianBlur stdDeviation="2" in="shadowOffsetOuter1" result="shadowBlurOuter1"/><feColorMatrix values="0 0 0 0 0 0 0 0 0 0 0 0 0 0 0 0 0 0 0.21 0" in="shadowBlurOuter1" result="shadowMatrixOuter1"/><feMerge><feMergeNode in="shadowMatrixOuter1"/><feMergeNode in="SourceGraphic"/></feMerge></filter></defs><g fill="#FFF" fill-rule="evenodd"><circle fill-opacity=".1" cx="15" cy="15" r="15"/><path d="M14.204 13.735c-.466-1.314-.13-2.888.978-3.998l1.555-1.555c1.504-1.504 3.863-1.583 5.27-.177 1.405 1.406 1.326 3.765-.178 5.268L20.27 14.83c-1.114 1.113-2.7 1.445-4.017.97l-.453.452c.47 1.317.14 2.897-.974 4.01l-1.557 1.555c-1.502 1.504-3.86 1.583-5.267.177-1.406-1.406-1.327-3.765.177-5.268l1.555-1.556c1.112-1.11 2.69-1.444 4.006-.974l.46-.46zm2.075-2.028c.082-.186.2-.36.355-.515l1.556-1.556c.646-.644 1.657-.678 2.26-.075.602.604.57 1.615-.077 2.26l-1.555 1.555c-.164.163-.35.287-.546.37.384-.566.328-1.34-.176-1.844-.493-.492-1.254-.555-1.82-.192zm-2.538 6.56c-.084.195-.207.38-.37.54l-1.554 1.557c-.646.644-1.657.678-2.26.075-.602-.604-.568-1.615.076-2.26l1.556-1.555c.16-.16.342-.282.535-.366-.364.563-.302 1.32.194 1.816.494.493 1.257.556 1.822.19z" filter="url(#c)" transform="rotate(45 15.005 15)"/></g></svg><svg version="1" width="17" height="25" viewBox="-1 -1 17 25" x="349" y="126"><title>Imported Layers</title><path d="M14.132 3.563c0-.153-.06-.285-.175-.396S13.702 3 13.543 3H1.495c-.16 0-.298.056-.414.167-.114.11-.173.243-.173.396v13.875c0 .152.06.285.175.396.117.11.256.166.415.166h12.048c.16 0 .298-.057.414-.167s.174-.243.174-.396V3.563zM8.955 20.5c0-.406-.148-.758-.445-1.055S7.86 19 7.455 19c-.406 0-.758.148-1.054.445-.295.297-.444.648-.444 1.055s.15.758.446 1.055c.297.297.65.445 1.055.445.406 0 .758-.148 1.055-.445s.445-.65.445-1.055zm5.97-.396c0 .787-.254 1.46-.813 2.02-.56.562-1.442.842-2.23.842L2.862 23c-.787 0-1.46-.28-2.02-.84-.56-.562-.84-1.236-.84-2.023V2.863C0 2.076.28 1.403.84.84 1.4.28 2.074 0 2.86 0h9.214c.787 0 1.406.28 1.966.84s.84 1.236.84 2.023l.044 17.24z"/></svg><svg version="1" width="13" height="21" viewBox="-1 -1 13 21" x="366" y="126"><title>Imported Layers</title><path d="M10.06 3.625c0-.17-.065-.315-.196-.44C9.734 3.062 9.58 3 9.402 3h-7.84c-.178 0-.332.062-.46.185-.132.125-.196.27-.196.44v9.75c0 .17.064.314.195.44.13.124.285.185.463.185h7.84c.178 0 .332-.06.46-.186.132-.125.196-.27.196-.44v-9.75zM6.95 16.5c0-.406-.148-.758-.445-1.055C6.21 15.148 5.857 15 5.45 15c-.405 0-.757.148-1.054.445s-.445.65-.445 1.055.15.758.447 1.055.65.445 1.055.445c.407 0 .76-.148 1.055-.445.297-.297.446-.65.446-1.055zM4.448 1c-.275 0-.496.23-.496.5 0 .276.217.5.497.5h2.007c.273 0 .496-.23.496-.5 0-.276-.216-.5-.495-.5h-2.01zm6.535 15.7c0 .623-.205 1.16-.616 1.616-.41.457-.82.684-1.384.684h-7c-.563 0-.955-.227-1.366-.684C.207 17.86 0 17.323 0 16.7V2.3C0 1.677.205 1.138.616.683 1.026.228 1.42 0 1.982 0h7c.562 0 .973.228 1.384.683s.616.994.616 1.617v14.4z"/></svg><svg version="1" width="32" height="29" viewBox="-1 -1 32 29" x="64" y="236"><title>Imported Layers</title><path d="M28 2.597c0-.173-.057-.322-.172-.45-.113-.125-.25-.19-.405-.19H2.577c-.156 0-.292.065-.405.19-.115.128-.172.277-.172.45v15.736c0 .173.057.323.172.45.113.125.25.19.405.19h24.846c.156 0 .292-.065.405-.19.115-.127.172-.277.172-.45V2.597zm2 17.464c0 .79-.28 1.465-.842 2.025-.56.562-1.236.842-2.025.842l-9.175-.03c0 .442.097.604.286 1.087.19.484.383.607.574.97.19.366.302.61.302.765 0 .31-.13.595-.356.82-.227.228-.494.34-.806.34l-5.9.03c-.31 0-.578-.112-.805-.34-.228-.227-.34-.494-.34-.805 0-.168.094-.43.285-.79.192-.356.383-.474.575-.95.19-.48.286-.644.286-1.098H2.865c-.79 0-1.464-.28-2.025-.842C.283 21.525 0 20.85 0 20.06V2.866c0-.79.28-1.463.842-2.024C1.402.28 2.078 0 2.867 0h24.266c.79 0 1.465.28 2.025.842.56.56.842 1.235.842 2.023V20.06z"/></svg><svg width="19" height="19" viewBox="-1 -1 19 19" x="261" y="216.33"><title>watch</title><defs><filter x="-50%" y="-50%" width="200%" height="200%" filterUnits="objectBoundingBox" id="d"><feOffset dy="1" in="SourceAlpha" result="shadowOffsetOuter1"/><feGaussianBlur stdDeviation=".5" in="shadowOffsetOuter1" result="shadowBlurOuter1"/><feColorMatrix values="0 0 0 0 0 0 0 0 0 0 0 0 0 0 0 0 0 0 0.21 0" in="shadowBlurOuter1" result="shadowMatrixOuter1"/><feMerge><feMergeNode in="shadowMatrixOuter1"/><feMergeNode in="SourceGraphic"/></feMerge></filter></defs><path d="M36 48c-1.657 0-3 1.344-3 3v9c0 1.657 1.344 3 3 3h9c1.657 0 3-1.344 3-3v-9c0-1.657-1.344-3-3-3h-9zm.992 2c-1.1 0-1.992.9-1.992 1.992v7.016c0 1.1.9 1.992 1.992 1.992h7.016c1.1 0 1.992-.9 1.992-1.992v-7.016c0-1.1-.9-1.992-1.992-1.992h-7.016zM40 51v5h1v-5h-1zm1 4v1h2v-1h-2z" transform="translate(-32 -48)" filter="url(#d)" fill="#FFF" fill-rule="evenodd"/></svg><svg width="56" height="39" viewBox="-1 -1 56 39" x="261"><path fill="#2C3E4F" d="M3 35.5c-.827 0-1.5-.672-1.5-1.5V3c0-.827.673-1.5 1.5-1.5h48c.827 0 1.5.673 1.5 1.5v31c0 .828-.673 1.5-1.5 1.5H3z"/><path fill="#95A5A6" d="M51 2c.552 0 1 .45 1 1v31c0 .553-.448 1-1 1H3c-.55 0-1-.447-1-1V3c0-.55.45-1 1-1h48m0-1H3c-1.104 0-2 .896-2 2v31c0 1.105.896 2 2 2h48c1.105 0 2-.895 2-2V3c0-1.104-.895-2-2-2z"/><path fill="#95A5A6" d="M21 32.073l-8 .002v-8.002l2.594 2.592 7.072-7.072 2.814 2.814-7.074 7.072M40.076 12.668l-2.43-2.427-7.24 7.24-2.814-2.812 7.24-7.24-2.757-2.76h8"/></svg><svg width="56" height="39" viewBox="-1 -1 56 39" x="261" y="39"><path fill="#2C3E4F" d="M3 35.5c-.828 0-1.5-.674-1.5-1.5V3c0-.827.672-1.5 1.5-1.5h48c.827 0 1.5.673 1.5 1.5v31c0 .826-.673 1.5-1.5 1.5H3z"/><path fill="#95A5A6" d="M51 2c.552 0 1 .45 1 1v31c0 .55-.448 1-1 1H3c-.552 0-1-.45-1-1V3c0-.55.448-1 1-1h48m0-1H3c-1.104 0-2 .896-2 2v31c0 1.103.896 2 2 2h48c1.105 0 2-.897 2-2V3c0-1.104-.895-2-2-2z"/><path fill="#95A5A6" d="M24.055 20.523l-13.004.002v3.664l-5.656-5.654 5.658-5.66v3.67l13.005-.002M43.023 24.193v-3.67l-13.002.002v-3.978l13.004-.002.002-3.666 5.66 5.656"/></svg><svg width="41" height="19" viewBox="-1 -1 41 19" x="261" y="125.33"><title>87%</title><text transform="translate(-84.232 -6)" font-weight="260" font-family="Roboto" fill="#FFF" font-size="21.378" fill-rule="evenodd"><tspan x="84.521" y="22">87%</tspan></text></svg><svg width="32" height="32" viewBox="-1 -1 32 32" x="128" y="268"><path fill="#FFF" d="M27.125 5.64c0-.174-.057-.324-.172-.45-.113-.127-.25-.19-.405-.19H3.578c-.157 0-.292.063-.407.19-.112.126-.17.276-.17.45v13.777c0 .173.058.322.17.45.116.125.25.187.83.187h22.97c-.265 0-.13-.062-.016-.188.115-.127.172-.276.172-.45V5.64zm1.742 16.442c0 .788-.28 1.462-.842 2.023-.562.562-1.236.842-2.025.842l-7.188-.06c0 .44.097.603.285 1.087.19.483.385.606.574.97.193.366.288.626.288.78 0 .312-.112.578-.34.808-.23.227-.496.34-.808.34l-7.667.06c-.31 0-.58-.113-.806-.34s-.337-.497-.337-.81c0-.166.095-.43.287-.786.19-.358.382-.478.573-.953.19-.48.287-.644.287-1.097h-7.28c-.788 0-1.463-.28-2.024-.842C1.28 23.544 1 22.87 1 22.082V5.866c0-.788.28-1.463.842-2.024C2.402 3.282 3.08 3 3.867 3H26c.79 0 1.464.28 2.025.842.56.56.842 1.236.842 2.024v16.216z"/><defs><path id="e" d="M27.125 5.64c0-.174-.057-.324-.172-.45-.113-.127-.25-.19-.405-.19H3.578c-.157 0-.292.063-.407.19-.112.126-.17.276-.17.45v13.777c0 .173.058.322.17.45.116.125.25.187.83.187h22.97c-.265 0-.13-.062-.016-.188.115-.127.172-.276.172-.45V5.64zm1.742 16.442c0 .788-.28 1.462-.842 2.023-.562.562-1.236.842-2.025.842l-7.188-.06c0 .44.097.603.285 1.087.19.483.385.606.574.97.193.366.288.626.288.78 0 .312-.112.578-.34.808-.23.227-.496.34-.808.34l-7.667.06c-.31 0-.58-.113-.806-.34s-.337-.497-.337-.81c0-.166.095-.43.287-.786.19-.358.382-.478.573-.953.19-.48.287-.644.287-1.097h-7.28c-.788 0-1.463-.28-2.024-.842C1.28 23.544 1 22.87 1 22.082V5.866c0-.788.28-1.463.842-2.024C2.402 3.282 3.08 3 3.867 3H26c.79 0 1.464.28 2.025.842.56.56.842 1.236.842 2.024v16.216z"/></defs><clipPath id="f"><use xlink:href="#e" overflow="visible"/></clipPath><path clip-path="url(#f)" fill="#FFF" d="M-4-2h37.867v35.932H-4z"/></svg><svg width="32" height="32" viewBox="-1 -1 32 32" x="160" y="268"><path fill="#2C3E50" d="M27.125 4.64c0-.174-.057-.324-.172-.45-.113-.127-.25-.19-.405-.19H3.578c-.157 0-.292.063-.407.19-.112.126-.17.276-.17.45v13.777c0 .173.058.322.17.45.116.125.25.187.83.187h22.97c-.265 0-.13-.062-.016-.188.115-.127.172-.276.172-.45V4.64zm1.742 16.442c0 .788-.28 1.462-.842 2.023-.562.562-1.236.842-2.025.842l-7.188-.06c0 .44.097.603.285 1.087.19.483.385.606.574.97.193.366.288.626.288.78 0 .312-.112.578-.34.808-.23.227-.496.34-.808.34l-7.667.06c-.31 0-.58-.113-.806-.34s-.337-.497-.337-.81c0-.166.095-.43.287-.786.19-.358.382-.478.573-.953.19-.48.287-.644.287-1.097h-7.28c-.788 0-1.463-.28-2.024-.842C1.28 22.544 1 21.87 1 21.082V4.866c0-.788.28-1.463.842-2.024C2.402 2.282 3.08 2 3.867 2H26c.79 0 1.464.28 2.025.842.56.56.842 1.236.842 2.024v16.216z"/><defs><path id="g" d="M27.125 4.64c0-.174-.057-.324-.172-.45-.113-.127-.25-.19-.405-.19H3.578c-.157 0-.292.063-.407.19-.112.126-.17.276-.17.45v13.777c0 .173.058.322.17.45.116.125.25.187.83.187h22.97c-.265 0-.13-.062-.016-.188.115-.127.172-.276.172-.45V4.64zm1.742 16.442c0 .788-.28 1.462-.842 2.023-.562.562-1.236.842-2.025.842l-7.188-.06c0 .44.097.603.285 1.087.19.483.385.606.574.97.193.366.288.626.288.78 0 .312-.112.578-.34.808-.23.227-.496.34-.808.34l-7.667.06c-.31 0-.58-.113-.806-.34s-.337-.497-.337-.81c0-.166.095-.43.287-.786.19-.358.382-.478.573-.953.19-.48.287-.644.287-1.097h-7.28c-.788 0-1.463-.28-2.024-.842C1.28 22.544 1 21.87 1 21.082V4.866c0-.788.28-1.463.842-2.024C2.402 2.282 3.08 2 3.867 2H26c.79 0 1.464.28 2.025.842.56.56.842 1.236.842 2.024v16.216z"/></defs><use xlink:href="#g" overflow="visible" fill="#2C3E50"/><clipPath id="h"><use xlink:href="#g" overflow="visible"/></clipPath><path clip-path="url(#h)" fill="#2C3E50" d="M-4-3h37.867v35.932H-4z"/></svg><svg width="32" height="32" viewBox="-1 -1 32 32" x="192" y="268"><path fill-rule="evenodd" clip-rule="evenodd" fill="#FFF" d="M20 6.625c0-.17-.064-.315-.194-.44S19.52 6 19.346 6h-9.69c-.177 0-.332.062-.462.186S9 6.456 9 6.626v13.75c0 .17.064.315.194.438s.285.186.46.186h9.69c.177 0 .33-.062.46-.186s.196-.27.196-.44V6.624zM16 23.5c0-.406-.148-.758-.445-1.055S14.905 22 14.5 22s-.758.148-1.055.445S13 23.095 13 23.5s.148.758.445 1.055.65.445 1.055.445.758-.148 1.055-.445.445-.65.445-1.055zM13.495 4c-.273 0-.495.23-.495.5 0 .276.216.5.495.5h2.01c.273 0 .495-.23.495-.5 0-.276-.216-.5-.495-.5h-2.01zM21 23.7c0 .622-.205 1.16-.616 1.617-.41.455-.898.683-1.46.683h-8.848c-.562 0-1.05-.228-1.46-.683C8.206 24.86 8 24.322 8 23.7V5.3c0-.623.205-1.162.616-1.617S9.514 3 10.076 3h8.848c.562 0 1.05.228 1.46.683S21 4.677 21 5.3v18.4z"/></svg><svg width="32" height="32" viewBox="-1 -1 32 32" x="224" y="268"><path fill-rule="evenodd" clip-rule="evenodd" fill="#2C3E50" d="M20 6.625c0-.17-.064-.315-.194-.44S19.52 6 19.346 6h-9.69c-.177 0-.332.062-.462.186S9 6.456 9 6.626v13.75c0 .17.064.315.194.438s.285.186.46.186h9.69c.177 0 .33-.062.46-.186s.196-.27.196-.44V6.624zM16 23.5c0-.406-.148-.758-.445-1.055S14.905 22 14.5 22s-.758.148-1.055.445S13 23.095 13 23.5s.148.758.445 1.055.65.445 1.055.445.758-.148 1.055-.445.445-.65.445-1.055zM13.495 4c-.273 0-.495.23-.495.5 0 .276.216.5.495.5h2.01c.273 0 .495-.23.495-.5 0-.276-.216-.5-.495-.5h-2.01zM21 23.7c0 .622-.205 1.16-.616 1.617-.41.455-.898.683-1.46.683h-8.848c-.562 0-1.05-.228-1.46-.683C8.206 24.86 8 24.322 8 23.7V5.3c0-.623.205-1.162.616-1.617S9.514 3 10.076 3h8.848c.562 0 1.05.228 1.46.683S21 4.677 21 5.3v18.4z"/></svg><svg width="32" height="32" viewBox="-1 -1 32 32" x="256" y="268"><path fill="#FFF" d="M23.532 4.955c0-.152-.06-.285-.174-.396-.117-.11-.257-.168-.414-.168H7.03c-.158 0-.297.056-.413.166-.116.11-.175.243-.175.395v17c0 .152.06.284.175.397.116.11.255.166.414.166h15.915c.157 0 .297-.057.414-.168.113-.11.173-.242.173-.395v-17zm-6.498 19.938c0-.405-.147-.758-.444-1.055-.298-.297-.648-.445-1.056-.445s-.76.148-1.056.445c-.297.297-.445.648-.445 1.055 0 .407.148.758.445 1.056.297.295.65.442 1.056.442s.758-.147 1.056-.444c.297-.3.444-.65.444-1.057zm8.455-.364c0 .785-.28 1.46-.84 2.02s-1.595.842-2.38.842H7.392c-.787 0-1.46-.28-2.022-.843-.56-.56-.84-1.234-.84-2.02V4.254c0-.787.39-1.354.95-1.914.56-.56 1.233-.84 2.02-.84h15.28c.787 0 1.418.28 1.98.842.56.562.73 1.127.73 1.914V24.53z"/></svg><svg width="32" height="32" viewBox="-1 -1 32 32" x="317"><path fill="#2C3E50" d="M23.532 4.955c0-.152-.06-.285-.174-.396-.117-.11-.257-.168-.414-.168H7.03c-.158 0-.297.056-.413.166-.116.11-.175.243-.175.395v17c0 .152.06.284.175.397.116.11.255.166.414.166h15.915c.157 0 .297-.057.414-.168.113-.11.173-.242.173-.395v-17zm-6.498 19.938c0-.405-.147-.758-.444-1.055-.298-.297-.648-.445-1.056-.445s-.76.148-1.056.445c-.297.297-.445.648-.445 1.055 0 .407.148.758.445 1.056.297.295.65.442 1.056.442s.758-.147 1.056-.444c.297-.3.444-.65.444-1.057zm8.455-.364c0 .785-.28 1.46-.84 2.02s-1.595.842-2.38.842H7.392c-.787 0-1.46-.28-2.022-.843-.56-.56-.84-1.234-.84-2.02V4.254c0-.787.39-1.354.95-1.914.56-.56 1.233-.84 2.02-.84h15.28c.787 0 1.418.28 1.98.842.56.562.73 1.127.73 1.914V24.53z"/></svg><svg width="32" height="32" viewBox="-1 -1 32 32" x="317" y="32"><path fill-rule="evenodd" clip-rule="evenodd" fill="#FFF" d="M13.438 18.372c.467.38.987.647 1.56.802l.012.75c.027 1.498-.42 2.72-1.343 3.662-.923.942-2.128 1.414-3.615 1.414-.85 0-1.604-.164-2.26-.49s-1.185-.776-1.583-1.346c-.4-.57-.698-1.214-.9-1.932s-.3-1.492-.3-2.322c.048.035.19.14.425.316s.45.333.643.47c.192.138.396.266.61.386.215.12.375.18.478.18.284 0 .474-.13.57-.39.174-.466.373-.86.597-1.19s.465-.594.72-.802c.257-.207.562-.374.914-.5s.707-.217 1.067-.27c.36-.054.792-.09 1.296-.11.27.535.64.992 1.105 1.372zM24.525 5.408c.31.27.463.612.463 1.022 0 .368-.13.81-.396 1.325-1.957 3.68-6.156 8.726-6.94 9.445-.572.533-1.214.8-1.927.8-.743 0-1.38-.27-1.914-.812s-.8-1.184-.8-1.927c0-.747.273-1.367.815-1.86l8.47-7.926c.347-.315.73-.473 1.147-.473.415 0 .775.137 1.085.41z"/></svg><svg width="24" height="24" viewBox="-1 -1 24 24" x="349" y="151"><title>LightZ</title><defs><filter x="-50%" y="-50%" width="200%" height="200%" filterUnits="objectBoundingBox" id="i"><feOffset in="SourceAlpha" result="shadowOffsetOuter1"/><feGaussianBlur stdDeviation=".5" in="shadowOffsetOuter1" result="shadowBlurOuter1"/><feColorMatrix values="0 0 0 0 0 0 0 0 0 0 0 0 0 0 0 0 0 0 0.35 0" in="shadowBlurOuter1" result="shadowMatrixOuter1"/><feMerge><feMergeNode in="shadowMatrixOuter1"/><feMergeNode in="SourceGraphic"/></feMerge></filter><filter x="-50%" y="-50%" width="200%" height="200%" filterUnits="objectBoundingBox" id="j"><feOffset in="SourceAlpha" result="shadowOffsetOuter1"/><feGaussianBlur stdDeviation="1" in="shadowOffsetOuter1" result="shadowBlurOuter1"/><feColorMatrix values="0 0 0 0 0 0 0 0 0 0 0 0 0 0 0 0 0 0 0.35 0" in="shadowBlurOuter1" result="shadowMatrixOuter1"/><feMerge><feMergeNode in="shadowMatrixOuter1"/><feMergeNode in="SourceGraphic"/></feMerge></filter></defs><g transform="translate(1 1)" stroke="#FFF" fill="none" fill-rule="evenodd"><circle stroke-width="2" filter="url(#i)" cx="10" cy="10" r="10"/><path d="M8.338 4h2.87L9.904 7.545l3.44-.887-4.618 9.857 1.847-7.14-3.774.953L8.336 4z" stroke-linejoin="round" fill="#FFF" filter="url(#j)"/></g></svg><svg width="32" height="32" viewBox="-1 -1 32 32" x="317" y="96"><path fill-rule="evenodd" clip-rule="evenodd" fill="#355168" d="M13.438 18.372c.467.38.987.647 1.56.802l.012.75c.027 1.498-.42 2.72-1.343 3.662-.923.942-2.128 1.414-3.615 1.414-.85 0-1.604-.164-2.26-.49s-1.185-.776-1.583-1.346c-.4-.57-.698-1.214-.9-1.932s-.3-1.492-.3-2.322c.048.035.19.14.425.316s.45.333.643.47c.192.138.396.266.61.386.215.12.375.18.478.18.284 0 .474-.13.57-.39.174-.466.373-.86.597-1.19s.465-.594.72-.802c.257-.207.562-.374.914-.5s.707-.217 1.067-.27c.36-.054.792-.09 1.296-.11.27.535.64.992 1.105 1.372zM24.525 5.408c.31.27.463.612.463 1.022 0 .368-.13.81-.396 1.325-1.957 3.68-6.156 8.726-6.94 9.445-.572.533-1.214.8-1.927.8-.743 0-1.38-.27-1.914-.812s-.8-1.184-.8-1.927c0-.747.273-1.367.815-1.86l8.47-7.926c.347-.315.73-.473 1.147-.473.415 0 .775.137 1.085.41z"/></svg><svg width="32" height="32" viewBox="-1 -1 32 32" x="317" y="128"><path fill="#FFF" d="M15 5c-4.97 0-9 1.348-9 3v1.5c0 1.652 4.03 3 9 3s9-1.348 9-3V8c0-1.652-4.03-3-9-3zm0 13.5c-3.527 0-7.066-.633-9-1.992V18.5c0 1.652 4.03 3 9 3s9-1.348 9-3v-1.992c-1.934 1.36-5.473 1.992-9 1.992zm0 4.5c-3.527 0-7.066-.633-9-1.992V23c0 1.652 4.03 3 9 3s9-1.348 9-3v-1.992C22.066 22.368 18.527 23 15 23zm0-9c-3.527 0-7.066-.633-9-1.992V14c0 1.652 4.03 3 9 3s9-1.348 9-3v-1.992C22.066 13.368 18.527 14 15 14z"/><path fill="#FFF" d="M15 5c-4.97 0-9 1.348-9 3v1.5c0 1.652 4.03 3 9 3s9-1.348 9-3V8c0-1.652-4.03-3-9-3zm0 13.5c-3.527 0-7.066-.633-9-1.992V18.5c0 1.652 4.03 3 9 3s9-1.348 9-3v-1.992c-1.934 1.36-5.473 1.992-9 1.992zm0 4.5c-3.527 0-7.066-.633-9-1.992V23c0 1.652 4.03 3 9 3s9-1.348 9-3v-1.992C22.066 22.368 18.527 23 15 23zm0-9c-3.527 0-7.066-.633-9-1.992V14c0 1.652 4.03 3 9 3s9-1.348 9-3v-1.992C22.066 13.368 18.527 14 15 14z"/><path fill="#FFF" d="M15 5c-4.97 0-9 1.348-9 3v1.5c0 1.652 4.03 3 9 3s9-1.348 9-3V8c0-1.652-4.03-3-9-3zm0 13.5c-3.527 0-7.066-.633-9-1.992V18.5c0 1.652 4.03 3 9 3s9-1.348 9-3v-1.992c-1.934 1.36-5.473 1.992-9 1.992zm0 4.5c-3.527 0-7.066-.633-9-1.992V23c0 1.652 4.03 3 9 3s9-1.348 9-3v-1.992C22.066 22.368 18.527 23 15 23zm0-9c-3.527 0-7.066-.633-9-1.992V14c0 1.652 4.03 3 9 3s9-1.348 9-3v-1.992C22.066 13.368 18.527 14 15 14z"/></svg><svg width="32" height="32" viewBox="-1 -1 32 32" x="317" y="160"><path fill="#2C3E50" d="M15 5c-4.97 0-9 1.348-9 3v1.5c0 1.652 4.03 3 9 3s9-1.348 9-3V8c0-1.652-4.03-3-9-3zm0 13.5c-3.527 0-7.066-.633-9-1.992V18.5c0 1.652 4.03 3 9 3s9-1.348 9-3v-1.992c-1.934 1.36-5.473 1.992-9 1.992zm0 4.5c-3.527 0-7.066-.633-9-1.992V23c0 1.652 4.03 3 9 3s9-1.348 9-3v-1.992C22.066 22.368 18.527 23 15 23zm0-9c-3.527 0-7.066-.633-9-1.992V14c0 1.652 4.03 3 9 3s9-1.348 9-3v-1.992C22.066 13.368 18.527 14 15 14z"/><path fill="#2C3E50" d="M15 5c-4.97 0-9 1.348-9 3v1.5c0 1.652 4.03 3 9 3s9-1.348 9-3V8c0-1.652-4.03-3-9-3zm0 13.5c-3.527 0-7.066-.633-9-1.992V18.5c0 1.652 4.03 3 9 3s9-1.348 9-3v-1.992c-1.934 1.36-5.473 1.992-9 1.992zm0 4.5c-3.527 0-7.066-.633-9-1.992V23c0 1.652 4.03 3 9 3s9-1.348 9-3v-1.992C22.066 22.368 18.527 23 15 23zm0-9c-3.527 0-7.066-.633-9-1.992V14c0 1.652 4.03 3 9 3s9-1.348 9-3v-1.992C22.066 13.368 18.527 14 15 14z"/><path fill="#2C3E50" d="M15 5c-4.97 0-9 1.348-9 3v1.5c0 1.652 4.03 3 9 3s9-1.348 9-3V8c0-1.652-4.03-3-9-3zm0 13.5c-3.527 0-7.066-.633-9-1.992V18.5c0 1.652 4.03 3 9 3s9-1.348 9-3v-1.992c-1.934 1.36-5.473 1.992-9 1.992zm0 4.5c-3.527 0-7.066-.633-9-1.992V23c0 1.652 4.03 3 9 3s9-1.348 9-3v-1.992C22.066 22.368 18.527 23 15 23zm0-9c-3.527 0-7.066-.633-9-1.992V14c0 1.652 4.03 3 9 3s9-1.348 9-3v-1.992C22.066 13.368 18.527 14 15 14z"/></svg><svg width="21" height="21" viewBox="-1 -1 21 21" x="349" y="296"><title>Triangle 1 + Rectangle 19 + Rectangle 19 + Rectangle 19</title><path d="M.377 18.933l.9-4.037 3.14 3.14M11.972 4.2l3.142 3.14-9.873 9.874-3.14-3.142 9.87-9.87zm6.556-.273l.275-.276-.275.277zm-.013-1.413L16.8.798c-.402-.4-1.034-.393-1.428 0l-2.577 2.578 3.14 3.14 2.593-2.59c.382-.383.38-1.018-.013-1.412z" fill="#FFF"/></svg><svg width="32" height="32" viewBox="-1 -1 32 32" x="317" y="224"><path fill-rule="evenodd" clip-rule="evenodd" fill="#FFF" d="M23 21v2h1c.553 0 1-.444 1-1v-1h-2zm0-3v2h2v-2h-2zm0-3v2h2v-2h-2zm0-3v2h2v-2h-2zm0-3v2h2V9h-2zm-3 12v2h2v-2h-2zm-3 0v2h2v-2h-2zm-3 0v2h2v-2h-2zm-3 0v2h2v-2h-2zm-3 0v2h2v-2H8zm-3 0v1c0 .553.444 1 1 1h1v-2H5zm0-3v2h2v-2H5zm0-3v2h2v-2H5zm0-3v2h2v-2H5zm0-3v2h2V9H5zm1-3c-.552 0-1 .443-1 1v1h2V6H6zm2 0v2h2V6H8zm3 0v2h2V6h-2zm3 0v2h2V6h-2zm3 0v2h2V6h-2zm3 0v2h2V6h-2zm3 0v2h2V7c0-.553-.444-1-1-1h-1z"/></svg><svg width="32" height="32" viewBox="-1 -1 32 32" x="317" y="256"><path fill-rule="evenodd" clip-rule="evenodd" fill="#2C3E50" d="M23 21v2h1c.553 0 1-.444 1-1v-1h-2zm0-3v2h2v-2h-2zm0-3v2h2v-2h-2zm0-3v2h2v-2h-2zm0-3v2h2V9h-2zm-3 12v2h2v-2h-2zm-3 0v2h2v-2h-2zm-3 0v2h2v-2h-2zm-3 0v2h2v-2h-2zm-3 0v2h2v-2H8zm-3 0v1c0 .553.444 1 1 1h1v-2H5zm0-3v2h2v-2H5zm0-3v2h2v-2H5zm0-3v2h2v-2H5zm0-3v2h2V9H5zm1-3c-.552 0-1 .443-1 1v1h2V6H6zm2 0v2h2V6H8zm3 0v2h2V6h-2zm3 0v2h2V6h-2zm3 0v2h2V6h-2zm3 0v2h2V6h-2zm3 0v2h2V7c0-.553-.444-1-1-1h-1z"/></svg><svg width="32" height="32" viewBox="-1 -1 32 32" y="300"><g fill-rule="evenodd" clip-rule="evenodd" fill="#FFF"><path d="M22.96 22.904c-1.145 0-2.074-.924-2.074-2.06 0-1.136.93-2.058 2.075-2.058 1.148 0 2.076.922 2.076 2.06 0 1.136-.93 2.058-2.074 2.058zm0-5.734c-2.046 0-3.704 1.646-3.704 3.674 0 2.03 3.705 7.06 3.705 7.06s3.706-5.028 3.706-7.06c0-2.028-1.657-3.674-3.704-3.674zm-11.49-1.41l-5.44-5.292v9.79m7.22-6.058l4.688-3.98.062-5.2H6.043L6 7.02"/><path d="M4.594 27.002S4 26.615 4 26.022V3.912c0-.59.594-.91.594-.91h13.422c.657 0 1.19.85 1.19 1.502v4.413h4.44c1.19 0 1.354.403 1.354 1.584v5.036c.498.258.474.317.86.715l.03-5.752c0-2.542-1.337-2.76-.876-2.44l-5.326-5.04S19.406 2 17.062 2H5.04c-.982 0-2.013.817-2.013 1.792v22.132c0 .973 1.117 2.014 2.098 2.014h15.27c-.27-.418-.638-.48-.915-.938l-14.886.002z"/><path d="M6.43 23.17v1.795h12.426c-.995-1.814-1.83-3.486-1.83-4.62 0-.942.26-1.847.708-2.605l-2.263-2.51-9.04 7.94zm14.377-12.702l-4.002 3.704 2.17 2.15c.878-.692 1.985-1.108 3.194-1.108.353 0 .7-.034.787.078V10.51l-2.15-.042z"/></g></svg><svg width="32" height="32" viewBox="-1 -1 32 32" x="32" y="300"><g fill-rule="evenodd" clip-rule="evenodd" fill="#2C3E50"><path d="M22.96 22.904c-1.145 0-2.074-.924-2.074-2.06 0-1.136.93-2.058 2.075-2.058 1.148 0 2.076.922 2.076 2.06 0 1.136-.93 2.058-2.074 2.058zm0-5.734c-2.046 0-3.704 1.646-3.704 3.674 0 2.03 3.705 7.06 3.705 7.06s3.706-5.028 3.706-7.06c0-2.028-1.657-3.674-3.704-3.674zm-11.49-1.41l-5.44-5.292v9.79m7.22-6.058l4.688-3.98.062-5.2H6.043L6 7.02"/><path d="M4.594 27.002S4 26.615 4 26.022V3.912c0-.59.594-.91.594-.91h13.422c.657 0 1.19.85 1.19 1.502v4.413h4.44c1.19 0 1.354.403 1.354 1.584v5.036c.498.258.474.317.86.715l.03-5.752c0-2.542-1.337-2.76-.876-2.44l-5.326-5.04S19.406 2 17.062 2H5.04c-.982 0-2.013.817-2.013 1.792v22.132c0 .973 1.117 2.014 2.098 2.014h15.27c-.27-.418-.638-.48-.915-.938l-14.886.002z"/><path d="M6.43 23.17v1.795h12.426c-.995-1.814-1.83-3.486-1.83-4.62 0-.942.26-1.847.708-2.605l-2.263-2.51-9.04 7.94zm14.377-12.702l-4.002 3.704 2.17 2.15c.878-.692 1.985-1.108 3.194-1.108.353 0 .7-.034.787.078V10.51l-2.15-.042z"/></g></svg><svg width="32" height="32" viewBox="-1 -1 32 32" x="64" y="300"><path fill="#FFF" d="M22 8.867v11.266c0 .482-.288.867-.646.867h-9.708c-.357 0-.645-.387-.645-.867V8.867c.003-.482.29-.867.647-.867h9.708c.358 0 .646.387.646.867zM5.002 21c0 1.104.892 2 1.998 2h15.007C23.11 23 24 22.11 24 21l-.002-13c0-1.104-.887-2-1.994-2H6.997C5.894 6 5 6.89 5 8l.002 13z"/></svg><svg width="32" height="32" viewBox="-1 -1 32 32" x="96" y="300"><path fill="#2C3E50" d="M22 8.867v11.266c0 .482-.288.867-.646.867h-9.708c-.357 0-.645-.387-.645-.867V8.867c.003-.482.29-.867.647-.867h9.708c.358 0 .646.387.646.867zM5.002 21c0 1.104.892 2 1.998 2h15.007C23.11 23 24 22.11 24 21l-.002-13c0-1.104-.887-2-1.994-2H6.997C5.894 6 5 6.89 5 8l.002 13z"/></svg><svg width="32" height="32" viewBox="-1 -1 32 32" x="128" y="300"><path fill="#FFF" d="M8.146 7.5h9.708c.356 0 .646.385.646.867v11.266c0 .48-.288.867-.646.867H8.146c-.358 0-.646-.385-.646-.867V8.367c0-.48.288-.867.646-.867zm16.354 0c0-1.11-.895-2-1.997-2H7.496c-1.107 0-1.994.896-1.994 2l-.002 13c0 1.11.89 2 1.993 2H22.5c1.105 0 1.998-.896 1.998-2l.002-13z"/></svg><svg width="32" height="32" viewBox="-1 -1 32 32" x="64" y="268"><path fill="#2C3E50" d="M8.146 7.5h9.708c.356 0 .645.385.646.867v11.266c0 .48-.288.867-.646.867H8.146c-.358 0-.646-.385-.646-.867V8.367c0-.48.288-.867.646-.867zm16.354 0c0-1.11-.895-2-1.997-2H7.496c-1.107 0-1.994.896-1.994 2l-.002 13c0 1.11.89 2 1.993 2H22.5c1.105 0 1.998-.896 1.998-2l.002-13z"/></svg><svg width="29" height="21" viewBox="-1 -1 29 21" x="349" y="32"><title>Imported Layers</title><g fill="#FFF" fill-rule="evenodd"><path d="M25.398 7.378c-1.767-2.14-3.8-3.993-6.332-5.296C17.32 1.18 15.583.712 13.59.732c-1.96.022-3.903.51-5.604 1.42C4.693 3.916 2.246 6.502.23 9.495c-.053.084-.037.264.02.354 1.785 2.655 3.95 4.97 6.733 6.712 1.994 1.247 4.162 2.01 5.787 2.02 2.856.01 4.774-.542 6.555-1.512 3.225-1.756 5.644-4.297 7.63-7.243l-1.557-2.45zM14.04 15.936C10.276 16.186 7.1 13.37 7 9.82c-.087-3.298 2.535-6.147 5.97-6.42 3.793-.304 6.933 2.285 7.214 5.856.266 3.4-2.5 6.438-6.142 6.68z"/><path d="M13.563 7.107c-1.368 0-2.528 1.18-2.535 2.573-.004 1.398 1.182 2.527 2.576 2.527 1.39 0 2.522-1.135 2.522-2.517.004-1.385-1.188-2.584-2.562-2.583"/></g></svg><svg width="26" height="23" viewBox="-1 -1 26 23" x="349" y="80"><title>book</title><path d="M22.99 6.513l-3.665 12.07c-.168.568-.508 1.344-1.02 1.73-.51.387-1.054.58-1.63.58H4.377c-.684 0-1.343-.536-1.978-1.01-.636-.477-1.078-1.06-1.327-1.753-.213-.595-.222-1.16-.027-1.692 0-.036.014-.156.04-.36.027-.204.045-.368.054-.493.01-.07-.004-.166-.04-.286-.035-.12-.048-.21-.04-.26.018-.1.054-.193.107-.28.054-.09.127-.195.22-.315s.167-.224.22-.313c.204-.337.404-.744.6-1.22.195-.474.328-.88.4-1.218.026-.09.028-.222.006-.4-.023-.177-.025-.3-.007-.373.027-.096.102-.22.227-.372.124-.152.2-.254.226-.307.184-.32.37-.727.56-1.225.184-.497.295-.897.33-1.2.01-.08-.002-.22-.033-.425-.03-.204-.03-.33.007-.373.035-.116.133-.252.293-.407.16-.156.258-.256.293-.3.17-.23.36-.606.567-1.126.21-.52.33-.948.367-1.285.01-.07-.005-.186-.04-.34-.036-.156-.045-.274-.027-.354.018-.072.058-.152.12-.24.062-.09.142-.192.24-.307.097-.117.173-.21.226-.28.07-.108.145-.243.22-.407.075-.165.136-.352.194-.5.057-.145.128-.405.213-.578.084-.174.17-.316.26-.427.088-.11.206-.215.353-.313.146-.098.306-.15.48-.153.172-.005.383.02.632.073.324-.04.55-.08.666-.08h10.14c.658 0 1.164.25 1.52.746.354.498.44 1.207.245 1.864l-3.65 12.07c-.32 1.056-.638 1.44-.953 1.746-.314.306-.885.46-1.71.46H2.99c-.24 0-.408.066-.506.2-.098.14-.102.332-.013.572.214.622.853 1.23 1.92 1.23h12.296c.258 0 .507-.068.747-.205.24-.138.395-.322.466-.553l3.995-13.15c.063-.195.085-.448.067-.76.338.135.6.326.786.574.354.507.434 1.08.24 1.72zM7.47 8.42c-.037.14-.028.263.025.367.054.103-3.553.084.267.155 3.82.07 8.1 0 8.1 0 .115 0 .228-.052.34-.155.11-.104.184-.226.22-.368l.28-.946c.034-.14.025-.264-.028-.367-.053-.104-.142-.156-.266-.156h-8.1c-.116 0-.23.053-.34.157-.11.103-.184.226-.22.367l-.28.944zm.993-3.98c-.035.142-.026.264.027.368.053.103.142.155.266.155h8.1c.116 0 .23-.052.34-.155.11-.104.184-.226.22-.368l.28-.943c.035-.142.026-.265-.027-.368-.055-.106-.144-.157-.27-.157H9.3c-.114 0-.227.05-.34.155-.11.102-.182.225-.22.367l-.28.943z" fill="#FFF" fill-rule="evenodd"/></svg><svg width="32" height="32" viewBox="-1 -1 32 32" x="256" y="300"><path fill="#FFF" d="M24 16.49h-2.975c-.074 2.098-.92 3.785-2.65 4.973-1.296.887-2.746 1.215-4.294.95-3.34-.574-5.52-3.565-4.99-6.853.547-3.396 3.585-5.145 5.92-5.024v2.972l6.005-4.505-5.995-4.496v2.978c-3.225.12-5.772 1.45-7.55 4.122-1.288 1.94-1.72 4.097-1.332 6.39.8 4.712 5.1 7.96 9.84 7.442 4.974-.543 8.086-4.763 8.022-8.95"/></svg><svg width="32" height="32" viewBox="-1 -1 32 32" x="288" y="300"><defs><path id="k" d="M24 16.49h-2.974c-.075 2.098-.92 3.785-2.652 4.973-1.295.887-2.745 1.215-4.293.95-3.34-.574-5.52-3.566-4.99-6.853.547-3.396 3.585-5.144 5.92-5.024v2.972l6.005-4.505-5.995-4.496v2.978c-3.225.12-5.772 1.45-7.55 4.122-1.288 1.94-1.72 4.097-1.332 6.39.8 4.712 5.1 7.96 9.84 7.443 4.974-.542 8.086-4.762 8.022-8.95"/></defs><use xlink:href="#k" overflow="visible" fill-rule="evenodd" clip-rule="evenodd" fill="#2C3E50"/></svg><svg width="32" height="32" viewBox="-1 -1 32 32" x="349"><defs><path id="l" d="M24.545 22.168c.49.777.584 1.445.283 2-.303.555-.918.832-1.845.832H7.017c-.928 0-1.542-.277-1.844-.832-.3-.555-.208-1.223.282-2l6.563-10.19V6.92h-1.165c-.228-.048-.425-.132-.59-.297-.166-.165-.25-.458-.25-.685 0-.228.083-.52.25-.687.166-.163.362-.247.59-.247h8.216c.227 0 .513.084.68.25.165.165.25.458.25.686 0 .226-.085.52-.25.685-.168.165-.454.25-.683.297h-1.094v5.06l6.57 10.188zM9.517 20.02h11.03L16.057 13V6.957h-2.122V13l-4.417 7.02z"/></defs><use xlink:href="#l" overflow="visible" fill-rule="evenodd" clip-rule="evenodd" fill="#FFF"/><clipPath id="m"><use xlink:href="#l" overflow="visible"/></clipPath><path clip-path="url(#m)" fill="#FFF" d="M0 0h30v30H0z"/></svg><svg width="32" height="32" viewBox="-1 -1 32 32" x="224" y="300"><defs><path id="n" d="M24.545 22.168c.49.777.584 1.445.283 2-.303.555-.918.832-1.845.832H7.017c-.928 0-1.542-.277-1.844-.832-.3-.555-.208-1.223.282-2l6.563-10.19V6.92h-1.165c-.228-.048-.425-.132-.59-.297-.166-.165-.25-.458-.25-.685 0-.228.083-.52.25-.687.166-.163.362-.247.59-.247h8.216c.227 0 .513.084.68.25.165.165.25.458.25.686 0 .226-.085.52-.25.685-.168.165-.454.25-.683.297h-1.094v5.06l6.57 10.188zM9.517 20.02h11.03L16.057 13V6.957h-2.122V13l-4.417 7.02z"/></defs><use xlink:href="#n" overflow="visible" fill-rule="evenodd" clip-rule="evenodd" fill="#2C3E50"/><clipPath id="o"><use xlink:href="#n" overflow="visible"/></clipPath><path clip-path="url(#o)" fill="#2C3E50" d="M0 0h30v30H0z"/></svg><svg width="32" height="32" viewBox="-1 -1 32 32" x="192" y="300"><path fill="#FFF" d="M6.99 6c-1.09 0-1.942.85-1.942 1.953L5 23h5v-2H7v-1h3v-2H7v-1h3v-2H7v-1h3v-2H7v-1h3V8h1v3h2V8h1v3h2V8h1v3h2V8h1v3h2V8h1v3h2V6H6.99z"/></svg><svg width="32" height="32" viewBox="-1 -1 32 32" x="160" y="300"><path fill="#2C3E50" d="M6.99 6c-1.09 0-1.942.85-1.942 1.953L5 23h5v-2H7v-1h3v-2H7v-1h3v-2H7v-1h3v-2H7v-1h3V8h1v3h2V8h1v3h2V8h1v3h2V8h1v3h2V8h1v3h2V6H6.99z"/></svg><svg width="32" height="32" viewBox="-1 -1 32 32" x="317" y="192"><path fill-rule="evenodd" clip-rule="evenodd" fill="#FFF" d="M3.58 25.404c.155-.9.278-1.807.474-2.697.628-2.857 1.646-5.562 3.3-7.997 2.438-3.59 6.135-5.61 10.334-6.656l.354-.087V4.535c2.883 2.872 5.497 5.82 8.38 8.69-2.844 2.835-5.4 5.634-8.343 8.566 0-1.14-.03-2.394-.03-3.537-3.56-.645-10.05.758-14.37 7.166l-.102-.015"/></svg><svg width="32" height="32" viewBox="-1 -1 32 32" x="317" y="64"><path fill-rule="evenodd" clip-rule="evenodd" fill="#2C3E50" d="M3.58 25.404c.155-.9.278-1.807.474-2.697.628-2.857 1.646-5.562 3.3-7.997 2.438-3.59 6.135-5.61 10.334-6.656l.354-.087V4.535c2.883 2.872 5.497 5.82 8.38 8.69-2.844 2.835-5.4 5.634-8.343 8.566 0-1.14-.03-2.394-.03-3.537-3.56-.645-10.05.758-14.37 7.166l-.102-.015"/></svg><svg width="32" height="32" viewBox="-1 -1 32 32" y="268"><defs><path id="p" d="M4.5 6.5h2v17h-2z"/></defs><use xlink:href="#p" overflow="visible" fill-rule="evenodd" clip-rule="evenodd" fill="#FFF"/><defs><path id="q" d="M8.54 6.5H19.5v6.95H8.54z"/></defs><use xlink:href="#q" overflow="visible" fill-rule="evenodd" clip-rule="evenodd" fill="#FFF"/><defs><path id="r" d="M8.54 16.55H25.5v6.95H8.54z"/></defs><use xlink:href="#r" overflow="visible" fill-rule="evenodd" clip-rule="evenodd" fill="#FFF"/></svg><svg width="32" height="32" viewBox="-1 -1 32 32" x="32" y="236"><defs><path id="s" d="M4.5 6.5h2v17h-2z"/></defs><use xlink:href="#s" overflow="visible" fill-rule="evenodd" clip-rule="evenodd" fill="#2C3E50"/><defs><path id="t" d="M8.54 6.5H19.5v6.95H8.54z"/></defs><use xlink:href="#t" overflow="visible" fill-rule="evenodd" clip-rule="evenodd" fill="#2C3E50"/><defs><path id="u" d="M8.54 16.55H25.5v6.95H8.54z"/></defs><use xlink:href="#u" overflow="visible" fill-rule="evenodd" clip-rule="evenodd" fill="#2C3E50"/></svg><svg width="26" height="23" viewBox="-1 -1 26 23" x="349" y="103"><title>camera</title><defs><filter x="-50%" y="-50%" width="200%" height="200%" filterUnits="objectBoundingBox" id="v"><feOffset dy="1" in="SourceAlpha" result="shadowOffsetOuter1"/><feGaussianBlur stdDeviation=".5" in="shadowOffsetOuter1" result="shadowBlurOuter1"/><feColorMatrix values="0 0 0 0 0 0 0 0 0 0 0 0 0 0 0 0 0 0 0.21 0" in="shadowBlurOuter1" result="shadowMatrixOuter1"/><feMerge><feMergeNode in="shadowMatrixOuter1"/><feMergeNode in="SourceGraphic"/></feMerge></filter></defs><path d="M1462.003 13c1.102 0 1.996.894 1.996 1.993v12.005c0 1.1-.89 1.993-1.99 1.993l-18.02.01c-1.1 0-1.99-.893-1.99-1.992V15.002c0-1.1.894-1.994 1.996-1.996L1447.8 13l.27-.676c.516-1.288 2.053-2.324 3.44-2.324h2.98c1.398 0 2.926 1.04 3.44 2.324l.27.676h3.803zM1453 27c3.314 0 6-2.686 6-6s-2.686-6-6-6-6 2.686-6 6 2.686 6 6 6zm0-2c2.21 0 4-1.79 4-4s-1.79-4-4-4-4 1.79-4 4 1.79 4 4 4z" transform="translate(-1441 -10)" filter="url(#v)" fill-rule="evenodd"/></svg><svg width="32" height="32" viewBox="-1 -1 32 32" y="236"><defs><path id="w" d="M6 16.49c-.064 4.188 3.05 8.408 8.023 8.95 4.74.516 9.042-2.732 9.84-7.445.388-2.292-.044-4.448-1.332-6.39-1.776-2.67-4.323-4-7.547-4.12v-2.98L8.987 9.004c1.997 1.498 3.975 2.98 6.006 4.505v-2.972c2.334-.12 5.372 1.63 5.92 5.024.53 3.286-1.653 6.278-4.993 6.852-1.548.266-2.998-.062-4.293-.95-1.733-1.187-2.577-2.874-2.652-4.972H6"/></defs><use xlink:href="#w" overflow="visible" fill-rule="evenodd" clip-rule="evenodd" fill="#FFF"/><defs><path id="x" d="M6 16.49h2.975c.075 2.098.92 3.785 2.652 4.973 1.295.887 2.745 1.215 4.293.95 3.34-.574 5.523-3.566 4.993-6.853-.548-3.396-3.586-5.144-5.92-5.024v2.972L8.987 9.003l5.995-4.496v2.978c3.224.12 5.77 1.45 7.55 4.122 1.287 1.94 1.72 4.097 1.33 6.39-.797 4.712-5.1 7.96-9.84 7.443-4.973-.542-8.086-4.762-8.02-8.95"/></defs><use xlink:href="#x" overflow="visible" fill-rule="evenodd" clip-rule="evenodd" fill="#FFF"/></svg><svg width="32" height="32" viewBox="-1 -1 32 32" x="96" y="268"><path fill="#2C3E50" d="M6 16.49c-.064 4.188 3.05 8.408 8.023 8.95 4.74.516 9.042-2.732 9.84-7.445.388-2.292-.045-4.448-1.332-6.39-1.776-2.67-4.323-4-7.547-4.12v-2.98L8.987 9.004c1.997 1.498 3.975 2.98 6.006 4.505v-2.972c2.334-.12 5.372 1.63 5.92 5.024.53 3.285-1.653 6.277-4.993 6.852-1.548.266-2.998-.062-4.293-.95-1.733-1.187-2.577-2.874-2.652-4.972H6"/><path fill="#2C3E50" d="M6 16.49h2.975c.075 2.098.92 3.785 2.652 4.973 1.295.887 2.745 1.215 4.293.95 3.34-.574 5.523-3.565 4.993-6.853-.548-3.396-3.586-5.145-5.92-5.024v2.972L8.987 9.003l5.995-4.496v2.978c3.224.12 5.77 1.45 7.55 4.122 1.286 1.94 1.72 4.097 1.33 6.39-.798 4.712-5.1 7.96-9.84 7.442-4.973-.543-8.086-4.763-8.02-8.95"/></svg><svg width="13.92" height="15.9" viewBox="-1 -1 13.92 15.9" x="302" y="125.33"><title>Imported Layers</title><path fill="#FFF" d="M11.126 5.966H9.893V3.86H9.89C9.875 1.705 8.25 0 6.083 0c-2.17 0-3.926 1.744-3.94 3.898h-.005v2.104H.79c-.436.003-.79.355-.79.788v6.3c0 .435.354.786.79.786l10.336.02c.437 0 .79-.353.79-.786V6.75c0-.433-.355-.784-.79-.784zM3.89 4.338l.003-.425c0-1.496.99-2.167 2.19-2.167 1.196 0 2.045.933 2.05 2.128l.006.34v1.752l-4.25.04v-1.67z"/></svg><svg width="13.92" height="15.9" viewBox="-1 -1 13.92 15.9" x="298" y="216.33"><title>Imported Layers</title><path fill="#FFF" d="M11.128 5.966l-7.238.04V4.338l.003-.426c0-1.496.99-2.167 2.19-2.167 1.196 0 2.045.933 2.05 2.128v.02H9.89V3.86C9.875 1.705 8.25 0 6.084 0 3.913 0 2.157 1.744 2.14 3.9h-.004v2.103H.79c-.436.002-.79.354-.79.787v6.3c0 .435.354.786.79.786l10.338.02c.436 0 .79-.353.79-.786V6.75c0-.433-.356-.784-.79-.784z"/></svg><svg width="34" height="22" viewBox="-1 -1 34 22" x="261" y="162.33"><title>Imported Layers</title><g fill="#FFF" fill-rule="evenodd"><path d="M13.223 5.98c.266.27.4.593.4.976 0 .382-.134.707-.4.974-.268.268-.593.4-.975.4-.383 0-.707-.132-.974-.4-.268-.267-.402-.592-.402-.974 0-.383.134-.707.402-.975.267-.265.59-.4.974-.4.382 0 .707.135.975.4M23 14.766H9.025V12.86L12.2 9.68l1.59 1.588 5.082-5.082L23 10.316v4.447z"/><path d="M2 2.765h28v15H2v-15zm-2 17h32v-19H0v19z"/></g></svg><svg width="46.33" height="47.33" viewBox="0 -4.33 46.33 47.33" x="261" y="78"><path fill="#FFF" d="M2.838 30.51V8.34c0-4.924 3.99-8.915 8.915-8.915h22.17c4.924 0 8.916 3.99 8.916 8.915v22.17c0 4.924-3.994 8.915-8.918 8.915h-22.17c-4.924 0-8.915-3.99-8.915-8.915zm5.455-17.087v-4.63c0-2.293 1.866-4.16 4.16-4.16h4.63c.7 0 1.267-.566 1.267-1.266S17.783 2.1 17.083 2.1h-4.63c-3.69 0-6.693 3.002-6.693 6.693v4.63c0 .7.567 1.266 1.267 1.266s1.266-.568 1.266-1.268z"/></svg><svg width="14" height="14" viewBox="-1 -1 14 14" x="363" y="317"><title>Imported Layers</title><path d="M12 .584H0L5.044 7.07l.44 4.346h.985L7.014 7.1 12 .585" fill="#B7C8D9" fill-rule="evenodd"/></svg><svg width="14" height="15" viewBox="-1 -1 14 15" x="349" y="317"><title></title><defs><filter x="-50%" y="-50%" width="200%" height="200%" filterUnits="objectBoundingBox" id="y"><feOffset dy="1" in="SourceAlpha" result="shadowOffsetOuter1"/><feGaussianBlur in="shadowOffsetOuter1" result="shadowBlurOuter1"/><feColorMatrix values="0 0 0 0 0 0 0 0 0 0 0 0 0 0 0 0 0 0 0.21 0" in="shadowBlurOuter1" result="shadowMatrixOuter1"/><feMerge><feMergeNode in="shadowMatrixOuter1"/><feMergeNode in="SourceGraphic"/></feMerge></filter></defs><path d="M229 15c0-.552-.195-1.023-.586-1.414-.39-.39-.862-.586-1.414-.586-.552 0-1.023.195-1.414.586-.39.39-.586.862-.586 1.414 0 .552.195 1.023.586 1.414.39.39.862.586 1.414.586.552 0 1.023-.195 1.414-.586.39-.39.586-.862.586-1.414zm4-.852v1.735c0 .062-.02.122-.063.18-.04.057-.093.09-.156.1l-1.443.22c-.1.28-.2.518-.305.71.184.26.462.62.837 1.08.05.06.077.126.077.194s-.023.128-.07.18c-.14.193-.398.474-.773.844s-.62.556-.735.556c-.063 0-.13-.023-.204-.07l-1.078-.844c-.23.12-.466.22-.71.298-.084.708-.16 1.193-.228 1.453-.036.147-.13.22-.28.22h-1.735c-.073 0-.137-.022-.192-.066-.053-.045-.083-.1-.088-.168l-.22-1.44c-.254-.082-.49-.18-.702-.29l-1.102.838c-.05.047-.116.07-.194.07-.073 0-.138-.028-.196-.086-.656-.594-1.085-1.032-1.29-1.313-.035-.053-.053-.113-.053-.18 0-.063.02-.123.062-.18.077-.11.21-.283.4-.52.185-.237.326-.42.42-.55-.14-.26-.248-.52-.32-.774l-1.43-.21c-.068-.012-.123-.044-.164-.1-.042-.054-.063-.115-.063-.182V14.12c0-.063.02-.123.063-.18.04-.058.09-.09.148-.1l1.454-.22c.073-.24.175-.48.305-.72-.21-.296-.488-.656-.837-1.078-.052-.062-.078-.125-.078-.187 0-.052.023-.112.07-.18.135-.187.392-.467.77-.84.377-.372.623-.558.738-.558.068 0 .135.026.203.078l1.077.836c.23-.12.466-.22.71-.297.084-.708.16-1.193.228-1.453.036-.147.13-.22.28-.22h1.735c.073 0 .137.022.192.066.053.045.083.1.088.168l.22 1.438c.254.083.49.18.702.29l1.11-.837c.047-.047.11-.07.187-.07.067 0 .132.026.195.078.67.62 1.1 1.062 1.29 1.328.035.044.053.1.053.174 0 .062-.02.122-.062.18-.078.11-.21.282-.4.52-.186.236-.327.42-.42.55.135.26.242.515.32.765l1.43.22c.067.01.122.04.163.096.04.055.062.116.062.183z" transform="translate(-221 -9)" filter="url(#y)" fill="#FFF" fill-rule="evenodd"/></svg><svg width="19.56" height="18.98" viewBox="-1 -1 19.56 18.98" x="293" y="184.33"><path fill="#2C3E50" d="M17 9.085l-7.97-7.99L1 9.085l2.014.003-.006 6.974 11.908-.015V9.08"/></svg><svg width="7" height="10" viewBox="-1 -1 7 10" x="373" y="161"><title>Closed</title><path d="M4.5 4c0 .135-.05.253-.148.352l-3.5 3.5C.752 7.952.635 8 .5 8c-.135 0-.253-.05-.352-.148C.048 7.752 0 7.635 0 7.5v-7C0 .365.05.247.148.148.248.048.365 0 .5 0c.135 0 .253.05.352.148l3.5 3.5c.1.1.148.217.148.352z" fill="#DBDFE1" fill-rule="evenodd"/></svg><svg width="7" height="10" viewBox="-1 -1 7 10" x="373" y="151"><title>Tree_Closed_Arrow_Icon</title><path d="M4.5 4c0 .135-.05.253-.148.352l-3.5 3.5C.752 7.952.635 8 .5 8c-.135 0-.253-.05-.352-.148C.048 7.752 0 7.635 0 7.5v-7C0 .365.05.247.148.148.248.048.365 0 .5 0c.135 0 .253.05.352.148l3.5 3.5c.1.1.148.217.148.352z" fill="#DBDFE1" fill-rule="evenodd"/></svg><svg width="36" height="18" viewBox="-1 -1 36 18" x="261" y="144.33"><title>Tree_Delete_Hover</title><g fill="none" fill-rule="evenodd"><path fill="#2C3E50" d="M0 0h34v16H0z"/><path d="M10 14c3.314 0 6-2.686 6-6s-2.686-6-6-6-6 2.686-6 6 2.686 6 6 6zm-3-3.96l1.96-2-1.96-2L8.092 5l1.923 1.968L11.945 5l1.092 1.04-1.962 2 1.962 2-1.092 1.04-1.93-1.96-1.923 1.96L7 10.04z" fill="#FFF"/></g></svg><svg width="10" height="7" viewBox="-1 -1 10 7" x="371" y="211"><title>Tree_DownArrow</title><path d="M8 .5c0 .135-.05.253-.148.352l-3.5 3.5c-.1.1-.217.148-.352.148-.135 0-.253-.05-.352-.148l-3.5-3.5C.048.752 0 .635 0 .5 0 .365.05.247.148.148.248.048.365 0 .5 0h7c.135 0 .253.05.352.148.1.1.148.217.148.352z" fill="#DBDFE1" fill-rule="evenodd"/></svg><svg width="12" height="12" viewBox="-1 -1 12 12" x="317" y="288"><title>Invisible Icon</title><path d="M1.074 9.826c-.123.124-.272.186-.444.186-.173 0-.32-.062-.444-.186S0 9.554 0 9.38c0-.17.062-.32.186-.444l1.19-1.192C.656 6.962.2 6.054.01 5.017c.15-.822.465-1.566.947-2.234.482-.668 1.078-1.193 1.787-1.574C3.454.826 4.206.635 5 .635c.944 0 1.83.274 2.656.82l1.26-1.26C9.04.073 9.19.01 9.366.01c.175 0 .323.06.444.18.12.12.18.27.18.446s-.062.326-.185.45l-8.73 8.74zM5 1.89c-.853 0-1.65.207-2.393.624H2.5v.06c-.475.286-.877.64-1.206 1.06-.33.42-.55.88-.66 1.383.183.814.642 1.51 1.378 2.09l.83-.84c-.228-.384-.342-.8-.342-1.25 0-.39.09-.763.273-1.115l.557.274c-.137.274-.205.554-.205.84 0 .28.062.545.186.792l.49-.488c-.033-.11-.05-.212-.05-.303 0-.19.047-.375.138-.558l.517.253.293-.303-.254-.508c.183-.09.368-.137.557-.137.09 0 .196.013.314.04l.488-.49C5.548 3.2 5.28 3.14 5 3.14s-.557.068-.83.205l-.283-.567c.35-.176.722-.264 1.113-.264.45 0 .87.114 1.26.342l.595-.596C6.257 2.012 5.638 1.89 5 1.89zm2.49 3.39c-.065.587-.306 1.087-.722 1.5-.417.415-.915.654-1.495.72L7.49 5.28zM5 8.136c1.055 0 1.997-.297 2.827-.89.83-.593 1.346-1.336 1.548-2.228-.09-.39-.254-.77-.488-1.134l.517-.518c.293.52.492 1.072.596 1.652-.15.82-.467 1.565-.952 2.233-.485.67-1.083 1.19-1.792 1.57-.71.378-1.462.567-2.256.567-.47 0-.934-.072-1.396-.215l1.044-1.045c.13.007.248.01.352.01z" fill="#728496" fill-rule="evenodd"/></svg><svg width="11" height="13" viewBox="-1 -1 11 13" x="370" y="233"><title>Page Icon</title><path d="M8.57 4.857v5.357c0 .18-.06.33-.186.456-.125.125-.277.187-.455.187H.64c-.18 0-.33-.062-.456-.187C.06 10.545 0 10.393 0 10.214v-9C0 1.036.06.884.187.76.313.633.464.57.643.57h3.643v3.644c0 .18.062.33.187.456.125.125.277.187.456.187h3.64zM8.55 4H5.144V.592c.366.066.66.212.884.435l2.09 2.09c.222.222.367.517.434.883z" fill="#DBDFE1" fill-rule="evenodd"/></svg><svg width="21" height="21" viewBox="-1 -1 21 21" x="349" y="275"><path fill="#DBDFE1" d="M14 13.1c0 .498-.403.9-.9.9H5.9c-.497 0-.9-.402-.9-.9V5.9c0-.497.403-.9.9-.9h7.2c.497 0 .9.403.9.9v7.2z"/></svg><svg width="21" height="21" viewBox="-1 -1 21 21" x="349" y="254"><path fill="#DBDFE1" d="M12 7v5H7V7h5m1.1-2H5.9c-.497 0-.9.403-.9.9v7.2c0 .498.403.9.9.9h7.2c.497 0 .9-.402.9-.9V5.9c0-.497-.403-.9-.9-.9z"/></svg><svg width="32" height="32" viewBox="-1 -1 32 32" x="32" y="268"><title>Oval 288 + links 10</title><g fill="none" fill-rule="evenodd"><circle fill="#2C3E50" cx="15" cy="15" r="15"/><path d="M15.333 13.54c.6-1.26 1.95-2.137 3.518-2.137h2.2c2.13 0 3.853 1.612 3.853 3.6 0 1.99-1.724 3.6-3.85 3.6h-2.2c-1.577 0-2.932-.884-3.528-2.153h-.64c-.598 1.264-1.95 2.147-3.524 2.147h-2.2c-2.126 0-3.85-1.612-3.85-3.6 0-1.99 1.724-3.6 3.85-3.6h2.2c1.57 0 2.924.88 3.523 2.142h.65zm2.902.032c.19-.072.398-.11.616-.11h2.2c.914 0 1.653.69 1.653 1.542 0 .852-.74 1.543-1.65 1.543h-2.2c-.23 0-.45-.044-.648-.123.672-.13 1.18-.716 1.18-1.43 0-.697-.493-1.28-1.15-1.422zm-6.432 2.846c-.198.078-.415.12-.643.12h-2.2c-.912 0-1.65-.69-1.65-1.542 0-.852.738-1.543 1.65-1.543h2.2c.225 0 .44.042.636.12-.656.14-1.147.72-1.147 1.42s.493 1.283 1.152 1.425z" fill="#606E7B"/></g></svg><svg width="27" height="27" viewBox="-1 -1 27 27" x="349" y="53"><title>Oval 6 + × 5</title><g fill="none" fill-rule="evenodd"><ellipse stroke="#2C3E50" stroke-width="3" fill="#FFF" cx="12.5" cy="12.5" rx="12.5" ry="12.5"/><text font-family="Roboto" font-size="20" font-weight="bold" fill="#2C3E50"><tspan x="7.188" y="21">×</tspan></text></g></svg><svg width="261" height="236" viewBox="-1 -1 261 236"><svg width="21" height="21" viewBox="-1 -1 21 21" x="63" y="86.33"><title>Delete_Drk_Nmrl_sml</title><g fill="none" fill-rule="evenodd"><circle stroke="#2C3E50" stroke-width="2" fill="#E74C3C" cx="9.5" cy="9.5" r="9.5"/><path d="M6 11.04l1.96-2-1.96-2L7.092 6l1.923 1.968L10.945 6l1.092 1.04-1.962 2 1.962 2-1.092 1.04-1.93-1.96-1.923 1.96L6 11.04z" fill="#FFF"/></g></svg><svg width="21" height="21" viewBox="-1 -1 21 21" x="182" y="201.33"><title>Delete_Drk_Nmrl_sml</title><g fill="none" fill-rule="evenodd"><path d="M9.5 19c5.247 0 9.5-4.253 9.5-9.5S14.747 0 9.5 0 0 4.253 0 9.5 4.253 19 9.5 19z" stroke="#C0392B" stroke-width="2" fill="#132232"/><path d="M6 11.04l1.96-2-1.96-2L7.092 6l1.923 1.968L10.945 6l1.092 1.04-1.962 2 1.962 2-1.092 1.04-1.93-1.96-1.923 1.96L6 11.04z" fill="#D0011B"/></g></svg><svg width="18" height="18" viewBox="-1 -1 18 18" x="240" y="19"><title>Delete_WhiteRed_Hover</title><g fill="none" fill-rule="evenodd"><path d="M8 16c4.418 0 8-3.582 8-8s-3.582-8-8-8-8 3.582-8 8 3.582 8 8 8z" fill="#FFF"/><path d="M5 10.04l1.96-2-1.96-2L6.092 5l1.923 1.968L9.945 5l1.092 1.04-1.962 2 1.962 2-1.092 1.04-1.93-1.96-1.923 1.96L5 10.04z" fill="#D0011B"/></g></svg><svg width="18" height="18" viewBox="-1 -1 18 18" x="240" y="37"><title>Delete_White_Normal</title><path d="M8 16c4.418 0 8-3.582 8-8s-3.582-8-8-8-8 3.582-8 8 3.582 8 8 8zm-3-5.96l1.96-2-1.96-2L6.092 5l1.923 1.968L9.945 5l1.092 1.04-1.962 2 1.962 2-1.092 1.04-1.93-1.96-1.923 1.96L5 10.04z" fill="#FFF" fill-rule="evenodd"/></svg><svg width="22" height="22" viewBox="-1 -1 40 40" x="111" y="108.33"><title>Checkbox</title><path d="M18.563.547c2.578 0 5.003.492 7.277 1.476 2.273.985 4.254 2.32 5.94 4.008 1.69 1.69 3.025 3.67 4.01 5.946.983 2.273 1.476 4.7 1.476 7.277 0 2.53-.493 4.923-1.477 7.173-.988 2.25-2.32 4.22-4.01 5.906-1.69 1.688-3.67 3.024-5.94 4.008-2.277.984-4.7 1.477-7.28 1.477-5.157 0-9.516-1.83-13.08-5.485C1.83 28.765 0 24.405 0 19.25c0-2.578.492-5.004 1.477-7.277C2.46 9.7 3.797 7.72 5.484 6.03 7.172 4.345 9.14 3.01 11.39 2.024 13.64 1.04 16.03.547 18.563.547zm9.914 10.687l-4.36-4.43L15.68 23.54l-7.102-5.696-2.25 4.5 11.04 11.04 11.11-22.15z" fill="#FFF" fill-rule="evenodd"/></svg><svg width="24" height="24" viewBox="-1 -1 24 24" x="137" y="201.33"><title>New Page</title><defs><filter x="-50%" y="-50%" width="200%" height="200%" filterUnits="objectBoundingBox" id="z"><feOffset dy="1" in="SourceAlpha" result="shadowOffsetOuter1"/><feGaussianBlur stdDeviation=".5" in="shadowOffsetOuter1" result="shadowBlurOuter1"/><feColorMatrix values="0 0 0 0 0 0 0 0 0 0 0 0 0 0 0 0 0 0 0.21 0" in="shadowBlurOuter1" result="shadowMatrixOuter1"/><feMerge><feMergeNode in="shadowMatrixOuter1"/><feMergeNode in="SourceGraphic"/></feMerge></filter></defs><g fill="none" fill-rule="evenodd"><circle fill="#007CC0" cx="11" cy="11" r="11"/><path d="M10 12H6v-2h4V6h2v4h4v2h-4v4h-2v-4z" fill="#FFF" filter="url(#z)"/></g></svg><svg width="24" height="12" viewBox="-1 -1 24 12" x="112" y="96"><title>links 2</title><defs><filter x="-50%" y="-50%" width="200%" height="200%" filterUnits="objectBoundingBox" id="A"><feOffset dy="1" in="SourceAlpha" result="shadowOffsetOuter1"/><feGaussianBlur stdDeviation=".5" in="shadowOffsetOuter1" result="shadowBlurOuter1"/><feColorMatrix values="0 0 0 0 0 0 0 0 0 0 0 0 0 0 0 0 0 0 0.21 0" in="shadowBlurOuter1" result="shadowMatrixOuter1"/><feMerge><feMergeNode in="shadowMatrixOuter1"/><feMergeNode in="SourceGraphic"/></feMerge></filter></defs><path d="M162.198 565.735c-.465-1.314-.13-2.888.978-3.998l1.556-1.555c1.504-1.504 3.863-1.583 5.27-.177 1.405 1.406 1.326 3.765-.178 5.268l-1.556 1.556c-1.115 1.11-2.7 1.443-4.017.97l-.45.45c.47 1.317.14 2.897-.973 4.01l-1.556 1.555c-1.504 1.504-3.863 1.583-5.27.177-1.405-1.406-1.326-3.765.178-5.268l1.556-1.556c1.11-1.11 2.69-1.445 4.006-.975l.46-.46zm2.076-2.028c.084-.186.203-.36.357-.515l1.56-1.556c.644-.644 1.655-.678 2.258-.075.602.606.568 1.617-.076 2.26l-1.556 1.557c-.162.163-.348.287-.545.37.384-.566.33-1.34-.176-1.844-.492-.492-1.253-.555-1.818-.192zm-2.536 6.56c-.085.195-.208.38-.37.54l-1.555 1.557c-.644.644-1.655.678-2.258.075-.602-.606-.568-1.617.076-2.26l1.56-1.557c.16-.16.34-.282.534-.366-.362.563-.3 1.32.196 1.816.492.493 1.255.556 1.82.19z" transform="rotate(45 767.1 103.227)" filter="url(#A)" fill="#FFF" fill-rule="evenodd"/></svg><svg width="32" height="32" viewBox="-1 -1 32 32" x="144" y="96"><title>Oval 287 + links 9</title><defs><filter x="-50%" y="-50%" width="200%" height="200%" filterUnits="objectBoundingBox" id="B"><feOffset dy="2" in="SourceAlpha" result="shadowOffsetOuter1"/><feGaussianBlur stdDeviation="2" in="shadowOffsetOuter1" result="shadowBlurOuter1"/><feColorMatrix values="0 0 0 0 0 0 0 0 0 0 0 0 0 0 0 0 0 0 0.21 0" in="shadowBlurOuter1" result="shadowMatrixOuter1"/><feMerge><feMergeNode in="shadowMatrixOuter1"/><feMergeNode in="SourceGraphic"/></feMerge></filter></defs><g fill="#FFF" fill-rule="evenodd"><circle fill-opacity=".1" cx="15" cy="15" r="15"/><path d="M14.204 13.735c-.466-1.314-.13-2.888.978-3.998l1.555-1.555c1.504-1.504 3.863-1.583 5.27-.177 1.405 1.406 1.326 3.765-.178 5.268l-1.56 1.557c-1.115 1.113-2.7 1.445-4.018.97l-.453.452c.47 1.317.14 2.897-.975 4.01l-1.557 1.555C11.766 23.32 9.41 23.4 8 21.994c-1.406-1.406-1.327-3.765.177-5.268L9.73 15.17c1.113-1.11 2.69-1.444 4.007-.974l.46-.46zm2.075-2.028c.08-.186.2-.36.353-.515l1.556-1.556c.645-.644 1.656-.678 2.26-.075.6.606.57 1.617-.078 2.26l-1.555 1.557c-.164.163-.35.287-.546.37.385-.566.33-1.34-.175-1.844-.493-.492-1.254-.555-1.82-.192zm-2.54 6.56c-.084.195-.207.38-.37.54l-1.554 1.557c-.646.644-1.657.678-2.26.075-.602-.606-.568-1.617.076-2.26l1.556-1.557c.16-.16.34-.282.534-.366-.364.563-.302 1.32.194 1.816.494.493 1.257.556 1.822.19z" filter="url(#B)" transform="rotate(45 15.005 15)"/></g></svg><svg version="1" width="17" height="25" viewBox="-1 -1 17 25" x="96" y="201.33"><title>Imported Layers</title><path d="M14.132 3.563c0-.153-.06-.285-.175-.396S13.702 3 13.543 3H1.495c-.16 0-.298.056-.414.167-.112.11-.17.243-.17.396v13.875c0 .152.06.285.174.396.117.11.256.166.415.166h12.047c.16 0 .298-.057.414-.167s.175-.243.175-.396V3.563zM8.955 20.5c0-.406-.148-.758-.445-1.055S7.86 19 7.455 19c-.406 0-.758.148-1.054.445-.293.297-.442.648-.442 1.055s.15.758.446 1.055c.297.297.65.445 1.055.445.405 0 .757-.148 1.054-.445s.445-.65.445-1.055zm5.97-.396c0 .787-.254 1.46-.813 2.02-.56.562-1.442.842-2.23.842L2.862 23c-.787 0-1.46-.28-2.02-.84-.56-.562-.84-1.236-.84-2.023V2.863C0 2.076.28 1.403.84.84 1.4.28 2.074 0 2.86 0h9.214c.787 0 1.406.28 1.966.84s.84 1.236.84 2.023l.044 17.24z"/></svg><svg version="1" width="13" height="21" viewBox="-1 -1 13 21" x="160" y="137.33"><title>Imported Layers</title><path d="M10.06 3.625c0-.17-.065-.315-.196-.44C9.734 3.062 9.58 3 9.402 3h-7.84c-.178 0-.332.062-.46.185-.132.125-.196.27-.196.44v9.75c0 .17.064.314.195.44.13.124.287.185.465.185h7.84c.178 0 .332-.06.46-.186.132-.125.196-.27.196-.44v-9.75zM6.95 16.5c0-.406-.148-.758-.445-1.055C6.21 15.148 5.857 15 5.45 15c-.405 0-.757.148-1.054.445s-.445.65-.445 1.055.15.758.45 1.055.65.445 1.054.445c.407 0 .76-.148 1.055-.445.296-.297.445-.65.445-1.055zM4.448 1c-.275 0-.496.23-.496.5 0 .276.217.5.497.5h2.005c.273 0 .496-.23.496-.5 0-.276-.215-.5-.494-.5h-2.01zm6.535 15.7c0 .623-.205 1.16-.616 1.616-.41.457-.82.684-1.384.684h-7c-.563 0-.955-.227-1.366-.684C.207 17.86 0 17.323 0 16.7V2.3C0 1.677.205 1.138.616.683 1.026.228 1.42 0 1.982 0h7c.562 0 .973.228 1.384.683s.616.994.616 1.617v14.4z"/></svg><svg version="1" width="32" height="29" viewBox="-1 -1 32 29" y="108.33"><title>Imported Layers</title><path d="M28 2.597c0-.173-.057-.322-.172-.45-.113-.125-.25-.19-.405-.19H2.577c-.156 0-.292.065-.405.19-.115.128-.172.277-.172.45v15.736c0 .173.057.323.172.45.113.125.25.19.405.19h24.846c.156 0 .292-.065.405-.19.115-.127.172-.277.172-.45V2.597zm2 17.464c0 .79-.28 1.467-.842 2.027-.56.562-1.236.842-2.025.842l-9.175-.03c0 .44.097.603.286 1.086.19.484.383.607.574.97.19.366.302.61.302.765 0 .31-.13.596-.356.82-.227.23-.494.34-.806.34l-5.9.03c-.31 0-.578-.11-.805-.34-.228-.226-.34-.493-.34-.804 0-.168.094-.43.285-.79.192-.356.383-.474.575-.95.19-.48.286-.644.286-1.098H2.863c-.79 0-1.464-.28-2.025-.842C.282 21.526 0 20.85 0 20.06V2.866c0-.79.28-1.463.842-2.024C1.402.28 2.078 0 2.867 0h24.266c.79 0 1.465.28 2.025.842.56.56.842 1.235.842 2.023V20.06z"/></svg><svg width="19" height="19" viewBox="-1 -1 19 19" x="240"><title>watch</title><defs><filter x="-50%" y="-50%" width="200%" height="200%" filterUnits="objectBoundingBox" id="C"><feOffset dy="1" in="SourceAlpha" result="shadowOffsetOuter1"/><feGaussianBlur stdDeviation=".5" in="shadowOffsetOuter1" result="shadowBlurOuter1"/><feColorMatrix values="0 0 0 0 0 0 0 0 0 0 0 0 0 0 0 0 0 0 0.21 0" in="shadowBlurOuter1" result="shadowMatrixOuter1"/><feMerge><feMergeNode in="shadowMatrixOuter1"/><feMergeNode in="SourceGraphic"/></feMerge></filter></defs><path d="M36 48c-1.657 0-3 1.344-3 3v9c0 1.657 1.344 3 3 3h9c1.657 0 3-1.344 3-3v-9c0-1.657-1.344-3-3-3h-9zm.992 2c-1.1 0-1.992.9-1.992 1.992v7.016c0 1.1.9 1.992 1.992 1.992h7.016c1.1 0 1.992-.9 1.992-1.992v-7.016c0-1.1-.9-1.992-1.992-1.992h-7.016zM40 51v5h1v-5h-1zm1 4v1h2v-1h-2z" transform="translate(-32 -48)" filter="url(#C)" fill="#FFF" fill-rule="evenodd"/></svg><svg width="56" height="39" viewBox="-1 -1 56 39"><path fill="#2C3E4F" d="M3 35.5c-.827 0-1.5-.672-1.5-1.5V3c0-.827.673-1.5 1.5-1.5h48c.827 0 1.5.673 1.5 1.5v31c0 .828-.673 1.5-1.5 1.5H3z"/><path fill="#95A5A6" d="M51 2c.552 0 1 .45 1 1v31c0 .553-.448 1-1 1H3c-.55 0-1-.447-1-1V3c0-.55.45-1 1-1h48m0-1H3c-1.104 0-2 .896-2 2v31c0 1.105.896 2 2 2h48c1.105 0 2-.895 2-2V3c0-1.104-.895-2-2-2z"/><path fill="#95A5A6" d="M21 32.073l-8 .002v-8.002l2.594 2.592 7.072-7.072 2.814 2.814-7.074 7.072m21.67-16.813l-2.43-2.427-7.24 7.24-2.814-2.81 7.24-7.24-2.757-2.76h8"/></svg><svg width="56" height="39" viewBox="-1 -1 56 39" x="56"><path fill="#2C3E4F" d="M3 35.5c-.828 0-1.5-.674-1.5-1.5V3c0-.827.672-1.5 1.5-1.5h48c.827 0 1.5.673 1.5 1.5v31c0 .826-.673 1.5-1.5 1.5H3z"/><path fill="#95A5A6" d="M51 2c.552 0 1 .45 1 1v31c0 .55-.448 1-1 1H3c-.552 0-1-.45-1-1V3c0-.55.448-1 1-1h48m0-1H3c-1.104 0-2 .896-2 2v31c0 1.103.896 2 2 2h48c1.105 0 2-.897 2-2V3c0-1.104-.895-2-2-2z"/><path fill="#95A5A6" d="M24.055 20.523l-13.004.002v3.664l-5.654-5.656 5.658-5.66v3.67l13.005-.002m18.964 7.65v-3.67l-13.002.002v-3.978l13.005-.002.002-3.666 5.66 5.655"/></svg><svg width="41" height="19" viewBox="-1 -1 41 19" x="46.33" y="39"><title>87%</title><text transform="translate(-84.232 -6)" font-weight="260" font-family="Roboto" fill="#FFF" font-size="21.378" fill-rule="evenodd"><tspan x="84.521" y="22">87%</tspan></text></svg><svg width="32" height="32" viewBox="-1 -1 32 32" y="137.33"><path fill="#FFF" d="M27.125 5.64c0-.174-.057-.324-.172-.45-.113-.127-.25-.19-.405-.19H3.578c-.157 0-.292.063-.407.19-.11.126-.17.276-.17.45v13.777c0 .173.06.322.17.45.118.125.25.187.83.187h22.97c-.263 0-.13-.062-.014-.188.115-.127.172-.276.172-.45V5.64zm1.742 16.442c0 .788-.28 1.462-.842 2.023-.562.562-1.236.842-2.025.842l-7.188-.06c0 .44.097.603.285 1.087.19.483.385.606.574.97.195.366.29.626.29.78 0 .312-.112.578-.34.808-.23.227-.496.34-.81.34l-7.665.06c-.31 0-.58-.113-.806-.34s-.338-.497-.338-.81c0-.166.096-.43.288-.786.19-.358.382-.478.573-.953.19-.48.288-.644.288-1.097H3.87c-.787 0-1.462-.28-2.023-.842C1.28 23.544 1 22.87 1 22.082V5.866c0-.788.28-1.463.842-2.024C2.402 3.282 3.08 3 3.867 3H26c.79 0 1.464.28 2.025.842.56.56.842 1.236.842 2.024v16.216z"/><defs><path id="D" d="M27.125 5.64c0-.174-.057-.324-.172-.45-.113-.127-.25-.19-.405-.19H3.578c-.157 0-.292.063-.407.19-.11.126-.17.276-.17.45v13.777c0 .173.06.322.17.45.118.125.25.187.83.187h22.97c-.263 0-.13-.062-.014-.188.115-.127.172-.276.172-.45V5.64zm1.742 16.442c0 .788-.28 1.462-.842 2.023-.562.562-1.236.842-2.025.842l-7.188-.06c0 .44.097.603.285 1.087.19.483.385.606.574.97.195.366.29.626.29.78 0 .312-.112.578-.34.808-.23.227-.496.34-.81.34l-7.665.06c-.31 0-.58-.113-.806-.34s-.338-.497-.338-.81c0-.166.096-.43.288-.786.19-.358.382-.478.573-.953.19-.48.288-.644.288-1.097H3.87c-.787 0-1.462-.28-2.023-.842C1.28 23.544 1 22.87 1 22.082V5.866c0-.788.28-1.463.842-2.024C2.402 3.282 3.08 3 3.867 3H26c.79 0 1.464.28 2.025.842.56.56.842 1.236.842 2.024v16.216z"/></defs><clipPath id="E"><use xlink:href="#D" overflow="visible"/></clipPath><path clip-path="url(#E)" fill="#FFF" d="M-4-2h37.867v35.932H-4z"/></svg><svg width="32" height="32" viewBox="-1 -1 32 32" x="32" y="137.33"><path fill="#2C3E50" d="M27.125 4.64c0-.174-.057-.324-.172-.45-.113-.127-.25-.19-.405-.19H3.578c-.157 0-.292.063-.407.19-.11.126-.17.276-.17.45v13.777c0 .173.06.322.17.45.118.125.25.187.83.187h22.97c-.263 0-.13-.062-.014-.188.115-.127.172-.276.172-.45V4.64zm1.742 16.442c0 .788-.28 1.462-.842 2.023-.562.562-1.236.842-2.025.842l-7.188-.06c0 .44.097.603.285 1.087.19.483.385.606.574.97.195.366.29.626.29.78 0 .312-.112.578-.34.808-.23.227-.496.34-.81.34l-7.665.06c-.31 0-.58-.113-.806-.34s-.338-.497-.338-.81c0-.166.096-.43.288-.786.19-.358.382-.478.573-.953.19-.48.288-.644.288-1.097H3.87c-.787 0-1.462-.28-2.023-.842C1.28 22.544 1 21.87 1 21.082V4.866c0-.788.28-1.463.842-2.024C2.402 2.282 3.08 2 3.867 2H26c.79 0 1.464.28 2.025.842.56.56.842 1.236.842 2.024v16.216z"/><defs><path id="F" d="M27.125 4.64c0-.174-.057-.324-.172-.45-.113-.127-.25-.19-.405-.19H3.578c-.157 0-.292.063-.407.19-.11.126-.17.276-.17.45v13.777c0 .173.06.322.17.45.118.125.25.187.83.187h22.97c-.263 0-.13-.062-.014-.188.115-.127.172-.276.172-.45V4.64zm1.742 16.442c0 .788-.28 1.462-.842 2.023-.562.562-1.236.842-2.025.842l-7.188-.06c0 .44.097.603.285 1.087.19.483.385.606.574.97.195.366.29.626.29.78 0 .312-.112.578-.34.808-.23.227-.496.34-.81.34l-7.665.06c-.31 0-.58-.113-.806-.34s-.338-.497-.338-.81c0-.166.096-.43.288-.786.19-.358.382-.478.573-.953.19-.48.288-.644.288-1.097H3.87c-.787 0-1.462-.28-2.023-.842C1.28 22.544 1 21.87 1 21.082V4.866c0-.788.28-1.463.842-2.024C2.402 2.282 3.08 2 3.867 2H26c.79 0 1.464.28 2.025.842.56.56.842 1.236.842 2.024v16.216z"/></defs><use xlink:href="#F" overflow="visible" fill="#2C3E50"/><clipPath id="G"><use xlink:href="#F" overflow="visible"/></clipPath><path clip-path="url(#G)" fill="#2C3E50" d="M-4-3h37.867v35.932H-4z"/></svg><svg width="32" height="32" viewBox="-1 -1 32 32" x="64" y="137.33"><path fill-rule="evenodd" clip-rule="evenodd" fill="#FFF" d="M20 6.625c0-.17-.064-.315-.194-.44S19.52 6 19.346 6h-9.69c-.177 0-.332.062-.462.186S9 6.456 9 6.626v13.75c0 .17.064.315.194.438s.285.186.46.186h9.69c.177 0 .33-.062.46-.186s.196-.27.196-.44V6.624zM16 23.5c0-.406-.148-.758-.445-1.055S14.905 22 14.5 22s-.758.148-1.055.445S13 23.095 13 23.5s.148.758.445 1.055.65.445 1.055.445.758-.148 1.055-.445.445-.65.445-1.055zM13.495 4c-.273 0-.495.23-.495.5 0 .276.216.5.495.5h2.01c.273 0 .495-.23.495-.5 0-.276-.216-.5-.495-.5h-2.01zM21 23.7c0 .622-.205 1.16-.616 1.617-.41.455-.898.683-1.46.683h-8.848c-.562 0-1.05-.228-1.46-.683C8.206 24.86 8 24.322 8 23.7V5.3c0-.623.205-1.162.616-1.617S9.514 3 10.076 3h8.848c.562 0 1.05.228 1.46.683S21 4.677 21 5.3v18.4z"/></svg><svg width="32" height="32" viewBox="-1 -1 32 32" x="96" y="137.33"><path fill-rule="evenodd" clip-rule="evenodd" fill="#2C3E50" d="M20 6.625c0-.17-.064-.315-.194-.44S19.52 6 19.346 6h-9.69c-.177 0-.332.062-.462.186S9 6.456 9 6.626v13.75c0 .17.064.315.194.438s.285.186.46.186h9.69c.177 0 .33-.062.46-.186s.196-.27.196-.44V6.624zM16 23.5c0-.406-.148-.758-.445-1.055S14.905 22 14.5 22s-.758.148-1.055.445S13 23.095 13 23.5s.148.758.445 1.055.65.445 1.055.445.758-.148 1.055-.445.445-.65.445-1.055zM13.495 4c-.273 0-.495.23-.495.5 0 .276.216.5.495.5h2.01c.273 0 .495-.23.495-.5 0-.276-.216-.5-.495-.5h-2.01zM21 23.7c0 .622-.205 1.16-.616 1.617-.41.455-.898.683-1.46.683h-8.848c-.562 0-1.05-.228-1.46-.683C8.206 24.86 8 24.322 8 23.7V5.3c0-.623.205-1.162.616-1.617S9.514 3 10.076 3h8.848c.562 0 1.05.228 1.46.683S21 4.677 21 5.3v18.4z"/></svg><svg width="32" height="32" viewBox="-1 -1 32 32" x="128" y="137.33"><path fill="#FFF" d="M23.532 4.955c0-.152-.06-.285-.174-.396-.117-.11-.257-.17-.414-.17H7.03c-.158 0-.297.056-.413.166-.116.11-.175.243-.175.395v17c0 .153.06.285.175.398.116.11.255.165.414.165h15.917c.157 0 .297-.057.414-.168.114-.11.174-.242.174-.395v-17zm-6.498 19.938c0-.405-.147-.758-.444-1.055-.298-.297-.648-.445-1.056-.445s-.76.148-1.056.445c-.297.297-.445.648-.445 1.055 0 .407.148.758.445 1.056.297.293.65.44 1.056.44s.758-.147 1.056-.444c.297-.3.444-.65.444-1.057zm8.455-.364c0 .783-.28 1.46-.84 2.02s-1.597.84-2.38.84H7.39c-.787 0-1.46-.28-2.022-.843-.56-.56-.84-1.234-.84-2.02V4.254c0-.787.39-1.354.95-1.914.56-.56 1.233-.84 2.02-.84h15.28c.787 0 1.418.28 1.98.842.56.562.73 1.127.73 1.914V24.53z"/></svg><svg width="32" height="32" viewBox="-1 -1 32 32" x="176"><path fill="#2C3E50" d="M23.532 4.955c0-.152-.06-.285-.174-.396-.117-.11-.257-.17-.414-.17H7.03c-.158 0-.297.056-.413.166-.116.11-.175.243-.175.395v17c0 .153.06.285.175.398.116.11.255.165.414.165h15.917c.157 0 .297-.057.414-.168.114-.11.174-.242.174-.395v-17zm-6.498 19.938c0-.405-.147-.758-.444-1.055-.298-.297-.648-.445-1.056-.445s-.76.148-1.056.445c-.297.297-.445.648-.445 1.055 0 .407.148.758.445 1.056.297.293.65.44 1.056.44s.758-.147 1.056-.444c.297-.3.444-.65.444-1.057zm8.455-.364c0 .783-.28 1.46-.84 2.02s-1.597.84-2.38.84H7.39c-.787 0-1.46-.28-2.022-.843-.56-.56-.84-1.234-.84-2.02V4.254c0-.787.39-1.354.95-1.914.56-.56 1.233-.84 2.02-.84h15.28c.787 0 1.418.28 1.98.842.56.562.73 1.127.73 1.914V24.53z"/></svg><svg width="32" height="32" viewBox="-1 -1 32 32" x="112"><path fill-rule="evenodd" clip-rule="evenodd" fill="#FFF" d="M13.438 18.372c.467.38.987.647 1.56.802l.012.75c.027 1.498-.42 2.72-1.343 3.662-.923.942-2.128 1.414-3.615 1.414-.85 0-1.604-.164-2.26-.49s-1.185-.776-1.583-1.346c-.4-.57-.7-1.214-.9-1.932s-.3-1.492-.3-2.322c.046.035.19.14.423.316s.45.333.643.47c.192.138.396.266.61.386.215.12.375.18.478.18.284 0 .474-.13.57-.39.174-.466.373-.86.597-1.19s.466-.594.72-.802c.258-.207.563-.374.915-.5s.707-.217 1.067-.27c.36-.054.792-.09 1.296-.11.27.535.64.992 1.104 1.372zM24.525 5.408c.31.27.463.612.463 1.022 0 .368-.13.81-.396 1.325-1.957 3.68-6.156 8.726-6.94 9.445-.572.533-1.214.8-1.927.8-.743 0-1.38-.27-1.914-.812s-.8-1.184-.8-1.927c0-.745.275-1.365.817-1.86l8.47-7.924c.347-.315.73-.473 1.147-.473.415 0 .775.137 1.085.41z"/></svg><svg width="24" height="24" viewBox="-1 -1 24 24" x="113" y="201.33"><title>LightZ</title><defs><filter x="-50%" y="-50%" width="200%" height="200%" filterUnits="objectBoundingBox" id="H"><feOffset in="SourceAlpha" result="shadowOffsetOuter1"/><feGaussianBlur stdDeviation=".5" in="shadowOffsetOuter1" result="shadowBlurOuter1"/><feColorMatrix values="0 0 0 0 0 0 0 0 0 0 0 0 0 0 0 0 0 0 0.35 0" in="shadowBlurOuter1" result="shadowMatrixOuter1"/><feMerge><feMergeNode in="shadowMatrixOuter1"/><feMergeNode in="SourceGraphic"/></feMerge></filter><filter x="-50%" y="-50%" width="200%" height="200%" filterUnits="objectBoundingBox" id="I"><feOffset in="SourceAlpha" result="shadowOffsetOuter1"/><feGaussianBlur stdDeviation="1" in="shadowOffsetOuter1" result="shadowBlurOuter1"/><feColorMatrix values="0 0 0 0 0 0 0 0 0 0 0 0 0 0 0 0 0 0 0.35 0" in="shadowBlurOuter1" result="shadowMatrixOuter1"/><feMerge><feMergeNode in="shadowMatrixOuter1"/><feMergeNode in="SourceGraphic"/></feMerge></filter></defs><g transform="translate(1 1)" stroke="#FFF" fill="none" fill-rule="evenodd"><circle stroke-width="2" filter="url(#H)" cx="10" cy="10" r="10"/><path d="M8.338 4h2.87L9.904 7.545l3.44-.887-4.618 9.857 1.847-7.14-3.774.953L8.334 4z" stroke-linejoin="round" fill="#FFF" filter="url(#I)"/></g></svg><svg width="32" height="32" viewBox="-1 -1 32 32" x="176" y="96"><path fill-rule="evenodd" clip-rule="evenodd" fill="#355168" d="M13.438 18.372c.467.38.987.647 1.56.802l.012.75c.027 1.498-.42 2.72-1.343 3.662-.923.942-2.128 1.414-3.615 1.414-.85 0-1.604-.164-2.26-.49s-1.185-.776-1.583-1.346c-.4-.57-.7-1.214-.9-1.932s-.3-1.492-.3-2.322c.046.035.19.14.423.316s.45.333.643.47c.192.138.396.266.61.386.215.12.375.18.478.18.284 0 .474-.13.57-.39.174-.466.373-.86.597-1.19s.466-.594.72-.802c.258-.207.563-.374.915-.5s.707-.217 1.067-.27c.36-.054.792-.09 1.296-.11.27.535.64.992 1.104 1.372zM24.525 5.408c.31.27.463.612.463 1.022 0 .368-.13.81-.396 1.325-1.957 3.68-6.156 8.726-6.94 9.445-.572.533-1.214.8-1.927.8-.743 0-1.38-.27-1.914-.812s-.8-1.184-.8-1.927c0-.745.275-1.365.817-1.86l8.47-7.924c.347-.315.73-.473 1.147-.473.415 0 .775.137 1.085.41z"/></svg><svg width="32" height="32" viewBox="-1 -1 32 32" x="176" y="128"><path fill="#FFF" d="M15 5c-4.97 0-9 1.348-9 3v1.5c0 1.652 4.03 3 9 3s9-1.348 9-3V8c0-1.652-4.03-3-9-3zm0 13.5c-3.527 0-7.066-.633-9-1.992V18.5c0 1.652 4.03 3 9 3s9-1.348 9-3v-1.992c-1.934 1.36-5.473 1.992-9 1.992zm0 4.5c-3.527 0-7.066-.633-9-1.992V23c0 1.652 4.03 3 9 3s9-1.348 9-3v-1.992C22.066 22.368 18.527 23 15 23zm0-9c-3.527 0-7.066-.633-9-1.992V14c0 1.652 4.03 3 9 3s9-1.348 9-3v-1.992C22.066 13.368 18.527 14 15 14z"/><path fill="#FFF" d="M15 5c-4.97 0-9 1.348-9 3v1.5c0 1.652 4.03 3 9 3s9-1.348 9-3V8c0-1.652-4.03-3-9-3zm0 13.5c-3.527 0-7.066-.633-9-1.992V18.5c0 1.652 4.03 3 9 3s9-1.348 9-3v-1.992c-1.934 1.36-5.473 1.992-9 1.992zm0 4.5c-3.527 0-7.066-.633-9-1.992V23c0 1.652 4.03 3 9 3s9-1.348 9-3v-1.992C22.066 22.368 18.527 23 15 23zm0-9c-3.527 0-7.066-.633-9-1.992V14c0 1.652 4.03 3 9 3s9-1.348 9-3v-1.992C22.066 13.368 18.527 14 15 14z"/><path fill="#FFF" d="M15 5c-4.97 0-9 1.348-9 3v1.5c0 1.652 4.03 3 9 3s9-1.348 9-3V8c0-1.652-4.03-3-9-3zm0 13.5c-3.527 0-7.066-.633-9-1.992V18.5c0 1.652 4.03 3 9 3s9-1.348 9-3v-1.992c-1.934 1.36-5.473 1.992-9 1.992zm0 4.5c-3.527 0-7.066-.633-9-1.992V23c0 1.652 4.03 3 9 3s9-1.348 9-3v-1.992C22.066 22.368 18.527 23 15 23zm0-9c-3.527 0-7.066-.633-9-1.992V14c0 1.652 4.03 3 9 3s9-1.348 9-3v-1.992C22.066 13.368 18.527 14 15 14z"/></svg><svg width="32" height="32" viewBox="-1 -1 32 32" y="169.33"><path fill="#2C3E50" d="M15 5c-4.97 0-9 1.348-9 3v1.5c0 1.652 4.03 3 9 3s9-1.348 9-3V8c0-1.652-4.03-3-9-3zm0 13.5c-3.527 0-7.066-.633-9-1.992V18.5c0 1.652 4.03 3 9 3s9-1.348 9-3v-1.992c-1.934 1.36-5.473 1.992-9 1.992zm0 4.5c-3.527 0-7.066-.633-9-1.992V23c0 1.652 4.03 3 9 3s9-1.348 9-3v-1.992C22.066 22.368 18.527 23 15 23zm0-9c-3.527 0-7.066-.633-9-1.992V14c0 1.652 4.03 3 9 3s9-1.348 9-3v-1.992C22.066 13.368 18.527 14 15 14z"/><path fill="#2C3E50" d="M15 5c-4.97 0-9 1.348-9 3v1.5c0 1.652 4.03 3 9 3s9-1.348 9-3V8c0-1.652-4.03-3-9-3zm0 13.5c-3.527 0-7.066-.633-9-1.992V18.5c0 1.652 4.03 3 9 3s9-1.348 9-3v-1.992c-1.934 1.36-5.473 1.992-9 1.992zm0 4.5c-3.527 0-7.066-.633-9-1.992V23c0 1.652 4.03 3 9 3s9-1.348 9-3v-1.992C22.066 22.368 18.527 23 15 23zm0-9c-3.527 0-7.066-.633-9-1.992V14c0 1.652 4.03 3 9 3s9-1.348 9-3v-1.992C22.066 13.368 18.527 14 15 14z"/><path fill="#2C3E50" d="M15 5c-4.97 0-9 1.348-9 3v1.5c0 1.652 4.03 3 9 3s9-1.348 9-3V8c0-1.652-4.03-3-9-3zm0 13.5c-3.527 0-7.066-.633-9-1.992V18.5c0 1.652 4.03 3 9 3s9-1.348 9-3v-1.992c-1.934 1.36-5.473 1.992-9 1.992zm0 4.5c-3.527 0-7.066-.633-9-1.992V23c0 1.652 4.03 3 9 3s9-1.348 9-3v-1.992C22.066 22.368 18.527 23 15 23zm0-9c-3.527 0-7.066-.633-9-1.992V14c0 1.652 4.03 3 9 3s9-1.348 9-3v-1.992C22.066 13.368 18.527 14 15 14z"/></svg><svg width="21" height="21" viewBox="-1 -1 21 21" x="203" y="201.33"><title>Triangle 1 + Rectangle 19 + Rectangle 19 + Rectangle 19</title><path d="M.377 18.933l.9-4.037 3.14 3.14M11.972 4.2l3.142 3.14-9.873 9.874-3.14-3.142 9.87-9.87zm6.556-.273l.275-.276-.275.28zm-.013-1.413L16.8.798c-.402-.4-1.034-.393-1.428 0l-2.577 2.578 3.14 3.14 2.593-2.59c.382-.383.38-1.018-.013-1.412z" fill="#FFF"/></svg><svg width="32" height="32" viewBox="-1 -1 32 32" x="64" y="169.33"><path fill-rule="evenodd" clip-rule="evenodd" fill="#FFF" d="M23 21v2h1c.553 0 1-.444 1-1v-1h-2zm0-3v2h2v-2h-2zm0-3v2h2v-2h-2zm0-3v2h2v-2h-2zm0-3v2h2V9h-2zm-3 12v2h2v-2h-2zm-3 0v2h2v-2h-2zm-3 0v2h2v-2h-2zm-3 0v2h2v-2h-2zm-3 0v2h2v-2H8zm-3 0v1c0 .553.444 1 1 1h1v-2H5zm0-3v2h2v-2H5zm0-3v2h2v-2H5zm0-3v2h2v-2H5zm0-3v2h2V9H5zm1-3c-.552 0-1 .443-1 1v1h2V6H6zm2 0v2h2V6H8zm3 0v2h2V6h-2zm3 0v2h2V6h-2zm3 0v2h2V6h-2zm3 0v2h2V6h-2zm3 0v2h2V7c0-.553-.444-1-1-1h-1z"/></svg><svg width="32" height="32" viewBox="-1 -1 32 32" x="96" y="169.33"><path fill-rule="evenodd" clip-rule="evenodd" fill="#2C3E50" d="M23 21v2h1c.553 0 1-.444 1-1v-1h-2zm0-3v2h2v-2h-2zm0-3v2h2v-2h-2zm0-3v2h2v-2h-2zm0-3v2h2V9h-2zm-3 12v2h2v-2h-2zm-3 0v2h2v-2h-2zm-3 0v2h2v-2h-2zm-3 0v2h2v-2h-2zm-3 0v2h2v-2H8zm-3 0v1c0 .553.444 1 1 1h1v-2H5zm0-3v2h2v-2H5zm0-3v2h2v-2H5zm0-3v2h2v-2H5zm0-3v2h2V9H5zm1-3c-.552 0-1 .443-1 1v1h2V6H6zm2 0v2h2V6H8zm3 0v2h2V6h-2zm3 0v2h2V6h-2zm3 0v2h2V6h-2zm3 0v2h2V6h-2zm3 0v2h2V7c0-.553-.444-1-1-1h-1z"/></svg><svg width="32" height="32" viewBox="-1 -1 32 32" x="128" y="169.33"><g fill-rule="evenodd" clip-rule="evenodd" fill="#FFF"><path d="M22.96 22.904c-1.145 0-2.074-.924-2.074-2.06 0-1.136.93-2.058 2.075-2.058 1.15 0 2.078.922 2.078 2.06 0 1.136-.93 2.058-2.074 2.058zm0-5.734c-2.046 0-3.704 1.646-3.704 3.674 0 2.03 3.705 7.06 3.705 7.06s3.708-5.028 3.708-7.06c0-2.028-1.657-3.674-3.704-3.674zm-11.49-1.41l-5.44-5.292v9.79m7.22-6.058l4.688-3.98.062-5.2H6.043L6 7.02"/><path d="M4.594 27.002S4 26.615 4 26.022V3.912c0-.59.594-.91.594-.91h13.422c.657 0 1.19.85 1.19 1.502v4.413h4.44c1.19 0 1.354.403 1.354 1.584v5.038c.498.258.474.317.86.715l.03-5.752c0-2.54-1.337-2.76-.876-2.44l-5.326-5.04S19.406 2 17.062 2H5.04c-.982 0-2.013.817-2.013 1.792v22.132c0 .973 1.117 2.014 2.098 2.014h15.27c-.27-.418-.638-.48-.915-.938l-14.886.002z"/><path d="M6.43 23.17v1.795h12.426c-.995-1.814-1.83-3.486-1.83-4.62 0-.942.26-1.847.708-2.605l-2.263-2.51-9.04 7.94zm14.377-12.702l-4.002 3.704 2.17 2.15c.878-.692 1.985-1.108 3.194-1.108.35 0 .7-.034.785.078V10.51l-2.15-.042z"/></g></svg><svg width="32" height="32" viewBox="-1 -1 32 32" x="160" y="169.33"><g fill-rule="evenodd" clip-rule="evenodd" fill="#2C3E50"><path d="M22.96 22.904c-1.145 0-2.074-.924-2.074-2.06 0-1.136.93-2.058 2.075-2.058 1.15 0 2.078.922 2.078 2.06 0 1.136-.93 2.058-2.074 2.058zm0-5.734c-2.046 0-3.704 1.646-3.704 3.674 0 2.03 3.705 7.06 3.705 7.06s3.708-5.028 3.708-7.06c0-2.028-1.657-3.674-3.704-3.674zm-11.49-1.41l-5.44-5.292v9.79m7.22-6.058l4.688-3.98.062-5.2H6.043L6 7.02"/><path d="M4.594 27.002S4 26.615 4 26.022V3.912c0-.59.594-.91.594-.91h13.422c.657 0 1.19.85 1.19 1.502v4.413h4.44c1.19 0 1.354.403 1.354 1.584v5.038c.498.258.474.317.86.715l.03-5.752c0-2.54-1.337-2.76-.876-2.44l-5.326-5.04S19.406 2 17.062 2H5.04c-.982 0-2.013.817-2.013 1.792v22.132c0 .973 1.117 2.014 2.098 2.014h15.27c-.27-.418-.638-.48-.915-.938l-14.886.002z"/><path d="M6.43 23.17v1.795h12.426c-.995-1.814-1.83-3.486-1.83-4.62 0-.942.26-1.847.708-2.605l-2.263-2.51-9.04 7.94zm14.377-12.702l-4.002 3.704 2.17 2.15c.878-.692 1.985-1.108 3.194-1.108.35 0 .7-.034.785.078V10.51l-2.15-.042z"/></g></svg><svg width="32" height="32" viewBox="-1 -1 32 32" x="208"><path fill="#FFF" d="M22 8.867v11.266c0 .482-.288.867-.646.867h-9.708c-.357 0-.645-.387-.645-.867V8.867c.005-.482.29-.867.65-.867h9.707c.358 0 .646.387.646.867zM5.002 21c0 1.104.892 2 1.998 2h15.007C23.11 23 24 22.11 24 21l-.002-13c0-1.104-.887-2-1.994-2H6.997C5.894 6 5 6.89 5 8l.002 13z"/></svg><svg width="32" height="32" viewBox="-1 -1 32 32" x="208" y="32"><path fill="#2C3E50" d="M22 8.867v11.266c0 .482-.288.867-.646.867h-9.708c-.357 0-.645-.387-.645-.867V8.867c.005-.482.29-.867.65-.867h9.707c.358 0 .646.387.646.867zM5.002 21c0 1.104.892 2 1.998 2h15.007C23.11 23 24 22.11 24 21l-.002-13c0-1.104-.887-2-1.994-2H6.997C5.894 6 5 6.89 5 8l.002 13z"/></svg><svg width="32" height="32" viewBox="-1 -1 32 32" x="144" y="32"><path fill="#FFF" d="M8.146 7.5h9.708c.356 0 .646.385.646.867v11.266c0 .48-.288.867-.646.867H8.146c-.358 0-.646-.385-.646-.867V8.367c0-.48.288-.867.646-.867zm16.354 0c0-1.11-.895-2-1.997-2H7.496c-1.107 0-1.994.896-1.994 2l-.002 13c0 1.11.89 2 1.993 2H22.5c1.105 0 1.998-.896 1.998-2l.002-13z"/></svg><svg width="32" height="32" viewBox="-1 -1 32 32" x="208" y="96"><path fill="#2C3E50" d="M8.146 7.5h9.708c.356 0 .645.385.646.867v11.266c0 .48-.288.867-.646.867H8.146c-.358 0-.646-.385-.646-.867V8.367c0-.48.288-.867.646-.867zm16.354 0c0-1.11-.895-2-1.997-2H7.496c-1.107 0-1.994.896-1.994 2l-.002 13c0 1.11.89 2 1.993 2H22.5c1.105 0 1.998-.896 1.998-2l.002-13z"/></svg><svg width="29" height="21" viewBox="-1 -1 29 21" x="34" y="86.33"><title>Imported Layers</title><g fill="#FFF" fill-rule="evenodd"><path d="M25.398 7.378c-1.767-2.14-3.8-3.993-6.332-5.296C17.32 1.18 15.583.712 13.59.732c-1.96.022-3.903.51-5.604 1.42C4.693 3.916 2.246 6.502.23 9.495c-.053.084-.037.264.02.354 1.785 2.653 3.95 4.97 6.733 6.71 1.994 1.247 4.162 2.01 5.787 2.02 2.856.01 4.774-.54 6.555-1.51 3.225-1.758 5.644-4.3 7.63-7.245l-1.557-2.45zM14.04 15.936C10.276 16.186 7.1 13.37 7 9.82c-.087-3.298 2.535-6.147 5.97-6.42 3.793-.304 6.933 2.285 7.214 5.856.266 3.4-2.5 6.438-6.142 6.68z"/><path d="M13.563 7.107c-1.368 0-2.528 1.18-2.535 2.573-.004 1.398 1.182 2.527 2.576 2.527 1.39 0 2.522-1.135 2.522-2.517.004-1.385-1.188-2.584-2.562-2.583"/></g></svg><svg width="26" height="23" viewBox="-1 -1 26 23" x="59" y="108.33"><title>book</title><path d="M22.99 6.513l-3.665 12.07c-.168.568-.508 1.344-1.02 1.73-.51.387-1.054.58-1.63.58H4.377c-.684 0-1.343-.536-1.978-1.01-.638-.477-1.08-1.06-1.33-1.753-.212-.595-.22-1.16-.026-1.692 0-.036.014-.156.04-.36.027-.204.045-.368.054-.493.01-.07-.005-.166-.04-.286-.036-.12-.05-.21-.04-.26.017-.1.053-.195.106-.28.054-.09.127-.197.22-.317s.167-.224.22-.313c.204-.336.404-.743.6-1.22.195-.473.328-.88.4-1.217.026-.09.028-.222.006-.4-.023-.177-.025-.3-.007-.373.027-.096.102-.22.227-.372.124-.152.2-.254.226-.307.184-.32.37-.725.56-1.223.184-.497.295-.897.33-1.2.01-.08-.002-.22-.033-.425-.03-.203-.03-.33.007-.372.035-.116.133-.252.293-.407.16-.155.258-.255.293-.3.17-.23.36-.605.567-1.125.21-.52.33-.948.367-1.285.01-.07-.005-.186-.04-.34-.036-.156-.045-.274-.027-.354.018-.073.058-.153.12-.24.062-.09.142-.193.24-.308.097-.118.173-.21.226-.28.07-.11.145-.244.22-.408.075-.165.136-.352.194-.5.057-.145.128-.405.213-.578.084-.174.17-.316.26-.427.088-.11.206-.216.353-.314s.307-.15.48-.153c.173-.004.384.02.633.074.324-.04.55-.08.666-.08h10.14c.656 0 1.162.25 1.52.746.352.498.44 1.207.243 1.864l-3.65 12.07c-.32 1.056-.638 1.44-.953 1.746-.313.306-.884.46-1.71.46H2.99c-.24 0-.408.066-.506.2-.098.14-.102.332-.013.572.216.622.855 1.23 1.92 1.23H16.69c.258 0 .507-.068.747-.205.24-.138.395-.322.466-.553l3.996-13.15c.063-.195.085-.448.067-.76.338.135.6.326.786.574.353.508.433 1.08.24 1.72zM7.47 8.42c-.037.14-.028.263.025.367.054.103-3.553.084.267.155 3.82.07 8.1 0 8.1 0 .115 0 .228-.052.34-.155.11-.104.184-.226.22-.368l.28-.948c.034-.14.025-.264-.028-.367-.053-.104-.142-.156-.266-.156h-8.1c-.116 0-.23.052-.34.156-.11.103-.184.226-.22.367l-.28.944zm.993-3.98c-.035.142-.026.264.027.368.053.103.142.155.266.155h8.1c.116 0 .23-.052.34-.155.11-.104.184-.226.22-.368l.28-.943c.035-.142.026-.265-.027-.368-.057-.108-.146-.16-.27-.16H9.3c-.114 0-.227.05-.34.156-.11.102-.182.225-.22.367l-.28.943z" fill="#FFF" fill-rule="evenodd"/></svg><svg width="32" height="32" viewBox="-1 -1 32 32" y="201.33"><path fill="#FFF" d="M24 16.49h-2.975c-.074 2.098-.92 3.785-2.65 4.973-1.296.887-2.746 1.215-4.294.95-3.34-.574-5.52-3.565-4.99-6.853.55-3.396 3.587-5.145 5.92-5.024v2.972l6.007-4.505-5.995-4.496v2.978c-3.224.12-5.77 1.45-7.55 4.122-1.287 1.94-1.72 4.097-1.33 6.39.8 4.712 5.1 7.96 9.84 7.442 4.973-.545 8.085-4.765 8.02-8.95"/></svg><svg width="32" height="32" viewBox="-1 -1 32 32" x="32" y="201.33"><defs><path id="J" d="M24 16.49h-2.974c-.075 2.098-.92 3.785-2.652 4.973-1.295.887-2.745 1.215-4.293.95-3.34-.574-5.52-3.566-4.99-6.853.55-3.396 3.587-5.144 5.92-5.024v2.972l6.007-4.505-5.995-4.496v2.978c-3.224.12-5.77 1.45-7.55 4.122-1.287 1.94-1.72 4.097-1.33 6.39.8 4.712 5.1 7.96 9.84 7.443 4.973-.542 8.085-4.762 8.02-8.95"/></defs><use xlink:href="#J" overflow="visible" fill-rule="evenodd" clip-rule="evenodd" fill="#2C3E50"/></svg><svg width="32" height="32" viewBox="-1 -1 32 32" x="208" y="128"><defs><path id="K" d="M24.545 22.168c.49.777.584 1.445.283 2-.303.555-.918.832-1.845.832H7.017c-.928 0-1.542-.277-1.844-.832-.3-.555-.208-1.223.282-2l6.563-10.19V6.92h-1.165c-.228-.048-.425-.132-.59-.297-.166-.165-.25-.458-.25-.685 0-.228.083-.52.25-.687.166-.16.362-.245.59-.245h8.216c.225 0 .51.084.68.25.163.165.25.458.25.686 0 .227-.087.52-.25.686-.17.165-.456.25-.685.297H17.97v5.06l6.57 10.188zM9.517 20.02h11.03L16.057 13V6.957h-2.122V13l-4.417 7.02z"/></defs><use xlink:href="#K" overflow="visible" fill-rule="evenodd" clip-rule="evenodd" fill="#FFF"/><clipPath id="L"><use xlink:href="#K" overflow="visible"/></clipPath><path clip-path="url(#L)" fill="#FFF" d="M0 0h30v30H0z"/></svg><svg width="32" height="32" viewBox="-1 -1 32 32" x="64" y="201.33"><defs><path id="M" d="M24.545 22.168c.49.777.584 1.445.283 2-.303.555-.918.832-1.845.832H7.017c-.928 0-1.542-.277-1.844-.832-.3-.555-.208-1.223.282-2l6.563-10.19V6.92h-1.165c-.228-.048-.425-.132-.59-.297-.166-.165-.25-.458-.25-.685 0-.228.083-.52.25-.687.166-.16.362-.245.59-.245h8.216c.225 0 .51.084.68.25.163.165.25.458.25.686 0 .227-.087.52-.25.686-.17.165-.456.25-.685.297H17.97v5.06l6.57 10.188zM9.517 20.02h11.03L16.057 13V6.957h-2.122V13l-4.417 7.02z"/></defs><use xlink:href="#M" overflow="visible" fill-rule="evenodd" clip-rule="evenodd" fill="#2C3E50"/><clipPath id="N"><use xlink:href="#M" overflow="visible"/></clipPath><path clip-path="url(#N)" fill="#2C3E50" d="M0 0h30v30H0z"/></svg><svg width="32" height="32" viewBox="-1 -1 32 32" x="208" y="160"><path fill="#FFF" d="M6.99 6c-1.09 0-1.942.85-1.942 1.953L5 23h5v-2H7v-1h3v-2H7v-1h3v-2H7v-1h3v-2H7v-1h3V8h1v3h2V8h1v3h2V8h1v3h2V8h1v3h2V8h1v3h2V6H6.99z"/></svg><svg width="32" height="32" viewBox="-1 -1 32 32" x="208" y="64"><path fill="#2C3E50" d="M6.99 6c-1.09 0-1.942.85-1.942 1.953L5 23h5v-2H7v-1h3v-2H7v-1h3v-2H7v-1h3v-2H7v-1h3V8h1v3h2V8h1v3h2V8h1v3h2V8h1v3h2V8h1v3h2V6H6.99z"/></svg><svg width="32" height="32" viewBox="-1 -1 32 32" x="32" y="169.33"><path fill-rule="evenodd" clip-rule="evenodd" fill="#FFF" d="M3.58 25.404c.155-.9.278-1.807.474-2.697.628-2.857 1.646-5.562 3.3-7.997 2.438-3.59 6.135-5.61 10.334-6.656l.354-.087V4.535c2.883 2.872 5.497 5.82 8.38 8.69-2.844 2.835-5.4 5.634-8.343 8.566 0-1.14-.03-2.392-.03-3.535-3.56-.645-10.05.758-14.37 7.166l-.104-.014"/></svg><svg width="32" height="32" viewBox="-1 -1 32 32" x="176" y="64"><path fill-rule="evenodd" clip-rule="evenodd" fill="#2C3E50" d="M3.58 25.404c.155-.9.278-1.807.474-2.697.628-2.857 1.646-5.562 3.3-7.997 2.438-3.59 6.135-5.61 10.334-6.656l.354-.087V4.535c2.883 2.872 5.497 5.82 8.38 8.69-2.844 2.835-5.4 5.634-8.343 8.566 0-1.14-.03-2.392-.03-3.535-3.56-.645-10.05.758-14.37 7.166l-.104-.014"/></svg><svg width="32" height="32" viewBox="-1 -1 32 32" x="144"><defs><path id="O" d="M4.5 6.5h2v17h-2z"/></defs><use xlink:href="#O" overflow="visible" fill-rule="evenodd" clip-rule="evenodd" fill="#FFF"/><defs><path id="P" d="M8.54 6.5H19.5v6.95H8.54z"/></defs><use xlink:href="#P" overflow="visible" fill-rule="evenodd" clip-rule="evenodd" fill="#FFF"/><defs><path id="Q" d="M8.54 16.55H25.5v6.95H8.54z"/></defs><use xlink:href="#Q" overflow="visible" fill-rule="evenodd" clip-rule="evenodd" fill="#FFF"/></svg><svg width="32" height="32" viewBox="-1 -1 32 32" x="112" y="64"><defs><path id="R" d="M4.5 6.5h2v17h-2z"/></defs><use xlink:href="#R" overflow="visible" fill-rule="evenodd" clip-rule="evenodd" fill="#2C3E50"/><defs><path id="S" d="M8.54 6.5H19.5v6.95H8.54z"/></defs><use xlink:href="#S" overflow="visible" fill-rule="evenodd" clip-rule="evenodd" fill="#2C3E50"/><defs><path id="T" d="M8.54 16.55H25.5v6.95H8.54z"/></defs><use xlink:href="#T" overflow="visible" fill-rule="evenodd" clip-rule="evenodd" fill="#2C3E50"/></svg><svg width="26" height="23" viewBox="-1 -1 26 23" x="85" y="108.33"><title>camera</title><defs><filter x="-50%" y="-50%" width="200%" height="200%" filterUnits="objectBoundingBox" id="U"><feOffset dy="1" in="SourceAlpha" result="shadowOffsetOuter1"/><feGaussianBlur stdDeviation=".5" in="shadowOffsetOuter1" result="shadowBlurOuter1"/><feColorMatrix values="0 0 0 0 0 0 0 0 0 0 0 0 0 0 0 0 0 0 0.21 0" in="shadowBlurOuter1" result="shadowMatrixOuter1"/><feMerge><feMergeNode in="shadowMatrixOuter1"/><feMergeNode in="SourceGraphic"/></feMerge></filter></defs><path d="M1462.003 13c1.102 0 1.996.894 1.996 1.993v12.005c0 1.1-.89 1.993-1.99 1.993l-18.02.01c-1.1 0-1.99-.89-1.99-1.99V15c0-1.1.892-1.994 1.994-1.996L1447.8 13l.27-.676c.516-1.288 2.053-2.324 3.44-2.324h2.98c1.398 0 2.926 1.04 3.44 2.324l.27.676h3.803zM1453 27c3.314 0 6-2.686 6-6s-2.686-6-6-6-6 2.686-6 6 2.686 6 6 6zm0-2c2.21 0 4-1.79 4-4s-1.79-4-4-4-4 1.79-4 4 1.79 4 4 4z" transform="translate(-1441 -10)" filter="url(#U)" fill-rule="evenodd"/></svg><svg width="32" height="32" viewBox="-1 -1 32 32" x="112" y="32"><defs><path id="V" d="M6 16.49c-.064 4.188 3.05 8.408 8.023 8.95 4.74.516 9.042-2.732 9.84-7.445.388-2.292-.044-4.448-1.332-6.39-1.774-2.67-4.32-4-7.545-4.12v-2.98l-5.997 4.5 6.006 4.504v-2.974c2.334-.12 5.372 1.63 5.92 5.024.53 3.287-1.653 6.28-4.993 6.853-1.547.266-2.997-.062-4.292-.95-1.733-1.187-2.577-2.874-2.652-4.972H6"/></defs><use xlink:href="#V" overflow="visible" fill-rule="evenodd" clip-rule="evenodd" fill="#FFF"/><defs><path id="W" d="M6 16.49h2.975c.075 2.098.92 3.785 2.652 4.973 1.295.887 2.745 1.215 4.293.95 3.34-.574 5.523-3.566 4.993-6.853-.548-3.396-3.586-5.144-5.92-5.024v2.972L8.987 9.003l5.995-4.496v2.978c3.224.12 5.77 1.45 7.55 4.122 1.287 1.94 1.72 4.097 1.33 6.39-.797 4.712-5.1 7.96-9.84 7.443-4.973-.542-8.086-4.762-8.02-8.95"/></defs><use xlink:href="#W" overflow="visible" fill-rule="evenodd" clip-rule="evenodd" fill="#FFF"/></svg><svg width="32" height="32" viewBox="-1 -1 32 32" x="144" y="64"><path fill="#2C3E50" d="M6 16.49c-.064 4.188 3.05 8.408 8.023 8.95 4.74.516 9.042-2.732 9.84-7.445.388-2.292-.045-4.448-1.332-6.39-1.774-2.67-4.32-4-7.545-4.12v-2.98l-5.997 4.5 6.006 4.504v-2.974c2.334-.12 5.372 1.63 5.92 5.024.53 3.286-1.653 6.278-4.993 6.853-1.547.266-2.997-.062-4.292-.95-1.733-1.187-2.577-2.874-2.652-4.972H6"/><path fill="#2C3E50" d="M6 16.49h2.975c.075 2.098.92 3.785 2.652 4.973 1.295.887 2.745 1.215 4.293.95 3.34-.574 5.523-3.565 4.993-6.853-.548-3.396-3.586-5.145-5.92-5.024v2.972L8.987 9.003l5.995-4.496v2.978c3.224.12 5.77 1.45 7.55 4.122 1.286 1.94 1.72 4.097 1.33 6.39-.798 4.712-5.1 7.96-9.84 7.442-4.973-.545-8.086-4.765-8.02-8.95"/></svg><svg width="13.92" height="15.9" viewBox="-1 -1 13.92 15.9" x="240" y="70.9"><title>Imported Layers</title><path fill="#FFF" d="M11.126 5.966H9.893V3.86H9.89C9.875 1.705 8.25 0 6.083 0c-2.17 0-3.926 1.744-3.94 3.898h-.005v2.104H.79c-.436.003-.79.355-.79.788v6.3c0 .435.354.786.79.786l10.336.02c.437 0 .79-.353.79-.786V6.75c0-.433-.355-.784-.79-.784zM3.89 4.338l.003-.425c0-1.496.99-2.167 2.19-2.167 1.196 0 2.045.933 2.05 2.128l.006.34v1.752l-4.25.04v-1.67z"/></svg><svg width="13.92" height="15.9" viewBox="-1 -1 13.92 15.9" x="240" y="55"><title>Imported Layers</title><path fill="#FFF" d="M11.128 5.966l-7.238.04V4.338l.003-.426c0-1.496.99-2.167 2.19-2.167 1.196 0 2.045.933 2.05 2.128v.02H9.89V3.86C9.875 1.705 8.25 0 6.084 0 3.914 0 2.157 1.744 2.14 3.9h-.004v2.103H.79c-.436.002-.79.354-.79.787v6.3c0 .435.354.786.79.786l10.338.02c.436 0 .79-.353.79-.786V6.75c0-.433-.356-.784-.79-.784z"/></svg><svg width="34" height="22" viewBox="-1 -1 34 22" y="86.33"><title>Imported Layers</title><g fill="#FFF" fill-rule="evenodd"><path d="M13.223 5.98c.266.27.4.593.4.976 0 .382-.134.707-.4.974-.268.268-.593.4-.975.4-.383 0-.707-.132-.974-.4-.268-.267-.402-.592-.402-.974 0-.383.134-.707.402-.975.267-.263.59-.4.974-.4.382 0 .707.137.975.4M23 14.768H9.025V12.86L12.2 9.68l1.59 1.588 5.082-5.082L23 10.316v4.447z"/><path d="M2 2.765h28v15H2v-15zm-2 17h32v-19H0v19z"/></g></svg><svg width="46.33" height="47.33" viewBox="0 -4.33 46.33 47.33" y="39"><path fill="#FFF" d="M2.838 30.51V8.34c0-4.924 3.99-8.915 8.915-8.915h22.17c4.924 0 8.916 3.99 8.916 8.915v22.17c0 4.924-3.996 8.915-8.92 8.915H11.75c-4.923 0-8.914-3.99-8.914-8.915zm5.455-17.087v-4.63c0-2.293 1.866-4.16 4.16-4.16h4.63c.7 0 1.267-.566 1.267-1.266S17.783 2.1 17.083 2.1h-4.63c-3.69 0-6.693 3.002-6.693 6.693v4.63c0 .7.567 1.266 1.267 1.266s1.266-.57 1.266-1.27z"/></svg><svg width="14" height="14" viewBox="-1 -1 14 14" x="240" y="101.8"><title>Imported Layers</title><path d="M12 .584H0L5.044 7.07l.44 4.346h.985L7.012 7.1 12 .585" fill="#B7C8D9" fill-rule="evenodd"/></svg><svg width="14" height="15" viewBox="-1 -1 14 15" x="240" y="86.8"><title></title><defs><filter x="-50%" y="-50%" width="200%" height="200%" filterUnits="objectBoundingBox" id="X"><feOffset dy="1" in="SourceAlpha" result="shadowOffsetOuter1"/><feGaussianBlur in="shadowOffsetOuter1" result="shadowBlurOuter1"/><feColorMatrix values="0 0 0 0 0 0 0 0 0 0 0 0 0 0 0 0 0 0 0.21 0" in="shadowBlurOuter1" result="shadowMatrixOuter1"/><feMerge><feMergeNode in="shadowMatrixOuter1"/><feMergeNode in="SourceGraphic"/></feMerge></filter></defs><path d="M229 15c0-.552-.195-1.023-.586-1.414-.39-.39-.862-.586-1.414-.586-.552 0-1.023.195-1.414.586-.39.39-.586.862-.586 1.414 0 .552.195 1.023.586 1.414.39.39.862.586 1.414.586.552 0 1.023-.195 1.414-.586.39-.39.586-.862.586-1.414zm4-.852v1.735c0 .062-.02.122-.063.18-.04.057-.093.09-.156.1l-1.44.22c-.1.28-.2.518-.306.71.184.26.462.62.837 1.08.05.06.078.126.078.194s-.023.128-.07.18c-.14.193-.398.474-.773.844s-.62.558-.735.558c-.064 0-.13-.023-.205-.07l-1.078-.844c-.23.12-.466.22-.71.298-.084.71-.16 1.194-.228 1.454-.038.147-.13.22-.28.22h-1.737c-.073 0-.137-.022-.192-.066-.052-.045-.082-.1-.087-.168l-.22-1.44c-.254-.082-.49-.18-.702-.29l-1.1.838c-.05.047-.117.07-.195.07-.073 0-.138-.028-.196-.086-.657-.594-1.086-1.032-1.29-1.313-.036-.053-.054-.113-.054-.18 0-.063.02-.123.062-.18.076-.11.21-.283.4-.52.184-.237.325-.42.42-.55-.14-.26-.25-.52-.32-.774l-1.43-.21c-.07-.012-.124-.044-.165-.1-.042-.054-.063-.115-.063-.182V14.12c0-.063.02-.123.063-.18.04-.058.09-.09.148-.1l1.455-.22c.073-.24.175-.48.305-.72-.21-.296-.488-.656-.837-1.078-.052-.062-.078-.125-.078-.187 0-.052.023-.112.07-.18.135-.187.392-.467.77-.84.377-.372.623-.558.738-.558.068 0 .135.026.203.078l1.077.836c.23-.12.466-.22.71-.295.084-.708.16-1.193.228-1.453.037-.146.13-.22.28-.22h1.736c.073 0 .137.023.192.067.053.044.083.1.088.167l.22 1.438c.254.083.49.18.702.29l1.11-.837c.047-.047.11-.07.187-.07.067 0 .132.026.195.078.67.62 1.1 1.062 1.29 1.328.035.044.053.1.053.174 0 .062-.02.122-.062.18-.077.11-.21.282-.4.52-.185.236-.326.42-.42.55.136.26.243.515.32.765l1.43.22c.068.01.123.04.164.097.04.055.062.116.062.183z" transform="translate(-221 -9)" filter="url(#X)" fill="#FFF" fill-rule="evenodd"/></svg><svg width="19.56" height="18.98" viewBox="-1 -1 19.56 18.98" x="87.33" y="39"><path fill="#2C3E50" d="M17 9.085l-7.97-7.99L1 9.085l2.014.003-.006 6.974 11.908-.015V9.08"/></svg><svg width="7" height="10" viewBox="-1 -1 7 10" x="252" y="128.8"><title>Closed</title><path d="M4.5 4c0 .135-.05.253-.148.352l-3.5 3.5C.752 7.952.635 8 .5 8c-.135 0-.253-.05-.352-.148C.048 7.752 0 7.635 0 7.5v-7C0 .365.05.247.148.148.248.048.365 0 .5 0c.135 0 .253.05.352.148l3.5 3.5c.1.1.148.217.148.352z" fill="#DBDFE1" fill-rule="evenodd"/></svg><svg width="7" height="10" viewBox="-1 -1 7 10" x="251" y="115.8"><title>Tree_Closed_Arrow_Icon</title><path d="M4.5 4c0 .135-.05.253-.148.352l-3.5 3.5C.752 7.952.635 8 .5 8c-.135 0-.253-.05-.352-.148C.048 7.752 0 7.635 0 7.5v-7C0 .365.05.247.148.148.248.048.365 0 .5 0c.135 0 .253.05.352.148l3.5 3.5c.1.1.148.217.148.352z" fill="#DBDFE1" fill-rule="evenodd"/></svg><svg width="36" height="18" viewBox="-1 -1 36 18" x="46.33" y="58"><title>Tree_Delete_Hover</title><g fill="none" fill-rule="evenodd"><path fill="#2C3E50" d="M0 0h34v16H0z"/><path d="M10 14c3.314 0 6-2.686 6-6s-2.686-6-6-6-6 2.686-6 6 2.686 6 6 6zm-3-3.96l1.96-2-1.96-2L8.092 5l1.923 1.968L11.945 5l1.092 1.04-1.962 2 1.962 2-1.092 1.04-1.93-1.96-1.923 1.96L7 10.04z" fill="#FFF"/></g></svg><svg width="10" height="7" viewBox="-1 -1 10 7" x="240" y="140.8"><title>Tree_DownArrow</title><path d="M8 .5c0 .135-.05.253-.148.352l-3.5 3.5c-.1.1-.217.148-.352.148-.135 0-.253-.05-.352-.148l-3.5-3.5C.048.752 0 .635 0 .5 0 .365.05.247.148.148.248.048.365 0 .5 0h7c.135 0 .253.05.352.148.1.1.148.217.148.352z" fill="#DBDFE1" fill-rule="evenodd"/></svg><svg width="12" height="12" viewBox="-1 -1 12 12" x="240" y="128.8"><title>Invisible Icon</title><path d="M1.074 9.826c-.123.124-.272.186-.444.186-.173 0-.32-.062-.444-.186S0 9.554 0 9.38c0-.17.062-.32.186-.444l1.19-1.192C.656 6.962.2 6.054.01 5.017c.15-.822.465-1.566.947-2.234.482-.668 1.078-1.193 1.787-1.574C3.454.824 4.206.633 5 .633c.944 0 1.83.274 2.656.82l1.26-1.26c.124-.12.274-.184.45-.184.175 0 .323.06.444.18.12.12.18.27.18.446s-.062.326-.185.45l-8.73 8.74zM5 1.89c-.853 0-1.65.207-2.393.624H2.5v.06c-.475.286-.877.64-1.206 1.06-.33.42-.55.88-.66 1.383.183.814.642 1.51 1.378 2.09l.83-.84c-.228-.384-.342-.8-.342-1.25 0-.39.09-.763.273-1.115l.557.274c-.137.274-.205.554-.205.84 0 .28.062.545.186.792l.49-.488c-.03-.11-.05-.212-.05-.303 0-.19.05-.375.14-.558l.517.25.293-.302-.255-.51c.183-.09.368-.136.557-.136.09 0 .196.013.314.04l.488-.49C5.548 3.2 5.28 3.14 5 3.14s-.557.068-.83.205l-.283-.567c.35-.176.722-.264 1.113-.264.45 0 .87.114 1.26.342l.595-.596C6.257 2.012 5.638 1.89 5 1.89zm2.49 3.39c-.065.587-.306 1.087-.722 1.5-.417.415-.915.654-1.495.72L7.49 5.28zM5 8.136c1.055 0 1.997-.297 2.827-.89.83-.593 1.346-1.336 1.548-2.228-.09-.39-.254-.77-.488-1.134l.517-.518c.293.52.492 1.072.596 1.652-.15.82-.467 1.565-.952 2.233-.485.67-1.083 1.19-1.792 1.57-.71.38-1.462.57-2.256.57-.47 0-.934-.073-1.396-.216L4.648 8.13c.13.006.248.01.352.01z" fill="#728496" fill-rule="evenodd"/></svg><svg width="11" height="13" viewBox="-1 -1 11 13" x="240" y="115.8"><title>Page Icon</title><path d="M8.57 4.857v5.357c0 .18-.06.33-.186.456-.125.125-.277.187-.455.187H.64c-.18 0-.33-.062-.456-.187C.06 10.545 0 10.393 0 10.214v-9C0 1.036.06.884.187.76.313.633.464.57.643.57h3.643v3.644c0 .18.062.33.187.456.125.125.277.187.456.187h3.64zM8.55 4H5.144V.592c.366.066.66.212.884.435l2.09 2.09c.222.222.367.517.434.883z" fill="#DBDFE1" fill-rule="evenodd"/></svg><svg width="21" height="21" viewBox="-1 -1 21 21" x="161" y="201.33"><path fill="#DBDFE1" d="M14 13.1c0 .498-.403.9-.9.9H5.9c-.497 0-.9-.402-.9-.9V5.9c0-.497.403-.9.9-.9h7.2c.497 0 .9.403.9.9v7.2z"/></svg><svg width="21" height="21" viewBox="-1 -1 21 21" x="84" y="86.33"><path fill="#DBDFE1" d="M12 7v5H7V7h5m1.1-2H5.9c-.497 0-.9.403-.9.9v7.2c0 .498.403.9.9.9h7.2c.497 0 .9-.402.9-.9V5.9c0-.497-.403-.9-.9-.9z"/></svg><svg width="32" height="32" viewBox="-1 -1 32 32" x="176" y="32"><title>Oval 288 + links 10</title><g fill="none" fill-rule="evenodd"><circle fill="#2C3E50" cx="15" cy="15" r="15"/><path d="M15.333 13.54c.6-1.26 1.95-2.137 3.518-2.137h2.2c2.13 0 3.855 1.612 3.855 3.6 0 1.99-1.724 3.6-3.85 3.6h-2.2c-1.577 0-2.932-.884-3.528-2.153h-.64c-.598 1.264-1.95 2.147-3.524 2.147h-2.2c-2.126 0-3.85-1.612-3.85-3.6 0-1.99 1.724-3.6 3.85-3.6h2.2c1.57 0 2.924.88 3.523 2.142h.65zm2.902.032c.19-.072.398-.11.616-.11h2.2c.916 0 1.655.69 1.655 1.542 0 .852-.74 1.543-1.65 1.543h-2.2c-.23 0-.45-.044-.648-.123.672-.13 1.18-.716 1.18-1.43 0-.697-.493-1.28-1.15-1.422zm-6.432 2.846c-.198.078-.415.12-.643.12h-2.2c-.912 0-1.65-.69-1.65-1.542 0-.852.738-1.543 1.65-1.543h2.2c.225 0 .44.042.636.12-.656.14-1.147.72-1.147 1.42s.49 1.283 1.15 1.425z" fill="#606E7B"/></g></svg><svg width="27" height="27" viewBox="-1 -1 27 27" x="32" y="108.33"><title>Oval 6 + × 5</title><g fill="none" fill-rule="evenodd"><ellipse stroke="#2C3E50" stroke-width="3" fill="#FFF" cx="12.5" cy="12.5" rx="12.5" ry="12.5"/><text font-family="Roboto" font-size="20" font-weight="bold" fill="#2C3E50"><tspan x="7.188" y="21">×</tspan></text></g></svg></svg></svg>