<?xml version="1.0" encoding="utf-8"?>
<!-- Generator: Adobe Illustrator 16.0.0, SVG Export Plug-In . SVG Version: 6.00 Build 0)  -->
<!DOCTYPE svg PUBLIC "-//W3C//DTD SVG 1.1//EN" "http://www.w3.org/Graphics/SVG/1.1/DTD/svg11.dtd">
<svg version="1.1" id="Layer_1" xmlns="http://www.w3.org/2000/svg" xmlns:xlink="http://www.w3.org/1999/xlink" x="0px" y="0px"
	 width="30px" height="30px" viewBox="0 0 30 30" enable-background="new 0 0 30 30" xml:space="preserve">
<g>
	<g>
		<path id="SVGID_1_" fill="#FFFFFF" d="M23.532,4.955c0-0.152-0.06-0.285-0.174-0.396c-0.117-0.11-0.257-0.166-0.414-0.166H7.031
			c-0.159,0-0.298,0.056-0.414,0.166C6.501,4.67,6.442,4.803,6.442,4.955v17.001c0,0.151,0.059,0.283,0.175,0.396
			c0.116,0.111,0.255,0.166,0.414,0.166h15.913c0.157,0,0.297-0.057,0.414-0.168c0.114-0.11,0.174-0.242,0.174-0.395V4.955z
			 M17.034,24.893c0-0.405-0.147-0.758-0.444-1.055c-0.298-0.297-0.648-0.445-1.056-0.445s-0.759,0.148-1.056,0.445
			c-0.297,0.297-0.445,0.648-0.445,1.055c0,0.407,0.148,0.758,0.445,1.056c0.297,0.297,0.649,0.444,1.056,0.444
			c0.406,0,0.758-0.147,1.056-0.444C16.887,25.65,17.034,25.299,17.034,24.893z M25.489,24.529c0,0.787-0.278,1.461-0.84,2.021
			s-1.593,0.843-2.379,0.843H7.393c-0.787,0-1.461-0.281-2.022-0.843c-0.56-0.561-0.84-1.233-0.84-2.021V4.256
			c0-0.787,0.389-1.354,0.948-1.914C6.041,1.78,6.714,1.5,7.501,1.5h15.277c0.787,0,1.418,0.279,1.979,0.842
			c0.561,0.562,0.73,1.127,0.73,1.914L25.489,24.529L25.489,24.529z"/>
	</g>
</g>
</svg>
