<?xml version="1.0" encoding="utf-8"?>
<!-- Generator: Adobe Illustrator 16.0.0, SVG Export Plug-In . SVG Version: 6.00 Build 0)  -->
<!DOCTYPE svg PUBLIC "-//W3C//DTD SVG 1.1//EN" "http://www.w3.org/Graphics/SVG/1.1/DTD/svg11.dtd">
<svg version="1.1" id="Layer_1" xmlns="http://www.w3.org/2000/svg" xmlns:xlink="http://www.w3.org/1999/xlink" x="0px" y="0px"
	 width="30px" height="30px" viewBox="0 0 30 30" enable-background="new 0 0 30 30" xml:space="preserve">
<g>
	<g>
		<path id="SVGID_1_" fill="#FFFFFF" d="M27.125,5.639c0-0.173-0.057-0.323-0.172-0.449C26.84,5.063,26.704,5,26.548,5H3.577
			C3.421,5,3.286,5.063,3.171,5.189C3.057,5.316,3,5.466,3,5.639v13.778c0,0.173,0.057,0.322,0.171,0.449
			c0.114,0.126,0.25,0.188,0.829,0.188h22.971c-0.267,0-0.131-0.062-0.018-0.188c0.115-0.127,0.172-0.276,0.172-0.449V5.639z
			 M28.867,22.082c0,0.788-0.281,1.462-0.842,2.023c-0.562,0.562-1.236,0.842-2.025,0.842l-7.188-0.061
			c0,0.442,0.097,0.604,0.285,1.088c0.191,0.483,0.385,0.606,0.574,0.971c0.191,0.365,0.286,0.625,0.286,0.779
			c0,0.312-0.112,0.578-0.341,0.808c-0.229,0.227-0.495,0.34-0.807,0.34l-7.666,0.06c-0.311,0-0.579-0.113-0.806-0.341
			S10,28.096,10,27.784c0-0.167,0.095-0.431,0.287-0.787c0.191-0.358,0.382-0.478,0.573-0.953c0.191-0.479,0.287-0.644,0.287-1.097
			h-7.28c-0.788,0-1.463-0.28-2.024-0.842C1.281,23.544,1,22.87,1,22.082V5.866c0-0.788,0.281-1.463,0.842-2.024
			C2.403,3.281,3.079,3,3.867,3H26c0.789,0,1.464,0.281,2.025,0.842c0.561,0.561,0.842,1.236,0.842,2.024V22.082z"/>
	</g>
	<g>
		<defs>
			<path id="SVGID_2_" d="M27.125,5.639c0-0.173-0.057-0.323-0.172-0.449C26.84,5.063,26.704,5,26.548,5H3.577
				C3.421,5,3.286,5.063,3.171,5.189C3.057,5.316,3,5.466,3,5.639v13.778c0,0.173,0.057,0.322,0.171,0.449
				c0.114,0.126,0.25,0.188,0.829,0.188h22.971c-0.267,0-0.131-0.062-0.018-0.188c0.115-0.127,0.172-0.276,0.172-0.449V5.639z
				 M28.867,22.082c0,0.788-0.281,1.462-0.842,2.023c-0.562,0.562-1.236,0.842-2.025,0.842l-7.188-0.061
				c0,0.442,0.097,0.604,0.285,1.088c0.191,0.483,0.385,0.606,0.574,0.971c0.191,0.365,0.286,0.625,0.286,0.779
				c0,0.312-0.112,0.578-0.341,0.808c-0.229,0.227-0.495,0.34-0.807,0.34l-7.666,0.06c-0.311,0-0.579-0.113-0.806-0.341
				S10,28.096,10,27.784c0-0.167,0.095-0.431,0.287-0.787c0.191-0.358,0.382-0.478,0.573-0.953c0.191-0.479,0.287-0.644,0.287-1.097
				h-7.28c-0.788,0-1.463-0.28-2.024-0.842C1.281,23.544,1,22.87,1,22.082V5.866c0-0.788,0.281-1.463,0.842-2.024
				C2.403,3.281,3.079,3,3.867,3H26c0.789,0,1.464,0.281,2.025,0.842c0.561,0.561,0.842,1.236,0.842,2.024V22.082z"/>
		</defs>
		<clipPath id="SVGID_3_">
			<use xlink:href="#SVGID_2_"  overflow="visible"/>
		</clipPath>
		<rect x="-4" y="-2" clip-path="url(#SVGID_3_)" fill="#FFFFFF" width="37.867" height="35.932"/>
	</g>
</g>
</svg>
