<?xml version="1.0" encoding="utf-8"?>
<!-- Generator: Adobe Illustrator 16.0.0, SVG Export Plug-In . SVG Version: 6.00 Build 0)  -->
<!DOCTYPE svg PUBLIC "-//W3C//DTD SVG 1.1//EN" "http://www.w3.org/Graphics/SVG/1.1/DTD/svg11.dtd">
<svg version="1.1" id="Layer_1" xmlns="http://www.w3.org/2000/svg" xmlns:xlink="http://www.w3.org/1999/xlink" x="0px" y="0px"
	 width="30px" height="30px" viewBox="0 0 30 30" enable-background="new 0 0 30 30" xml:space="preserve">
<path fill-rule="evenodd" clip-rule="evenodd" fill="#FFFFFF" d="M23,21v2h1c0.553,0,1-0.444,1-1v-1H23z M23,18v2h2v-2H23z M23,15v2
	h2v-2H23z M23,12v2h2v-2H23z M23,9v2h2V9H23z M20,21v2h2v-2H20z M17,21v2h2v-2H17z M14,21v2h2v-2H14z M11,21v2h2v-2H11z M8,21v2h2
	v-2H8z M5,21v1c0,0.553,0.444,1,1,1h1v-2H5z M5,18v2h2v-2H5z M5,15v2h2v-2H5z M5,12v2h2v-2H5z M5,9v2h2V9H5z M6,6
	C5.448,6,5,6.443,5,7v1h2V6H6z M8,6v2h2V6H8z M11,6v2h2V6H11z M14,6v2h2V6H14z M17,6v2h2V6H17z M20,6v2h2V6H20z M23,6v2h2V7
	c0-0.553-0.444-1-1-1H23z"/>
</svg>
