<?xml version="1.0" encoding="UTF-8" standalone="no"?>
<svg width="27px" height="19px" viewBox="0 0 27 19" version="1.1" xmlns="http://www.w3.org/2000/svg" xmlns:xlink="http://www.w3.org/1999/xlink" xmlns:sketch="http://www.bohemiancoding.com/sketch/ns">
    <!-- Generator: Sketch 3.3 (11970) - http://www.bohemiancoding.com/sketch -->
    <title>Imported Layers</title>
    <desc>Created with Sketch.</desc>
    <defs></defs>
    <g id="Blue-Grid-01" stroke="none" stroke-width="1" fill="none" fill-rule="evenodd" sketch:type="MSPage">
        <g id="Desktop" sketch:type="MSArtboardGroup" transform="translate(-924.000000, -74.000000)" fill="#FFFFFF">
            <g id="Header" sketch:type="MSLayerGroup" transform="translate(1.000000, 0.000000)">
                <g id="Tools" transform="translate(461.000000, 69.000000)" sketch:type="MSShapeGroup">
                    <g id="Imported-Layers-+-Imported-Layers" transform="translate(422.000000, 3.000000)">
                        <g id="Imported-Layers" transform="translate(39.083073, 2.731696)">
                            <path d="M26.3145347,6.64577813 C24.5484884,4.507125 22.5159744,2.65295625 19.9828576,1.34990625 C18.2357651,0.44848125 16.4987071,-0.021196875 14.5063304,0.001115625 C12.5474016,0.0223125 10.6040818,0.51095625 8.90270144,1.42019063 C5.61031855,3.18399375 3.16416615,5.7700125 1.14726109,8.76323438 C1.09374453,8.84690625 1.11046846,9.02652188 1.16844472,9.1168875 C2.95232979,11.7731906 5.11640537,14.0881125 7.90038101,15.8296031 C9.89387258,17.0768719 12.0624079,17.8399594 13.6868582,17.85 C16.5433042,17.858925 18.4609806,17.3078063 20.2415209,16.3383281 C23.4670081,14.5823344 25.8864022,12.0409406 27.8732042,9.094575 L26.3145347,6.64577813 L26.3145347,6.64577813 Z M14.9578763,15.2037375 C11.191649,15.4547531 8.0185634,12.6378 7.91487508,9.08788125 C7.82791068,5.79009375 10.4502217,2.9407875 13.8864304,2.668575 C17.6783011,2.36400938 20.8179388,4.953375 21.0989007,8.52449063 C21.3664834,11.9238 18.6003467,14.9616469 14.9578763,15.2037375 L14.9578763,15.2037375 Z" id="Fill-1"></path>
                            <path d="M14.4795721,6.37468125 C13.1115553,6.37579688 11.95203,7.55389688 11.9453404,8.94842813 C11.9408807,10.3463063 13.1271643,11.4753188 14.5208245,11.4753188 C15.9089101,11.4753188 17.0416771,10.3396125 17.0416771,8.95846875 C17.0461368,7.5728625 15.8542786,6.37356563 14.4795721,6.37468125" id="Fill-2"></path>
                        </g>
                    </g>
                </g>
            </g>
        </g>
    </g>
</svg>