<?xml version="1.0" encoding="UTF-8" standalone="no"?>
<svg width="24px" height="21px" viewBox="0 0 24 21" version="1.1" xmlns="http://www.w3.org/2000/svg" xmlns:xlink="http://www.w3.org/1999/xlink" xmlns:sketch="http://www.bohemiancoding.com/sketch/ns">
    <!-- Generator: Sketch 3.3.1 (12005) - http://www.bohemiancoding.com/sketch -->
    <title>book</title>
    <desc>Created with Sketch.</desc>
    <defs></defs>
    <g id="Page-1" stroke="none" stroke-width="1" fill="none" fill-rule="evenodd" sketch:type="MSPage">
        <g id="Interactive-Mode---Concurent-Access---#983-Copy" sketch:type="MSArtboardGroup" transform="translate(-1387.000000, -237.000000)" fill="#FFFFFF">
            <path d="M1409.98883,243.51285 L1406.32525,255.582664 C1406.15651,256.151076 1405.8168,256.926861 1405.30611,257.313203 C1404.79543,257.699546 1404.25145,257.892714 1403.67416,257.892714 L1391.37787,257.892714 C1390.694,257.892714 1390.03456,257.356724 1389.39954,256.881567 C1388.76451,256.406411 1388.32267,255.822465 1388.07399,255.129713 C1387.86083,254.534656 1387.85195,253.970693 1388.04735,253.437807 C1388.04735,253.402281 1388.06067,253.282384 1388.08731,253.078111 C1388.11396,252.873838 1388.13172,252.709533 1388.1406,252.585193 C1388.14948,252.514142 1388.13616,252.418668 1388.10063,252.298768 C1388.06511,252.178869 1388.05179,252.092276 1388.06067,252.038988 C1388.07843,251.941292 1388.11396,251.848038 1388.16724,251.759224 C1388.22053,251.670409 1388.2938,251.566054 1388.38706,251.446155 C1388.48031,251.326255 1388.55358,251.2219 1388.60687,251.133086 C1388.81115,250.795591 1389.01098,250.389271 1389.20637,249.914114 C1389.40176,249.438957 1389.53498,249.032638 1389.60603,248.695143 C1389.63267,248.606329 1389.63489,248.473109 1389.61269,248.29548 C1389.59049,248.117852 1389.58827,247.993513 1389.60603,247.922462 C1389.63267,247.824766 1389.70817,247.700428 1389.83251,247.549443 C1389.95685,247.398459 1390.03234,247.296324 1390.05898,247.243035 C1390.24549,246.923303 1390.432,246.514763 1390.61851,246.017403 C1390.80502,245.520042 1390.91604,245.120384 1390.95156,244.818415 C1390.96044,244.738482 1390.94934,244.596381 1390.91826,244.392108 C1390.88717,244.187835 1390.88939,244.063496 1390.92492,244.019089 C1390.96044,243.903631 1391.05814,243.768191 1391.218,243.612766 C1391.37787,243.45734 1391.47556,243.357426 1391.51109,243.313019 C1391.67984,243.082101 1391.86856,242.706866 1392.07728,242.187302 C1392.28599,241.667738 1392.40811,241.239215 1392.44364,240.90172 C1392.45252,240.830669 1392.43919,240.717432 1392.40367,240.562007 C1392.36814,240.406582 1392.35926,240.288904 1392.37702,240.208971 C1392.39479,240.13792 1392.43475,240.057988 1392.49692,239.969174 C1392.55909,239.880359 1392.63903,239.778224 1392.73672,239.662766 C1392.83442,239.547307 1392.90991,239.454053 1392.9632,239.383002 C1393.03425,239.276425 1393.10752,239.140985 1393.18301,238.976678 C1393.2585,238.812371 1393.31898,238.624852 1393.37671,238.478308 C1393.43444,238.331764 1393.50549,238.072429 1393.58986,237.899241 C1393.67423,237.726053 1393.76083,237.583952 1393.84964,237.472934 C1393.93845,237.361916 1394.05613,237.257561 1394.20268,237.159865 C1394.34922,237.062169 1394.50908,237.011102 1394.68227,237.006661 C1394.85546,237.00222 1395.06639,237.026644 1395.31507,237.079933 C1395.63924,237.039966 1395.86572,237 1395.98117,237 L1406.11929,237 C1406.77651,237 1407.28275,237.248677 1407.638,237.746037 C1407.99326,238.243398 1408.07933,238.952251 1407.88394,239.609477 L1404.23368,251.679291 C1403.91395,252.736182 1403.59645,253.119408 1403.28116,253.425817 C1402.96586,253.732227 1402.39524,253.885429 1401.56927,253.885429 L1389.99237,253.885429 C1389.75257,253.885429 1389.58383,253.952039 1389.48613,254.085261 C1389.38844,254.227364 1389.38399,254.418312 1389.47281,254.658111 C1389.68596,255.279811 1390.32542,255.889072 1391.39119,255.889072 L1403.68748,255.889072 C1403.94504,255.889072 1404.19372,255.820242 1404.43352,255.682579 C1404.67332,255.544917 1404.82874,255.36063 1404.89979,255.129713 L1408.89642,241.980809 C1408.95859,241.785418 1408.98079,241.532301 1408.96303,241.22145 C1409.30052,241.354672 1409.56252,241.54562 1409.74903,241.7943 C1410.10429,242.300542 1410.18422,242.873386 1409.98883,243.51285 Z M1394.46859,245.418954 C1394.43307,245.560589 1394.44195,245.683156 1394.49524,245.786658 C1394.54853,245.890161 1390.94224,245.871034 1394.76168,245.941911 C1398.58112,246.012788 1402.86151,245.941911 1402.86151,245.941911 C1402.97697,245.941911 1403.0902,245.890161 1403.20122,245.786658 C1403.31224,245.683156 1403.38551,245.560589 1403.42104,245.418954 L1403.7008,244.475436 C1403.73633,244.333801 1403.72745,244.211234 1403.67416,244.107732 C1403.62087,244.004229 1403.53206,243.952479 1403.40772,243.952479 L1395.30788,243.952479 C1395.19243,243.952479 1395.07919,244.004229 1394.96817,244.107732 C1394.85715,244.211234 1394.78388,244.333801 1394.74836,244.475436 L1394.46859,245.418954 Z M1395.46331,241.440089 C1395.42778,241.581724 1395.43666,241.704291 1395.48995,241.807794 C1395.54324,241.911296 1395.63205,241.963047 1395.75639,241.963047 L1403.85623,241.963047 C1403.97168,241.963047 1404.08492,241.911296 1404.19594,241.807794 C1404.30696,241.704291 1404.38023,241.581724 1404.41575,241.440089 L1404.69552,240.496572 C1404.73104,240.354937 1404.72216,240.23237 1404.66887,240.128867 C1404.61558,240.025365 1404.52677,239.973615 1404.40243,239.973615 L1396.3026,239.973615 C1396.18714,239.973615 1396.07391,240.025365 1395.96289,240.128867 C1395.85187,240.23237 1395.7786,240.354937 1395.74307,240.496572 L1395.46331,241.440089 Z" id="book" sketch:type="MSShapeGroup"></path>
        </g>
    </g>
</svg>