<?xml version="1.0" encoding="utf-8"?>
<!-- Generator: Adobe Illustrator 16.0.0, SVG Export Plug-In . SVG Version: 6.00 Build 0)  -->
<!DOCTYPE svg PUBLIC "-//W3C//DTD SVG 1.1//EN" "http://www.w3.org/Graphics/SVG/1.1/DTD/svg11.dtd">
<svg version="1.1" id="Layer_1" xmlns="http://www.w3.org/2000/svg" xmlns:xlink="http://www.w3.org/1999/xlink" x="0px" y="0px"
	 width="30px" height="30px" viewBox="0 0 30 30" enable-background="new 0 0 30 30" xml:space="preserve">
<g>
	<g>
		<path id="SVGID_1_" fill="#FFFFFF" d="M24,16.49h-2.975c-0.074,2.098-0.92,3.785-2.651,4.973
			c-1.295,0.887-2.745,1.215-4.293,0.949c-3.34-0.573-5.523-3.564-4.992-6.852c0.547-3.396,3.585-5.145,5.919-5.024v2.972
			c2.031-1.523,4.01-3.007,6.006-4.505c-2-1.5-3.974-2.981-5.995-4.496v2.978c-3.224,0.121-5.771,1.45-7.549,4.122
			c-1.288,1.94-1.72,4.097-1.332,6.389c0.799,4.713,5.1,7.961,9.84,7.443C20.952,24.898,24.064,20.678,24,16.49"/>
	</g>
</g>
</svg>
