<?xml version="1.0" encoding="utf-8"?>
<!-- Generator: Adobe Illustrator 16.0.0, SVG Export Plug-In . SVG Version: 6.00 Build 0)  -->
<!DOCTYPE svg PUBLIC "-//W3C//DTD SVG 1.1//EN" "http://www.w3.org/Graphics/SVG/1.1/DTD/svg11.dtd">
<svg version="1.1" id="Layer_1" xmlns="http://www.w3.org/2000/svg" xmlns:xlink="http://www.w3.org/1999/xlink" x="0px" y="0px"
	 width="30px" height="30px" viewBox="0 0 30 30" enable-background="new 0 0 30 30" xml:space="preserve">
<g>
	<g>
		<path id="SVGID_1_" fill="#2C3E50" d="M6.001,16.49c-0.065,4.188,3.048,8.408,8.022,8.949c4.741,0.517,9.042-2.731,9.84-7.444
			c0.388-2.292-0.045-4.448-1.332-6.389c-1.778-2.672-4.325-4-7.549-4.122V4.507c-2.021,1.515-3.995,2.996-5.995,4.496
			c1.997,1.498,3.975,2.981,6.006,4.505v-2.972c2.334-0.119,5.372,1.629,5.92,5.024c0.53,3.285-1.653,6.277-4.993,6.852
			c-1.548,0.266-2.998-0.062-4.293-0.949c-1.733-1.188-2.577-2.875-2.652-4.973H6.001"/>
	</g>
	<g>
		<defs>
			<path id="SVGID_2_" d="M6.001,16.49c-0.065,4.188,3.048,8.408,8.022,8.949c4.741,0.517,9.042-2.731,9.84-7.444
				c0.388-2.292-0.045-4.448-1.332-6.389c-1.778-2.672-4.325-4-7.549-4.122V4.507c-2.021,1.515-3.995,2.996-5.995,4.496
				c1.997,1.498,3.975,2.981,6.006,4.505v-2.972c2.334-0.119,5.372,1.629,5.92,5.024c0.53,3.285-1.653,6.277-4.993,6.852
				c-1.548,0.266-2.998-0.062-4.293-0.949c-1.733-1.188-2.577-2.875-2.652-4.973H6.001"/>
		</defs>
		<clipPath id="SVGID_4_">
			<use xlink:href="#SVGID_2_"  overflow="visible"/>
		</clipPath>
	</g>
</g>
<g>
	<g>
		<path id="SVGID_3_" fill="#2C3E50" d="M6.001,16.49h2.974c0.075,2.098,0.919,3.785,2.652,4.973
			c1.295,0.887,2.745,1.215,4.293,0.949c3.34-0.573,5.523-3.564,4.993-6.852c-0.548-3.396-3.586-5.145-5.92-5.024v2.972
			c-2.031-1.523-4.009-3.007-6.006-4.505c2-1.5,3.974-2.981,5.995-4.496v2.978c3.224,0.121,5.771,1.449,7.549,4.122
			c1.287,1.94,1.72,4.097,1.332,6.389c-0.799,4.713-5.1,7.961-9.84,7.443C9.049,24.898,5.936,20.678,6.001,16.49"/>
	</g>
</g>
</svg>
