<?xml version="1.0" encoding="utf-8"?>
<!-- Generator: Adobe Illustrator 16.0.0, SVG Export Plug-In . SVG Version: 6.00 Build 0)  -->
<!DOCTYPE svg PUBLIC "-//W3C//DTD SVG 1.1//EN" "http://www.w3.org/Graphics/SVG/1.1/DTD/svg11.dtd">
<svg version="1.1" id="Layer_1" xmlns="http://www.w3.org/2000/svg" xmlns:xlink="http://www.w3.org/1999/xlink" x="0px" y="0px"
	 width="96.379px" height="39.689px" viewBox="0 0 96.379 39.689" enable-background="new 0 0 96.379 39.689" xml:space="preserve">
<g id="Layer_1_1_" display="none">
	<rect x="0.001" y="0.005" display="inline" width="96.378" height="39.685"/>
</g>
<g id="Layer_2">
	<path d="M18.756,18.551c0.552-1.005,0.842-2.132,0.842-3.28c0-3.771-3.07-6.842-6.844-6.842c-0.109,0-0.219,0.007-0.342,0.022h-8.2
		c-1.537,0-2.787,1.251-2.787,2.788v17.125c0,1.537,1.25,2.788,2.787,2.788h9.521c0.09,0,0.178-0.005,0.245-0.012
		c3.96-0.132,7.062-3.337,7.062-7.296C21.04,21.842,20.211,19.927,18.756,18.551z M15.463,23.846c0,0.954-0.777,1.73-1.73,1.73H7
		v-3.46h6.733C14.686,22.116,15.463,22.893,15.463,23.846z M7,16.539v-2.511h5.754c0.068,0,0.133-0.003,0.199-0.008
		c0.609,0.097,1.068,0.629,1.068,1.25c0,0.7-0.568,1.269-1.268,1.269H7z"/>
	<path d="M84.959,8.456c-0.033-0.003-0.065-0.004-0.1-0.004h-7.755c-1.538,0-2.788,1.251-2.788,2.788v17.125
		c0,1.537,1.25,2.788,2.788,2.788h7.752c0.033,0,0.065-0.001,0.079-0.003c6.049-0.081,10.611-4.959,10.611-11.348
		C95.547,13.416,90.988,8.539,84.959,8.456z M89.971,19.802c0,3.345-2.18,5.774-5.184,5.774h-4.895V14.029h4.895
		C87.792,14.029,89.971,16.457,89.971,19.802z"/>
	<path d="M69.184,25.576h-7.35V11.24c0-1.537-1.25-2.788-2.787-2.788c-1.539,0-2.789,1.251-2.789,2.788v17.125
		c0,1.537,1.25,2.788,2.789,2.788h10.137c1.537,0,2.789-1.251,2.789-2.788S70.721,25.576,69.184,25.576z"/>
	<g>
		<path fill="#FAA626" d="M49.588,16.685c-1.537,0-2.788,1.251-2.788,2.789v8.891c0,1.537,1.251,2.788,2.788,2.788
			c1.537,0,2.789-1.251,2.789-2.788v-8.891C52.377,17.936,51.125,16.685,49.588,16.685z"/>
		<path fill="#70BC45" d="M49.588,8.452c-1.537,0-2.788,1.251-2.788,2.788v8.268c0,1.538,1.251,2.789,2.788,2.789
			c1.537,0,2.789-1.251,2.789-2.789V11.24C52.377,9.703,51.125,8.452,49.588,8.452z"/>
		<g>
			<path fill="#EA1E5F" d="M26.179,8.125c-1.538,0-2.788,1.252-2.788,2.789V21.97c0,1.536,1.25,2.788,2.788,2.788
				c1.538,0,2.788-1.252,2.788-2.788V10.914C28.967,9.376,27.717,8.125,26.179,8.125z"/>
			<path fill="#2383C5" d="M40.544,8.125c-1.537,0-2.787,1.252-2.787,2.789V21.97c0,1.536,1.25,2.788,2.787,2.788
				c1.539,0,2.789-1.252,2.789-2.788V10.914C43.333,9.376,42.083,8.125,40.544,8.125z"/>
			<path fill="#8E53A1" d="M40.544,19.181c-1.537,0-2.787,1.25-2.787,2.789c0,0.866-0.439,1.726-1.236,2.417
				c-0.869,0.756-2.024,1.189-3.171,1.189c-2.334,0-4.382-1.687-4.382-3.606c0-1.538-1.25-2.789-2.788-2.789
				c-1.538,0-2.788,1.25-2.788,2.789c0,4.979,4.561,9.184,9.958,9.184c5.411,0,9.983-4.205,9.983-9.184
				C43.333,20.432,42.083,19.181,40.544,19.181z"/>
		</g>
	</g>
</g>
</svg>
