<?xml version="1.0" encoding="utf-8"?>
<!-- Generator: Adobe Illustrator 16.0.0, SVG Export Plug-In . SVG Version: 6.00 Build 0)  -->
<!DOCTYPE svg PUBLIC "-//W3C//DTD SVG 1.1//EN" "http://www.w3.org/Graphics/SVG/1.1/DTD/svg11.dtd">
<svg version="1.1" id="Layer_1" xmlns="http://www.w3.org/2000/svg" xmlns:xlink="http://www.w3.org/1999/xlink" x="0px" y="0px"
	 width="39.689px" height="39.689px" viewBox="0 0 39.689 39.689" enable-background="new 0 0 39.689 39.689" xml:space="preserve">
<g id="Layer_1_1_">
	<g>
		<path fill="#FFFFFF" d="M36.88,13.975c0-2.582-2.103-4.685-4.685-4.685c-0.899,0-1.758,0.254-2.51,0.732l-0.014-0.015
			l-0.332,0.257L29.295,10.3c-2.426-2.4-5.756-3.888-9.437-3.891l0,0c-0.004,0-0.006,0-0.01,0c-3.688,0-7.023,1.491-9.451,3.897
			l-0.044-0.035l-0.333-0.257l-0.014,0.014C9.253,9.545,8.391,9.289,7.487,9.289c-2.582,0-4.684,2.103-4.684,4.685
			c0,2.049,1.305,3.822,3.222,4.447l-0.002,0.02l0.411,0.095l0.058,0.013c-0.042,0.427-0.07,0.855-0.07,1.294
			c0,7.418,6.012,13.431,13.43,13.431s13.433-6.013,13.433-13.431c0-0.439-0.031-0.869-0.074-1.298l0.061-0.013
			c0.002,0,0.002-0.003,0.002-0.003l0.406-0.094l-0.002-0.021C35.581,17.786,36.88,16.016,36.88,13.975z M7.315,16.393
			c-0.148,0-0.294-0.016-0.436-0.041c-1.128-0.205-1.983-1.191-1.983-2.379c0-1.337,1.083-2.42,2.419-2.42
			c0.59,0,1.131,0.213,1.552,0.564c0.529,0.441,0.868,1.108,0.868,1.854C9.735,15.309,8.652,16.393,7.315,16.393z M19.877,30.426
			c-0.006,0-0.011,0-0.018,0c-5.456-0.008-9.875-3.63-9.875-8.099c0-1.833,0.744-3.526,2-4.884
			c-0.099-0.159-0.185-0.326-0.263-0.498c-0.008-0.016-0.016-0.032-0.022-0.051c-0.168-0.374-0.296-0.771-0.365-1.188
			c-0.045-0.265-0.07-0.535-0.07-0.812c0-0.638,0.126-1.246,0.351-1.805c0.087-0.216,0.188-0.424,0.305-0.623c0,0,0,0,0-0.001
			c0.031-0.052,0.063-0.104,0.097-0.154c0.027-0.042,0.053-0.087,0.082-0.13c0.034-0.049,0.068-0.096,0.104-0.145
			c0.029-0.042,0.061-0.084,0.092-0.125c0.037-0.047,0.075-0.093,0.113-0.138c0.033-0.041,0.067-0.08,0.103-0.118
			c0.04-0.045,0.079-0.087,0.119-0.129c0.037-0.037,0.075-0.075,0.115-0.113c0.041-0.039,0.082-0.079,0.124-0.117
			s0.083-0.074,0.127-0.109c0.042-0.036,0.083-0.071,0.126-0.104c0.049-0.038,0.099-0.074,0.147-0.111
			c0.04-0.028,0.079-0.059,0.12-0.087c0.088-0.06,0.18-0.12,0.273-0.174c0.031-0.02,0.064-0.036,0.097-0.054
			c0.066-0.037,0.133-0.074,0.2-0.107c0.042-0.021,0.083-0.039,0.125-0.059c0.062-0.027,0.123-0.058,0.184-0.082
			c0.045-0.02,0.09-0.035,0.136-0.054c0.062-0.021,0.124-0.045,0.188-0.065c0.046-0.017,0.093-0.03,0.139-0.044
			c0.065-0.02,0.13-0.038,0.195-0.055c0.047-0.012,0.094-0.022,0.141-0.032c0.069-0.017,0.139-0.029,0.208-0.041
			c0.045-0.009,0.091-0.018,0.137-0.023c0.076-0.012,0.154-0.02,0.233-0.027c0.039-0.004,0.078-0.01,0.117-0.012
			c0.118-0.008,0.237-0.014,0.358-0.014c1.508,0,2.852,0.69,3.742,1.771c0.021,0.025,0.046,0.049,0.065,0.074
			c0.889-1.123,2.265-1.846,3.81-1.846c0.115,0,0.23,0.006,0.343,0.012c0.037,0.004,0.075,0.008,0.112,0.012
			c0.074,0.009,0.15,0.015,0.224,0.024c0.045,0.007,0.088,0.015,0.133,0.021c0.066,0.012,0.131,0.021,0.197,0.035
			c0.045,0.013,0.092,0.022,0.139,0.033c0.061,0.016,0.121,0.031,0.18,0.048c0.049,0.014,0.097,0.027,0.144,0.042
			c0.057,0.019,0.11,0.037,0.168,0.059c0.047,0.018,0.096,0.033,0.143,0.054c0.053,0.021,0.105,0.043,0.156,0.065
			c0.049,0.021,0.098,0.041,0.145,0.063c0.05,0.022,0.095,0.048,0.142,0.071c0.049,0.026,0.1,0.051,0.147,0.078
			c0.023,0.014,0.045,0.026,0.066,0.041c0.127,0.073,0.25,0.153,0.369,0.237c0.024,0.02,0.053,0.036,0.076,0.056
			c0.057,0.042,0.11,0.086,0.164,0.13c0.026,0.021,0.057,0.044,0.084,0.064c0.051,0.045,0.104,0.094,0.153,0.142
			c0.025,0.021,0.054,0.046,0.076,0.069c0.051,0.048,0.1,0.099,0.148,0.15c0.022,0.022,0.045,0.048,0.067,0.072
			c0.049,0.054,0.097,0.106,0.144,0.162c0.02,0.022,0.037,0.047,0.057,0.069c0.047,0.061,0.094,0.119,0.139,0.181
			c0.015,0.019,0.027,0.038,0.041,0.059c0.048,0.066,0.095,0.134,0.138,0.203l0,0c0.112,0.177,0.217,0.358,0.305,0.551
			c0.291,0.623,0.459,1.314,0.459,2.047c0,0.367-0.043,0.724-0.119,1.065c-0.084,0.371-0.213,0.725-0.375,1.06
			c-0.008,0.015-0.014,0.028-0.021,0.041c-0.076,0.154-0.158,0.305-0.25,0.447c1.221,1.346,1.942,3.014,1.942,4.819
			C29.769,26.8,25.341,30.426,19.877,30.426z M32.821,16.353c-0.139,0.024-0.28,0.04-0.428,0.04c-1.336,0-2.42-1.084-2.42-2.42
			c0-0.744,0.336-1.408,0.863-1.852c0.422-0.354,0.963-0.568,1.557-0.568c1.336,0,2.42,1.083,2.42,2.42
			C34.813,15.163,33.954,16.151,32.821,16.353z"/>
		<path fill="#FFFFFF" d="M16.167,16.793c1.047-0.01,1.859-0.839,1.855-1.892c-0.007-1.055-0.823-1.864-1.88-1.86
			c-1.047,0.004-1.858,0.828-1.854,1.886C14.291,15.969,15.129,16.802,16.167,16.793z"/>
		<g>
			<path fill="#FFFFFF" d="M18.655,19.751c-0.385,0.002-0.688,0.308-0.686,0.695c0.001,0.381,0.31,0.69,0.689,0.69h0.006
				c0.386-0.004,0.687-0.311,0.685-0.699C19.346,20.054,19.042,19.751,18.655,19.751z M18.658,20.981L18.658,20.981v0.002V20.981z"
				/>
			<path fill="#FFFFFF" d="M21.038,19.751c-0.387,0.002-0.688,0.308-0.688,0.695c0.001,0.381,0.312,0.69,0.69,0.69h0.006
				c0.385-0.004,0.686-0.311,0.686-0.699C21.729,20.054,21.425,19.751,21.038,19.751z M21.042,20.981L21.042,20.981v0.002V20.981z"
				/>
		</g>
		<g>
			<path fill="#FFFFFF" d="M24.993,22.64c-0.08,0.024-0.166,0.041-0.369,0.326c-0.658,0.924-1.691,1.59-3.414,2.224
				c-1.103,0.406-2.508,0.672-3.125,0.652c-0.617-0.022-0.725,0.149-0.725,0.354c0,0.224,0.405,0.365,0.602,0.441
				c0.196,0.074,1.712,0.422,2.677,0.422c3.063,0,5.084-1.199,5.172-2.775c0.029-0.556-0.106-1.188-0.514-1.562
				C25.257,22.685,25.128,22.597,24.993,22.64z"/>
		</g>
		<g>
			<path fill="#FFFFFF" d="M26.017,14.497c-0.022-0.812-0.963-1.463-2.117-1.463c-1.151,0-2.088,0.646-2.116,1.452v0.043
				c0.014,0.089,0.088,0.154,0.18,0.154c0.051,0,0.096-0.02,0.129-0.053l0.006-0.006c0.373-0.425,1.041-0.709,1.803-0.709
				c0.763,0,1.429,0.285,1.802,0.709l0.006,0.006c0.033,0.033,0.078,0.053,0.129,0.053c0.09,0,0.166-0.066,0.18-0.154V14.497z"/>
		</g>
	</g>
</g>
</svg>
