<?xml version="1.0" encoding="utf-8"?>
<!-- Generator: Adobe Illustrator 16.0.0, SVG Export Plug-In . SVG Version: 6.00 Build 0)  -->
<!DOCTYPE svg PUBLIC "-//W3C//DTD SVG 1.1//EN" "http://www.w3.org/Graphics/SVG/1.1/DTD/svg11.dtd">
<svg version="1.1" id="Layer_1" xmlns="http://www.w3.org/2000/svg" xmlns:xlink="http://www.w3.org/1999/xlink" x="0px" y="0px"
	 width="158.939px" height="39.689px" viewBox="0 0 158.939 39.689" enable-background="new 0 0 158.939 39.689"
	 xml:space="preserve">
<g id="Layer_1_1_" display="none">
	<rect x="0" y="0" display="inline" width="160" height="40"/>
</g>
<g id="Layer_2">
	<path fill="#FFFFFF" d="M18.756,18.551c0.553-1.005,0.843-2.132,0.843-3.278c0-3.771-3.07-6.842-6.845-6.842
		c-0.108,0-0.219,0.007-0.342,0.021h-8.2c-1.537,0-2.787,1.251-2.787,2.788v17.125c0,1.537,1.25,2.788,2.787,2.788h9.521
		c0.09,0,0.178-0.005,0.245-0.012c3.96-0.134,7.062-3.337,7.062-7.298C21.04,21.842,20.211,19.927,18.756,18.551z M15.463,23.846
		c0,0.952-0.776,1.729-1.729,1.729H7v-3.46h6.733C14.686,22.116,15.463,22.893,15.463,23.846z M7,16.539v-2.511h5.754
		c0.068,0,0.134-0.003,0.199-0.008c0.609,0.097,1.068,0.629,1.068,1.25c0,0.7-0.568,1.269-1.269,1.269H7z"/>
	<path fill="#FFFFFF" d="M84.959,8.456c-0.033-0.003-0.063-0.004-0.1-0.004h-7.756c-1.537,0-2.787,1.251-2.787,2.788v17.125
		c0,1.537,1.25,2.788,2.787,2.788h7.752c0.033,0,0.064-0.001,0.08-0.003c6.049-0.081,10.609-4.959,10.609-11.35
		C95.547,13.416,90.988,8.539,84.959,8.456z M89.971,19.802c0,3.347-2.181,5.774-5.185,5.774h-4.895V14.029h4.895
		C87.792,14.029,89.971,16.457,89.971,19.802z"/>
	<path fill="#FFFFFF" d="M69.184,25.576h-7.351V11.24c0-1.537-1.25-2.788-2.787-2.788c-1.539,0-2.789,1.251-2.789,2.788v17.125
		c0,1.537,1.25,2.788,2.789,2.788h10.138c1.537,0,2.789-1.251,2.789-2.788S70.721,25.576,69.184,25.576z"/>
	<g>
		<path fill="#FAA626" d="M49.588,16.685c-1.537,0-2.788,1.251-2.788,2.789v8.891c0,1.537,1.251,2.788,2.788,2.788
			s2.789-1.251,2.789-2.788v-8.891C52.377,17.936,51.125,16.685,49.588,16.685z"/>
		<path fill="#70BC45" d="M49.588,8.452c-1.537,0-2.788,1.251-2.788,2.788v8.268c0,1.538,1.251,2.789,2.788,2.789
			s2.789-1.251,2.789-2.789V11.24C52.377,9.703,51.125,8.452,49.588,8.452z"/>
		<g>
			<path fill="#EA1E5F" d="M26.179,8.125c-1.538,0-2.788,1.252-2.788,2.789V21.97c0,1.534,1.25,2.786,2.788,2.786
				c1.537,0,2.787-1.252,2.787-2.786V10.914C28.967,9.376,27.717,8.125,26.179,8.125z"/>
			<path fill="#2383C5" d="M40.544,8.125c-1.537,0-2.787,1.252-2.787,2.789V21.97c0,1.534,1.25,2.786,2.787,2.786
				c1.539,0,2.789-1.252,2.789-2.786V10.914C43.333,9.376,42.083,8.125,40.544,8.125z"/>
			<path fill="#8E53A1" d="M40.544,19.181c-1.537,0-2.787,1.25-2.787,2.789c0,0.864-0.438,1.726-1.235,2.417
				c-0.869,0.756-2.024,1.188-3.171,1.188c-2.334,0-4.383-1.687-4.383-3.604c0-1.538-1.25-2.789-2.787-2.789
				c-1.538,0-2.788,1.25-2.788,2.789c0,4.979,4.561,9.184,9.958,9.184c5.411,0,9.982-4.205,9.982-9.184
				C43.333,20.432,42.083,19.181,40.544,19.181z"/>
		</g>
	</g>
</g>
<g>
	<path fill="#FFFFFF" d="M104.804,31.153c-0.78,0-1.322-0.586-1.322-1.346V17.492c0-0.781,0.542-1.345,1.322-1.345h6.094
		c2.84,0,4.38,1.93,4.38,4.141c0,0.978-0.282,1.933-1.192,2.732c1.714,0.673,2.474,1.996,2.474,3.6c0,2.496-1.691,4.533-4.945,4.533
		H104.804z M110.897,18.794h-4.575v3.23h4.575c0.933,0,1.518-0.585,1.518-1.736C112.415,19.575,111.83,18.794,110.897,18.794z
		 M106.322,28.509h5.29c2.516,0,2.516-3.839,0-3.839c-1.646,0-3.577,0-5.29,0V28.509z"/>
	<path fill="#FFFFFF" d="M119.727,31.153c-0.76,0-1.345-0.586-1.345-1.346V17.492c0-0.781,0.585-1.345,1.345-1.345h7.785
		c1.993,0,1.95,2.819,0,2.819h-6.246v3.252h5.465c1.93,0,1.93,2.841,0,2.841h-5.465v3.252h6.613c1.975,0,2.125,2.842,0,2.842
		H119.727z"/>
	<path fill="#FFFFFF" d="M135.353,18.858h-3.793c-1.889,0-1.889-2.776,0-2.776h10.256c1.93,0,1.93,2.776,0,2.776h-3.6v10.949
		c0,1.887-2.863,1.932-2.863,0V18.858z"/>
	<path fill="#FFFFFF" d="M141.734,31.153c-0.694-0.391-1.127-1.171-0.694-2.082l6.225-12.165c0.586-1.148,2.146-1.192,2.688,0
		l6.115,12.165c0.89,1.691-1.734,3.036-2.516,1.344l-0.954-1.906h-8.001l-0.935,1.906C143.317,31.153,142.515,31.304,141.734,31.153
		z M151.058,25.645l-2.45-5.357l-2.666,5.357H151.058z"/>
</g>
</svg>
