<?xml version="1.0" encoding="UTF-8" standalone="no"?>
<svg width="24px" height="24px" viewBox="0 0 24 24" version="1.1" xmlns="http://www.w3.org/2000/svg" xmlns:xlink="http://www.w3.org/1999/xlink" xmlns:sketch="http://www.bohemiancoding.com/sketch/ns">
    <!-- Generator: Sketch 3.2 (9961) - http://www.bohemiancoding.com/sketch -->
    <title>help</title>
    <desc>Created with Sketch.</desc>
    <defs></defs>
    <g id="Page-1" stroke="none" stroke-width="1" fill="none" fill-rule="evenodd" sketch:type="MSPage">
        <g id="UI-TOOLKIT" sketch:type="MSArtboardGroup" transform="translate(-2243.000000, -625.000000)" fill="#2C3E50">
            <g id="LEFT-MENU" sketch:type="MSLayerGroup" transform="translate(2220.000000, 43.000000)">
                <g id="ICONS" transform="translate(21.000000, 93.000000)" sketch:type="MSShapeGroup">
                    <path d="M9.37396763,509.868673 C12.2638288,511.377109 15.7361712,511.377109 18.6260324,509.868673 L18.6260324,509.868673 L16.352098,507.594739 C14.8337871,508.135087 13.1662129,508.135087 11.647902,507.594739 L9.37396763,509.868673 L9.37396763,509.868673 Z M5.13132694,505.626032 C3.62289102,502.736171 3.62289102,499.263829 5.13132694,496.373968 L7.40526135,498.647902 C6.86491288,500.166213 6.86491288,501.833787 7.40526135,503.352098 L5.13132694,505.626032 L5.13132694,505.626032 Z M22.8686731,496.373968 C24.377109,499.263829 24.377109,502.736171 22.8686731,505.626032 L22.8686731,505.626032 L20.5947386,503.352098 C21.1350871,501.833787 21.1350871,500.166213 20.5947386,498.647902 L22.8686731,496.373968 L22.8686731,496.373968 L22.8686731,496.373968 Z M18.6260324,492.131327 C15.7361712,490.622891 12.2638288,490.622891 9.37396763,492.131327 L9.37396763,492.131327 L11.647902,494.405261 C13.1662129,493.864913 14.8337871,493.864913 16.352098,494.405261 L18.6260324,492.131327 L18.6260324,492.131327 L18.6260324,492.131327 Z M22.4852814,509.485281 C27.1715729,504.79899 27.1715729,497.20101 22.4852814,492.514719 C17.7989899,487.828427 10.2010101,487.828427 5.51471863,492.514719 C0.828427125,497.20101 0.828427125,504.79899 5.51471863,509.485281 C10.2010101,514.171573 17.7989899,514.171573 22.4852814,509.485281 L22.4852814,509.485281 Z M17.5355339,497.464466 C15.5829124,495.511845 12.4170876,495.511845 10.4644661,497.464466 C8.51184464,499.417088 8.51184464,502.582912 10.4644661,504.535534 C12.4170876,506.488155 15.5829124,506.488155 17.5355339,504.535534 C19.4881554,502.582912 19.4881554,499.417088 17.5355339,497.464466 Z" id="help"></path>
                </g>
            </g>
        </g>
    </g>
</svg>