<?xml version="1.0" encoding="UTF-8" standalone="no"?>
<svg width="54px" height="43px" viewBox="0 0 54 43" version="1.1" xmlns="http://www.w3.org/2000/svg" xmlns:xlink="http://www.w3.org/1999/xlink" xmlns:sketch="http://www.bohemiancoding.com/sketch/ns">
    <!-- Generator: Sketch 3.2.2 (9983) - http://www.bohemiancoding.com/sketch -->
    <title>PlaceHolder Crown</title>
    <desc>Created with Sketch.</desc>
    <defs>
        <filter x="-50%" y="-50%" width="200%" height="200%" filterUnits="objectBoundingBox" id="filter-1">
            <feOffset dx="0" dy="2" in="SourceAlpha" result="shadowOffsetOuter1"></feOffset>
            <feGaussianBlur stdDeviation="2" in="shadowOffsetOuter1" result="shadowBlurOuter1"></feGaussianBlur>
            <feColorMatrix values="0 0 0 0 0   0 0 0 0 0   0 0 0 0 0  0 0 0 0.129526155 0" in="shadowBlurOuter1" type="matrix" result="shadowMatrixOuter1"></feColorMatrix>
            <feMerge>
                <feMergeNode in="shadowMatrixOuter1"></feMergeNode>
                <feMergeNode in="SourceGraphic"></feMergeNode>
            </feMerge>
        </filter>
    </defs>
    <g id="Page-1" stroke="none" stroke-width="1" fill="none" fill-rule="evenodd" sketch:type="MSPage">
        <g id="THE-HOME---invitations" sketch:type="MSArtboardGroup" transform="translate(-820.000000, -493.000000)" stroke="#DDDDDD" filter="url(#filter-1)" fill="#FFFFFF">
            <path d="M830.851446,506.641344 L841.295662,516.233542 L845.55538,502.389458 L845.55538,502.389458 C844.011322,501.914927 842.888889,500.477432 842.888889,498.777778 C842.888889,496.691369 844.580258,495 846.666667,495 C848.753076,495 850.444444,496.691369 850.444444,498.777778 C850.444444,500.477432 849.322012,501.914927 847.777953,502.389458 L852.037671,516.233542 L862.481887,506.641344 C862.038656,506.022326 861.777778,505.263851 861.777778,504.444444 C861.777778,502.358035 863.469147,500.666667 865.555556,500.666667 C867.641965,500.666667 869.333333,502.358035 869.333333,504.444444 C869.333333,506.530853 867.641965,508.222222 865.555556,508.222222 C865.230335,508.222222 864.914712,508.181127 864.613598,508.103845 L864.613598,508.103845 L862.120015,521.473282 L862.120015,521.473282 C862.999078,521.629013 863.666667,522.397962 863.666667,523.35103 L863.666667,527.093414 C863.666667,528.146393 862.826213,529 861.790249,529 L831.543085,529 C830.506768,529 829.666667,528.162555 829.666667,527.093414 L829.666667,523.35103 C829.666667,522.412369 830.334538,521.632139 831.213413,521.47379 L831.213413,521.47379 L828.719736,508.103845 C828.418621,508.181127 828.102999,508.222222 827.777778,508.222222 C825.691369,508.222222 824,506.530853 824,504.444444 C824,502.358035 825.691369,500.666667 827.777778,500.666667 C829.864187,500.666667 831.555556,502.358035 831.555556,504.444444 C831.555556,505.263851 831.294677,506.022326 830.851446,506.641344 L830.851446,506.641344 Z" id="Rectangle-101" sketch:type="MSShapeGroup"></path>
            </g>
        </g>
</svg>