<?xml version="1.0" encoding="UTF-8" standalone="no"?>
<svg width="24px" height="23px" viewBox="0 0 24 23" version="1.1" xmlns="http://www.w3.org/2000/svg" xmlns:xlink="http://www.w3.org/1999/xlink" xmlns:sketch="http://www.bohemiancoding.com/sketch/ns">
    <!-- Generator: Sketch 3.2.2 (9983) - http://www.bohemiancoding.com/sketch -->
    <title>Rectangle 8</title>
    <desc>Created with Sketch.</desc>
    <defs></defs>
    <g id="Page-1" stroke="none" stroke-width="1" fill="none" fill-rule="evenodd" sketch:type="MSPage">
        <g id="THE-HOME---invitations" sketch:type="MSArtboardGroup" transform="translate(-22.000000, -82.000000)" fill="#2C3E50">
            <g id="Left-Menu-2" sketch:type="MSLayerGroup" transform="translate(0.000000, 60.000000)">
                <path d="M42.9996103,34 C42.9996115,34.0011169 42.9996121,34.002234 42.9996121,34.0033512 L42.9996121,41.9966488 C42.9996121,45 42.9996121,45 40.0070723,45 L38.9996121,45 L38.9996121,37.9975446 C38.9996121,37.4463114 38.5477023,37 37.9902432,37 L36.008981,37 C35.4429653,37 34.9996121,37.446616 34.9996121,37.9975446 L34.9996121,45 L27.9921519,45 C24.9996121,45 24.9996121,45 24.9996121,41.9966488 L24.9996121,34.0033512 C24.9996121,34.002234 24.9996127,34.0011169 24.9996139,34 L24.3724598,34 C22.7182444,34 22.3783062,33.1047281 23.6194579,31.9947459 L34.0003851,22.7109129 L44.3813122,31.9947459 C45.6196562,33.1022171 45.2840069,34 43.6283103,34 L42.9996104,34 Z M27.9996121,38.0093689 C27.9996121,37.4519098 28.4433288,37 28.9994196,37 L31.9998046,37 C32.551983,37 32.9996121,37.4433532 32.9996121,38.0093689 L32.9996121,39.9906311 C32.9996121,40.5480902 32.5558955,41 31.9998046,41 L28.9994196,41 C28.4472412,41 27.9996121,40.5566468 27.9996121,39.9906311 L27.9996121,38.0093689 L27.9996121,38.0093689 Z" id="Rectangle-8" sketch:type="MSShapeGroup"></path>
            </g>
        </g>
    </g>
</svg>