<?xml version="1.0" encoding="UTF-8" standalone="no"?>
<svg width="24px" height="23px" viewBox="0 0 24 23" version="1.1" xmlns="http://www.w3.org/2000/svg" xmlns:xlink="http://www.w3.org/1999/xlink" xmlns:sketch="http://www.bohemiancoding.com/sketch/ns">
    <!-- Generator: Sketch 3.2.2 (9983) - http://www.bohemiancoding.com/sketch -->
    <title>Rectangle 10</title>
    <desc>Created with Sketch.</desc>
    <defs></defs>
    <g id="Page-1" stroke="none" stroke-width="1" fill="none" fill-rule="evenodd" sketch:type="MSPage">
        <g id="THE-HOME---invitations" sketch:type="MSArtboardGroup" transform="translate(-72.000000, -82.000000)" fill="#3398DB">
            <g id="Left-Menu-2" sketch:type="MSLayerGroup" transform="translate(0.000000, 60.000000)">
                <path d="M92.9996103,34 C92.9996115,34.0011169 92.9996121,34.002234 92.9996121,34.0033512 L92.9996121,41.9966488 C92.9996121,45 92.9996121,45 90.0070723,45 L88.9996121,45 L88.9996121,37.9975446 C88.9996121,37.4463114 88.5477023,37 87.9902432,37 L86.008981,37 C85.4429653,37 84.9996121,37.446616 84.9996121,37.9975446 L84.9996121,45 L77.9921519,45 C74.9996121,45 74.9996121,45 74.9996121,41.9966488 L74.9996121,34.0033512 C74.9996121,34.002234 74.9996127,34.0011169 74.9996139,34 L74.3724598,34 C72.7182444,34 72.3783062,33.1047281 73.6194579,31.9947459 L84.0003851,22.7109129 L94.3813122,31.9947459 C95.6196562,33.1022171 95.2840069,34 93.6283103,34 L92.9996104,34 Z M77.9996121,38.0093689 C77.9996121,37.4519098 78.4433288,37 78.9994196,37 L81.9998046,37 C82.551983,37 82.9996121,37.4433532 82.9996121,38.0093689 L82.9996121,39.9906311 C82.9996121,40.5480902 82.5558955,41 81.9998046,41 L78.9994196,41 C78.4472412,41 77.9996121,40.5566468 77.9996121,39.9906311 L77.9996121,38.0093689 L77.9996121,38.0093689 Z" id="Rectangle-10" sketch:type="MSShapeGroup"></path>
            </g>
        </g>
    </g>
</svg>