<?xml version="1.0" encoding="UTF-8" standalone="no"?>
<svg width="11px" height="14px" viewBox="0 0 11 14" version="1.1" xmlns="http://www.w3.org/2000/svg" xmlns:xlink="http://www.w3.org/1999/xlink" xmlns:sketch="http://www.bohemiancoding.com/sketch/ns">
    <!-- Generator: Sketch 3.3.2 (12043) - http://www.bohemiancoding.com/sketch -->
    <title>Rectangle 94 Copy 2</title>
    <desc>Created with Sketch.</desc>
    <defs></defs>
    <g id="Page-1" stroke="none" stroke-width="1" fill="none" fill-rule="evenodd" sketch:type="MSPage">
        <g id="Create-New" sketch:type="MSArtboardGroup" transform="translate(-1270.000000, -385.000000)" fill="#FFFFFF">
            <path d="M1270,399 L1270,385 L1276,385 C1278.20914,385 1280,386.790861 1280,389 C1280,389.760092 1279.78799,390.470667 1279.41989,391.075818 C1280.38689,391.901194 1281,393.128997 1281,394.5 C1281,396.985281 1278.98528,399 1276.5,399 L1270,399 Z M1273,388 L1273,390 L1276,390 C1276.55228,390 1277,389.552285 1277,389 C1277,388.447715 1276.55228,388 1276,388 L1273,388 Z M1278,394.5 C1278,395.328427 1277.32843,396 1276.5,396 L1273,396 L1273,393 L1276.5,393 C1277.32843,393 1278,393.671573 1278,394.5 Z" id="Rectangle-94-Copy-2" sketch:type="MSShapeGroup"></path>
        </g>
    </g>
</svg>