<?xml version="1.0" encoding="UTF-8" standalone="no"?>
<svg width="11px" height="14px" viewBox="0 0 11 14" version="1.1" xmlns="http://www.w3.org/2000/svg" xmlns:xlink="http://www.w3.org/1999/xlink" xmlns:sketch="http://www.bohemiancoding.com/sketch/ns">
    <!-- Generator: Sketch 3.3.2 (12043) - http://www.bohemiancoding.com/sketch -->
    <title>Rectangle 94 Copy</title>
    <desc>Created with Sketch.</desc>
    <defs></defs>
    <g id="Page-1" stroke="none" stroke-width="1" fill="none" fill-rule="evenodd" sketch:type="MSPage">
        <g id="Create-New" sketch:type="MSArtboardGroup" transform="translate(-1270.000000, -345.000000)" fill="#2C3E50">
            <path d="M1270,359 L1270,345 L1276,345 C1278.20914,345 1280,346.790861 1280,349 C1280,349.760092 1279.78799,350.470667 1279.41989,351.075818 C1280.38689,351.901194 1281,353.128997 1281,354.5 C1281,356.985281 1278.98528,359 1276.5,359 L1270,359 Z M1273,348 L1273,350 L1276,350 C1276.55228,350 1277,349.552285 1277,349 C1277,348.447715 1276.55228,348 1276,348 L1273,348 Z M1278,354.5 C1278,355.328427 1277.32843,356 1276.5,356 L1273,356 L1273,353 L1276.5,353 C1277.32843,353 1278,353.671573 1278,354.5 Z" id="Rectangle-94-Copy" sketch:type="MSShapeGroup"></path>
        </g>
    </g>
</svg>