<?xml version="1.0" encoding="UTF-8" standalone="no"?>
<svg width="15px" height="15px" viewBox="0 0 15 15" version="1.1" xmlns="http://www.w3.org/2000/svg" xmlns:xlink="http://www.w3.org/1999/xlink" xmlns:sketch="http://www.bohemiancoding.com/sketch/ns">
    <!-- Generator: Sketch 3.2.2 (9983) - http://www.bohemiancoding.com/sketch -->
    <title>links</title>
    <desc>Created with Sketch.</desc>
    <defs></defs>
    <g id="Page-1" stroke="none" stroke-width="1" fill="none" fill-rule="evenodd" sketch:type="MSPage">
        <g id="01-MY-STUDIES" sketch:type="MSArtboardGroup" transform="translate(-488.000000, -382.000000)" fill="#FFFFFF">
            <g id="Project-1" sketch:type="MSLayerGroup" transform="translate(280.000000, 234.000000)">
                <path d="M214.749027,154.31461 C214.312887,153.082546 214.62584,151.60634 215.665069,150.5664 L217.122657,149.107815 C218.531412,147.698095 220.7413,147.623887 222.058578,148.942066 C223.375856,150.260246 223.301699,152.471646 221.892943,153.881366 L220.435355,155.339951 C219.39098,156.38504 217.906308,156.696142 216.671435,156.250081 L216.247075,156.674441 C216.688962,157.908699 216.37724,159.390578 215.334931,160.4336 L213.877343,161.892185 C212.468588,163.301905 210.2587,163.376113 208.941422,162.057934 C207.624144,160.739754 207.698301,158.528354 209.107057,157.118634 L210.564645,155.660049 C211.605942,154.618039 213.084945,154.305698 214.317641,154.745996 L214.749027,154.31461 Z M216.692414,152.414745 C216.77109,152.240153 216.883067,152.075311 217.028008,151.930271 L218.485596,150.471686 C219.089348,149.867521 220.036443,149.835717 220.60099,150.400651 C221.165538,150.965586 221.133756,151.913328 220.530004,152.517494 L219.072416,153.976079 C218.920527,154.128073 218.746906,154.243841 218.563113,154.322997 C218.923286,153.791058 218.871516,153.065952 218.399071,152.593506 C217.936639,152.131074 217.222178,152.072698 216.692414,152.414745 Z M214.318341,158.560848 C214.239248,158.744481 214.12367,158.917947 213.971992,159.069729 L212.514404,160.528314 C211.910652,161.132479 210.963557,161.164283 210.39901,160.599349 C209.834462,160.034414 209.866244,159.086672 210.469996,158.482506 L211.927584,157.023921 C212.076649,156.874754 212.246643,156.760477 212.426643,156.681458 C212.085912,157.210751 212.143693,157.919686 212.608292,158.384285 C213.071711,158.847704 213.788238,158.90534 214.318341,158.560848 Z" id="links" sketch:type="MSShapeGroup"></path>
            </g>
        </g>
    </g>
</svg>