<?xml version="1.0" encoding="UTF-8" standalone="no"?>
<svg width="23px" height="23px" viewBox="0 0 23 23" version="1.1" xmlns="http://www.w3.org/2000/svg" xmlns:xlink="http://www.w3.org/1999/xlink" xmlns:sketch="http://www.bohemiancoding.com/sketch/ns">
    <!-- Generator: Sketch 3.3 (11970) - http://www.bohemiancoding.com/sketch -->
    <title>help</title>
    <desc>Created with Sketch.</desc>
    <defs></defs>
    <g id="Page-1" stroke="none" stroke-width="1" fill="none" fill-rule="evenodd" sketch:type="MSPage">
        <g id="THE-HOME---zero-2" sketch:type="MSArtboardGroup" transform="translate(-1550.000000, -17.000000)">
            <g id="Header-2" sketch:type="MSLayerGroup">
                <g id="help" transform="translate(1550.000000, 17.000000)" sketch:type="MSShapeGroup">
                    <circle id="oval" stroke="#FFFFFF" stroke-width="2" fill="#FFFFFF" cx="11.5" cy="11.5" r="11.5"></circle>
                    <path d="M10.3067326,14 C10.3120342,13.2139452 10.4445741,12.6229992 10.704356,12.2271442 C10.9641379,11.8312893 11.4386304,11.3760629 12.1278478,10.8614515 C12.4830598,10.6239385 12.7627188,10.3298792 12.9668332,9.97926484 C13.1709476,9.62865046 13.2730032,9.22431897 13.2730032,8.76625825 C13.2730032,8.29123231 13.1537174,7.91234826 12.9151422,7.62959472 C12.6765669,7.34684119 12.337265,7.20546654 11.8972262,7.20546654 C11.5420142,7.20546654 11.245125,7.32139375 11.0065498,7.55325165 C10.7679745,7.78510955 10.6433871,8.13006369 10.6327838,8.58812441 L8.01642171,8.58812441 L8.00051678,8.53722903 C7.98461176,7.36097433 8.33584226,6.47738279 9.05421882,5.8864279 C9.77259538,5.29547301 10.720255,5 11.8972262,5 C13.1590242,5 14.1517474,5.33929915 14.8754256,6.01790763 C15.5991038,6.69651612 15.9609375,7.61262383 15.9609375,8.76625825 C15.9609375,9.47314208 15.7634532,10.1234655 15.3684786,10.7172479 C14.9735041,11.3110303 14.4711782,11.7775666 13.8614859,12.1168709 C13.5221789,12.3543838 13.292885,12.610272 13.1735974,12.8845429 C13.0543098,13.1588138 12.9946668,13.5306291 12.9946668,14 L10.3067326,14 Z" id="q" fill="#2C3E50"></path>
                    <circle id="dont" fill="#2C3E50" cx="11.5" cy="16.5" r="1.5"></circle>
                </g>
            </g>
        </g>
    </g>
</svg>
