<?xml version="1.0" encoding="UTF-8" standalone="no"?>
<svg width="17px" height="16px" viewBox="0 0 17 16" version="1.1" xmlns="http://www.w3.org/2000/svg" xmlns:xlink="http://www.w3.org/1999/xlink" xmlns:sketch="http://www.bohemiancoding.com/sketch/ns">
    <!-- Generator: Sketch 3.3.2 (12043) - http://www.bohemiancoding.com/sketch -->
    <title>links</title>
    <desc>Created with Sketch.</desc>
    <defs></defs>
    <g id="Page-1" stroke="none" stroke-width="1" fill="none" fill-rule="evenodd" sketch:type="MSPage">
        <g id="Conversations-Zoom" sketch:type="MSArtboardGroup" transform="translate(-595.000000, -1616.000000)" fill="#2C3E50">
            <path d="M603.976796,1625.25799 C604.447806,1626.5735 604.115231,1628.15276 603.003614,1629.26438 L601.448854,1630.81914 C599.946181,1632.32181 597.588968,1632.40091 596.183871,1630.99582 C594.778774,1629.59072 594.857876,1627.23351 596.360548,1625.73083 L597.915308,1624.17607 C599.025913,1623.06547 600.60331,1622.73249 601.918105,1623.20161 L602.381295,1622.73842 C601.912175,1621.42362 602.245156,1619.84623 603.355761,1618.73562 L604.910521,1617.18086 C606.413194,1615.67819 608.770407,1615.59909 610.175504,1617.00418 C611.580601,1618.40928 611.501499,1620.76649 609.998827,1622.26917 L608.444067,1623.82393 C607.332449,1624.93554 605.75319,1625.26812 604.437676,1624.79711 L603.976796,1625.25799 Z M601.918235,1627.2705 C601.833896,1627.46537 601.710953,1627.64944 601.549812,1627.81058 L599.995052,1629.36534 C599.35105,1630.00934 598.340815,1630.04324 597.738631,1629.44106 C597.136447,1628.83887 597.170347,1627.82864 597.81435,1627.18464 L599.36911,1625.62988 C599.528541,1625.47044 599.710418,1625.3484 599.902993,1625.26415 C599.539869,1625.82841 599.601741,1626.58437 600.097311,1627.07994 C600.590876,1627.5735 601.353366,1627.63578 601.918235,1627.2705 Z M604.445797,1620.71885 C604.529979,1620.52792 604.651363,1620.34762 604.809563,1620.18942 L606.364323,1618.63466 C607.008325,1617.99066 608.01856,1617.95676 608.620744,1618.55894 C609.222928,1619.16113 609.189028,1620.17136 608.545025,1620.81536 L606.990265,1622.37012 C606.830666,1622.52972 606.648573,1622.65185 606.455773,1622.73612 C606.828286,1622.17051 606.769302,1621.40672 606.269917,1620.90733 C605.77542,1620.41283 605.010983,1620.35125 604.445797,1620.71885 Z" id="links" sketch:type="MSShapeGroup"></path>
        </g>
    </g>
</svg>