<?xml version="1.0" encoding="UTF-8" standalone="no"?>
<svg width="61px" height="30px" viewBox="0 0 61 30" version="1.1" xmlns="http://www.w3.org/2000/svg" xmlns:xlink="http://www.w3.org/1999/xlink" xmlns:sketch="http://www.bohemiancoding.com/sketch/ns">
    <!-- Generator: Sketch 3.2 (9961) - http://www.bohemiancoding.com/sketch -->
    <title>sap white</title>
    <desc>Created with Sketch.</desc>
    <defs></defs>
    <g id="Page-1" stroke="none" stroke-width="1" fill="none" fill-rule="evenodd" sketch:type="MSPage">
        <g id="SIGN-UP" sketch:type="MSArtboardGroup" transform="translate(-275.000000, -1140.000000)" fill="#FFFFFF">
            <g id="FOOTER" sketch:type="MSLayerGroup" transform="translate(275.000000, 1140.000000)">
                <g id="sap-white" sketch:type="MSShapeGroup">
                    <path d="M36.7645455,18.3312727 L34.846,18.3312727 L34.846,24.0345455 L26.0489091,24.0345455 L25.1769091,21.306 C24.2458182,21.6112727 23.1932727,21.7818182 22.0803636,21.7818182 C20.9356364,21.7818182 19.858,21.6003636 18.9101818,21.2807273 L18.004,24.0345455 L12.6110909,24.0345455 L13.2050909,22.442 C13.1343636,22.5049091 13.0627273,22.57 12.9889091,22.6290909 C11.6427273,23.71 9.96145455,24.3067273 7.87618182,24.3438182 L7.56763636,24.3461818 C5.17563636,24.3461818 2.82854545,23.6856364 0.845090909,22.5576364 L2.67981818,18.9149091 C4.66618182,20.0887273 5.91327273,20.352 7.59781818,20.3183636 C8.46963636,20.3014545 9.09981818,20.1418182 9.512,19.7165455 C9.76018182,19.4561818 9.89309091,19.136 9.90018182,18.7905455 C9.91672727,17.8438182 8.57090909,17.4 6.92290909,16.8910909 C5.58636364,16.4750909 4.06963636,15.9105455 2.88636364,15.0427273 C1.48072727,14.01 0.812727273,12.7185455 0.845090909,10.8950909 C0.866909091,9.56927273 1.35763636,8.37454545 2.26690909,7.43145455 C3.57163636,6.08309091 5.67909091,5.262 8.20618182,5.262 L8.22072727,5.262 C10.3874545,5.26563636 13.0323636,5.87927273 14.9485455,6.854 L12.8809091,10.4478182 C10.7867273,9.43563636 9.73127273,9.34072727 8.53709091,9.27636364 C6.76090909,9.18 5.86036364,9.81709091 5.84945455,10.5018182 C5.83436364,11.3370909 7.52781818,12.094 9.13054545,12.6069091 C11.5545455,13.3776364 14.6347273,14.408 15.1038182,17.3834545 L19.5345455,5.57654545 L24.6783636,5.57654545 L29.8669091,19.696 L29.8669091,5.57654545 L35.8058182,5.57818182 C41.4821818,5.57818182 44.1487273,7.60127273 44.1487273,12.0105455 C44.1487273,15.9701818 41.4027273,18.3312727 36.7645455,18.3312727 L36.7645455,18.3312727 Z M0,30 L30.4907273,30 L60.3349091,0 L0,0 L0,30 Z" id="Fill-1"></path>
                    <path d="M36.1552727,9.46218182 L34.846,9.46218182 L34.846,14.2492727 L36.1552727,14.2492727 C37.9003636,14.2492727 39.2890909,13.67 39.2890909,11.8281818 C39.2890909,10.0410909 37.9003636,9.46218182 36.1552727,9.46218182" id="Fill-4"></path>
                    <path d="M22.0605455,11.3890909 L20.1769091,17.3269091 C20.7374545,17.54 21.3885455,17.6629091 22.0803636,17.6629091 C22.7561818,17.6629091 23.3896364,17.5449091 23.9436364,17.344 L22.0990909,11.3890909 L22.0605455,11.3890909" id="Fill-5"></path>
                    <path d="M38.9831184,27.3360841 L38.9831184,26.4513793 L39.5730452,26.4513793 C39.8677766,26.4513793 40.1859289,26.5146225 40.1859289,26.8709782 C40.1859289,27.3132139 39.8617475,27.3360841 39.5006957,27.3360841 L38.9831184,27.3360841 L38.9831184,27.3360841 Z M38.9831184,27.7050417 L39.4793618,27.7050417 L40.2288285,28.9456354 L40.7141731,28.9456354 L39.9016325,27.6849719 C40.3194973,27.6354975 40.6404322,27.4105291 40.6404322,26.8973489 C40.6404322,26.3330608 40.3088303,26.0826551 39.6375104,26.0826551 L38.5529635,26.0826551 L38.5529635,28.9456354 L38.9831184,28.9456354 L38.9831184,27.7050417 L38.9831184,27.7050417 Z M39.5069567,30 C40.8493646,30 42,28.9456354 42,27.5094778 C42,26.0826551 40.8493646,25.0310909 39.5069567,25.0310909 C38.1473889,25.0310909 37,26.0826551 37,27.5094778 C37,28.9456354 38.1473889,30 39.5069567,30 L39.5069567,30 Z M37.4962434,27.5094778 C37.4962434,26.3330608 38.377887,25.4425218 39.5069567,25.4425218 C40.6207216,25.4425218 41.5039885,26.3330608 41.5039885,27.5094778 C41.5039885,28.7057313 40.6207216,29.5853019 39.5069567,29.5853019 C38.377887,29.5853019 37.4962434,28.7057313 37.4962434,27.5094778 L37.4962434,27.5094778 Z" id="Fill-6"></path>
                </g>
            </g>
        </g>
    </g>
</svg>