<?xml version="1.0" encoding="utf-8"?>
<!-- Generator: Adobe Illustrator 16.0.0, SVG Export Plug-In . SVG Version: 6.00 Build 0)  -->
<!DOCTYPE svg PUBLIC "-//W3C//DTD SVG 1.1//EN" "http://www.w3.org/Graphics/SVG/1.1/DTD/svg11.dtd">
<svg version="1.1" id="Layer_1" xmlns="http://www.w3.org/2000/svg" xmlns:xlink="http://www.w3.org/1999/xlink" x="0px" y="0px"
	 width="103.125px" height="52.25px" viewBox="0 0 103.125 52.25" enable-background="new 0 0 103.125 52.25" xml:space="preserve">
<g id="Layer_2">
</g>
<g id="Layer_1_1_">
	<g>
		<g>
			<path fill="#FFFFFF" d="M61.549,17.101h-2.17v7.935h2.17c2.893,0,5.195-0.96,5.195-4.013
				C66.744,18.061,64.441,17.101,61.549,17.101z"/>
			<path fill="#FFFFFF" d="M1.625,1.364v49.467h50.536l49.464-49.467H1.625z M62.559,31.801h-3.18v9.453h-14.58l-1.445-4.523
				c-1.543,0.507-3.288,0.789-5.132,0.789c-1.897,0-3.684-0.301-5.255-0.831l-1.501,4.564h-8.939l0.985-2.64
				c-0.117,0.104-0.236,0.212-0.358,0.311c-2.231,1.791-5.018,2.779-8.474,2.842l-0.511,0.004c-3.964,0-7.854-1.094-11.142-2.965
				l3.041-6.037c3.292,1.945,5.359,2.382,8.151,2.326c1.445-0.027,2.49-0.293,3.173-0.997c0.412-0.433,0.632-0.962,0.644-1.535
				c0.027-1.569-2.204-2.304-4.934-3.148c-2.215-0.689-4.73-1.625-6.691-3.063c-2.329-1.712-3.437-3.852-3.383-6.875
				c0.036-2.197,0.849-4.178,2.356-5.741c2.163-2.234,5.656-3.596,9.844-3.596h0.024c3.591,0.006,7.975,1.023,11.151,2.639
				l-3.427,5.957c-3.471-1.678-5.22-1.835-7.199-1.942c-2.944-0.16-4.437,0.896-4.455,2.031c-0.025,1.384,2.782,2.638,5.438,3.489
				c4.018,1.277,9.123,2.985,9.9,7.917l7.343-19.569h8.526l8.6,23.401V10.66l9.842,0.002c9.409,0,13.829,3.353,13.829,10.661
				C74.798,27.888,70.246,31.801,62.559,31.801z"/>
			<path fill="#FFFFFF" d="M38.188,20.295l-3.122,9.842c0.929,0.353,2.009,0.557,3.155,0.557c1.12,0,2.17-0.195,3.088-0.529
				l-3.058-9.869H38.188L38.188,20.295z"/>
		</g>
		<path fill="#FFFFFF" d="M64.256,47.623c0-1.519,1.146-2.668,2.613-2.668c1.447,0,2.596,1.149,2.596,2.668
			c0,1.545-1.148,2.681-2.596,2.681C65.402,50.304,64.256,49.168,64.256,47.623z M66.869,50.84c1.744,0,3.24-1.362,3.24-3.217
			c0-1.842-1.496-3.2-3.24-3.2c-1.767,0-3.258,1.358-3.258,3.2C63.611,49.478,65.103,50.84,66.869,50.84z M66.188,47.876h0.646
			l0.973,1.602h0.631l-1.055-1.628c0.542-0.063,0.959-0.354,0.959-1.017c0-0.729-0.431-1.052-1.303-1.052H65.63v3.697h0.559V47.876
			L66.188,47.876z M66.188,47.399v-1.143h0.767c0.383,0,0.797,0.082,0.797,0.542c0,0.571-0.422,0.601-0.891,0.601H66.188
			L66.188,47.399z"/>
	</g>
</g>
</svg>
