<?xml version="1.0" encoding="UTF-8" standalone="no"?>
<svg width="17px" height="18px" viewBox="0 0 17 18" version="1.1" xmlns="http://www.w3.org/2000/svg" xmlns:xlink="http://www.w3.org/1999/xlink" xmlns:sketch="http://www.bohemiancoding.com/sketch/ns">
    <!-- Generator: Sketch 3.3.2 (12043) - http://www.bohemiancoding.com/sketch -->
    <title>Rectangle 69</title>
    <desc>Created with Sketch.</desc>
    <defs></defs>
    <g id="Version-1.2" stroke="none" stroke-width="1" fill="none" fill-rule="evenodd" sketch:type="MSPage">
        <g id="1" sketch:type="MSArtboardGroup" transform="translate(-1190.000000, -325.000000)" fill="#E74C3C">
            <path d="M1202.5,328 L1205.49913,328 C1206.05189,328 1206.5,328.443865 1206.5,329 C1206.5,329.552285 1206.05537,330 1205.49913,330 L1204.5,330 L1204.5,340.994141 C1204.5,342.101946 1203.59805,343 1202.49147,343 L1194.50853,343 C1193.39925,343 1192.5,342.10294 1192.5,340.994141 L1192.5,330 L1191.50087,330 C1190.94811,330 1190.5,329.556135 1190.5,329 C1190.5,328.447715 1190.94463,328 1191.50087,328 L1194.5,328 L1194.5,327.5 C1194.5,326.119288 1195.61237,325 1197.0093,325 L1199.9907,325 C1201.37655,325 1202.5,326.109662 1202.5,327.5 L1202.5,328 Z M1200.4688,328 L1196.53107,328 C1196.64112,327.424995 1197.03154,327 1197.50937,327 L1199.49063,327 C1199.96179,327 1200.35756,327.421625 1200.4688,328 Z M1196.5,331 L1196.5,341 L1195.5,341 C1194.94772,341 1194.5,340.544336 1194.5,340.004602 L1194.5,331 L1196.5,331 Z M1202.5,331 L1202.5,340.004602 C1202.5,340.554345 1202.05614,341 1201.5,341 L1200.5,341 L1200.5,331 L1202.5,331 Z M1197.5,331 L1199.5,331 L1199.5,341 L1197.5,341 L1197.5,331 Z" id="Rectangle-69" sketch:type="MSShapeGroup"></path>
        </g>
    </g>
</svg>