<?xml version="1.0" encoding="utf-8"?>
<!-- Generator: Adobe Illustrator 16.0.0, SVG Export Plug-In . SVG Version: 6.00 Build 0)  -->
<!DOCTYPE svg PUBLIC "-//W3C//DTD SVG 1.1//EN" "http://www.w3.org/Graphics/SVG/1.1/DTD/svg11.dtd">
<svg version="1.1" id="Layer_1" xmlns="http://www.w3.org/2000/svg" xmlns:xlink="http://www.w3.org/1999/xlink" x="0px" y="0px"
	 width="54px" height="37px" viewBox="0 0 54 37" enable-background="new 0 0 54 37" xml:space="preserve">
<g>
	<path fill="#2C3E4F" d="M3,35.501c-0.827,0-1.5-0.673-1.5-1.5V3c0-0.827,0.673-1.5,1.5-1.5h48c0.827,0,1.5,0.673,1.5,1.5v31.001
		c0,0.827-0.673,1.5-1.5,1.5H3z"/>
	<path fill="#95A5A6" d="M51,2c0.552,0,1,0.449,1,1v31.001c0,0.552-0.448,1-1,1H3c-0.551,0-1-0.448-1-1V3c0-0.551,0.449-1,1-1H51
		 M51,1H3C1.896,1,1,1.896,1,3v31.001c0,1.104,0.896,2,2,2h48c1.105,0,2-0.896,2-2V3C53,1.896,52.105,1,51,1L51,1z"/>
</g>
<g>
	<polygon fill="#95A5A6" points="21,32.073 13,32.075 13,24.073 15.594,26.665 22.666,19.593 25.48,22.407 18.406,29.479 	"/>
</g>
<g>
	<polygon fill="#95A5A6" points="40.076,12.668 37.646,10.241 30.407,17.481 27.592,14.667 34.833,7.426 32.075,4.667 40.076,4.667
			"/>
</g>
</svg>

