<?xml version="1.0" encoding="UTF-8" standalone="no"?>
<svg width="14px" height="8px" viewBox="0 0 14 8" version="1.1" xmlns="http://www.w3.org/2000/svg" xmlns:xlink="http://www.w3.org/1999/xlink" xmlns:sketch="http://www.bohemiancoding.com/sketch/ns">
    <!-- Generator: Sketch 3.2.2 (9983) - http://www.bohemiancoding.com/sketch -->
    <title>Oval 71</title>
    <desc>Created with Sketch.</desc>
    <defs></defs>
    <g id="USE-CASE" stroke="none" stroke-width="1" fill="none" fill-rule="evenodd" sketch:type="MSPage">
        <g id="GROUP" sketch:type="MSArtboardGroup" transform="translate(-831.000000, -184.000000)" fill="#728495">
            <g id="Group-4" sketch:type="MSLayerGroup" transform="translate(683.000000, 90.000000)">
                <g id="Oval-71-+-Oval-74" transform="translate(148.000000, 94.000000)" sketch:type="MSShapeGroup">
                    <path d="M5.90548689,5 C5.57245479,6.72522721 4.39787957,8 3,8 C1.34314575,8 0,6.209139 0,4 C0,1.790861 1.34314575,0 3,0 C4.39787957,0 5.57245479,1.27477279 5.90548689,3 L14,3 L14,5 L13,5 L13,7 L12,7 L12,6 L11,6 L11,7 L10,7 L10,5 L5.90548689,5 Z M3,6 C3.82842712,6 4.5,5.1045695 4.5,4 C4.5,2.8954305 3.82842712,2 3,2 C2.17157288,2 1.5,2.8954305 1.5,4 C1.5,5.1045695 2.17157288,6 3,6 Z" id="Oval-71"></path>
                </g>
            </g>
        </g>
    </g>
</svg>