<?xml version="1.0" encoding="UTF-8" standalone="no"?>
<svg width="31px" height="18px" viewBox="0 0 31 18" version="1.1" xmlns="http://www.w3.org/2000/svg" xmlns:xlink="http://www.w3.org/1999/xlink" xmlns:sketch="http://www.bohemiancoding.com/sketch/ns">
    <!-- Generator: Sketch 3.2.2 (9983) - http://www.bohemiancoding.com/sketch -->
    <title>Type something + </title>
    <desc>Created with Sketch.</desc>
    <defs></defs>
    <g id="USE-CASE" stroke="none" stroke-width="1" fill="none" fill-rule="evenodd" sketch:type="MSPage">
        <g id="15" sketch:type="MSArtboardGroup" transform="translate(-616.000000, -71.000000)" fill="#FFFFFF">
            <g id="BLUE-BAR-for-DM-0" sketch:type="MSLayerGroup" transform="translate(0.000000, 60.000000)">
                <g id="Type-something-+-" transform="translate(616.000000, 11.000000)" sketch:type="MSShapeGroup">
                    <path d="M14.2857313,9.57142091 C14.2857313,9.96204637 13.9620702,10.2857075 13.5714447,10.2857075 L10.0000119,10.2857075 L10.0000119,13.8571403 C10.0000119,14.2477658 9.67635082,14.5714269 9.28572536,14.5714269 L7.85715222,14.5714269 C7.46652676,14.5714269 7.14286566,14.2477658 7.14286566,13.8571403 L7.14286566,10.2857075 L3.57143283,10.2857075 C3.18080736,10.2857075 2.85714626,9.96204637 2.85714626,9.57142091 L2.85714626,8.14284778 C2.85714626,7.75222231 3.18080736,7.42856121 3.57143283,7.42856121 L7.14286566,7.42856121 L7.14286566,3.85712838 C7.14286566,3.46650292 7.46652676,3.14284182 7.85715222,3.14284182 L9.28572536,3.14284182 C9.67635082,3.14284182 10.0000119,3.46650292 10.0000119,3.85712838 L10.0000119,7.42856121 L13.5714447,7.42856121 C13.9620702,7.42856121 14.2857313,7.75222231 14.2857313,8.14284778 L14.2857313,9.57142091 Z M17.1428776,3.4999851 C17.1428776,1.72542941 15.7031437,0.285695553 13.928588,0.285695553 L3.21428955,0.285695553 C1.43973386,0.285695553 0,1.72542941 0,3.4999851 L0,14.2142836 C0,15.9888393 1.43973386,17.4285731 3.21428955,17.4285731 L13.928588,17.4285731 C15.7031437,17.4285731 17.1428776,15.9888393 17.1428776,14.2142836 L17.1428776,3.4999851 Z" id="Type-something"></path>
                    <path d="M30.3984475,8.74999255 C30.3984475,8.68749247 30.3671975,8.61717989 30.3203224,8.57030484 L29.929697,8.17967937 C29.8828219,8.13280431 29.8125093,8.10155428 29.7500092,8.10155428 C29.6875092,8.10155428 29.6171966,8.13280431 29.5703215,8.17967937 L26.5000054,11.2499955 L23.4296892,8.17967937 C23.3828141,8.13280431 23.3125016,8.10155428 23.2500015,8.10155428 C23.1796889,8.10155428 23.1171888,8.13280431 23.0703138,8.17967937 L22.6796883,8.57030484 C22.6328133,8.61717989 22.6015632,8.68749247 22.6015632,8.74999255 C22.6015632,8.81249262 22.6328133,8.88280521 22.6796883,8.92968026 L26.3203177,12.5703096 C26.3671927,12.6171847 26.4375053,12.6484347 26.5000054,12.6484347 C26.5625054,12.6484347 26.632818,12.6171847 26.6796931,12.5703096 L30.3203224,8.92968026 C30.3671975,8.88280521 30.3984475,8.81249262 30.3984475,8.74999255 L30.3984475,8.74999255 Z" id=""></path>
                </g>
            </g>
        </g>
    </g>
</svg>