<?xml version="1.0" encoding="UTF-8" standalone="no"?>
<svg width="33px" height="18px" viewBox="0 0 33 18" version="1.1" xmlns="http://www.w3.org/2000/svg" xmlns:xlink="http://www.w3.org/1999/xlink" xmlns:sketch="http://www.bohemiancoding.com/sketch/ns">
    <!-- Generator: Sketch 3.2.2 (9983) - http://www.bohemiancoding.com/sketch -->
    <title>Type something 12 + Type something 10</title>
    <desc>Created with Sketch.</desc>
    <defs></defs>
    <g id="USE-CASE" stroke="none" stroke-width="1" fill="none" fill-rule="evenodd" sketch:type="MSPage">
        <g id="15" sketch:type="MSArtboardGroup" transform="translate(-693.000000, -71.000000)" fill="#FFFFFF">
            <g id="BLUE-BAR-for-DM-0" sketch:type="MSLayerGroup" transform="translate(0.000000, 60.000000)">
                <g id="Type-something-12-+-Type-something-10" transform="translate(693.000000, 11.000000)" sketch:type="MSShapeGroup">
                    <g>
                        <path d="M32.3984475,8.74999255 C32.3984475,8.68749247 32.3671975,8.61717989 32.3203224,8.57030484 L31.929697,8.17967937 C31.8828219,8.13280431 31.8125093,8.10155428 31.7500092,8.10155428 C31.6875092,8.10155428 31.6171966,8.13280431 31.5703215,8.17967937 L28.5000054,11.2499955 L25.4296892,8.17967937 C25.3828141,8.13280431 25.3125016,8.10155428 25.2500015,8.10155428 C25.1796889,8.10155428 25.1171888,8.13280431 25.0703138,8.17967937 L24.6796883,8.57030484 C24.6328133,8.61717989 24.6015632,8.68749247 24.6015632,8.74999255 C24.6015632,8.81249262 24.6328133,8.88280521 24.6796883,8.92968026 L28.3203177,12.5703096 C28.3671927,12.6171847 28.4375053,12.6484347 28.5000054,12.6484347 C28.5625054,12.6484347 28.632818,12.6171847 28.6796931,12.5703096 L32.3203224,8.92968026 C32.3671975,8.88280521 32.3984475,8.81249262 32.3984475,8.74999255 L32.3984475,8.74999255 Z" id="Type-something-12"></path>
                        <path d="M20.0000238,12.7857105 C20.0000238,12.1941919 19.5201126,11.7142806 18.928594,11.7142806 L17.8571641,11.7142806 L17.8571641,9.57142091 C17.8571641,8.79016998 17.2098419,8.14284778 16.428591,8.14284778 L10.7142985,8.14284778 L10.7142985,5.99998808 L11.7857283,5.99998808 C12.3772469,5.99998808 12.8571582,5.52007679 12.8571582,4.92855823 L12.8571582,1.3571254 C12.8571582,0.765606839 12.3772469,0.285695553 11.7857283,0.285695553 L8.21429551,0.285695553 C7.62277694,0.285695553 7.14286566,0.765606839 7.14286566,1.3571254 L7.14286566,4.92855823 C7.14286566,5.52007679 7.62277694,5.99998808 8.21429551,5.99998808 L9.28572536,5.99998808 L9.28572536,8.14284778 L3.57143283,8.14284778 C2.7901819,8.14284778 2.1428597,8.79016998 2.1428597,9.57142091 L2.1428597,11.7142806 L1.07142985,11.7142806 C0.479911286,11.7142806 0,12.1941919 0,12.7857105 L0,16.3571433 C0,16.9486618 0.479911286,17.4285731 1.07142985,17.4285731 L4.64286268,17.4285731 C5.23438124,17.4285731 5.71429253,16.9486618 5.71429253,16.3571433 L5.71429253,12.7857105 C5.71429253,12.1941919 5.23438124,11.7142806 4.64286268,11.7142806 L3.57143283,11.7142806 L3.57143283,9.57142091 L9.28572536,9.57142091 L9.28572536,11.7142806 L8.21429551,11.7142806 C7.62277694,11.7142806 7.14286566,12.1941919 7.14286566,12.7857105 L7.14286566,16.3571433 C7.14286566,16.9486618 7.62277694,17.4285731 8.21429551,17.4285731 L11.7857283,17.4285731 C12.3772469,17.4285731 12.8571582,16.9486618 12.8571582,16.3571433 L12.8571582,12.7857105 C12.8571582,12.1941919 12.3772469,11.7142806 11.7857283,11.7142806 L10.7142985,11.7142806 L10.7142985,9.57142091 L16.428591,9.57142091 L16.428591,11.7142806 L15.3571612,11.7142806 C14.7656426,11.7142806 14.2857313,12.1941919 14.2857313,12.7857105 L14.2857313,16.3571433 C14.2857313,16.9486618 14.7656426,17.4285731 15.3571612,17.4285731 L18.928594,17.4285731 C19.5201126,17.4285731 20.0000238,16.9486618 20.0000238,16.3571433 L20.0000238,12.7857105 Z" id="Type-something-10"></path>
                    </g>
                </g>
            </g>
        </g>
    </g>
</svg>