<?xml version="1.0" encoding="UTF-8" standalone="no"?>
<svg width="28px" height="23px" viewBox="0 0 28 23" version="1.1" xmlns="http://www.w3.org/2000/svg" xmlns:xlink="http://www.w3.org/1999/xlink" xmlns:sketch="http://www.bohemiancoding.com/sketch/ns">
    <!-- Generator: Sketch 3.2.2 (9983) - http://www.bohemiancoding.com/sketch -->
    <title>cloud upload</title>
    <desc>Created with Sketch.</desc>
    <defs></defs>
    <g id="Page-1" stroke="none" stroke-width="1" fill="none" fill-rule="evenodd" sketch:type="MSPage">
        <g id="04-UNTITLED" sketch:type="MSArtboardGroup" transform="translate(-1217.000000, -119.000000)" fill="#3398DB">
            <path d="M1236,139 L1239.4,139 C1240.94584,139 1242.26562,138.467335 1243.35938,137.401989 C1244.45313,136.336642 1245,135.051144 1245,133.545455 C1245,132.267039 1244.59167,131.133054 1243.775,130.143466 C1242.95833,129.153878 1241.92292,128.517047 1240.66875,128.232955 C1241.06736,127.636361 1241.26667,126.982958 1241.26667,126.272727 C1241.26667,125.268934 1240.90209,124.411935 1240.17292,123.701705 C1239.44375,122.991474 1238.56389,122.636364 1237.53333,122.636364 C1236.6,122.636364 1235.79306,122.929921 1235.1125,123.517045 C1234.53889,122.172342 1233.62744,121.083337 1232.37813,120.25 C1231.12881,119.416662 1229.73612,119 1228.2,119 C1226.13888,119 1224.37917,119.71022 1222.92083,121.130682 C1221.46249,122.551143 1220.73333,124.265141 1220.73333,126.272727 C1220.73333,126.414773 1220.74306,126.61837 1220.7625,126.883523 C1219.63472,127.394889 1218.7257,128.169029 1218.03542,129.205966 C1217.34514,130.242903 1217,131.386357 1217,132.636364 C1217,134.388266 1217.63923,135.886831 1218.91771,137.132102 C1220.19619,138.377374 1221.73471,139 1223.53333,139 L1227,139 L1227,137 L1224,137 L1231.5,126 L1239,137 L1236,137 L1236,139 Z M1234,136 L1234,142 L1229,142 L1229,136 L1227,136 L1231.5,129 L1236,136 L1234,136 Z" id="cloud-upload" sketch:type="MSShapeGroup"></path>
        </g>
    </g>
</svg>