<?xml version="1.0" encoding="utf-8"?>
<!-- Generator: Adobe Illustrator 16.0.0, SVG Export Plug-In . SVG Version: 6.00 Build 0)  -->
<!DOCTYPE svg PUBLIC "-//W3C//DTD SVG 1.1//EN" "http://www.w3.org/Graphics/SVG/1.1/DTD/svg11.dtd">
<svg version="1.1" id="Layer_1" xmlns="http://www.w3.org/2000/svg" xmlns:xlink="http://www.w3.org/1999/xlink" x="0px" y="0px"
	 width="65.227px" height="78.897px" viewBox="0 0 65.227 78.897" enable-background="new 0 0 65.227 78.897" xml:space="preserve">
<g id="Your_Icon">
	<path fill="#E0E0E0" d="M53.854,43.672c-5.953,0-10.777,4.791-10.777,10.693c0,5.906,10.777,20.531,10.777,20.531
		s10.777-14.625,10.777-20.531C64.633,48.463,59.809,43.672,53.854,43.672z M53.854,60.355c-3.334,0-6.035-2.685-6.035-5.989
		c0-3.306,2.701-5.984,6.035-5.984s6.035,2.681,6.035,5.984C59.893,57.674,57.188,60.355,53.854,60.355z"/>
	<polygon fill="#E0E0E0" points="22.729,41.027 8.067,25.633 8.067,54.111 	"/>
	<polygon fill="#E0E0E0" points="27.91,36.492 41.879,24.944 42,8.075 8.259,8.038 8.134,15.61 	"/>
	<g>
		<path fill="#E0E0E0" d="M6.609,71.047c0,0-1.729,0-1.729-1.717s0-61.048,0-62.766c0-1.716,1.729-1.716,1.729-1.716h35.165
			c1.91,0,3.461,1.537,3.461,3.434v13.501h10.326c3.463,0,4.441,2.472,4.441,5.907v13.181c1.451,0.752,2.758,1.727,3.881,2.885
			c0-9.375,0-12.446,0-15.262c0-6.867-4.34-9.873-4.34-9.873L46.639,3.957C46.639,3.957,44.266,1,39,1C34.527,1,6.854,1,6.854,1
			C3.998,1,1,3.377,1,6.211v62.826c0,2.83,3.248,5.859,6.104,5.859h41.589c-0.783-1.213-1.854-2.516-2.662-3.854L6.609,71.047
			L6.609,71.047z"/>
		<path fill="#E0E0E0" d="M8.067,62.581v5.226h36.152c-2.895-5.281-5.326-10.218-5.326-13.521c0-2.738,0.76-5.295,2.062-7.498
			l-6.584-7.299L8.067,62.581z"/>
		<path fill="#E0E0E0" d="M49.891,25.633L38.248,36.408l6.311,6.258c2.557-2.014,5.779-3.225,9.297-3.225
			c1.033,0,2.045,0.104,3.021,0.305V25.633H49.891z"/>
	</g>
</g>
</svg>
