<?xml version="1.0" encoding="UTF-8" standalone="no"?>
<svg width="14px" height="15px" viewBox="0 0 14 15" version="1.1" xmlns="http://www.w3.org/2000/svg" xmlns:xlink="http://www.w3.org/1999/xlink" xmlns:sketch="http://www.bohemiancoding.com/sketch/ns">
    <!-- Generator: Sketch 3.3.2 (12043) - http://www.bohemiancoding.com/sketch -->
    <title>Type something</title>
    <desc>Created with Sketch.</desc>
    <defs></defs>
    <g id="Version-1.2" stroke="none" stroke-width="1" fill="none" fill-rule="evenodd" sketch:type="MSPage">
        <g id="1" sketch:type="MSArtboardGroup" transform="translate(-1154.000000, -329.000000)" fill="#2C3E50">
            <path d="M1157.24108,342 L1156.28572,342 L1156.28572,340.857141 L1155.14286,340.857141 L1155.14286,339.901783 L1155.95536,339.089282 L1158.05358,341.187499 L1157.24108,342 Z M1161.91072,333.714276 C1161.91072,333.767847 1161.89287,333.821419 1161.84822,333.866062 L1157.00893,338.705353 C1156.96429,338.749996 1156.91072,338.767853 1156.85715,338.767853 C1156.74107,338.767853 1156.66072,338.687496 1156.66072,338.571424 C1156.66072,338.517853 1156.67857,338.464281 1156.72322,338.419639 L1161.56251,333.580347 C1161.60715,333.535704 1161.66072,333.517847 1161.71429,333.517847 C1161.83037,333.517847 1161.91072,333.598204 1161.91072,333.714276 L1161.91072,333.714276 Z M1161.42858,331.999988 L1154,339.428568 L1154,343.142859 L1157.71429,343.142859 L1165.14287,335.714278 L1161.42858,331.999988 Z M1167.5268,332.857132 C1167.5268,332.55356 1167.4018,332.258917 1167.19644,332.044631 L1165.09823,329.955343 C1164.88394,329.741057 1164.5893,329.616057 1164.28573,329.616057 C1163.98215,329.616057 1163.68751,329.741057 1163.48215,329.955343 L1162.00001,331.428559 L1165.7143,335.142849 L1167.19644,333.660704 C1167.4018,333.455347 1167.5268,333.160704 1167.5268,332.857132 L1167.5268,332.857132 Z" id="Type-something" sketch:type="MSShapeGroup"></path>
        </g>
    </g>
</svg>