<?xml version="1.0" encoding="UTF-8" standalone="no"?>
<svg width="13px" height="13px" viewBox="0 0 13 13" version="1.1" xmlns="http://www.w3.org/2000/svg" xmlns:xlink="http://www.w3.org/1999/xlink" xmlns:sketch="http://www.bohemiancoding.com/sketch/ns">
    <!-- Generator: Sketch 3.3.2 (12043) - http://www.bohemiancoding.com/sketch -->
    <title>crop</title>
    <desc>Created with Sketch.</desc>
    <defs></defs>
    <g id="Page-1" stroke="none" stroke-width="1" fill="none" fill-rule="evenodd" sketch:type="MSPage">
        <g id="SETTINGS-PICTURE-zoom" sketch:type="MSArtboardGroup" transform="translate(-668.000000, -665.000000)">
            <g id="Group" sketch:type="MSLayerGroup" transform="translate(250.000000, 207.000000)">
                <g id="crop" transform="translate(418.000000, 458.000000)" sketch:type="MSShapeGroup">
                    <path d="M4,4 L9,4 L9,9 L4,9 L4,4 L4,4 Z M2,4 L0,4 L0,2 L2,2 L2,0 L4,0 L4,2 L11,2 L11,3 L11,9 L13,9 L13,11 L11,11 L11,13 L9,13 L9,11 L2,11 L2,10 L2,4 L2,4 Z" id="Rectangle-90" fill="#3398DB"></path>
                    <path d="M3.5,9.5 L12.5,0.5" id="Line" stroke="#3398DB" stroke-linecap="square"></path>
                </g>
            </g>
        </g>
    </g>
</svg>