<?xml version="1.0" encoding="UTF-8" standalone="no"?>
<svg width="30px" height="25px" viewBox="0 0 30 25" version="1.1" xmlns="http://www.w3.org/2000/svg" xmlns:xlink="http://www.w3.org/1999/xlink" xmlns:sketch="http://www.bohemiancoding.com/sketch/ns">
    <!-- Generator: Sketch 3.2 (9961) - http://www.bohemiancoding.com/sketch -->
    <title>google+</title>
    <desc>Created with Sketch.</desc>
    <defs></defs>
    <g id="Page-1" stroke="none" stroke-width="1" fill="none" fill-rule="evenodd" sketch:type="MSPage">
        <g id="SIGN-UP" sketch:type="MSArtboardGroup" transform="translate(-913.000000, -474.000000)" fill="#D0021B">
            <g id="Google-Button" sketch:type="MSLayerGroup" transform="translate(905.000000, 465.000000)">
                <g id="google+" transform="translate(8.000000, 8.000000)" sketch:type="MSShapeGroup">
                    <path d="M11.1063929,12.6737301 C11.1063929,11.0462748 14.793574,10.5744373 14.793574,6.75015588 C14.793574,4.45556377 14.5756587,3.07240716 12.7153469,2.25862131 C12.7153469,1.68901777 16.0001397,2.06332202 16.0001397,1 L8.80473652,1 C8.80473652,1 1.51979386,1.17330194 1.51979386,7.1620535 C1.51979386,13.1506887 7.88848501,12.4564334 7.88848501,12.4564334 L7.88848501,13.9755314 C7.88848501,14.5884313 8.74324554,14.3824243 8.84932646,15.6242857 C8.41900949,15.6242857 0.000139676113,15.4076874 0.000139676113,20.8317237 C0.000139676113,26.2559928 7.41921177,25.9960981 7.41921177,25.9960981 C7.41921177,25.9960981 16.0001397,26.375989 16.0001397,19.6388617 C16.0001397,15.6029867 11.1063929,14.301069 11.1063929,12.6737301 L11.1063929,12.6737301 Z M4.89005075,7.50947209 C4.21652678,5.10442763 5.10425031,2.77631574 6.87322464,2.30948292 C8.64219896,1.84206817 10.6218968,3.41295885 11.2954207,5.81788691 C11.9694242,8.22339692 11.0817006,10.5519744 9.3127263,11.0193891 C7.54363211,11.4862219 5.56381445,9.9148657 4.89005075,7.50947209 L4.89005075,7.50947209 Z M8.57459485,24.2640099 C5.60468857,24.4593092 3.07840432,22.9127436 2.93204861,20.8094936 C2.78485383,18.7061272 5.07332503,16.8427531 8.04323131,16.6474538 C11.0139766,16.4522709 13.5409801,17.9982546 13.6878153,20.1015046 C13.8345306,22.2054529 11.5449806,24.0687106 8.57459485,24.2640099 L8.57459485,24.2640099 Z" id="Fill-1"></path>
                    <rect id="Rectangle-767" x="18" y="6" width="12" height="2"></rect>
                    <rect id="Rectangle-768" transform="translate(24.000000, 7.000000) rotate(-270.000000) translate(-24.000000, -7.000000) " x="18" y="6" width="12" height="2"></rect>
                </g>
            </g>
        </g>
    </g>
</svg>