<?xml version="1.0" encoding="UTF-8" standalone="no"?>
<svg width="16px" height="17px" viewBox="0 0 16 17" version="1.1" xmlns="http://www.w3.org/2000/svg" xmlns:xlink="http://www.w3.org/1999/xlink" xmlns:sketch="http://www.bohemiancoding.com/sketch/ns">
    <!-- Generator: Sketch 3.3.2 (12043) - http://www.bohemiancoding.com/sketch -->
    <title>Type something</title>
    <desc>Created with Sketch.</desc>
    <defs></defs>
    <g id="Version-1.6" stroke="none" stroke-width="1" fill="none" fill-rule="evenodd" sketch:type="MSPage">
        <g id="2" sketch:type="MSArtboardGroup" transform="translate(-107.000000, -210.000000)" fill="#7F8C8D">
            <g id="Access-Level-Informa-+-arrow-down-2-copy-2-+-Type-something" sketch:type="MSLayerGroup" transform="translate(107.000000, 207.000000)">
                <path d="M10.2857265,16.3928552 C10.2857265,16.573659 10.1451014,16.7142842 9.96429759,16.7142842 L5.46429223,16.7142842 C5.28348844,16.7142842 5.14286327,16.573659 5.14286327,16.3928552 L5.14286327,14.7857105 C5.14286327,14.6049067 5.28348844,14.4642815 5.46429223,14.4642815 L6.42857909,14.4642815 L6.42857909,11.249992 L5.46429223,11.249992 C5.28348844,11.249992 5.14286327,11.1093668 5.14286327,10.928563 L5.14286327,9.32141823 C5.14286327,9.14061444 5.28348844,8.99998927 5.46429223,8.99998927 L8.67858177,8.99998927 C8.85938556,8.99998927 9.00001073,9.14061444 9.00001073,9.32141823 L9.00001073,14.4642815 L9.96429759,14.4642815 C10.1451014,14.4642815 10.2857265,14.6049067 10.2857265,14.7857105 L10.2857265,16.3928552 Z M9.00001073,7.3928445 C9.00001073,7.57364829 8.85938556,7.71427345 8.67858177,7.71427345 L6.75000805,7.71427345 C6.56920426,7.71427345 6.42857909,7.57364829 6.42857909,7.3928445 L6.42857909,5.78569973 C6.42857909,5.60489594 6.56920426,5.46427077 6.75000805,5.46427077 L8.67858177,5.46427077 C8.85938556,5.46427077 9.00001073,5.60489594 9.00001073,5.78569973 L9.00001073,7.3928445 Z M15.4285898,11.5714209 C15.4285898,7.31248726 11.9732286,3.857126 7.71429491,3.857126 C3.45536126,3.857126 0,7.31248726 0,11.5714209 C0,15.8303546 3.45536126,19.2857158 7.71429491,19.2857158 C11.9732286,19.2857158 15.4285898,15.8303546 15.4285898,11.5714209 L15.4285898,11.5714209 Z" id="Type-something" sketch:type="MSShapeGroup"></path>
            </g>
        </g>
    </g>
</svg>