<?xml version="1.0" encoding="UTF-8" standalone="no"?>
<svg width="21px" height="22px" viewBox="0 0 21 22" version="1.1" xmlns="http://www.w3.org/2000/svg" xmlns:xlink="http://www.w3.org/1999/xlink" xmlns:sketch="http://www.bohemiancoding.com/sketch/ns">
    <!-- Generator: Sketch 3.3.2 (12043) - http://www.bohemiancoding.com/sketch -->
    <title>trash</title>
    <desc>Created with Sketch.</desc>
    <defs></defs>
    <g id="Version-1.2" stroke="none" stroke-width="1" fill="none" fill-rule="evenodd" sketch:type="MSPage">
        <g id="1" sketch:type="MSArtboardGroup" transform="translate(-1239.000000, -126.000000)" fill="#E74C3C">
            <g id="TOP-UI" sketch:type="MSLayerGroup" transform="translate(1182.000000, 118.000000)">
                <path d="M76.9991283,15 C77.5553691,15 78,14.0522848 78,13.5 C78,12.9438648 77.5518945,12 76.9991283,12 L58.0008717,12 C57.4446309,12 57,12.9477153 57,13.5 C57,14.0561352 57.4481055,15 58.0008717,15 L59,15 L59,27.9941413 C59,29.1029399 59.8992496,30 61.0085302,30 L73.9914698,30 C75.0980496,30 76,29.1019465 76,27.9941413 L76,15 L76.9991283,15 Z M64,16 L64,28 L61.9989566,28 C61.4472481,28 61,27.544239 61,26.9975267 L61,16 L64,16 Z M74,16 L74,26.9975267 C74,27.5511774 73.5573397,28 73.0010434,28 L71,28 L71,16 L74,16 Z M69,16 L69,28 L66,28 L66,16 L69,16 Z M72,12 L72,10.5 C72,9.10966206 70.876548,8 69.4906996,8 L65.5093004,8 C64.1123657,8 63,9.11928813 63,10.5 L63,12 L65,12 L65,11.3319421 C65,10.5963308 65.4433532,10 66.0093689,10 L68.9906311,10 C69.5480902,10 70,10.5902138 70,11.3319421 L70,12 L72,12 Z" id="trash" sketch:type="MSShapeGroup"></path>
            </g>
        </g>
    </g>
</svg>