<?xml version="1.0" encoding="UTF-8" standalone="no"?>
<svg width="20px" height="24px" viewBox="0 0 20 24" version="1.1" xmlns="http://www.w3.org/2000/svg" xmlns:xlink="http://www.w3.org/1999/xlink" xmlns:sketch="http://www.bohemiancoding.com/sketch/ns">
    <!-- Generator: Sketch 3.2 (9961) - http://www.bohemiancoding.com/sketch -->
    <title>picture</title>
    <desc>Created with Sketch.</desc>
    <defs></defs>
    <g id="Page-1" stroke="none" stroke-width="1" fill="none" fill-rule="evenodd" sketch:type="MSPage">
        <g id="UI-TOOLKIT" sketch:type="MSArtboardGroup" transform="translate(-2245.000000, -274.000000)" fill="#2C3E50">
            <g id="LEFT-MENU" sketch:type="MSLayerGroup" transform="translate(2220.000000, 43.000000)">
                <g id="ICONS" transform="translate(21.000000, 93.000000)" sketch:type="MSShapeGroup">
                    <path d="M15,138.004838 L15,138 L15.0048401,138.00484 L15.1135254,138.004898 L15.1135254,138.113525 L23.8535767,146.853577 L24,146.853577 L24,159.995053 C24,161.102974 23.1086907,162 22.0092049,162 L5.99079514,162 C4.89821238,162 4,161.102355 4,159.995053 L4,140.004947 C4,138.897026 4.89130934,138 5.99079514,138 L15,138.004838 Z M15,140.004955 L15,144.995053 C15,146.102355 15.8982124,147 16.9907951,147 L22.0008732,147 C21.99911,152.742565 22,159.995053 22,159.995053 C22,160.001255 5.99079514,160 5.99079514,160 C6.00250344,160 6,140.004947 6,140.004947 C6,140.001618 10.7245064,140.00525 15,140.004955 L15,140.004955 Z M17,142.5 L17,145 L19.5,145 L17,142.5 Z M9.5,152 C10.8807119,152 12,150.880712 12,149.5 C12,148.119288 10.8807119,147 9.5,147 C8.11928813,147 7,148.119288 7,149.5 C7,150.880712 8.11928813,152 9.5,152 Z M21,155 L21,159 L7,159 L7,156.6 L9.625,154.2 L11.375,155.8 L16.625,151 L21,155 Z" id="picture"></path>
                </g>
            </g>
        </g>
    </g>
</svg>