<?xml version="1.0" encoding="UTF-8" standalone="no"?>
<svg width="28px" height="22px" viewBox="0 0 28 22" version="1.1" xmlns="http://www.w3.org/2000/svg" xmlns:xlink="http://www.w3.org/1999/xlink" xmlns:sketch="http://www.bohemiancoding.com/sketch/ns">
    <!-- Generator: Sketch 3.2 (9961) - http://www.bohemiancoding.com/sketch -->
    <title>prototype</title>
    <desc>Created with Sketch.</desc>
    <defs></defs>
    <g id="Page-1" stroke="none" stroke-width="1" fill="none" fill-rule="evenodd" sketch:type="MSPage">
        <g id="UI-TOOLKIT" sketch:type="MSArtboardGroup" transform="translate(-2439.000000, -205.000000)" fill="#2980B9">
            <g id="LEFT-MENU-HOVER" sketch:type="MSLayerGroup" transform="translate(2418.000000, 113.000000)">
                <g id="ICONS" transform="translate(21.000000, 22.000000)" sketch:type="MSShapeGroup">
                    <path d="M11.9981014,78 C10.8867064,78 10,77.1054196 10,76.0018986 L10,71.9981014 C10,70.8867064 10.8945804,70 11.9981014,70 L16.0018986,70 C17.1132936,70 18,70.8945804 18,71.9981014 L18,76.0018986 C18,77.1132936 17.1054196,78 16.0018986,78 L15,78 L15,80 L16.5,80 L24.0044225,80 C24.555163,80 25,80.4477153 25,81 L25,81.5 L25,84 L26.0018986,84 C27.1132936,84 28,84.8945804 28,85.9981014 L28,90.0018986 C28,91.1132936 27.1054196,92 26.0018986,92 L21.9981014,92 C20.8867064,92 20,91.1054196 20,90.0018986 L20,85.9981014 C20,84.8867064 20.8945804,84 21.9981014,84 L23,84 L23,82 L16.5,82 L15,82 L15,84 L16.0018986,84 C17.1132936,84 18,84.8945804 18,85.9981014 L18,90.0018986 C18,91.1132936 17.1054196,92 16.0018986,92 L11.9981014,92 C10.8867064,92 10,91.1054196 10,90.0018986 L10,85.9981014 C10,84.8867064 10.8945804,84 11.9981014,84 L13,84 L13,82 L5,82 L5,84 L6.00189865,84 C7.11329365,84 8,84.8945804 8,85.9981014 L8,90.0018986 C8,91.1132936 7.10541955,92 6.00189865,92 L1.99810135,92 C0.886706352,92 0,91.1054196 0,90.0018986 L0,85.9981014 C0,84.8867064 0.894580447,84 1.99810135,84 L3,84 L3,81.5 L3,81 C3,80.4477153 3.44463086,80 4.00087166,80 L13,80 L13,78 L11.9981014,78 Z" id="prototype"></path>
                </g>
            </g>
        </g>
    </g>
</svg>