<?xml version="1.0" encoding="UTF-8" standalone="no"?>
<svg width="12px" height="12px" viewBox="0 0 12 12" version="1.1" xmlns="http://www.w3.org/2000/svg" xmlns:xlink="http://www.w3.org/1999/xlink" xmlns:sketch="http://www.bohemiancoding.com/sketch/ns">
    <!-- Generator: Sketch 3.2.2 (9983) - http://www.bohemiancoding.com/sketch -->
    <title>Search</title>
    <desc>Created with Sketch.</desc>
    <defs></defs>
    <g id="Page-1" stroke="none" stroke-width="1" fill="none" fill-rule="evenodd" sketch:type="MSPage">
        <g id="APP-COMPOSER-2" sketch:type="MSArtboardGroup" transform="translate(-1548.000000, -17.000000)" fill="#FFFFFF">
            <g id="Header-2" sketch:type="MSLayerGroup">
                <g id="Search" transform="translate(1548.000000, 17.000000)" sketch:type="MSShapeGroup">
                    <path d="M4.56,9.5 C7.07841846,9.5 9.12,7.37335256 9.12,4.75 C9.12,2.12664744 7.07841846,0 4.56,0 C2.04158154,0 0,2.12664744 0,4.75 C0,7.37335256 2.04158154,9.5 4.56,9.5 Z M4.56,8 C6.28312842,8 7.68,6.54492544 7.68,4.75 C7.68,2.95507456 6.28312842,1.5 4.56,1.5 C2.83687158,1.5 1.44,2.95507456 1.44,4.75 C1.44,6.54492544 2.83687158,8 4.56,8 Z" id="search"></path>
                    <path d="M7.90900974,6.59834957 L11.6228954,10.3122352 C11.9149187,10.6042585 11.9162556,11.0763851 11.6213203,11.3713203 L11.6213203,11.3713203 C11.3284271,11.6642136 10.8507315,11.6613916 10.5622352,11.3728954 L6.84834957,7.65900974 L7.90900974,6.59834957 L7.90900974,6.59834957 Z" id="Rectangle-74"></path>
                </g>
            </g>
        </g>
    </g>
</svg>