<?xml version="1.0" encoding="UTF-8" standalone="no"?>
<svg width="17px" height="17px" viewBox="0 0 17 17" version="1.1" xmlns="http://www.w3.org/2000/svg" xmlns:xlink="http://www.w3.org/1999/xlink" xmlns:sketch="http://www.bohemiancoding.com/sketch/ns">
    <!-- Generator: Sketch 3.2.1 (9977) - http://www.bohemiancoding.com/sketch -->
    <title>settings</title>
    <desc>Created with Sketch.</desc>
    <defs></defs>
    <g id="Page-1" stroke="none" stroke-width="1" fill="none" fill-rule="evenodd" sketch:type="MSPage">
        <g id="UI-TOOLKIT" sketch:type="MSArtboardGroup" transform="translate(-1020.000000, -417.000000)" fill="#3398DB">
            <g id="CLICK-ON-MYSELF" sketch:type="MSLayerGroup" transform="translate(950.000000, 270.000000)">
                <g id="USER-POP-LIGHT-2" transform="translate(55.000000, 49.000000)" sketch:type="MSShapeGroup">
                    <path d="M26.3333333,106.5 C26.3333333,105.717878 26.0566434,105.050133 25.5032552,104.496745 C24.949867,103.943357 24.282122,103.666667 23.5,103.666667 C22.717878,103.666667 22.050133,103.943357 21.4967448,104.496745 C20.9433566,105.050133 20.6666667,105.717878 20.6666667,106.5 C20.6666667,107.282122 20.9433566,107.949867 21.4967448,108.503255 C22.050133,109.056643 22.717878,109.333333 23.5,109.333333 C24.282122,109.333333 24.949867,109.056643 25.5032552,108.503255 C26.0566434,107.949867 26.3333333,107.282122 26.3333333,106.5 L26.3333333,106.5 Z M32,105.29362 L32,107.750651 C32,107.839193 31.9704864,107.924045 31.9114583,108.005208 C31.8524303,108.086372 31.7786463,108.134332 31.6901042,108.149089 L29.6425781,108.458984 C29.5023865,108.857424 29.3585077,109.193141 29.2109375,109.466146 C29.4691853,109.835071 29.8639296,110.344181 30.3951823,110.99349 C30.4689674,111.082032 30.5058594,111.174262 30.5058594,111.270182 C30.5058594,111.366103 30.4726566,111.450954 30.40625,111.52474 C30.2070303,111.797744 29.8417995,112.196178 29.3105469,112.720052 C28.7792942,113.243926 28.4325095,113.505859 28.2701823,113.505859 C28.1816402,113.505859 28.085721,113.472657 27.9824219,113.40625 L26.4550781,112.210937 C26.1304237,112.380643 25.7947066,112.520833 25.4479167,112.63151 C25.3298605,113.634988 25.2228737,114.321179 25.1269531,114.690104 C25.0753036,114.896702 24.9424924,115 24.7285156,115 L22.2714844,115 C22.1681852,115 22.0777999,114.968642 22.0003255,114.905924 C21.9228512,114.843207 21.8804254,114.763889 21.8730469,114.667969 L21.563151,112.63151 C21.2016041,112.513454 20.8695762,112.376954 20.5670573,112.222005 L19.0065104,113.40625 C18.9327253,113.472657 18.8404953,113.505859 18.7298177,113.505859 C18.6265186,113.505859 18.5342886,113.465278 18.453125,113.384115 C17.5234329,112.542965 16.914715,111.923179 16.6269531,111.52474 C16.5753036,111.450954 16.5494792,111.366103 16.5494792,111.270182 C16.5494792,111.18164 16.5789928,111.096789 16.6380208,111.015625 C16.7486985,110.860676 16.9368476,110.615345 17.202474,110.279622 C17.4681003,109.9439 17.667317,109.683812 17.8001302,109.499349 C17.6009105,109.130424 17.4496533,108.765193 17.3463542,108.403646 L15.3209635,108.104818 C15.2250429,108.090061 15.1475697,108.043946 15.0885417,107.966471 C15.0295136,107.888997 15,107.802301 15,107.70638 L15,105.249349 C15,105.160807 15.0295136,105.075955 15.0885417,104.994792 C15.1475697,104.913628 15.2176645,104.865668 15.2988281,104.850911 L17.3574219,104.541016 C17.460721,104.201604 17.6045998,103.862198 17.7890625,103.522786 C17.4939221,103.102211 17.0991778,102.593102 16.6048177,101.995443 C16.5310326,101.906901 16.4941406,101.81836 16.4941406,101.729818 C16.4941406,101.656033 16.5273434,101.571181 16.59375,101.47526 C16.7855912,101.209634 17.1489774,100.813045 17.6839193,100.285482 C18.2188612,99.7579184 18.5674905,99.4941406 18.7298177,99.4941406 C18.8257383,99.4941406 18.9216575,99.5310326 19.0175781,99.6048177 L20.5449219,100.789062 C20.8695763,100.619357 21.2052934,100.479167 21.5520833,100.36849 C21.6701395,99.3650123 21.7771263,98.6788213 21.8730469,98.3098958 C21.9246964,98.1032976 22.0575076,98 22.2714844,98 L24.7285156,98 C24.8318148,98 24.9222001,98.0313582 24.9996745,98.0940755 C25.0771488,98.1567928 25.1195746,98.2361106 25.1269531,98.3320312 L25.436849,100.36849 C25.7983959,100.486546 26.1304238,100.623046 26.4329427,100.777995 L28.0045573,99.59375 C28.0709639,99.5273434 28.1595047,99.4941406 28.2701823,99.4941406 C28.3661029,99.4941406 28.4583329,99.5310326 28.546875,99.6048177 C29.4987027,100.48286 30.1074205,101.110024 30.3730469,101.486328 C30.4246964,101.545356 30.4505208,101.626519 30.4505208,101.729818 C30.4505208,101.81836 30.4210072,101.903211 30.3619792,101.984375 C30.2513015,102.139324 30.0631524,102.384655 29.797526,102.720378 C29.5318997,103.0561 29.332683,103.316188 29.1998698,103.500651 C29.391711,103.869576 29.5429682,104.231118 29.6536458,104.585286 L31.6790365,104.895182 C31.7749571,104.909939 31.8524303,104.956054 31.9114583,105.033529 C31.9704864,105.111003 32,105.197699 32,105.29362 L32,105.29362 Z" id="cogs-2"></path>
                </g>
            </g>
        </g>
    </g>
</svg>
