<?xml version="1.0" encoding="UTF-8" standalone="no"?>
<svg width="64px" height="64px" viewBox="0 0 64 64" version="1.1" xmlns="http://www.w3.org/2000/svg" xmlns:xlink="http://www.w3.org/1999/xlink" xmlns:sketch="http://www.bohemiancoding.com/sketch/ns">
    <!-- Generator: Sketch 3.2.2 (9983) - http://www.bohemiancoding.com/sketch -->
    <title>big-clock</title>
    <desc>Created with Sketch.</desc>
    <defs></defs>
    <g id="Page-1" stroke="none" stroke-width="1" fill="none" fill-rule="evenodd" sketch:type="MSPage">
        <g id="02-OVERVIEW" sketch:type="MSArtboardGroup" transform="translate(-504.000000, -291.000000)" stroke-linecap="round" stroke="#3398DB" stroke-width="2">
            <g id="big-clock" sketch:type="MSLayerGroup" transform="translate(505.000000, 292.000000)">
                <path d="M5.35765517,31 C5.35765517,16.8383448 16.8383448,5.35658621 31,5.35658621 C45.1595172,5.35658621 56.6402069,16.8383448 56.6402069,31 C56.6402069,45.1616552 45.1595172,56.6423448 31,56.6423448 C16.8383448,56.6423448 5.35765517,45.1616552 5.35765517,31 L5.35765517,31 Z" id="Path" stroke-linejoin="round" sketch:type="MSShapeGroup"></path>
                <path d="M30.0582414,29.6531034 C30.6825172,29.0288276 31.6926897,29.0288276 32.3169655,29.6531034 C32.9412414,30.2752414 32.9412414,31.2875517 32.3169655,31.9107586 C31.6926897,32.5350345 30.6825172,32.5350345 30.0582414,31.9107586 C29.4361034,31.2875517 29.4361034,30.2752414 30.0582414,29.6531034 L30.0582414,29.6531034 Z" id="Path" stroke-linejoin="round" sketch:type="MSShapeGroup"></path>
                <path d="M0,31 C0,13.8794483 13.8773103,0 31,0 C48.1226897,0 61.9978621,13.8794483 61.9978621,31 C61.9978621,48.1205517 48.1226897,62 31,62 C13.8773103,62 0,48.1205517 0,31 L0,31 Z" id="Path" stroke-linejoin="round" sketch:type="MSShapeGroup"></path>
                <path d="M31,31 L22,21" id="Line" sketch:type="MSShapeGroup"></path>
                <path d="M31,31 L47,16" id="Line-2" sketch:type="MSShapeGroup"></path>
            </g>
        </g>
    </g>
</svg>
