<?xml version="1.0" encoding="UTF-8" standalone="no"?>
<svg width="75px" height="62px" viewBox="0 0 75 62" version="1.1" xmlns="http://www.w3.org/2000/svg" xmlns:xlink="http://www.w3.org/1999/xlink" xmlns:sketch="http://www.bohemiancoding.com/sketch/ns">
    <!-- Generator: Sketch 3.2.2 (9983) - http://www.bohemiancoding.com/sketch -->
    <title>big-comments</title>
    <desc>Created with Sketch.</desc>
    <defs></defs>
    <g id="Page-1" stroke="none" stroke-width="1" fill="none" fill-rule="evenodd" sketch:type="MSPage">
        <g id="02-OVERVIEW" sketch:type="MSArtboardGroup" transform="translate(-526.000000, -414.000000)" stroke="#3398DB" stroke-width="2" stroke-linecap="round" stroke-linejoin="round">
            <g id="big-comments" sketch:type="MSLayerGroup" transform="translate(527.000000, 415.380859)">
                <path d="M27.1358621,25.36875 L26.5027759,25.36875 C24.9320172,25.36875 23.506,24.73375 22.2297586,23.4675 C20.9497414,22.1975 20.3128793,20.70125 20.3128793,18.97125 C20.3128793,17.185 20.9497414,15.69375 22.2297586,14.495 C23.506,13.29625 25.0742414,12.69625 26.9281897,12.69625 C29.0288276,12.69625 30.7506207,13.5325 32.0835,15.205 C33.4151207,16.88 34.080931,19.20625 34.080931,22.19125 C34.080931,24.92375 33.4994483,27.495 32.3339655,29.9075 C31.171,32.3175 29.7399483,34.23625 28.0382931,35.6575 C26.3416724,37.07875 24.8061552,37.79125 23.4267069,37.79125 C22.557,37.79125 21.8509138,37.52 21.3034138,36.97375 C20.7546552,36.4325 20.4815345,35.76875 20.4815345,34.9875 C20.4815345,33.7325 21.0567241,32.815 22.2108793,32.2275 C23.6973103,31.365 24.8602759,30.415 25.7035517,29.385 C26.5443103,28.355 27.0213276,27.01625 27.1358621,25.36875 L27.1358621,25.36875 Z" id="Path" sketch:type="MSShapeGroup"></path>
                <path d="M45.6640172,25.36875 L45.1580517,25.36875 C43.5583448,25.36875 42.1033793,24.74125 40.8019655,23.48625 C39.4917414,22.23125 38.8422931,20.72625 38.8422931,18.97125 C38.8422931,17.215 39.4854483,15.7275 40.7793103,14.51625 C42.0719138,13.3025 43.643931,12.69625 45.4941034,12.69625 C47.6287241,12.69625 49.3542931,13.5175 50.6758448,15.16375 C51.9961379,16.80875 52.6531379,19.1525 52.6531379,22.19125 C52.6531379,25.00625 52.0716552,27.605 50.907431,29.9925 C49.7432069,32.3725 48.3121552,34.27 46.6117586,35.67875 C44.9138793,37.08625 43.3607414,37.79125 41.9598966,37.79125 C41.0625,37.79125 40.342569,37.525 39.8089138,36.9975 C39.2777759,36.46625 39.0096897,35.79875 39.0096897,34.9875 C39.0096897,33.76125 39.5848793,32.84125 40.7377759,32.2275 C42.3337069,31.30875 43.5293966,30.3525 44.3172931,29.3625 C45.103931,28.37125 45.5494828,27.0425 45.6640172,25.36875 L45.6640172,25.36875 Z" id="Path" sketch:type="MSShapeGroup"></path>
                <path d="M65.3828276,0 L7.61591379,0 C3.41212069,0 0,3.38625 0,7.56375 L0,40.9775 C0,45.15625 3.41212069,48.5425 7.61591379,48.5425 L45.9585345,48.5425 L53.2157414,58.72375 C53.8135862,59.31875 54.7814655,59.31875 55.3793103,58.72375 L62.6365172,48.5425 L65.3828276,48.5425 C69.5878793,48.5425 73,45.15625 73,40.9775 L73,7.56375 C73,3.38625 69.5878793,0 65.3828276,0 L65.3828276,0 Z" id="Path" sketch:type="MSShapeGroup"></path>
            </g>
        </g>
    </g>
</svg>
