<?xml version="1.0" encoding="UTF-8" standalone="no"?>
<svg width="28px" height="27px" viewBox="0 0 28 27" version="1.1" xmlns="http://www.w3.org/2000/svg" xmlns:xlink="http://www.w3.org/1999/xlink" xmlns:sketch="http://www.bohemiancoding.com/sketch/ns">
    <!-- Generator: Sketch 3.2.2 (9983) - http://www.bohemiancoding.com/sketch -->
    <title> 3</title>
    <desc>Created with Sketch.</desc>
    <defs>
        <path id="path-1" d="M127.968,328.432 L127.968,338.614 C127.968,339.538005 127.638003,340.329997 126.978,340.99 C126.317997,341.650003 125.533338,341.98 124.624,341.98 L118.566,341.98 C118.522,341.98 115.949353,344.013315 112.048,347.68 L112.048,342.002 L107.344,342.002 C106.434662,342.002 105.650003,341.672003 104.99,341.012 C104.329997,340.322663 104,339.523338 104,338.614 L104,328.432 C104,327.463995 104.344663,326.650003 105.034,325.99 C105.723337,325.329997 106.493329,325 107.344,325 L124.624,325 C125.562671,325 126.34733,325.329997 126.978,325.99 C127.638003,326.66467 127.968,327.478662 127.968,328.432 Z"></path>
    </defs>
    <g id="Page-1" stroke="none" stroke-width="1" fill="none" fill-rule="evenodd" sketch:type="MSPage">
        <g id="Screen-1" sketch:type="MSArtboardGroup" transform="translate(-102.000000, -323.000000)" stroke-linecap="round" stroke-linejoin="round">
            <g id="-3">
                <use stroke="#006FBA" stroke-width="1" fill="#1B8BD5" fill-rule="evenodd" sketch:type="MSShapeGroup" xlink:href="#path-1"></use>
                <use stroke="#FFFFFF" stroke-width="2" fill="none" xlink:href="#path-1"></use>
            </g>
        </g>
    </g>
</svg>