<?xml version="1.0" encoding="UTF-8" standalone="no"?>
<svg width="68px" height="68px" viewBox="0 0 68 68" version="1.1" xmlns="http://www.w3.org/2000/svg" xmlns:xlink="http://www.w3.org/1999/xlink" xmlns:sketch="http://www.bohemiancoding.com/sketch/ns">
    <!-- Generator: Sketch 3.2.2 (9983) - http://www.bohemiancoding.com/sketch -->
    <title>Imported Layers</title>
    <desc>Created with Sketch.</desc>
    <defs></defs>
    <g id="Page-1" stroke="none" stroke-width="1" fill="none" fill-rule="evenodd" sketch:type="MSPage">
        <g id="02-SELECT-METHOD" sketch:type="MSArtboardGroup" transform="translate(-1171.000000, -380.000000)" fill="#2C3E50">
            <path d="M1239.00051,413.999808 C1239.00051,397.952883 1227.87917,384.510578 1212.92635,380.939005 C1212.8998,380.904072 1212.87604,380.873331 1212.86487,380.85796 L1212.79919,380.909661 C1210.29378,380.321386 1207.68497,380 1205.0007,380 C1202.30106,380 1199.67967,380.32418 1197.16168,380.918045 L1197.08483,380.85796 C1197.07086,380.876125 1197.0457,380.908264 1197.01217,380.952978 C1182.09009,384.546908 1170.99949,397.973842 1170.99949,413.999808 C1170.99949,430.025774 1182.09009,443.452708 1197.01217,447.048036 C1197.0457,447.09275 1197.07086,447.124889 1197.08483,447.143054 L1197.16308,447.082969 C1199.67967,447.676834 1202.30106,448.001014 1205.0007,448.001014 C1207.68497,448.001014 1210.29238,447.679628 1212.79779,447.091353 L1212.86487,447.144451 C1212.87604,447.127683 1212.9012,447.096942 1212.92775,447.062009 C1227.88056,443.489039 1239.00051,430.046734 1239.00051,413.999808 L1239.00051,413.999808 Z M1220.12399,434.261078 C1221.01688,432.127357 1221.85947,429.785434 1222.56093,427.274434 L1231.65056,427.274434 C1230.36921,429.837135 1228.73293,432.184648 1226.80183,434.261078 L1220.12399,434.261078 L1220.12399,434.261078 Z M1224.40541,416.095802 L1234.70232,416.095802 C1234.53325,418.514578 1234.09588,420.856502 1233.38185,423.082447 L1223.55583,423.082447 C1223.9918,420.845323 1224.29222,418.508989 1224.40541,416.095802 L1224.40541,416.095802 Z M1219.26743,423.082447 L1206.95137,423.082447 L1206.95137,416.095802 L1220.20643,416.095802 C1220.07928,418.507592 1219.74811,420.849515 1219.26743,423.082447 L1219.26743,423.082447 Z M1234.70232,411.903815 L1224.40541,411.903815 C1224.29222,409.492025 1223.9918,407.155691 1223.55583,404.91717 L1233.38185,404.91717 C1234.09588,407.144512 1234.53325,409.486436 1234.70232,411.903815 L1234.70232,411.903815 Z M1220.20643,411.903815 L1206.95137,411.903815 L1206.95137,404.91717 L1219.27022,404.91717 C1219.74951,407.150102 1220.08067,409.492025 1220.20643,411.903815 L1220.20643,411.903815 Z M1206.95137,400.725183 L1206.95137,393.738538 L1215.52398,393.738538 C1216.47696,395.834532 1217.4006,398.183442 1218.17891,400.725183 L1206.95137,400.725183 L1206.95137,400.725183 Z M1206.95137,389.546551 L1206.95137,384.291197 C1208.14609,384.36805 1209.32403,384.503591 1210.47683,384.71878 C1211.19226,385.762585 1212.25563,387.410036 1213.42659,389.546551 L1206.95137,389.546551 L1206.95137,389.546551 Z M1202.75938,389.546551 L1196.53009,389.546551 C1197.69686,387.417022 1198.75604,385.772366 1199.47007,384.727164 C1200.54741,384.523154 1201.64571,384.38901 1202.75938,384.305171 L1202.75938,389.546551 L1202.75938,389.546551 Z M1202.75938,393.738538 L1202.75938,400.725183 L1191.77777,400.725183 C1192.55609,398.184839 1193.48252,395.834532 1194.4341,393.738538 L1202.75938,393.738538 L1202.75938,393.738538 Z M1202.75938,404.91717 L1202.75938,411.903815 L1189.74326,411.903815 C1189.87042,409.493422 1190.20298,407.151499 1190.68367,404.91717 L1202.75938,404.91717 L1202.75938,404.91717 Z M1185.54429,411.903815 L1175.29768,411.903815 C1175.46675,409.486436 1175.90412,407.144512 1176.61815,404.91717 L1186.39526,404.91717 C1185.9593,407.155691 1185.65747,409.492025 1185.54429,411.903815 L1185.54429,411.903815 Z M1175.29768,416.095802 L1185.54429,416.095802 C1185.65747,418.508989 1185.9593,420.845323 1186.39526,423.082447 L1176.61815,423.082447 C1175.90412,420.856502 1175.46675,418.514578 1175.29768,416.095802 L1175.29768,416.095802 Z M1189.74326,416.095802 L1202.75938,416.095802 L1202.75938,423.082447 L1190.67947,423.082447 C1190.20019,420.850912 1189.86902,418.508989 1189.74326,416.095802 L1189.74326,416.095802 Z M1202.75938,427.274434 L1202.75938,434.261078 L1194.42571,434.261078 C1193.47273,432.166482 1192.5477,429.817572 1191.77079,427.274434 L1202.75938,427.274434 L1202.75938,427.274434 Z M1202.75938,438.453065 L1202.75938,443.694446 C1201.64431,443.612004 1200.54462,443.476463 1199.46588,443.27385 C1198.75045,442.228648 1197.68987,440.583992 1196.5231,438.453065 L1202.75938,438.453065 L1202.75938,438.453065 Z M1206.95137,438.453065 L1213.41961,438.453065 C1212.25004,440.588184 1211.18947,442.237032 1210.47543,443.282234 C1209.32403,443.497423 1208.14609,443.631566 1206.95137,443.709817 L1206.95137,438.453065 L1206.95137,438.453065 Z M1206.95137,434.261078 L1206.95137,427.274434 L1218.17192,427.274434 C1217.39361,429.816175 1216.46858,432.166482 1215.5156,434.261078 L1206.95137,434.261078 L1206.95137,434.261078 Z M1231.65056,400.725183 L1222.56093,400.725183 C1221.85947,398.21558 1221.01688,395.873657 1220.12259,393.738538 L1226.80183,393.738538 C1228.73433,395.816367 1230.36921,398.163879 1231.65056,400.725183 L1231.65056,400.725183 Z M1221.99921,389.546551 L1218.18869,389.546551 C1217.63395,388.448251 1217.0862,387.440777 1216.5636,386.526924 C1218.49051,387.341566 1220.30285,388.364411 1221.99921,389.546551 L1221.99921,389.546551 Z M1191.76101,389.546551 L1188.00079,389.546551 C1189.67759,388.378384 1191.46757,387.365321 1193.36933,386.556268 C1192.85092,387.461737 1192.31016,388.460827 1191.76101,389.546551 L1191.76101,389.546551 Z M1183.19817,393.738538 L1189.8271,393.738538 C1188.93281,395.873657 1188.09022,398.21558 1187.38876,400.725183 L1178.34944,400.725183 C1179.63079,398.163879 1181.26707,395.816367 1183.19817,393.738538 L1183.19817,393.738538 Z M1178.34944,427.274434 L1187.38876,427.274434 C1188.09022,429.785434 1188.93281,432.127357 1189.8271,434.261078 L1183.19957,434.261078 C1181.26707,432.184648 1179.63079,429.837135 1178.34944,427.274434 L1178.34944,427.274434 Z M1188.00219,438.453065 L1191.75961,438.453065 C1192.30876,439.540187 1192.85092,440.53788 1193.36933,441.443349 C1191.46757,440.634296 1189.67759,439.621232 1188.00219,438.453065 L1188.00219,438.453065 Z M1218.19009,438.453065 L1221.99921,438.453065 C1220.30285,439.635206 1218.49051,440.659448 1216.56499,441.472693 C1217.08759,440.560237 1217.63535,439.551366 1218.19009,438.453065 L1218.19009,438.453065 Z" id="Imported-Layers" sketch:type="MSShapeGroup"></path>
        </g>
    </g>
</svg>