<?xml version="1.0" encoding="UTF-8" standalone="no"?>
<svg width="20px" height="14px" viewBox="0 0 20 14" version="1.1" xmlns="http://www.w3.org/2000/svg" xmlns:xlink="http://www.w3.org/1999/xlink" xmlns:sketch="http://www.bohemiancoding.com/sketch/ns">
    <!-- Generator: Sketch 3.0.3 (7891) - http://www.bohemiancoding.com/sketch -->
    <title>ico-eye</title>
    <desc>Created with Sketch.</desc>
    <defs></defs>
    <g id="Page-1" stroke="none" stroke-width="1" fill="none" fill-rule="evenodd" sketch:type="MSPage">
        <g id="ico-eye" sketch:type="MSArtboardGroup" fill="#3398DB">
            <path d="M10,0 L10.46875,0 C11.2500039,0 12.0247357,0.162821389 12.7929688,0.48846905 C13.5612018,0.814116712 14.2968715,1.21438596 15,1.6892888 C15.7031285,2.16419164 16.3541637,2.68657693 16.953125,3.25646034 C17.5520863,3.82634374 18.0729145,4.35551326 18.515625,4.84398475 C18.9583355,5.33245624 19.3033842,5.75307816 19.5507812,6.10586313 C19.7981783,6.4586481 19.921875,6.64860638 19.921875,6.67574369 C19.791666,6.83856752 19.440107,7.27275789 18.8671875,7.97832782 C18.294268,8.68389776 17.5716189,9.41659401 16.6992188,10.1764386 C15.8268186,10.9362831 14.8177141,11.6214898 13.671875,12.2320791 C12.5260359,12.8426685 11.3020898,13.1479586 10,13.1479586 C9.11457891,13.1479586 8.24870215,12.9919214 7.40234375,12.6798424 C6.55598535,12.3677634 5.76172246,11.9674942 5.01953125,11.4790227 C4.27734004,10.9905512 3.60026348,10.4681659 2.98828125,9.91185115 C2.37629902,9.35553639 1.84896055,8.83315111 1.40625,8.34467961 C0.963539453,7.85620812 0.61849082,7.44915465 0.37109375,7.12350699 C0.12369668,6.79785932 0,6.62146949 0,6.59433218 L0.1171875,6.43150916 C0.299480078,6.18727342 0.68359082,5.7123777 1.26953125,5.00680777 C1.85547168,4.30123783 2.59114141,3.58211003 3.4765625,2.84940279 C4.36198359,2.11669556 5.35806738,1.45862578 6.46484375,0.875173715 C7.57162012,0.291721655 8.74999375,0 10,0 Z M9.765625,1.9538762 C9.06249648,2.08956273 8.41797168,2.36093171 7.83203125,2.76799129 C7.24609082,3.17505086 6.84895937,3.77206262 6.640625,4.55904447 L7.265625,4.55904447 C7.44791758,4.01629837 7.7669248,3.56175532 8.22265625,3.19540171 C8.6783877,2.82904809 9.19270547,2.63230557 9.765625,2.60516827 L9.765625,1.9538762 Z M16.328125,8.87385442 C16.7968773,8.43965753 17.2200502,8.03260406 17.5976562,7.65268179 C17.9752623,7.27275952 18.2812488,6.93354829 18.515625,6.63503794 C18.2031234,6.28225297 17.8320334,5.88198372 17.4023438,5.43421819 C16.9726541,4.98645265 16.5039088,4.53869383 15.9960938,4.0909283 C15.4882787,3.64316276 14.9544299,3.22254084 14.3945312,2.82904992 C13.8346326,2.43555899 13.2812527,2.11670044 12.734375,1.87246469 C13.2552109,2.33379888 13.6783838,2.88332107 14.0039062,3.52104774 C14.3294287,4.15877441 14.4921875,4.85754954 14.4921875,5.61739408 C14.4921875,6.2686894 14.3750012,6.88605384 14.140625,7.4695059 C13.9062488,8.05295796 13.5807312,8.55499057 13.1640625,8.9756188 C12.7473938,9.39624703 12.2721381,9.73545826 11.7382812,9.99326266 C11.2044244,10.2510671 10.6250031,10.3799673 10,10.3799673 C9.37499687,10.3799673 8.78255488,10.2510671 8.22265625,9.99326266 C7.66275762,9.73545826 7.1809916,9.39624703 6.77734375,8.9756188 C6.3736959,8.55499057 6.04817832,8.05295796 5.80078125,7.4695059 C5.55338418,6.88605384 5.4296875,6.2686894 5.4296875,5.61739408 C5.4296875,4.83041223 5.59244629,4.11128443 5.91796875,3.45998911 C6.24349121,2.80869378 6.67968477,2.26595582 7.2265625,1.83175894 L6.9921875,1.9538762 C6.62760234,2.14383734 6.17838809,2.40163787 5.64453125,2.72728553 C5.11067441,3.05293319 4.57682559,3.41928132 4.04296875,3.8263409 C3.50911191,4.23340047 3.00781484,4.67437507 2.5390625,5.14927791 C2.07031016,5.62418075 1.70573047,6.10586069 1.4453125,6.59433218 L1.796875,7.00138972 C3.12500664,8.54821612 4.47264941,9.75580808 5.83984375,10.6242018 C7.20703809,11.4925956 8.59374297,11.926786 10,11.926786 C10.9114629,11.926786 11.9010363,11.6757697 12.96875,11.1737295 C14.0364637,10.6716894 15.1562441,9.90507201 16.328125,8.87385442 Z" id="eye" sketch:type="MSShapeGroup"></path>
        </g>
    </g>
</svg>