<?xml version="1.0" encoding="UTF-8" standalone="no"?>
<svg width="67px" height="82px" viewBox="0 0 67 82" version="1.1" xmlns="http://www.w3.org/2000/svg" xmlns:xlink="http://www.w3.org/1999/xlink" xmlns:sketch="http://www.bohemiancoding.com/sketch/ns">
    <!-- Generator: Sketch 3.3 (11970) - http://www.bohemiancoding.com/sketch -->
    <title>Group</title>
    <desc>Created with Sketch.</desc>
    <defs></defs>
    <g id="Page-1" stroke="none" stroke-width="1" fill="none" fill-rule="evenodd" sketch:type="MSPage">
        <g id="05-QUESTION-POLL-STATS" sketch:type="MSArtboardGroup" transform="translate(-306.000000, -379.000000)" stroke-linecap="round" stroke="#3398DB" stroke-width="2">
            <g id="Group" sketch:type="MSLayerGroup" transform="translate(306.000000, 379.000000)">
                <g id="THE-CLOCK-4" transform="translate(3.500000, 18.845215)" sketch:type="MSShapeGroup">
                    <path d="M5.35765517,31 C5.35765517,16.8383448 16.8383448,5.35658621 31,5.35658621 C45.1595172,5.35658621 56.6402069,16.8383448 56.6402069,31 C56.6402069,45.1616552 45.1595172,56.6423448 31,56.6423448 C16.8383448,56.6423448 5.35765517,45.1616552 5.35765517,31 L5.35765517,31 Z" id="Path" stroke-linejoin="round"></path>
                    <path d="M30.0582414,29.6531034 C30.6825172,29.0288276 31.6926897,29.0288276 32.3169655,29.6531034 C32.9412414,30.2752414 32.9412414,31.2875517 32.3169655,31.9107586 C31.6926897,32.5350345 30.6825172,32.5350345 30.0582414,31.9107586 C29.4361034,31.2875517 29.4361034,30.2752414 30.0582414,29.6531034 L30.0582414,29.6531034 Z" id="Path" stroke-linejoin="round"></path>
                    <path d="M0,31 C0,13.8794483 13.8773103,0 31,0 C48.1226897,0 61.9978621,13.8794483 61.9978621,31 C61.9978621,48.1205517 48.1226897,62 31,62 C13.8773103,62 0,48.1205517 0,31 L0,31 Z" id="Path" stroke-linejoin="round"></path>
                    <path d="M31,31 L22,21" id="Line"></path>
                    <path d="M31,31 L47,16" id="Line-2"></path>
                </g>
                <g id="COMMENTS-3" transform="translate(1.000000, 1.000000)" sketch:type="MSShapeGroup" stroke-linejoin="round">
                    <path d="M40.3044828,0 L4.69474138,0 C2.10336207,0 0,2.03175 0,4.53825 L0,24.5865 C0,27.09375 2.10336207,29.1255 4.69474138,29.1255 L28.3306034,29.1255 L32.8042241,35.23425 C33.1727586,35.59125 33.7693966,35.59125 34.137931,35.23425 L38.6115517,29.1255 L40.3044828,29.1255 C42.8966379,29.1255 45,27.09375 45,24.5865 L45,4.53825 C45,2.03175 42.8966379,0 40.3044828,0 L40.3044828,0 Z" id="Path" fill="#FFFFFF"></path>
                    <path d="M16.7275862,15.22125 L16.3373276,15.22125 C15.3690517,15.22125 14.49,14.84025 13.7032759,14.0805 C12.9142241,13.3185 12.5216379,12.42075 12.5216379,11.38275 C12.5216379,10.311 12.9142241,9.41625 13.7032759,8.697 C14.49,7.97775 15.4567241,7.61775 16.599569,7.61775 C17.8944828,7.61775 18.9558621,8.1195 19.7775,9.123 C20.5983621,10.128 21.0087931,11.52375 21.0087931,13.31475 C21.0087931,14.95425 20.6503448,16.497 19.9318966,17.9445 C19.215,19.3905 18.3328448,20.54175 17.2838793,21.3945 C16.2380172,22.24725 15.2914655,22.67475 14.4411207,22.67475 C13.905,22.67475 13.4697414,22.512 13.1322414,22.18425 C12.7939655,21.8595 12.6256034,21.46125 12.6256034,20.9925 C12.6256034,20.2395 12.9801724,19.689 13.6916379,19.3365 C14.607931,18.819 15.3248276,18.249 15.8446552,17.631 C16.362931,17.013 16.6569828,16.20975 16.7275862,15.22125 L16.7275862,15.22125 Z" id="Path"></path>
                    <path d="M28.1490517,15.22125 L27.8371552,15.22125 C26.8510345,15.22125 25.9541379,14.84475 25.1518966,14.09175 C24.3442241,13.33875 23.9438793,12.43575 23.9438793,11.38275 C23.9438793,10.329 24.3403448,9.4365 25.137931,8.70975 C25.9347414,7.9815 26.9037931,7.61775 28.0443103,7.61775 C29.3601724,7.61775 30.4238793,8.1105 31.2385345,9.09825 C32.0524138,10.08525 32.4574138,11.4915 32.4574138,13.31475 C32.4574138,15.00375 32.0989655,16.563 31.3812931,17.9955 C30.6636207,19.4235 29.7814655,20.562 28.7332759,21.40725 C27.6866379,22.25175 26.7292241,22.67475 25.8656897,22.67475 C25.3125,22.67475 24.8687069,22.515 24.5397414,22.1985 C24.2123276,21.87975 24.047069,21.47925 24.047069,20.9925 C24.047069,20.25675 24.4016379,19.70475 25.1123276,19.3365 C26.0961207,18.78525 26.8331897,18.2115 27.3188793,17.6175 C27.8037931,17.02275 28.0784483,16.2255 28.1490517,15.22125 L28.1490517,15.22125 Z" id="Path"></path>
                </g>
            </g>
        </g>
    </g>
</svg>