<?xml version="1.0" encoding="UTF-8" standalone="no"?>
<svg width="26px" height="26px" viewBox="0 0 26 26" version="1.1" xmlns="http://www.w3.org/2000/svg" xmlns:xlink="http://www.w3.org/1999/xlink" xmlns:sketch="http://www.bohemiancoding.com/sketch/ns">
    <!-- Generator: Sketch 3.2.2 (9983) - http://www.bohemiancoding.com/sketch -->
    <title>Group</title>
    <desc>Created with Sketch.</desc>
    <defs></defs>
    <g id="Page-1" stroke="none" stroke-width="1" fill="none" fill-rule="evenodd" sketch:type="MSPage">
        <g id="04-UNTITLED" sketch:type="MSArtboardGroup" transform="translate(-1285.000000, -116.000000)" fill="#3398DB">
            <g id="Group" sketch:type="MSLayerGroup" transform="translate(1285.000000, 116.000000)">
                <path d="M2.00086422,26 C0.895817426,26 0,25.0983727 0,23.9991358 L0,5.00086422 C0,3.89581743 0.894513756,3 1.99406028,3 L16,3 L16,5 L2,5 L2,24 L21,24 L21,10 L23,10 L23,24.0059397 C23,25.1072288 22.0983727,26 20.9991358,26 L2.00086422,26 Z" id="Rectangle-113" sketch:type="MSShapeGroup"></path>
                <rect id="Rectangle-117" sketch:type="MSShapeGroup" x="20" y="0" width="3" height="9"></rect>
                <rect id="Rectangle-118" sketch:type="MSShapeGroup" transform="translate(21.500000, 4.500000) rotate(-270.000000) translate(-21.500000, -4.500000) " x="20" y="0" width="3" height="9"></rect>
                <path d="M5.5,16 C6.88071187,16 8,14.8807119 8,13.5 C8,12.1192881 6.88071187,11 5.5,11 C4.11928813,11 3,12.1192881 3,13.5 C3,14.8807119 4.11928813,16 5.5,16 Z M20,19 L20,23 L3,23 L3,20.6 L5.625,18.2 L7.375,19.8 L12.625,15 L20,19 Z" id="picture" sketch:type="MSShapeGroup"></path>
            </g>
        </g>
    </g>
</svg>