<?xml version="1.0" encoding="UTF-8" standalone="no"?>
<svg width="60px" height="48px" viewBox="0 0 60 48" version="1.1" xmlns="http://www.w3.org/2000/svg" xmlns:xlink="http://www.w3.org/1999/xlink" xmlns:sketch="http://www.bohemiancoding.com/sketch/ns">
    <!-- Generator: Sketch 3.3 (11970) - http://www.bohemiancoding.com/sketch -->
    <title>Imported Layers</title>
    <desc>Created with Sketch.</desc>
    <defs></defs>
    <g id="Page-1" stroke="none" stroke-width="1" fill="none" fill-rule="evenodd" sketch:type="MSPage">
        <g id="02-OVERVIEW" sketch:type="MSArtboardGroup" transform="translate(-717.000000, -641.000000)" stroke="#39CE78" stroke-width="2">
            <path d="M766.972923,652.6252 C766.972923,652.6252 775.91161,652.34702 775.485216,661.415673 C775.338782,664.525053 768.975815,663.974925 766.527835,662.361483 C767.195466,676.27046 755.845741,677.772629 755.845741,677.772629 M755.957013,663.808017 C761.631876,665.699638 760.964245,673.989388 755.845741,677.772629 C761.019881,678.774076 763.690404,681.722779 764.905047,685.395639 C765.991505,688.680383 760.896591,688.911383 759.573347,685.7842 C756.426135,678.345902 748.946889,682.11223 748.223622,678.774076 C747.872003,677.152178 750.528284,676.158743 750.56033,674.657019 C750.615966,672.042131 743.049483,673.989388 741.202371,669.594151 C737.708436,671.541408 735.093548,669.816695 735.093548,667.257443 C735.093548,664.141832 738.042251,663.140386 741.32477,665.944436 C741.825493,658.711768 747.546645,652.986166 759.786544,657.826489 C762.794443,659.015763 762.243871,654.516821 765.303845,653.181559 C762.52205,651.178666 759.517711,650.121584 750.782874,650.566671 C746.742372,650.772747 746.039134,647.232523 750.805573,645.960908 M772.093548,658.999829 C772.093548,659.552167 771.645792,660 771.093548,660 C770.541304,660 770.093548,659.552167 770.093548,658.999829 C770.093548,658.44749 770.541304,658 771.093548,658 C771.645792,658 772.093548,658.44749 772.093548,658.999829 L772.093548,658.999829 Z M765.303845,653.181559 C763.211935,650.466082 760.527614,648.484998 752.030899,646.410892 C747.976599,645.421463 748.46575,641.629319 753.850415,642.029453 C762.566114,642.67661 766.972923,652.6252 766.972923,652.6252 L765.303845,653.181559 Z M729.5,668 L717.5,668 L729.5,668 Z M731.5,672 L719.5,672 L731.5,672 Z M738.5,676 L726.5,676 L738.5,676 Z" id="Imported-Layers" sketch:type="MSShapeGroup"></path>
        </g>
    </g>
</svg>