<?xml version="1.0" encoding="UTF-8" standalone="no"?>
<svg width="47px" height="61px" viewBox="0 0 47 61" version="1.1" xmlns="http://www.w3.org/2000/svg" xmlns:xlink="http://www.w3.org/1999/xlink" xmlns:sketch="http://www.bohemiancoding.com/sketch/ns">
    <!-- Generator: Sketch 3.3.2 (12043) - http://www.bohemiancoding.com/sketch -->
    <title>Group</title>
    <desc>Created with Sketch.</desc>
    <defs></defs>
    <g id="Page-1" stroke="none" stroke-width="1" fill="none" fill-rule="evenodd" sketch:type="MSPage">
        <g id="PARTICIPANTS" sketch:type="MSArtboardGroup" transform="translate(-524.000000, -418.000000)">
            <g id="Group" sketch:type="MSLayerGroup" transform="translate(525.000000, 419.000000)">
                <path d="M41.005,58.3808594 C42.784,58.3808594 44.228,56.9388594 44.228,55.1588594 L44.252,15.3028594 L28.719,0.380859375 L3.974,0.380859375 C2.195,0.380859375 0.75,1.82285938 0.75,3.60385937 L0.75,55.1588594 C0.75,56.9388594 2.195,58.3808594 3.974,58.3808594 L41.005,58.3808594 L41.005,58.3808594 Z M44.252,15.3028594 L31.941,15.3028594 C30.162,15.3028594 28.719,13.8598594 28.719,12.0808594 L28.719,0.380859375 L44.252,15.3028594 Z M6.148,24.2598594 L38.964,24.2598594 L6.148,24.2598594 Z M6.148,30.6058594 L38.964,30.6058594 L6.148,30.6058594 Z M6.148,36.9498594 L23.856,36.9498594 L6.148,36.9498594 Z" id="page" stroke="#3398DB" stroke-width="2" stroke-linecap="round" stroke-linejoin="round" sketch:type="MSShapeGroup"></path>
                <path d="M15,13.4453125 C15,14.089847 14.8946657,14.6867648 14.6839939,15.236084 C14.4733222,15.7854031 14.172017,16.2626933 13.7800696,16.6679688 L12.2220861,17.6787109 C11.9575216,17.7714848 11.6831625,17.8435056 11.3990005,17.8947754 C11.1148386,17.9460452 10.8208824,17.9716797 10.5171231,17.9716797 C9.19919972,17.9716797 8.12870923,17.5444379 7.30561952,16.6899414 C6.48252981,15.8354449 6.07099113,14.7539128 6.07099113,13.4453125 L6.07099113,11.5263672 C6.07099113,10.2226497 6.48130499,9.14233827 7.30194503,8.28540039 C8.12258506,7.42846251 9.19185074,7 10.5097741,7 C11.8374962,7 12.9177853,7.42846251 13.7506737,8.28540039 C14.583562,9.14233827 15,10.2226497 15,11.5263672 L15,13.4453125 Z M12.8540983,11.5117188 C12.8540983,10.6816365 12.6458793,10.0004909 12.2294351,9.46826172 C11.8129909,8.9360325 11.2397763,8.66992188 10.5097741,8.66992188 C9.77977196,8.66992188 9.21390628,8.9348118 8.81216011,9.46459961 C8.41041394,9.99438741 8.20954387,10.6767536 8.20954387,11.5117188 L8.20954387,13.4453125 C8.20954387,14.2900433 8.41286358,14.978513 8.81950909,15.5107422 C9.2261546,16.0429714 9.79202028,16.309082 10.5171231,16.309082 C11.2520246,16.309082 11.8252392,16.0429714 12.2367841,15.5107422 C12.6483289,14.978513 12.8540983,14.2900433 12.8540983,13.4453125 L12.8540983,11.5117188 Z" id="Q" fill="#3398DB" sketch:type="MSShapeGroup"></path>
                <rect id="Rectangle-499" fill="#3398DB" sketch:type="MSShapeGroup" transform="translate(12.000000, 16.000000) rotate(-28.000000) translate(-12.000000, -16.000000) " x="11" y="13" width="2" height="6"></rect>
                <rect id="Rectangle-500" fill="#3398DB" sketch:type="MSShapeGroup" x="17" y="12" width="2" height="2"></rect>
                <rect id="Rectangle-500-Copy" fill="#3398DB" sketch:type="MSShapeGroup" x="17" y="16" width="2" height="2"></rect>
            </g>
        </g>
    </g>
</svg>