<?xml version="1.0" encoding="UTF-8" standalone="no"?>
<svg width="38px" height="31px" viewBox="0 0 38 31" version="1.1" xmlns="http://www.w3.org/2000/svg" xmlns:xlink="http://www.w3.org/1999/xlink" xmlns:sketch="http://www.bohemiancoding.com/sketch/ns">
    <!-- Generator: Sketch 3.2.2 (9983) - http://www.bohemiancoding.com/sketch -->
    <title>cloud upload</title>
    <desc>Created with Sketch.</desc>
    <defs></defs>
    <g id="Page-1" stroke="none" stroke-width="1" fill="none" fill-rule="evenodd" sketch:type="MSPage">
        <g id="03-PICS-SELECT" sketch:type="MSArtboardGroup" transform="translate(-426.000000, -406.000000)" fill="#FFFFFF">
            <g id="Screen-Shot-2014-12-09-at-11.05-2" sketch:type="MSLayerGroup" transform="translate(370.000000, 365.000000)">
                <path d="M81.7857143,67.9798137 L86.4,67.9798137 C88.4979272,67.9798137 90.2890551,67.2660093 91.7734375,65.8383792 C93.2578199,64.4107491 94,62.6881012 94,60.670384 C94,58.9572278 93.4458389,57.4376176 92.3375,56.1115079 C91.2291611,54.7853981 89.8239668,53.9320054 88.121875,53.551304 C88.6628499,52.7518311 88.9333333,51.8762311 88.9333333,50.9244777 C88.9333333,49.5793329 88.4385466,48.430901 87.4489583,47.4791476 C86.4593701,46.5273941 85.2652848,46.0515246 83.8666667,46.0515246 C82.5999937,46.0515246 81.5048657,46.4449101 80.58125,47.2316929 C79.8027739,45.4297064 78.5658071,43.9703731 76.8703125,42.8536491 C75.1748179,41.7369251 73.2847326,41.1785714 71.2,41.1785714 C68.4027638,41.1785714 66.0145932,42.1303106 64.0354167,44.0338174 C62.0562401,45.9373242 61.0666667,48.234188 61.0666667,50.9244777 C61.0666667,51.1148284 61.079861,51.3876603 61.10625,51.7429815 C59.5756868,52.428244 58.3420186,53.4656397 57.4052083,54.8551997 C56.4683981,56.2447596 56,57.7770597 56,59.4521457 C56,61.7998041 56.867526,63.8079737 58.6026042,65.4767147 C60.3376823,67.1454557 62.4256822,67.9798137 64.8666667,67.9798137 L69.5714286,67.9798137 L69.5714286,65.2996894 L65.5,65.2996894 L75.6785714,50.5590062 L85.8571429,65.2996894 L81.7857143,65.2996894 L81.7857143,67.9798137 Z M79.0714286,63.9596273 L79.0714286,72 L72.2857143,72 L72.2857143,63.9596273 L69.5714286,63.9596273 L75.6785714,54.5791925 L81.7857143,63.9596273 L79.0714286,63.9596273 Z" id="cloud-upload" sketch:type="MSShapeGroup"></path>
            </g>
        </g>
    </g>
</svg>