<?xml version="1.0" encoding="UTF-8" standalone="no"?>
<svg width="53px" height="36px" viewBox="0 0 53 36" version="1.1" xmlns="http://www.w3.org/2000/svg" xmlns:xlink="http://www.w3.org/1999/xlink" xmlns:sketch="http://www.bohemiancoding.com/sketch/ns">
    <!-- Generator: Sketch 3.3 (11970) - http://www.bohemiancoding.com/sketch -->
    <title>Imported Layers</title>
    <desc>Created with Sketch.</desc>
    <defs></defs>
    <g id="Page-1" stroke="none" stroke-width="1" fill="none" fill-rule="evenodd" sketch:type="MSPage">
        <g id="02-OVERVIEW" sketch:type="MSArtboardGroup" transform="translate(-893.000000, -652.000000)" stroke="#E75141" stroke-width="2">
            <path d="M894.604671,680.479575 C893.83338,679.653712 897.522998,679.10279 899.175245,676.789957 C913.327704,676.453167 926.324267,669.300535 929.903701,663.853164 C932.515903,659.87821 932.436902,653 937.11818,653 C941.798939,653 944.992727,657.546146 944.387233,661.811114 C943.885686,665.342732 941.952261,666.691452 939.969462,666.718998 C937.987182,666.746544 937.007996,664.2175 935.606263,665.463312 C924.782724,675.082618 933.593319,684.33447 931.996685,685.545979 C930.39953,686.757488 925.939141,686.592211 924.617448,685.931624 C923.295755,685.270518 924.562356,682.8475 922.799925,681.525807 C919.561439,684.279378 910.850114,683.783548 907.931267,682.076729 C907.773786,684.726352 906.977548,685.804808 904.326885,686.659777 C902.620067,687.210179 900.166385,687.163922 899.071297,685.989835 C898.310921,685.174366 902.204276,682.407282 901.708447,681.030497 C901.212617,679.653712 895.375442,681.305438 894.604671,680.479575 L894.604671,680.479575 Z M899.175245,676.789957 C899.175245,676.789957 897.467906,674.477124 900.001628,672.990154 C896.036548,659.443189 915.641057,650.246429 924.947481,663.022623 C927.64596,662.791859 927.976513,666.257471 927.976513,666.257471 M940.584551,660.015743 C940.584551,660.491227 940.198641,660.877137 939.723157,660.877137 C939.247366,660.877137 938.861764,660.491227 938.861764,660.015743 C938.861764,659.539952 939.247366,659.15435 939.723157,659.15435 C940.198641,659.15435 940.584551,659.539952 940.584551,660.015743 L940.584551,660.015743 Z M900.838925,664.065737 C901.04786,664.344316 901.598262,666.609853 902.919955,666.85361 C904.241648,667.097887 906.609574,665.549588 907.325772,664.065737 C908.041451,662.581885 904.725524,659.695782 904.583636,659.803887 M911.165075,657.086178 C911.165075,657.086178 910.299192,661.811114 912.337084,662.251852 C914.374456,662.69207 916.46692,661.811114 917.348395,660.819974 C918.229351,659.828834 917.901916,657.672442 917.901916,657.672442 M903.957352,669.524023 C903.152798,670.092096 903.572226,673.378918 905.113768,673.489102 C906.65583,673.599287 910.400541,672.387778 910.565818,671.506303 C910.731094,670.625347 910.235264,667.816684 909.464493,667.651927 C908.693722,667.486651 904.893919,668.863436 903.957352,669.524023 L903.957352,669.524023 Z M913.400467,665.680042 C912.687387,666.359339 913.580816,669.55001 915.122359,669.434108 C916.663901,669.318726 920.1924,667.574486 920.227223,666.678458 C920.262565,665.78295 919.362899,663.076676 918.576016,663.025222 C917.789133,662.974287 914.230489,664.890041 913.400467,665.680042 L913.400467,665.680042 Z" id="Imported-Layers" sketch:type="MSShapeGroup"></path>
        </g>
    </g>
</svg>