<?xml version="1.0" encoding="UTF-8" standalone="no"?>
<svg width="21px" height="21px" viewBox="0 0 21 21" version="1.1" xmlns="http://www.w3.org/2000/svg" xmlns:xlink="http://www.w3.org/1999/xlink" xmlns:sketch="http://www.bohemiancoding.com/sketch/ns">
    <!-- Generator: Sketch 3.3 (11970) - http://www.bohemiancoding.com/sketch -->
    <title>Group</title>
    <desc>Created with Sketch.</desc>
    <defs></defs>
    <g id="Page-1" stroke="none" stroke-width="1" fill="none" fill-rule="evenodd" sketch:type="MSPage">
        <g id="03-SNAPSHOT-SELECT-2" sketch:type="MSArtboardGroup" transform="translate(-370.000000, -348.000000)">
            <g id="MODAL" sketch:type="MSLayerGroup" transform="translate(340.000000, 110.000000)">
                <g id="Group" transform="translate(30.000000, 238.000000)" sketch:type="MSShapeGroup">
                    <rect id="Rectangle-477" fill="#4FB9FF" x="0" y="0" width="21" height="21" rx="2"></rect>
                    <path d="M8.85884537,12.9880824 C8.93680292,12.4423796 9.44266033,12 9.99895656,12 L11.0010434,12 C11.5527519,12 12.0625545,12.4378814 12.1411546,12.9880824 L12.8588454,18.0119176 C12.9368029,18.5576204 12.5562834,19 12.0001925,19 L8.99980749,19 C8.44762906,19 8.06255448,18.5621186 8.14115463,18.0119176 L8.85884537,12.9880824 Z M10,15 L11,15 L11.6835938,17.0507812 C11.8583401,17.5750203 11.5573397,18 11.0010434,18 L9.99895656,18 C9.44724809,18 9.13904572,17.5828629 9.31640625,17.0507812 L10,15 Z" id="z" fill="#2C3E50"></path>
                    <path d="M11,1 L11,2 C11.5522847,2 12,2.22385763 12,2.5 C12,2.77614237 11.5522847,3 11,3 L11,4 C11.5522847,4 12,4.22385763 12,4.5 C12,4.77614237 11.5522847,5 11,5 L11,6 C11.5522847,6 12,6.22385763 12,6.5 C12,6.77614237 11.5522847,7 11,7 L11,7 L11,8 C11.5522847,8 12,8.22385763 12,8.5 C12,8.77614237 11.5522847,9 11,9 L11,9 L11,11 L10,11 L10,10 C9.44771525,10 9,9.77614237 9,9.5 C9,9.22385763 9.44771525,9 10,9 L10,8 C9.44771525,8 9,7.77614237 9,7.5 C9,7.22385763 9.44771525,7 10,7 L10,6 C9.44771525,6 9,5.77614237 9,5.5 C9,5.22385763 9.44771525,5 10,5 L10,4 L10,4 C9.44771525,4 9,3.77614237 9,3.5 C9,3.22385763 9.44771525,3 10,3 L10,2 C9.44771525,2 9,1.77614237 9,1.5 C9,1.22385763 9.44771525,1 10,1 L10,0 L11,0 C11.5522847,0 12,0.223857625 12,0.5 C12,0.776142375 11.5522847,1 11,1 Z" id="Rectangle-479" fill="#2C3E50"></path>
                </g>
            </g>
        </g>
    </g>
</svg>