<?xml version="1.0" encoding="UTF-8" standalone="no"?>
<svg width="21px" height="31px" viewBox="0 0 21 31" version="1.1" xmlns="http://www.w3.org/2000/svg" xmlns:xlink="http://www.w3.org/1999/xlink" xmlns:sketch="http://www.bohemiancoding.com/sketch/ns">
    <!-- Generator: Sketch 3.3 (11970) - http://www.bohemiancoding.com/sketch -->
    <title></title>
    <desc>Created with Sketch.</desc>
    <defs></defs>
    <g id="Page-1" stroke="none" stroke-width="1" fill="none" fill-rule="evenodd" sketch:type="MSPage">
        <g id="02-SELECT-METHOD-2" sketch:type="MSArtboardGroup" transform="translate(-585.000000, -1131.000000)" fill="#2C3E50">
            <g id="Rectangle-429-+-You-can-drag-&amp;-drop--+-" sketch:type="MSLayerGroup" transform="translate(568.000000, 1115.000000)">
                <path d="M32.09375,25.0416667 C32.09375,25.2165807 32.0288092,25.3679464 31.8989258,25.4957682 C31.7690423,25.62359 31.6152353,25.6875 31.4375,25.6875 C31.2597647,25.6875 31.1059577,25.62359 30.9760742,25.4957682 C30.8461908,25.3679464 30.78125,25.2165807 30.78125,25.0416667 C30.78125,24.42274 30.4121131,23.9450972 29.6738281,23.608724 C28.9355432,23.2723507 28.2109411,23.1041667 27.5,23.1041667 C27.3222647,23.1041667 27.1684577,23.0402567 27.0385742,22.9124349 C26.9086908,22.7846131 26.84375,22.6332474 26.84375,22.4583333 C26.84375,22.2834193 26.9086908,22.1320536 27.0385742,22.0042318 C27.1684577,21.87641 27.3222647,21.8125 27.5,21.8125 C28.1835972,21.8125 28.8637661,21.9201378 29.5405273,22.1354167 C30.2172885,22.3506955 30.8120092,22.7139731 31.324707,23.2252604 C31.8374049,23.7365477 32.09375,24.3420104 32.09375,25.0416667 L32.09375,25.0416667 Z M35.375,25.0416667 C35.375,24.0729118 35.1391625,23.1714451 34.6674805,22.3372396 C34.1957984,21.503034 33.5805702,20.8202067 32.8217773,20.288737 C32.0629845,19.7572673 31.2221726,19.3401708 30.2993164,19.0374349 C29.3764602,18.734699 28.4433641,18.5833333 27.5,18.5833333 C26.5566359,18.5833333 25.6235398,18.734699 24.7006836,19.0374349 C23.7778274,19.3401708 22.9370155,19.7572673 22.1782227,20.288737 C21.4194298,20.8202067 20.8042016,21.503034 20.3325195,22.3372396 C19.8608375,23.1714451 19.625,24.0729118 19.625,25.0416667 C19.625,26.4006144 20.0898391,27.6115398 21.0195312,28.6744792 C21.1562507,28.8224834 21.3647447,29.0444864 21.6450195,29.3404948 C21.9252944,29.6365032 22.1337884,29.8585062 22.2705078,30.0065104 C24.0205166,32.0651145 24.9843741,34.0698687 25.1621094,36.0208333 L29.8378906,36.0208333 C30.0156259,34.0698687 30.9794834,32.0651145 32.7294922,30.0065104 C32.8662116,29.8585062 33.0747056,29.6365032 33.3549805,29.3404948 C33.6352553,29.0444864 33.8437493,28.8224834 33.9804687,28.6744792 C34.9101609,27.6115398 35.375,26.4006144 35.375,25.0416667 L35.375,25.0416667 Z M35.8876953,30.4505208 C35.2724579,31.1098123 34.7631856,31.6950929 34.3598633,32.2063802 C33.956541,32.7176675 33.5498067,33.3601307 33.1396484,34.1337891 C32.7294901,34.9074474 32.3789147,35.3929011 32.4423828,36.3033854 C32.5058509,37.2138697 33.40625,37.2317672 33.40625,37.9583333 C33.40625,38.4561657 33.2353533,38.8867169 32.8935547,39.25 C33.2353533,39.6132831 33.40625,40.0438343 33.40625,40.5416667 C33.40625,41.2413229 33.0986359,41.7862394 32.4833984,42.1764323 C32.6611337,42.4858956 32.75,42.8020817 32.75,43.125 C32.75,43.7439267 32.5346701,44.2215695 32.1040039,44.5579427 C31.6733377,44.8943159 31.1435578,45.0625 30.5146484,45.0625 C30.2412096,45.6545168 29.8310574,46.1254323 29.2841797,46.4752604 C28.737302,46.8250886 28.1425813,47 27.5,47 C26.8574187,47 26.262698,46.8250886 25.7158203,46.4752604 C25.1689426,46.1254323 24.7587904,45.6545168 24.4853516,45.0625 C23.8564422,45.0625 23.3266623,44.8943159 22.8959961,44.5579427 C22.4653299,44.2215695 22.25,43.7439267 22.25,43.125 C22.25,42.8020817 22.3388663,42.4858956 22.5166016,42.1764323 C21.9013641,41.7862394 21.59375,41.2413229 21.59375,40.5416667 C21.59375,40.0438343 21.7646467,39.6132831 22.1064453,39.25 C21.7646467,38.8867169 21.59375,38.4561657 21.59375,37.9583333 C21.59375,37.2317672 21.9150358,36.6801234 22.5576172,36.3033854 C22.5029294,35.630639 22.2705099,34.9074474 21.8603516,34.1337891 C21.4501933,33.3601307 21.043459,32.7176675 20.6401367,32.2063802 C20.2368144,31.6950929 19.7275421,31.1098123 19.1123047,30.4505208 C17.7040945,28.9301139 17,27.1271806 17,25.0416667 C17,23.7096288 17.3041962,22.4684302 17.9125977,21.3180339 C18.5209991,20.1676375 19.3207958,19.2123519 20.3120117,18.4521484 C21.3032276,17.691945 22.4243102,17.0932097 23.675293,16.6559245 C24.9262758,16.2186393 26.2011654,16 27.5,16 C28.7988346,16 30.0737242,16.2186393 31.324707,16.6559245 C32.5756898,17.0932097 33.6967724,17.691945 34.6879883,18.4521484 C35.6792042,19.2123519 36.4790009,20.1676375 37.0874023,21.3180339 C37.6958038,22.4684302 38,23.7096288 38,25.0416667 C38,27.1271806 37.2959055,28.9301139 35.8876953,30.4505208 Z" id="" sketch:type="MSShapeGroup"></path>
            </g>
        </g>
    </g>
</svg>