<svg width="634" height="557" viewBox="0 0 634 557" xmlns="http://www.w3.org/2000/svg" xmlns:xlink="http://www.w3.org/1999/xlink"><svg width="17" height="23" viewBox="-1 -1 17 23" x="617" y="468"><title>Oval 52</title><path d="M7.5 20.83S15 11.642 15 7.5C15 3.358 11.642 0 7.5 0 3.358 0 0 3.358 0 7.5c0 4.142 7.5 13.33 7.5 13.33zM7.5 9C8.88 9 10 7.88 10 6.5S8.88 4 7.5 4 5 5.12 5 6.5 6.12 9 7.5 9z" fill="#2C3E50" fill-rule="evenodd"/></svg><svg width="20" height="16" viewBox="-1 -1 20 16" x="538" y="407"><title>Oval 591 + Rectangle 407</title><g fill="#fff" fill-rule="evenodd"><path d="M9 14s5-6.24 5-9-2.24-5-5-5-5 2.24-5 5 5 9 5 9z"/><path stroke="#3398DB" d="M1.69 10.068l13.74-7.933 1 1.732L2.69 11.8z"/></g></svg><svg width="12" height="16" viewBox="-1 -1 12 16" x="550" y="84"><title>Oval 591</title><path d="M5 14s5-6.24 5-9-2.24-5-5-5-5 2.24-5 5 5 9 5 9z" fill="#fff" fill-rule="evenodd"/></svg><svg width="44" height="66" viewBox="-1 -1 44 66" x="562" y="142"><title>big-annotation</title><g transform="translate(1 1)" stroke="#3398DB" stroke-width="2" stroke-linecap="round" stroke-linejoin="round" fill="none" fill-rule="evenodd"><path d="M20 61.463s20-30.27 20-41.232S31.046.38 20 .38 0 9.27 0 20.23c0 10.964 20 41.233 20 41.233z"/><circle cx="20" cy="17.381" r="7"/></g></svg><svg width="66" height="66" viewBox="-1 -1 66 66" x="562" y="208"><title>big-clock</title><g stroke-linecap="round" stroke="#3398DB" stroke-width="2" fill="none" fill-rule="evenodd"><path d="M6.358 32C6.358 17.838 17.838 6.357 32 6.357c14.16 0 25.64 11.48 25.64 25.643 0 14.162-11.48 25.642-25.64 25.642-14.162 0-25.642-11.48-25.642-25.642zm24.7-1.347c.625-.624 1.635-.624 2.26 0 .623.622.623 1.635 0 2.258-.625.626-1.635.626-2.26 0-.622-.62-.622-1.634 0-2.256zM1 32C1 14.88 14.877 1 32 1c17.123 0 30.998 13.88 30.998 31 0 17.12-13.875 31-30.998 31S1 49.12 1 32z" stroke-linejoin="round"/><path d="M32 32l-9-10M32 32l16-15"/></g></svg><svg width="77" height="64" viewBox="-1 -1 77 64" x="278" y="364"><title>big-comments</title><path d="M28.136 26.75h-.633c-1.57 0-2.997-.635-4.273-1.9-1.28-1.27-1.917-2.768-1.917-4.498 0-1.785.637-3.276 1.917-4.475 1.276-1.2 2.844-1.8 4.698-1.8 2.1 0 3.823.838 5.155 2.51 1.332 1.675 1.998 4 1.998 6.986 0 2.734-.58 5.305-1.745 7.717-1.163 2.41-2.594 4.33-4.296 5.75-1.697 1.422-3.233 2.134-4.61 2.134-.87 0-1.578-.27-2.126-.816-.548-.54-.82-1.205-.82-1.986 0-1.255.574-2.173 1.728-2.76 1.487-.863 2.65-1.813 3.494-2.843.84-1.03 1.317-2.37 1.432-4.017zm18.528 0h-.506c-1.6 0-3.055-.63-4.356-1.883-1.31-1.255-1.96-2.76-1.96-4.515s.643-3.242 1.937-4.454c1.29-1.213 2.863-1.82 4.713-1.82 2.135 0 3.86.822 5.182 2.468 1.32 1.645 1.977 3.99 1.977 7.027 0 2.816-.58 5.415-1.746 7.802-1.164 2.38-2.595 4.278-4.295 5.687-1.697 1.406-3.25 2.11-4.65 2.11-.9 0-1.618-.265-2.15-.792-.533-.532-.8-1.2-.8-2.01 0-1.227.574-2.147 1.727-2.76 1.596-.92 2.79-1.876 3.58-2.866.786-.99 1.23-2.32 1.346-3.993zm19.72-25.37H8.615C4.412 1.38 1 4.768 1 8.946v33.413c0 4.18 3.412 7.566 7.616 7.566H46.96l7.256 10.18c.598.596 1.565.596 2.163 0l7.256-10.18h2.746c4.205 0 7.617-3.387 7.617-7.566V8.946c0-4.18-3.412-7.565-7.617-7.565z" stroke="#3398DB" stroke-width="2" stroke-linecap="round" stroke-linejoin="round" fill="none" fill-rule="evenodd"/></svg><svg width="64" height="49" viewBox="-1 -1 64 49" x="562" y="274"><title>big-green-tick</title><path d="M27.5 45.5L60 2M2 21.937L27.5 45.5" stroke="#2ECC71" stroke-width="3" stroke-linecap="round" stroke-linejoin="round" fill="none" fill-rule="evenodd"/></svg><svg width="74" height="90" viewBox="-1 -1 74 90" x="352" y="274"><title>big-participant</title><g stroke="#3398DB" stroke-width="2" stroke-linecap="round" stroke-linejoin="round" fill="none" fill-rule="evenodd"><path d="M23.668 55.226C12.158 56.68 3.86 60.15 2.613 64.208 2.098 65.875 1.535 68.586 1 71.566m47.243-15.99v-.015l-2.436-1.583-3.364-1.015m-13.49.054l-3.185.96-2.428 1.58m19.826-.662s-1.64-2.483-.52-7.858M28.832 46.6c1.304 5.677-.424 8.294-.424 8.294" id="ahPath"/><path d="M52.966 23.358C52.966 5.166 45.276 1 35.79 1 26.3 1 18.61 5.166 18.61 23.358c0 6.154 1.204 10.973 3.01 14.697 3.97 8.185 10.84 11.05 14.17 11.05 3.326 0 10.198-2.865 14.166-11.05 1.806-3.724 3.01-8.543 3.01-14.697zm-33.95 6.18c2.794-4.206 3.535-6.25 3.535-6.25 1.754-2.803-.892-7.588 1.94-8.827 3.686-1.61 2.604 1.925 11.106 1.925 8.497 0 7.093-3.63 10.753-2.098 3.04 1.27.73 5.216 2.693 9.002 0 0 3.202 1.722 3.153 6.25" id="ahPath"/><path d="M52.96 24.028c2.16.74 3.713 2.805 3.713 5.24 0 2.838-2.122 5.18-4.85 5.488l1.137-10.728zm-34.33-.004c-2.167.733-3.728 2.805-3.728 5.244 0 2.92 2.24 5.31 5.08 5.51l-1.35-10.754zM41.962 61.53c-1.21 1.166-3.317 2.647-6.23 2.647-2.86 0-4.903-1.426-6.09-2.582m-6.302-6.04l-.01.006.1 10.88 3.178-.72-2.334 4.36 11.09 16.446"/><path d="M35.364 86.525c-1.454-6.342-6.202-27.043-6.228-27.07l-.728-4.56 6.956 31.63zm7.802-31.63l-.726 4.56c-.028.027-4.776 20.73-6.23 27.07l6.956-31.63zm-6.956 31.63L47.304 70.08l-2.338-4.36 3.18.72.097-10.863m22.333 15.99c-.537-2.98-1.098-5.69-1.613-7.36-1.252-4.063-9.665-7.54-21.25-8.987"/></g></svg><svg width="74" height="90" viewBox="-1 -1 74 90" x="278" y="274"><title>big-participant</title><g stroke="#fff" stroke-width="2" stroke-linecap="round" stroke-linejoin="round" fill="none" fill-rule="evenodd"><path d="M23.668 55.226C12.158 56.68 3.86 60.15 2.613 64.208 2.098 65.875 1.535 68.586 1 71.566m47.243-15.99v-.015l-2.436-1.583-3.364-1.015m-13.49.054l-3.185.96-2.428 1.58m19.826-.662s-1.64-2.483-.52-7.858M28.832 46.6c1.304 5.677-.424 8.294-.424 8.294" id="aiPath"/><path d="M52.966 23.358C52.966 5.166 45.276 1 35.79 1 26.3 1 18.61 5.166 18.61 23.358c0 6.154 1.204 10.973 3.01 14.697 3.97 8.185 10.84 11.05 14.17 11.05 3.326 0 10.198-2.865 14.166-11.05 1.806-3.724 3.01-8.543 3.01-14.697zm-33.95 6.18c2.794-4.206 3.535-6.25 3.535-6.25 1.754-2.803-.892-7.588 1.94-8.827 3.686-1.61 2.604 1.925 11.106 1.925 8.497 0 7.093-3.63 10.753-2.098 3.04 1.27.73 5.216 2.693 9.002 0 0 3.202 1.722 3.153 6.25" id="aiPath"/><path d="M52.96 24.028c2.16.74 3.713 2.805 3.713 5.24 0 2.838-2.122 5.18-4.85 5.488l1.137-10.728zm-34.33-.004c-2.167.733-3.728 2.805-3.728 5.244 0 2.92 2.24 5.31 5.08 5.51l-1.35-10.754zM41.962 61.53c-1.21 1.166-3.317 2.647-6.23 2.647-2.86 0-4.903-1.426-6.09-2.582m-6.302-6.04l-.01.006.1 10.88 3.178-.72-2.334 4.36 11.09 16.446"/><path d="M35.364 86.525c-1.454-6.342-6.202-27.043-6.228-27.07l-.728-4.56 6.956 31.63zm7.802-31.63l-.726 4.56c-.028.027-4.776 20.73-6.23 27.07l6.956-31.63zm-6.956 31.63L47.304 70.08l-2.338-4.36 3.18.72.097-10.863m22.333 15.99c-.537-2.98-1.098-5.69-1.613-7.36-1.252-4.063-9.665-7.54-21.25-8.987"/></g></svg><svg width="52" height="52" viewBox="-1 -1 52 52" x="493" y="211"><title>big-red-cross</title><path d="M2 2l46.398 46.4m0-46.4L2 48.4" stroke="#E74C3C" stroke-width="3" stroke-linecap="round" stroke-linejoin="round" fill="none" fill-rule="evenodd"/></svg><svg width="57" height="75" viewBox="-1 -1 57 75" x="493" y="84"><title>big-study</title><g transform="translate(1.25 1.19)" stroke="#3398DB" stroke-width="2" fill="none" fill-rule="evenodd"><path d="M4.457 26.967C2.32 27.267.342 25.79.04 23.664c-.304-2.127 1.184-4.093 3.318-4.394 2.14-.3 4.117 1.178 4.42 3.302M6.05 36.964c-2.136.304-4.114-1.176-4.417-3.3-.3-2.128 1.187-4.094 3.32-4.396 2.14-.3 4.116 1.177 4.42 3.304m-1.636 14.88c-2.135.3-4.113-1.18-4.418-3.304-.3-2.125 1.185-4.094 3.32-4.394 2.138-.302 4.115 1.177 4.417 3.305M9.46 57.926c-2.137.3-4.116-1.178-4.42-3.303-.3-2.126 1.188-4.093 3.323-4.394 2.138-.3 4.116 1.177 4.418 3.303m-1.634 14.88c-2.135.3-4.114-1.18-4.417-3.304-.304-2.128 1.183-4.096 3.32-4.398 2.137-.3 4.113 1.18 4.42 3.305" stroke-linecap="round" stroke-linejoin="round"/><path d="M41.757 36.922l-26.616 4.19-2.454-15.443L39.3 21.48l2.457 15.44zM34.917 27l-16.753 2 16.754-2zm.583 4l-16.75 2 16.75-2zm16.27 25.414c.836 5.402-.81 7.63-6.24 8.46L11.96 70 3.067 15.333l33.6-5.13c5.426-.827 7.67.808 8.5 6.207l6.603 40.004z" stroke-linecap="round" stroke-linejoin="round"/><circle stroke-linecap="round" stroke-linejoin="round" fill="#fff" cx="42.5" cy="8.5" r="8.5"/><path d="M39.06 9.883l2.967 2.31 4.39-6.528" stroke-linecap="square"/></g></svg><svg width="36" height="52" viewBox="-1 -1 36 52" x="493" y="159"><title>big-trash</title><g stroke-linecap="round" stroke="#717171" stroke-width="2" fill="none" fill-rule="evenodd"><path d="M8.543 7.813V5.158C8.543 2.86 10.388 1 12.666 1h8.588c2.277 0 4.123 1.86 4.123 4.158v2.655H8.543zM28.986 49H5.01L1 7.948h31.995L28.985 49z" stroke-linejoin="round"/><path d="M17 14.09v27.82M24.724 14.09l-2.207 27.82M9.276 14.09l2.207 27.82"/></g></svg><svg width="24" height="22" viewBox="-1 -1 24 22" x="426" y="300"><title>bubble</title><path d="M21.968 3.432v8.182c0 .924-.33 1.716-.99 2.376-.66.66-1.445.99-2.354.99h-6.058c-.044 0-.617 1.033-4.518 4.7v-4.678H3.344c-.91 0-1.694-.33-2.354-.99-.66-.69-.99-1.49-.99-2.398V3.432C0 2.464.345 1.65 1.034.99 1.724.33 2.494 0 3.344 0h15.28c.94 0 1.723.33 2.354.99.66.675.99 1.49.99 2.442z" fill="#2C3E50" fill-rule="evenodd"/></svg><svg width="30" height="29" viewBox="-1 -1 30 29" x="530" y="333"><title> 3</title><defs><path id="a" d="M127.968 328.432v10.182c0 .924-.33 1.716-.99 2.376-.66.66-1.445.99-2.354.99h-6.058c-.044 0-2.617 2.033-6.518 5.7v-5.678h-4.704c-.91 0-1.694-.33-2.354-.99-.66-.69-.99-1.49-.99-2.398v-10.182c0-.968.345-1.782 1.034-2.442.69-.66 1.46-.99 2.31-.99h17.28c.94 0 1.723.33 2.354.99.66.675.99 1.49.99 2.442z"/></defs><g transform="translate(-102 -323)" stroke-linecap="round" stroke-linejoin="round" fill="none" fill-rule="evenodd"><use stroke="#006FBA" fill="#1B8BD5" xlink:href="#a"/><use stroke="#fff" stroke-width="2" xlink:href="#a"/></g></svg><svg width="15" height="14" viewBox="-1 -1 15 14" x="545" y="211"><title>Rectangle 68</title><path d="M.5 1.997C.5.894 1.402 0 2.51 0h7.98c1.11 0 2.01.896 2.01 1.997v5.006c0 1.103-.888 1.997-2 1.997h-2l-3 2.996V9H2.505C1.398 9 .5 8.104.5 7.003V1.997z" fill="#fff" fill-rule="evenodd"/></svg><svg width="493" height="274" viewBox="-1 -1 493 274"><title>CONGRATS</title><defs><linearGradient x1="13.928%" y1="9.034%" y2="100%" id="b"><stop stop-color="#fff" offset="0%"/><stop stop-color="#EFEFEF" offset="100%"/></linearGradient><linearGradient x1="88.145%" y1="8.662%" x2="0%" y2="100%" id="c"><stop stop-color="#fff" offset="0%"/><stop stop-color="#EFEFEF" offset="100%"/></linearGradient><linearGradient x1="96.439%" y1="7.726%" x2="0%" y2="100%" id="d"><stop stop-color="#fff" offset="0%"/><stop stop-color="#EFEFEF" offset="100%"/></linearGradient><linearGradient x1="3.837%" y1="7.717%" y2="100%" id="e"><stop stop-color="#fff" offset="0%"/><stop stop-color="#EFEFEF" offset="100%"/></linearGradient><linearGradient x1="50%" y1="0%" x2="50%" y2="100%" id="f"><stop stop-color="#fff" offset="0%"/><stop stop-color="#EFEFEF" offset="100%"/></linearGradient></defs><g fill="none" fill-rule="evenodd"><path d="M58.078 79.397l46.876-37.667 148.958 230.085L58.078 79.397z" fill="url(#b)" transform="translate(-9)"/><path d="M449.943 79.397L403.068 41.73l-148.96 230.085L449.944 79.397z" fill="url(#c)" transform="translate(-9)"/><path d="M489.638 129.846L254.108 271.85 499.5 150.933l-9.86-21.088z" fill="url(#d)" transform="translate(-9)"/><path d="M19.348 129.846l235.53 142.003L9.49 150.932l9.858-21.088z" fill="url(#e)" transform="translate(-9)"/><path d="M254.11 271.996L310.417.166H195.435l58.674 271.83z" fill="url(#f)" transform="translate(-9)"/><path stroke="#F3A629" fill="#FFCB00" d="M245.528 167.877L224.6 178.795l3.998-23.124-16.93-16.374 23.396-3.373 10.464-21.04 10.464 21.04 23.398 3.373-16.93 16.376 3.996 23.125zM301.238 175.778l11.805-14.094-5.008-17.64 17.156 6.786 15.36-10.177-1.2 18.288 14.5 11.35-17.9 4.518L329.553 192l-9.86-15.497-18.454-.725zM188.814 175.778l-11.805-14.094 5.006-17.64-17.156 6.786-15.36-10.177 1.204 18.288-14.5 11.35 17.898 4.518L160.5 192l9.86-15.497 18.454-.725zM191.897 74.982l-7.315 8.88-11.518-.948 6.25 9.648-4.467 10.577 11.177-2.918 8.758 7.483.66-11.45 9.878-5.952-10.77-4.16-2.653-11.162zM323.027 81.844l-7.548 1.223 5.567 5.2-1.16 7.502 6.705-3.65 6.83 3.413L332 88.078l5.382-5.39-7.586-.96-3.504-6.746-3.265 6.862zM54.5 121.242l-5.422 3.398 6.017 2.204 1.58 6.168 3.972-4.996 6.4.414-3.56-5.293 2.374-5.91-6.172 1.724-4.932-4.066-.254 6.36zM444.888 92.46l-5.423 3.397 6.016 2.204 1.583 6.17 3.972-4.997 6.4.415-3.562-5.293 2.375-5.912-6.173 1.726-4.932-4.07-.254 6.36z"/></g></svg><svg width="278" height="158" viewBox="-1 -1 278 158" y="274"><title>CONGRATS</title><defs><linearGradient x1="13.928%" y1="9.034%" y2="100%" id="g"><stop stop-color="#fff" stop-opacity="0" offset="0%"/><stop stop-color="#EFEFEF" stop-opacity=".3" offset="100%"/></linearGradient><linearGradient x1="84.793%" y1="12.135%" x2="0%" y2="100%" id="h"><stop stop-color="#fff" stop-opacity="0" offset="0%"/><stop stop-color="#EFEFEF" stop-opacity=".3" offset="100%"/></linearGradient><linearGradient x1="96.439%" y1="7.726%" x2="0%" y2="100%" id="i"><stop stop-color="#fff" stop-opacity="0" offset="0%"/><stop stop-color="#EFEFEF" stop-opacity=".3" offset="100%"/></linearGradient><linearGradient x1="3.837%" y1="7.717%" y2="100%" id="j"><stop stop-color="#fff" stop-opacity="0" offset="0%"/><stop stop-color="#EFEFEF" stop-opacity=".3" offset="100%"/></linearGradient><linearGradient x1="50%" y1="0%" x2="50%" y2="100%" id="k"><stop stop-color="#fff" stop-opacity="0" offset="0%"/><stop stop-color="#EFEFEF" stop-opacity=".3" offset="100%"/></linearGradient></defs><g fill="none" fill-rule="evenodd"><path d="M28.32 45.55l26.89-21.61 85.457 131.997L28.32 45.55z" fill="url(#g)" transform="translate(-3)"/><path d="M253.128 45.55l-26.892-21.61-85.456 131.997L253.128 45.55z" fill="url(#h)" transform="translate(-3)"/><path d="M275.9 74.49l-135.12 81.467L281.556 86.59l-5.656-12.1z" fill="url(#i)" transform="translate(-3)"/><path d="M6.1 74.49l135.12 81.467L.444 86.59 6.1 74.49z" fill="url(#j)" transform="translate(-3)"/><path d="M140.78 156.04L173.083.096H107.12l33.66 155.946z" fill="url(#k)" transform="translate(-3)"/><path stroke="#F3A629" fill="#FFCB00" d="M138.02 96.31l-12.006 6.263 2.293-13.266-9.713-9.395 13.423-1.935 6.003-12.07 6.003 12.07 13.423 1.935-9.713 9.395 2.293 13.266zM169.98 100.842l6.773-8.086-2.873-10.12 9.842 3.894 8.812-5.84-.69 10.492 8.32 6.512-10.27 2.59-3.67 9.864-5.657-8.89-10.587-.416zM105.484 100.842l-6.773-8.086 2.875-10.12-9.842 3.894-8.81-5.84.688 10.492-8.317 6.512 10.268 2.59 3.67 9.864 5.658-8.89 10.587-.416zM107.253 43.016l-4.197 5.094-6.608-.543 3.585 5.535-2.562 6.068 6.414-1.673 5.025 4.293.377-6.57 5.667-3.414-6.18-2.386-1.52-6.404zM182.48 46.953l-4.33.7 3.195 2.985-.666 4.304 3.845-2.093 3.92 1.956-.818-4.277 3.088-3.094-4.353-.55-2.01-3.87-1.872 3.936zM28.43 69.555l-3.11 1.95 3.45 1.264.907 3.537 2.28-2.867 3.67.24-2.043-3.037 1.363-3.392-3.542.99-2.83-2.332-.145 3.648zM252.39 53.043l-3.11 1.95 3.45 1.264.908 3.538 2.28-2.866 3.67.235-2.043-3.036 1.362-3.393-3.54.99-2.83-2.333-.146 3.648z"/></g></svg><svg width="76" height="62" viewBox="-1 -1 76 62" x="355" y="364"><title>Group</title><g fill="#2C3E50" fill-rule="evenodd"><rect x="28" width="18" height="12" rx="2"/><rect x="28" y="24" width="18" height="12" rx="2"/><rect y="24" width="18" height="12" rx="2"/><rect x="56" y="24" width="18" height="12" rx="2"/><rect x="56" y="48" width="18" height="12" rx="2"/><rect x="28" y="48" width="18" height="12" rx="2"/><rect y="48" width="18" height="12" rx="2"/><path d="M36 11.5h2v13h-2zM36 36h2v12h-2zM8 42h2v6H8zM64 36h2v12h-2zM46 29h10v2H46zM18 29h10v2H18z"/><path d="M8 41h28v2H8z"/></g></svg><svg width="72" height="72" viewBox="-1 -1 72 72" x="562"><title>ico images</title><g fill="none" fill-rule="evenodd"><rect stroke="#2C3E50" stroke-width="2" x="8" y="8" width="62" height="62" rx="3"/><path d="M12 44l10.733 6.932 18.8-13.81L55.46 48.797 66 44v22H12V44z" fill="#2C3E50"/><circle fill="#2C3E50" cx="19.5" cy="30.5" r="7.5"/><path d="M14.5 49.5l10.855-8.495 11.373 7.967L54.75 38.158l9.906 8.403" stroke="#2C3E50" stroke-width="2" stroke-linecap="square"/><path d="M64.768 12c.44.124.85.258 1.232.4v5.2c-2.293.857-5.698 1.4-9.5 1.4-4.734 0-8.853-.842-10.974-2.083-.49.054-1.002.083-1.526.083-3.866 0-7-1.567-7-3.5 0-.537.242-1.045.674-1.5h27.094z" fill="#2C3E50"/><path d="M65 5.973C64.595 4.83 63.502 4 62.217 4H6.95C5.334 4 4 5.32 4 6.95v55.267c0 1.276.824 2.377 1.973 2.783V6.962c0-.546.447-.99.99-.99H65z" fill="#2C3E50"/><path d="M61 1.973C60.595.83 59.502 0 58.217 0H2.95C1.334 0 0 1.32 0 2.95v55.267C0 59.493.824 60.594 1.973 61V2.962c0-.546.447-.99.99-.99H61z" fill="#2C3E50"/></g></svg><svg width="72" height="63" viewBox="-1 -1 72 63" y="494"><title>camera</title><path d="M65.993 10c2.21 0 4.003 1.784 4.003 4L70 56.973c0 2.21-1.8 4-4 4L4.006 61c-2.21.003-4.002-1.782-4.002-4L0 14.004C0 11.793 1.786 10 4.004 10h14.45l.86-2.536C20.954 3.327 25.847 0 30.257 0h9.486c4.445 0 9.31 3.34 10.943 7.464l.86 2.537h14.447zM35 54c10.493 0 19-8.507 19-19s-8.507-19-19-19c-10.494 0-19 8.507-19 19s8.506 19 19 19zm0-4c8.284 0 15-6.716 15-15 0-8.284-6.716-15-15-15-8.284 0-15 6.716-15 15 0 8.284 6.716 15 15 15zM55 7.5c0-.828.676-1.5 1.506-1.5h5.988C63.326 6 64 6.666 64 7.5V9h-9V7.5zM26.78 6.397C27.178 5.073 28.627 4 29.994 4h10.012c1.377 0 2.816 1.073 3.213 2.397L44 9H26l.78-2.603z" fill="#2C3E50" fill-rule="evenodd"/></svg><svg width="70" height="70" viewBox="-1 -1 70 70" x="562" y="72"><title>Imported Layers</title><path d="M68 34C68 17.953 56.88 4.51 41.926.94l-.06-.082L41.8.91C39.292.32 36.683 0 34 0c-2.7 0-5.32.324-7.84.918l-.076-.06c-.014.018-.04.05-.073.095C11.09 4.547 0 17.973 0 34c0 16.026 11.09 29.453 26.012 33.048l.073.095.078-.06C28.68 67.677 31.3 68 34 68c2.686 0 5.293-.32 7.8-.91l.066.055c.01-.016.036-.047.063-.082C56.88 63.49 68 50.047 68 34zM49.124 54.26c.893-2.133 1.735-4.475 2.437-6.986h9.09c-1.28 2.563-2.916 4.91-4.847 6.987h-6.678zm4.28-18.164h10.298c-.17 2.42-.606 4.76-1.32 6.986h-9.826c.436-2.237.736-4.573.85-6.986zm-5.137 6.986H35.95v-6.986h13.257c-.127 2.412-.458 4.754-.94 6.986zm15.435-11.178H53.405c-.113-2.412-.413-4.748-.85-6.987h9.827c.714 2.228 1.15 4.57 1.32 6.987zm-14.496 0H35.95v-6.987h12.32c.48 2.233.81 4.575.937 6.987zM35.95 20.724V13.74h8.575c.953 2.094 1.877 4.442 2.655 6.984H35.95zm0-11.177V4.29c1.197.08 2.375.215 3.528.43.715 1.044 1.78 2.69 2.95 4.828h-6.476zm-4.19 0h-6.23c1.168-2.13 2.227-3.775 2.94-4.82 1.078-.204 2.177-.338 3.29-.422v5.242zm0 4.192v6.984H20.78c.777-2.54 1.704-4.89 2.655-6.986h8.325zm0 11.176v6.987H18.745c.127-2.41.46-4.753.94-6.987H31.76zm-17.215 6.987H4.3c.17-2.418.605-4.76 1.32-6.987h9.776c-.436 2.24-.738 4.575-.85 6.987zM4.3 36.095h10.245c.113 2.413.415 4.75.85 6.986H5.62c-.715-2.224-1.15-4.566-1.32-6.985zm14.444 0H31.76v6.986H19.68c-.48-2.23-.81-4.572-.937-6.985zM31.76 47.273v6.987h-8.334c-.953-2.094-1.878-4.442-2.655-6.986h10.99zm0 11.18v5.24c-1.116-.082-2.215-.218-3.294-.42-.716-1.045-1.776-2.69-2.943-4.82h6.236zm4.19 0h6.47c-1.17 2.134-2.23 3.783-2.945 4.828-1.15.216-2.33.35-3.524.43V58.45zm0-4.193v-6.986h11.222c-.778 2.542-1.703 4.892-2.656 6.987H35.95zm24.7-33.535h-9.09c-.7-2.51-1.543-4.85-2.437-6.986h6.68c1.93 2.075 3.566 4.423 4.848 6.984zM51 9.547h-3.81c-.556-1.1-1.104-2.106-1.626-3.02 1.927.815 3.74 1.837 5.435 3.02zm-30.24 0H17c1.678-1.17 3.468-2.182 5.37-2.99-.52.905-1.06 1.904-1.61 2.99zm-8.562 4.192h6.63c-.895 2.133-1.738 4.475-2.44 6.984h-9.04c1.283-2.56 2.92-4.91 4.85-6.986zm-4.85 33.533h9.04c.702 2.51 1.545 4.853 2.44 6.987H12.2c-1.933-2.075-3.57-4.423-4.85-6.986zm9.654 11.18h3.758c.55 1.086 1.09 2.084 1.61 2.99-1.902-.81-3.692-1.823-5.368-2.99zm30.188 0H51c-1.697 1.18-3.51 2.205-5.435 3.02.523-.914 1.07-1.923 1.625-3.02z" fill="#2C3E50" fill-rule="evenodd"/></svg><svg width="21" height="21" viewBox="-1 -1 21 21" x="325" y="432"><title>delete</title><g fill="none"><ellipse fill="#E74C3C" cx="9.5" cy="9.5" rx="9.5" ry="9.5"/><path fill="#fff" d="M14 7l-1.893-1.89-6.998 7L7 14z"/><path fill="#fff" d="M7 5.108L5.11 7l7 7L14 12.106z"/></g></svg><svg width="22" height="16" viewBox="-1 -1 22 16" x="611" y="369"><title>ico-eye</title><path d="M10 0h.47c.78 0 1.555.163 2.323.488.768.326 1.504.726 2.207 1.2.703.476 1.354 1 1.953 1.568.6.57 1.12 1.1 1.563 1.588.442.488.787.91 1.035 1.262.25.353.373.543.373.57-.13.163-.482.597-1.055 1.302-.573.706-1.295 1.44-2.168 2.198-.873.76-1.882 1.445-3.028 2.056-1.146.61-2.37.916-3.672.916-.885 0-1.75-.156-2.598-.468-.846-.312-1.64-.713-2.382-1.2-.743-.49-1.42-1.012-2.032-1.568-.612-.556-1.14-1.08-1.582-1.567C.964 7.855.618 7.45.37 7.125.125 6.797 0 6.62 0 6.595l.117-.164C.3 6.187.684 5.71 1.27 5.007 1.855 4.3 2.59 3.58 3.477 2.848c.885-.733 1.88-1.39 2.988-1.975C7.572.293 8.75 0 10 0zm-.234 1.954c-.704.136-1.348.407-1.934.814-.586.407-.983 1.004-1.19 1.79h.624c.182-.542.5-.996.957-1.363.455-.366.97-.563 1.543-.59v-.65zm6.562 6.92c.47-.434.892-.84 1.27-1.22.377-.38.683-.72.918-1.02-.313-.352-.684-.752-1.114-1.2-.43-.448-.898-.895-1.406-1.343-.508-.446-1.042-.866-1.6-1.26-.56-.393-1.115-.712-1.662-.957.52.462.944 1.01 1.27 1.65.325.637.488 1.336.488 2.095 0 .652-.117 1.27-.35 1.853-.236.584-.56 1.086-.978 1.507-.417.42-.892.76-1.426 1.017-.534.258-1.113.387-1.738.387s-1.217-.13-1.777-.386c-.56-.258-1.042-.597-1.446-1.017-.403-.42-.73-.923-.976-1.506s-.37-1.2-.37-1.852c0-.787.163-1.506.49-2.157.324-.65.76-1.193 1.31-1.627l-.237.122c-.364.19-.814.448-1.347.773-.534.326-1.068.692-1.602 1.1-.534.406-1.035.847-1.504 1.322-.47.474-.834.956-1.095 1.444L1.797 7c1.328 1.55 2.676 2.757 4.043 3.625 1.367.87 2.754 1.303 4.16 1.303.91 0 1.9-.25 2.97-.753 1.066-.502 2.186-1.27 3.358-2.3z" fill="#3398DB" fill-rule="evenodd"/></svg><svg width="22" height="23" viewBox="-1 -1 22 23" x="454" y="387"><title>flask</title><path d="M19.525 18.046c.512.812.61 1.507.295 2.086-.315.58-.957.868-1.926.868H2.106c-.97 0-1.61-.29-1.926-.868-.315-.58-.217-1.274.295-2.086L7 7.203V1.996H5.99c-.237-.05-.443-.136-.616-.31-.174-.172-.26-.478-.26-.715 0-.235.086-.54.26-.713.173-.173.38-.26.617-.26h8.02c.237 0 .443.087.616.26.174.173.26.478.26.715 0 .238-.086.544-.26.717-.173.172-.38.26-.616.31H13v5.205l6.525 10.843zM5.11 14h9.736L11 7.71V1.996H9V7.71L5.11 14z" fill="#2C3E50" fill-rule="evenodd"/></svg><svg width="22" height="23" viewBox="-1 -1 22 23" x="142" y="432"><title>flask</title><path d="M19.525 18.046c.512.812.61 1.507.295 2.086-.315.58-.957.868-1.926.868H2.106c-.97 0-1.61-.29-1.926-.868-.315-.58-.217-1.274.295-2.086L7 7.203V1.996H5.99c-.237-.05-.443-.136-.616-.31-.174-.172-.26-.478-.26-.715 0-.235.086-.54.26-.713.173-.173.38-.26.617-.26h8.02c.237 0 .443.087.616.26.174.173.26.478.26.715 0 .238-.086.544-.26.717-.173.172-.38.26-.616.31H13v5.205l6.525 10.843zM5.11 14h9.736L11 7.71V1.996H9V7.71L5.11 14z" fill="#2980B9" fill-rule="evenodd"/></svg><svg width="26" height="26" viewBox="-1 -1 26 26" x="530" y="370"><title>hide-annotation</title><g fill="none" fill-rule="evenodd"><ellipse fill="#3398DB" cx="12" cy="12" rx="12" ry="12"/><path d="M12 19s5-6.24 5-9-2.24-5-5-5-5 2.24-5 5 5 9 5 9z" fill="#fff"/><circle fill="#3398DB" cx="12" cy="9" r="2"/><path stroke="#3398DB" fill="#fff" d="M4.405 15.004l14.11-8.147 1.197 2.073-14.11 8.147z"/></g></svg><svg width="26" height="26" viewBox="-1 -1 26 26" x="533" y="263"><title>hide-heatmap</title><g fill="none" fill-rule="evenodd"><ellipse fill="#3398DB" cx="12" cy="12" rx="12" ry="12"/><path d="M14.156 11.97l2.188-2.188L6.5 6.502l3.282 9.84 2.187-2.186 3.935 3.937 2.187-2.187-3.937-3.937z" fill="#fff"/><path stroke="#3398DB" fill="#fff" d="M4.405 15.004l14.11-8.147 1.197 2.073-14.11 8.147z"/></g></svg><svg width="17" height="23" viewBox="-1 -1 17 23" x="611" y="323"><title>Oval 52</title><path d="M7.5 20.83S15 11.642 15 7.5C15 3.358 11.642 0 7.5 0 3.358 0 0 3.358 0 7.5c0 4.142 7.5 13.33 7.5 13.33zM7.5 9C8.88 9 10 7.88 10 6.5S8.88 4 7.5 4 5 5.12 5 6.5 6.12 9 7.5 9z" fill="#3398DB" fill-rule="evenodd"/></svg><svg width="28" height="28" viewBox="-1 -1 28 28" x="606" y="175"><title>Group</title><g fill="#3398DB" fill-rule="evenodd"><path d="M2 26c-1.104 0-2-.902-2-2V5c0-1.104.895-2 1.994-2H16v2H2v19h19V10h2v14.006c0 1.1-.902 1.994-2 1.994H2zM20 0h3v9h-3z"/><path d="M26 3v3h-9V3zM5.5 16C6.88 16 8 14.88 8 13.5S6.88 11 5.5 11 3 12.12 3 13.5 4.12 16 5.5 16zM20 19v4H3v-2.4l2.625-2.4 1.75 1.6 5.25-4.8L20 19z"/></g></svg><svg width="40" height="33" viewBox="-1 -1 40 33" x="493" y="263"><title>cloud upload</title><path d="M25.786 26.98H30.4c2.098 0 3.89-.714 5.373-2.142C37.258 23.41 38 21.688 38 19.67c0-1.713-.554-3.232-1.662-4.558-1.11-1.327-2.514-2.18-4.216-2.56.54-.8.81-1.676.81-2.628 0-1.345-.493-2.493-1.483-3.445-.99-.954-2.186-1.43-3.584-1.43-1.267 0-2.362.394-3.286 1.18-.777-1.8-2.014-3.26-3.71-4.377C19.175.736 17.285.178 15.2.178c-2.797 0-5.185.95-7.165 2.854-1.98 1.903-2.968 4.2-2.968 6.89 0 .19.013.464.04.82-1.53.684-2.765 1.722-3.702 3.11C.468 15.242 0 16.775 0 18.45c0 2.348.868 4.356 2.603 6.025 1.735 1.668 3.823 2.503 6.264 2.503h4.704V24.3H9.5L19.68 9.56 29.856 24.3h-4.07v2.68zm-2.715-4.02V31h-6.783v-8.04H13.57l6.11-9.38 6.106 9.38H23.07z" fill="#fff" fill-rule="evenodd"/></svg><svg width="30" height="25" viewBox="-1 -1 30 25" x="530" y="296"><title>cloud upload</title><path d="M19 20h3.4c1.546 0 2.866-.533 3.96-1.598 1.093-1.065 1.64-2.35 1.64-3.857 0-1.278-.408-2.412-1.225-3.402-.817-.99-1.852-1.626-3.106-1.91.396-.597.596-1.25.596-1.96 0-1.004-.365-1.86-1.094-2.57-.73-.712-1.61-1.067-2.64-1.067-.933 0-1.74.294-2.42.88-.574-1.344-1.486-2.433-2.735-3.266C14.127.417 12.735 0 11.2 0 9.14 0 7.38.71 5.92 2.13 4.46 3.55 3.73 5.265 3.73 7.273c0 .142.01.345.03.61-1.128.512-2.037 1.286-2.728 2.323C.344 11.243 0 12.386 0 13.636c0 1.752.64 3.25 1.917 4.496C3.195 19.377 4.734 20 6.532 20H10v-2H7l7.5-11L22 18h-3v2zm-2-3v6h-5v-6h-2l4.5-7 4.5 7h-2z" fill="#3398DB" fill-rule="evenodd"/></svg><svg width="69" height="84" viewBox="-1 -1 69 84" x="493"><title>Group</title><g stroke-linecap="round" stroke="#3398DB" stroke-width="2" fill="none" fill-rule="evenodd"><path d="M8.858 49.845c0-14.162 11.48-25.643 25.642-25.643 14.16 0 25.64 11.48 25.64 25.643 0 14.162-11.48 25.642-25.64 25.642-14.162 0-25.642-11.48-25.642-25.642zm24.7-1.347c.625-.624 1.635-.624 2.26 0 .623.622.623 1.635 0 2.258-.625.625-1.635.625-2.26 0-.622-.622-.622-1.635 0-2.257zM3.5 49.845c0-17.12 13.877-31 31-31 17.123 0 30.998 13.88 30.998 31 0 17.12-13.875 31-30.998 31s-31-13.88-31-31z" id="bfPath" stroke-linejoin="round"/><path d="M34.5 49.845l-9-10M34.5 49.845l16-15"/><g stroke-linejoin="round"><path d="M41.304 1H5.694C3.104 1 1 3.032 1 5.538v20.05c0 2.506 2.103 4.537 4.695 4.537H29.33l4.474 6.11c.37.356.965.356 1.334 0l4.474-6.11h1.692c2.593 0 4.696-2.03 4.696-4.538V5.537C46 3.033 43.897 1 41.304 1z" fill="#fff"/><path d="M17.728 16.22h-.39c-.97 0-1.848-.38-2.635-1.14-.79-.76-1.18-1.66-1.18-2.697 0-1.072.39-1.967 1.18-2.686.787-.72 1.754-1.08 2.897-1.08 1.294 0 2.356.503 3.177 1.506.82 1.005 1.232 2.4 1.232 4.192 0 1.64-.36 3.182-1.08 4.63-.716 1.445-1.6 2.597-2.647 3.45-1.046.852-1.993 1.28-2.843 1.28-.535 0-.97-.163-1.308-.49-.338-.325-.506-.724-.506-1.192 0-.753.354-1.304 1.066-1.656.916-.518 1.633-1.088 2.153-1.706.518-.616.812-1.42.883-2.41zm11.422 0h-.313c-.986 0-1.883-.375-2.685-1.128-.808-.753-1.208-1.656-1.208-2.71 0-1.053.396-1.945 1.194-2.672.797-.73 1.766-1.092 2.906-1.092 1.316 0 2.38.492 3.195 1.48.81.987 1.216 2.393 1.216 4.217 0 1.69-.358 3.248-1.076 4.68-.716 1.428-1.6 2.567-2.647 3.412-1.046.845-2.004 1.268-2.867 1.268-.553 0-.997-.16-1.326-.477-.328-.318-.493-.72-.493-1.206 0-.735.355-1.287 1.065-1.655.984-.552 1.72-1.125 2.207-1.72.483-.594.757-1.392.83-2.396z"/></g></g></svg><svg width="21" height="21" viewBox="-1 -1 21 21" x="346" y="432"><title>Group</title><g fill="none" fill-rule="evenodd"><rect fill="#3398DB" width="19" height="19" rx="1"/><path fill="#fff" d="M2 15h15v2H2zM2 11h15v2H2zM2 7h15v2H2zM2 3h6v2H2zM9 3h2v2H9z"/></g></svg><svg width="25" height="17" viewBox="-1 -1 25 17" x="493" y="407"><title>eye</title><path d="M15.62 2.855C18.803 4.172 21 6.635 21 7.5c0 1.204-4.253 5.5-9.5 5.5S2 8.695 2 7.5c0-.86 2.196-3.323 5.38-4.642C6.52 3.828 6 5.103 6 6.5 6 9.538 8.462 12 11.5 12S17 9.538 17 6.5c0-1.398-.522-2.674-1.38-3.645zM23 7.5C23 5.858 17.85 0 11.5 0S0 5.87 0 7.5 5.15 15 11.5 15 23 9.142 23 7.5zM12.993 2.254C12.526 2.09 12.023 2 11.5 2 9.015 2 7 4.015 7 6.5c0 .523.09 1.026.254 1.493.724-2.805 2.934-5.015 5.74-5.74z" fill="#3398DB" fill-rule="evenodd"/></svg><svg width="37" height="37" viewBox="-1 -1 37 37" x="493" y="296"><title>ico-face-normal</title><g transform="translate(0 -1)" fill="none" fill-rule="evenodd"><rect stroke="#95A5A6" fill="#fff" y=".997" width="35" height="35" rx="3"/><circle stroke="#95A5A6" fill="#fff" cx="17.5" cy="18.497" r="10.5"/><ellipse fill="#95A5A6" cx="14.5" cy="15.997" rx="1.5" ry="3"/><ellipse fill="#95A5A6" cx="20.5" cy="15.997" rx="1.5" ry="3"/><ellipse fill="#95A5A6" cx="17.5" cy="22.497" rx="5.5" ry=".5"/></g></svg><svg width="37" height="37" viewBox="-1 -1 37 37" x="493" y="370"><title>ico-face-sad</title><g transform="translate(0 -1)" fill="none" fill-rule="evenodd"><rect stroke="#E74C3C" fill="#fff" y=".997" width="35" height="35" rx="3"/><circle stroke="#E74C3C" fill="#fff" cx="17.5" cy="18.497" r="10.5"/><ellipse fill="#E74C3C" cx="14.5" cy="15.997" rx="1.5" ry="3"/><ellipse fill="#E74C3C" cx="20.5" cy="15.997" rx="1.5" ry="3"/><path d="M22.952 24.997c.032-.192.048-.388.048-.588 0-2.438-2.462-4.414-5.5-4.414S12 21.973 12 24.41c0 .2.016.395.048.587.36-2.158 2.663-3.823 5.452-3.823 2.79 0 5.093 1.665 5.452 3.823z" fill="#E74C3C"/></g></svg><svg width="37" height="37" viewBox="-1 -1 37 37" x="493" y="333"><title>ico-face-smile</title><g transform="translate(0 -1)" fill="none" fill-rule="evenodd"><rect stroke="#27AE60" fill="#fff" y=".997" width="35" height="35" rx="3"/><circle stroke="#27AE60" fill="#fff" cx="17.5" cy="18.497" r="10.5"/><ellipse fill="#27AE60" cx="14.5" cy="15.997" rx="1.5" ry="3"/><ellipse fill="#27AE60" cx="20.5" cy="15.997" rx="1.5" ry="3"/><path d="M23.943 18.997c.038.23.057.466.057.706 0 2.923-2.91 5.294-6.5 5.294s-6.5-2.37-6.5-5.294c0-.24.02-.475.057-.706.424 2.59 3.147 4.588 6.443 4.588s6.02-1.998 6.443-4.588z" fill="#27AE60"/></g></svg><svg width="62" height="50" viewBox="-1 -1 62 50" x="562" y="418"><title>Imported Layers</title><path d="M49.973 11.625s8.94-.278 8.512 8.79c-.146 3.11-6.51 2.56-8.957.946.667 13.91-10.682 15.414-10.682 15.414m.11-13.965c5.676 1.89 5.008 10.18-.11 13.964 5.174 1 7.844 3.95 9.06 7.623 1.086 3.284-4.01 3.515-5.333.388-3.147-7.438-10.626-3.672-11.35-7.01-.35-1.622 2.305-2.615 2.337-4.117.056-2.615-7.51-.668-9.358-5.063-3.494 1.947-6.108.223-6.108-2.337 0-3.115 2.948-4.117 6.23-1.313.5-7.232 6.223-12.958 18.463-8.118 3.007 1.19 2.457-3.31 5.517-4.644-2.782-2.003-5.786-3.06-14.52-2.615-4.042.206-4.745-3.334.022-4.606M55.094 18c0 .552-.448 1-1 1-.553 0-1-.448-1-1 0-.553.447-1 1-1 .552 0 1 .447 1 1zm-6.79-5.818c-2.092-2.716-4.776-4.697-13.273-6.77-4.052-.99-3.563-4.783 1.82-4.383 8.717.646 13.124 10.594 13.124 10.594l-1.67.557zM12.5 27H.5h12zm2 4h-12 12zm7 4h-12 12z" stroke="#39CE78" stroke-width="2" fill="none" fill-rule="evenodd"/></svg><svg width="74" height="62" viewBox="-1 -1 74 62" y="432"><title>MONITOR</title><g stroke-linecap="round" stroke-width="1.5" stroke="#3398DB" fill="none" fill-rule="evenodd"><path d="M70.502 45.054c0 2.238-1.858 4.05-4.148 4.05 0 0-17.074 2.352-31.463 2.352-11.017 0-29.74-2.35-29.74-2.35C2.857 49.104 1 47.29 1 45.054V5.028C1 2.788 2.857.974 5.15.974h61.204c2.29 0 4.148 1.814 4.148 4.054v40.026zM6.874 5.928h57.608V43.99H6.874V5.928zM31.116 51.41c-.212.51-.435.973-.658 1.606-4.927.464-8.384 1.558-8.384 2.832 0 1.698 6.14 3.075 13.717 3.075 7.576 0 13.715-1.378 13.715-3.076 0-1.274-3.453-2.366-8.378-2.832-.24-.676-.392-1.135-.61-1.663l-9.4.056zm.296-25.37c0 1.79-1.487 3.242-3.32 3.242-1.835 0-3.323-1.453-3.323-3.242 0-1.793 1.486-3.246 3.32-3.246 1.834 0 3.32 1.453 3.32 3.246zm22.716-8.312c-1.834 0-3.32-1.454-3.32-3.244 0-1.79 1.486-3.245 3.32-3.245 1.833 0 3.323 1.453 3.323 3.244 0 1.79-1.49 3.244-3.32 3.244z" stroke-linejoin="round"/><path d="M13.41 43.936s2.49-4.53 4.966-7.633c.835-1.048 4.964-4.82 4.964-4.82M24.056 35.577c-.104-.482-.716-4.094-.716-4.094M18.628 31.484h4.712M31.186 25.295s3.948-3.34 7.368-5.35c1.157-.68 6.365-2.725 6.365-2.725M44.122 21.298c.074-.486.796-4.076.796-4.076M40.517 15.532l4.402 1.688"/></g></svg><svg width="23" height="23" viewBox="-1 -1 23 23" x="426" y="322"><title>ico-neutral-dark-on</title><g fill="none" fill-rule="evenodd"><circle fill="#2C3E50" cx="10.5" cy="10.5" r="10.5"/><ellipse fill="#fff" cx="7.5" cy="8" rx="1.5" ry="3"/><ellipse fill="#fff" cx="13.5" cy="8" rx="1.5" ry="3"/><ellipse fill="#fff" cx="10.5" cy="14.5" rx="5.5" ry=".5"/></g></svg><svg width="23" height="23" viewBox="-1 -1 23 23" x="449" y="322"><title>ico-neutral-dark-on</title><g fill="none" fill-rule="evenodd"><circle fill="#fff" cx="10.5" cy="10.5" r="10.5"/><ellipse fill="#2C3E50" cx="7.5" cy="8" rx="1.5" ry="3"/><ellipse fill="#2C3E50" cx="13.5" cy="8" rx="1.5" ry="3"/><ellipse fill="#2C3E50" cx="10.5" cy="14.5" rx="5.5" ry=".5"/></g></svg><svg width="23" height="23" viewBox="-1 -1 23 23" x="431" y="364"><title>ico-neutral-light-on</title><g fill="none" fill-rule="evenodd"><circle fill="#fff" cx="10.5" cy="10.5" r="10.5"/><ellipse fill="#95A5A6" cx="7.5" cy="8" rx="1.5" ry="3"/><ellipse fill="#95A5A6" cx="13.5" cy="8" rx="1.5" ry="3"/><ellipse fill="#95A5A6" cx="10.5" cy="14.5" rx="5.5" ry=".5"/></g></svg><svg width="23" height="23" viewBox="-1 -1 23 23" x="454" y="364"><title>ico-neutral-light-on</title><g fill="none" fill-rule="evenodd"><circle fill="#95A5A6" cx="10.5" cy="10.5" r="10.5"/><ellipse fill="#fff" cx="7.5" cy="8" rx="1.5" ry="3"/><ellipse fill="#fff" cx="13.5" cy="8" rx="1.5" ry="3"/><ellipse fill="#fff" cx="10.5" cy="14.5" rx="5.5" ry=".5"/></g></svg><svg width="23" height="23" viewBox="-1 -1 23 23" x="431" y="387"><title>ico-neutral-off</title><g fill="none" fill-rule="evenodd"><circle stroke="#95A5A6" cx="10.5" cy="10.5" r="10"/><ellipse fill="#95A5A6" cx="7.5" cy="8" rx="1.5" ry="3"/><ellipse fill="#95A5A6" cx="13.5" cy="8" rx="1.5" ry="3"/><ellipse fill="#95A5A6" cx="10.5" cy="14.5" rx="5.5" ry=".5"/></g></svg><svg width="49" height="63" viewBox="-1 -1 49 63" x="562" y="323"><title>Group</title><g fill="none" fill-rule="evenodd"><path d="M42.005 59.38c1.78 0 3.223-1.44 3.223-3.22l.024-39.857L29.72 1.38H4.973c-1.78 0-3.223 1.444-3.223 3.225V56.16c0 1.78 1.445 3.22 3.224 3.22h37.03zm3.247-43.077h-12.31c-1.78 0-3.223-1.443-3.223-3.222V1.38l15.53 14.924zM7.148 25.26h32.816H7.148zm0 6.346h32.816H7.148zm0 6.344h17.708H7.148z" stroke="#3398DB" stroke-width="2" stroke-linecap="round" stroke-linejoin="round"/><path d="M16 14.445c0 .645-.105 1.242-.316 1.79-.21.55-.512 1.028-.904 1.433l-1.558 1.01c-.264.093-.54.166-.823.217-.286.05-.58.077-.884.077-1.318 0-2.388-.428-3.21-1.282-.824-.855-1.236-1.936-1.236-3.245v-1.92c0-1.302.41-2.383 1.232-3.24C9.122 8.428 10.192 8 11.51 8c1.327 0 2.408.428 3.24 1.285.834.857 1.25 1.938 1.25 3.24v1.92zm-2.146-1.933c0-.83-.208-1.512-.625-2.044-.418-.532-.99-.798-1.72-.798s-1.297.265-1.7.795c-.4.53-.6 1.212-.6 2.047v1.933c0 .845.202 1.534.61 2.066.405.534.97.8 1.696.8.735 0 1.308-.266 1.72-.8.41-.53.617-1.22.617-2.064v-1.933z" fill="#3398DB"/><path fill="#3398DB" d="M10.71 14.82l1.766-.938 2.814 5.298-1.766.938zM18 13h2v2h-2zM18 17h2v2h-2z"/></g></svg><svg width="17" height="12" viewBox="-1 -1 17 12" x="617" y="491"><title>1:1</title><path d="M3.818 10H1.964V2.396H.084V1.088l3.734-.33V10zm5.408 0H7.373V8.375h1.853V10zm0-5.56H7.373V2.814h1.853V4.44zM14.97 10h-1.853V2.396h-1.88V1.088l3.734-.33V10z" fill="#2C3E50" fill-rule="evenodd"/></svg><svg width="17" height="12" viewBox="-1 -1 17 12" x="529" y="198"><title>1:1</title><path d="M3.818 10H1.964V2.396H.084V1.088l3.734-.33V10zm5.408 0H7.373V8.375h1.853V10zm0-5.56H7.373V2.814h1.853V4.44zM14.97 10h-1.853V2.396h-1.88V1.088l3.734-.33V10z" fill="#fff" fill-rule="evenodd"/></svg><svg width="18" height="18" viewBox="-1 -1 18 18" x="367" y="432"><title>fit off</title><g fill="none" fill-rule="evenodd"><path d="M16 1.997C16 .894 15.104 0 14.003 0H7l1 2h6v6l2 1V1.997zM0 14.003C0 15.106.896 16 1.997 16H9l-1-2H2V8L0 7v7.003z" fill="#2C3E50"/><path d="M2.5 2.5l3.04 3.04" stroke="#2C3E50" stroke-width="2" stroke-linecap="square"/><path d="M7 2v5H2l5-5z" fill="#2C3E50"/><path d="M10.5 10.5l3.04 3.04" stroke="#2C3E50" stroke-width="2" stroke-linecap="square"/><path d="M9 14V9h5l-5 5z" fill="#2C3E50"/></g></svg><svg width="18" height="18" viewBox="-1 -1 18 18" x="74" y="455"><title>fit white</title><g fill="none" fill-rule="evenodd"><path d="M16 1.997C16 .894 15.104 0 14.003 0H7l1 2h6v6l2 1V1.997zM0 14.003C0 15.106.896 16 1.997 16H9l-1-2H2V8L0 7v7.003z" fill="#fff"/><path d="M2.5 2.5l3.04 3.04" stroke="#fff" stroke-width="2" stroke-linecap="square"/><path d="M7 2v5H2l5-5z" fill="#fff"/><path d="M10.5 10.5l3.04 3.04" stroke="#fff" stroke-width="2" stroke-linecap="square"/><path d="M9 14V9h5l-5 5z" fill="#fff"/></g></svg><svg width="23" height="23" viewBox="-1 -1 23 23" x="164" y="432"><title>ico-sad-off</title><g fill="none" fill-rule="evenodd"><circle stroke="#95A5A6" cx="10.5" cy="10.5" r="10"/><ellipse fill="#95A5A6" cx="7.5" cy="8" rx="1.5" ry="3"/><ellipse fill="#95A5A6" cx="13.5" cy="8" rx="1.5" ry="3"/><path d="M15.952 17c.032-.192.048-.39.048-.588C16 13.975 13.538 12 10.5 12S5 13.975 5 16.412c0 .2.016.396.048.588.36-2.158 2.663-3.824 5.452-3.824 2.79 0 5.093 1.666 5.452 3.824z" fill="#95A5A6"/></g></svg><svg width="23" height="23" viewBox="-1 -1 23 23" x="187" y="432"><title>ico-sad-on</title><g fill="none" fill-rule="evenodd"><circle fill="#fff" cx="10.5" cy="10.5" r="10.5"/><ellipse fill="#E74C3C" cx="7.5" cy="8" rx="1.5" ry="3"/><ellipse fill="#E74C3C" cx="13.5" cy="8" rx="1.5" ry="3"/><path d="M15.952 17c.032-.192.048-.39.048-.588C16 13.975 13.538 12 10.5 12S5 13.975 5 16.412c0 .2.016.396.048.588.36-2.158 2.663-3.824 5.452-3.824 2.79 0 5.093 1.666 5.452 3.824z" fill="#E74C3C"/></g></svg><svg width="23" height="23" viewBox="-1 -1 23 23" x="210" y="432"><title>ico-sad-on</title><g fill="none" fill-rule="evenodd"><circle fill="#E74C3C" cx="10.5" cy="10.5" r="10.5"/><ellipse fill="#fff" cx="7.5" cy="8" rx="1.5" ry="3"/><ellipse fill="#fff" cx="13.5" cy="8" rx="1.5" ry="3"/><path d="M15.952 17c.032-.192.048-.39.048-.588C16 13.975 13.538 12 10.5 12S5 13.975 5 16.412c0 .2.016.396.048.588.36-2.158 2.663-3.824 5.452-3.824 2.79 0 5.093 1.666 5.452 3.824z" fill="#fff"/></g></svg><svg width="23" height="23" viewBox="-1 -1 23 23" x="233" y="432"><title>ico-smile-off</title><g fill="none" fill-rule="evenodd"><circle stroke="#95A5A6" cx="10.5" cy="10.5" r="10"/><ellipse fill="#95A5A6" cx="7.5" cy="8" rx="1.5" ry="3"/><ellipse fill="#95A5A6" cx="13.5" cy="8" rx="1.5" ry="3"/><path d="M16.943 11c.038.23.057.467.057.706C17 14.63 14.09 17 10.5 17S4 14.63 4 11.706c0-.24.02-.475.057-.706.424 2.59 3.147 4.588 6.443 4.588S16.52 13.59 16.943 11z" fill="#95A5A6"/></g></svg><svg width="23" height="23" viewBox="-1 -1 23 23" x="256" y="432"><title>ico-smile-on</title><g fill="none" fill-rule="evenodd"><circle fill="#fff" cx="10.5" cy="10.5" r="10.5"/><ellipse fill="#27AE60" cx="7.5" cy="8" rx="1.5" ry="3"/><ellipse fill="#27AE60" cx="13.5" cy="8" rx="1.5" ry="3"/><path d="M16.943 11c.038.23.057.467.057.706C17 14.63 14.09 17 10.5 17S4 14.63 4 11.706c0-.24.02-.475.057-.706.424 2.59 3.147 4.588 6.443 4.588S16.52 13.59 16.943 11z" fill="#27AE60"/></g></svg><svg width="23" height="23" viewBox="-1 -1 23 23" x="279" y="432"><title>ico-smile-on</title><g fill="none" fill-rule="evenodd"><circle fill="#27AE60" cx="10.5" cy="10.5" r="10.5"/><ellipse fill="#fff" cx="7.5" cy="8" rx="1.5" ry="3"/><ellipse fill="#fff" cx="13.5" cy="8" rx="1.5" ry="3"/><path d="M16.943 11c.038.23.057.467.057.706C17 14.63 14.09 17 10.5 17S4 14.63 4 11.706c0-.24.02-.475.057-.706.424 2.59 3.147 4.588 6.443 4.588S16.52 13.59 16.943 11z" fill="#fff"/></g></svg><svg width="22" height="21" viewBox="-1 -1 22 21" x="450" y="300"><title>Path 2</title><path d="M1.825 8.364l4.91 4.33S12.805 4.778 19.2.256L20 1.95C13.066 8.894 7.704 18.742 7.704 18.742L0 10.413l1.825-2.05z" fill="#3398DB" fill-rule="evenodd"/></svg><svg width="55" height="38" viewBox="-1 -1 55 38" x="562" y="468"><title>Imported Layers</title><path d="M1.605 28.48c-.772-.826 2.918-1.377 4.57-3.69 14.153-.337 27.15-7.49 30.73-12.937C39.515 7.878 39.437 1 44.118 1c4.68 0 7.875 4.546 7.27 8.81-.502 3.533-2.436 4.88-4.42 4.91-1.98.027-2.96-2.503-4.362-1.257-10.823 9.62-2.013 18.87-3.61 20.083-1.596 1.21-6.057 1.046-7.38.386-1.32-.66-.054-3.085-1.816-4.406-3.24 2.753-11.95 2.258-14.87.55-.156 2.65-.952 3.73-3.603 4.584-1.707.55-4.16.504-5.256-.67-.76-.816 3.135-3.583 2.64-4.96-.496-1.376-6.334.275-7.104-.55zm4.57-3.69s-1.707-2.313.827-3.8C3.037 7.443 22.642-1.754 31.947 11.023c2.7-.23 3.03 3.234 3.03 3.234m12.608-6.24c0 .474-.386.86-.862.86s-.86-.386-.86-.86c0-.477.384-.863.86-.863s.862.386.862.862zM7.84 12.067c.207.277.757 2.543 2.08 2.787 1.32.244 3.69-1.304 4.405-2.788.715-1.484-2.6-4.37-2.742-4.262m6.58-2.718s-.865 4.725 1.173 5.166c2.037.44 4.13-.44 5.01-1.432.882-.99.555-3.148.555-3.148M10.957 17.524c-.804.568-.385 3.855 1.157 3.965 1.542.11 5.287-1.103 5.452-1.985.165-.88-.33-3.69-1.102-3.854-.77-.164-4.57 1.21-5.507 1.873zM20.4 13.68c-.714.68.18 3.87 1.72 3.754 1.543-.115 5.07-1.86 5.106-2.756.036-.895-.864-3.6-1.65-3.653-.788-.05-4.347 1.865-5.177 2.655z" stroke="#E75141" stroke-width="2" fill="none" fill-rule="evenodd"/></svg><svg width="18" height="20" viewBox="-1 -1 18 20" x="615" y="506"><title>ico-white-trash</title><path d="M12 3h3c.552 0 1 .444 1 1 0 .552-.445 1-1 1h-1v10.994C14 17.102 13.098 18 11.99 18H4.01C2.9 18 2 17.103 2 15.994V5H1c-.552 0-1-.444-1-1 0-.552.445-1 1-1h3v-.5C4 1.12 5.112 0 6.51 0h2.98C10.877 0 12 1.11 12 2.5V3zM9.97 3H6.03c.11-.575.502-1 .98-1h1.98c.472 0 .868.422.98 1zM6 6v10H5c-.552 0-1-.456-1-.995V6h2zm6 0v9.005c0 .55-.444.995-1 .995h-1V6h2zM7 6h2v10H7V6z" fill="#fff" fill-rule="evenodd"/></svg><svg width="15" height="15" viewBox="-1 -1 15 15" x="545" y="225"><title>Rectangle 68 Copy 2</title><path d="M10 3h2c.552 0 1 .444 1 1 0 .552-.445 1-1 1h-1v5.994C11 12.102 10.098 13 8.99 13H4.01C2.9 13 2 12.103 2 10.994V5H1c-.552 0-1-.444-1-1 0-.552.445-1 1-1h2v-.5C3 1.12 4.112 0 5.51 0h1.98C8.877 0 10 1.11 10 2.5V3zM7.97 3H5.03c.11-.575.502-1 .98-1h.98c.472 0 .868.422.98 1zM5 5v6h-.5c-.276 0-.5-.228-.5-.49V5h1zm4 0v5.51c0 .27-.232.49-.5.49H8V5h1zM6 5h1v6H6V5z" fill="#fff" fill-rule="evenodd"/></svg><svg width="23" height="23" viewBox="-1 -1 23 23" x="302" y="432"><title>Group</title><g fill="none" fill-rule="evenodd"><rect fill="#4FB9FF" width="21" height="21" rx="2"/><path d="M8.86 12.988C8.936 12.442 9.442 12 10 12h1c.553 0 1.063.438 1.14.988l.72 5.024c.077.546-.304.988-.86.988H9c-.552 0-.937-.438-.86-.988l.72-5.024zM10 15h1l.684 2.05c.174.525-.127.95-.683.95h-1c-.552 0-.86-.417-.683-.95L10 15zM11 1v1c.552 0 1 .224 1 .5s-.448.5-1 .5v1c.552 0 1 .224 1 .5s-.448.5-1 .5v1c.552 0 1 .224 1 .5s-.448.5-1 .5v1c.552 0 1 .224 1 .5s-.448.5-1 .5v2h-1v-1c-.552 0-1-.224-1-.5s.448-.5 1-.5V8c-.552 0-1-.224-1-.5s.448-.5 1-.5V6c-.552 0-1-.224-1-.5s.448-.5 1-.5V4c-.552 0-1-.224-1-.5s.448-.5 1-.5V2c-.552 0-1-.224-1-.5s.448-.5 1-.5V0h1c.552 0 1 .224 1 .5s-.448.5-1 .5z" fill="#2C3E50"/></g></svg><svg width="62" height="32" viewBox="-1 -1 62 32" x="562" y="386"><title>sap white</title><defs><linearGradient x1="50%" y1="0%" x2="50%" y2="100%" id="l"><stop stop-color="#00AEEF" offset="0%"/><stop stop-color="#0066B2" offset="100%"/></linearGradient></defs><g fill="none" fill-rule="evenodd"><path d="M36.765 18.33h-1.92v5.705H26.05l-.873-2.73c-.93.306-1.984.477-3.097.477-1.144 0-2.222-.182-3.17-.5l-.906 2.753H12.61l.595-1.593c-.07.063-.142.128-.216.187-1.348 1.08-3.03 1.676-5.115 1.713l-.308.002c-2.392 0-4.74-.66-6.723-1.788l1.835-3.643c1.985 1.174 3.232 1.437 4.917 1.403.872-.017 1.502-.176 1.914-.6.25-.262.38-.582.39-.927.016-.946-1.33-1.39-2.978-1.9-1.337-.415-2.853-.98-4.037-1.847C1.48 14.01.813 12.72.845 10.895c.02-1.326.513-2.52 1.42-3.464 1.307-1.346 3.414-2.167 5.94-2.167h.016c2.168.004 4.813.617 6.73 1.592l-2.07 3.594C10.79 9.435 9.73 9.34 8.54 9.275c-1.776-.096-2.677.54-2.688 1.226-.016.835 1.678 1.592 3.28 2.105 2.425.77 5.505 1.8 5.974 4.776l4.43-11.806h5.144l5.19 14.12V5.577h5.938c5.676 0 8.343 2.023 8.343 6.433 0 3.96-2.748 6.32-7.386 6.32zM0 30h30.49L60 0H0v30z" fill="url(#l)"/><path d="M36.155 9.462h-1.31v4.787h1.31c1.745 0 3.134-.58 3.134-2.423 0-1.787-1.39-2.366-3.136-2.366" fill="#0093D8"/><path d="M22.06 11.39l-1.883 5.937c.56.213 1.212.336 1.903.336.676 0 1.31-.118 1.864-.32L22.1 11.39h-.04" fill="#068FD4"/></g></svg><svg width="23" height="33" viewBox="-1 -1 23 33" x="606" y="142"><title></title><path d="M15.094 9.042c0 .175-.065.326-.195.454s-.286.192-.463.192c-.178 0-.332-.064-.462-.192s-.195-.28-.195-.454c0-.62-.368-1.097-1.106-1.433-.738-.34-1.463-.507-2.174-.507-.178 0-.332-.064-.46-.192-.13-.126-.196-.28-.196-.453 0-.175.065-.326.195-.454.127-.128.28-.192.46-.192.683 0 1.363.11 2.04.324.676.216 1.27.58 1.784 1.09.512.512.77 1.117.77 1.817zm3.28 0c0-.97-.235-1.87-.707-2.705-.47-.834-1.086-1.517-1.845-2.048-.76-.534-1.6-.95-2.523-1.254-.925-.302-1.858-.454-2.8-.454-.944 0-1.877.152-2.8.454-.923.303-1.764.72-2.523 1.252-.76.53-1.374 1.213-1.845 2.047-.472.834-.708 1.736-.708 2.705 0 1.36.465 2.57 1.395 3.632.135.148.344.37.624.666.28.297.49.52.626.667 1.75 2.058 2.714 4.063 2.892 6.014h4.676c.178-1.95 1.14-3.956 2.89-6.014l.627-.667c.28-.297.49-.52.625-.667.93-1.062 1.395-2.273 1.395-3.632zm.514 5.41c-.616.658-1.125 1.243-1.528 1.754-.403.512-.81 1.154-1.22 1.928-.41.773-.76 1.26-.698 2.17.064.91.964.928.964 1.654 0 .498-.17.93-.512 1.292.34.363.512.794.512 1.292 0 .7-.307 1.244-.923 1.634.178.31.267.626.267.95 0 .618-.215 1.096-.646 1.432-.43.336-.96.505-1.59.505-.273.592-.683 1.062-1.23 1.412-.547.35-1.14.525-1.784.525-.643 0-1.237-.175-1.784-.525-.547-.35-.957-.82-1.23-1.413-.63 0-1.16-.168-1.59-.504-.43-.336-.646-.814-.646-1.433 0-.323.09-.64.267-.95-.616-.39-.923-.934-.923-1.633 0-.498.17-.93.512-1.292-.34-.363-.512-.794-.512-1.292 0-.726.32-1.278.964-1.655-.055-.672-.287-1.396-.698-2.17-.41-.773-.817-1.415-1.22-1.927-.403-.51-.912-1.096-1.528-1.755C.704 12.93 0 11.13 0 9.044 0 7.71.304 6.47.913 5.32c.608-1.15 1.408-2.107 2.4-2.867.99-.76 2.11-1.36 3.362-1.796C7.925.22 9.2 0 10.5 0c1.3 0 2.574.22 3.825.656 1.25.437 2.372 1.036 3.363 1.796.99.76 1.79 1.716 2.4 2.866.608 1.15.912 2.392.912 3.724 0 2.085-.704 3.888-2.112 5.41z" fill="#2C3E50" fill-rule="evenodd"/></svg><svg width="23" height="23" viewBox="-1 -1 23 23" x="119" y="432"><title>links</title><path d="M9.44 8.84c-.61-1.725-.172-3.79 1.284-5.247l2.042-2.042c1.974-1.972 5.07-2.076 6.915-.23 1.848 1.845 1.744 4.94-.23 6.915l-2.042 2.042c-1.463 1.463-3.543 1.9-5.273 1.274l-.594.596c.62 1.728.183 3.802-1.277 5.262L8.22 19.45c-1.973 1.973-5.07 2.077-6.914.23-1.846-1.844-1.742-4.94.232-6.914l2.042-2.042c1.457-1.46 3.53-1.896 5.256-1.28l.604-.604zm2.78-2.773c.104-.203.242-.393.413-.565l2.043-2.042c.845-.845 2.172-.89 2.963-.1.79.792.744 2.12-.1 2.964l-2.043 2.043c-.19.188-.4.337-.626.445.557-.587.55-1.51-.03-2.09l-.58-.582c-.56-.56-1.45-.588-2.042-.073zm-3.433 8.827c-.107.216-.252.42-.435.604L6.31 17.54c-.846.845-2.173.89-2.963.1-.79-.792-.747-2.12.1-2.964l2.04-2.043c.18-.18.38-.322.594-.43-.51.59-.49 1.48.075 2.044l.58.582c.565.56 1.462.586 2.053.063z" fill="#2C3E50" fill-rule="evenodd"/></svg><svg width="23" height="23" viewBox="-1 -1 23 23" x="96" y="432"><title>links</title><path d="M9.44 8.84c-.61-1.725-.172-3.79 1.284-5.247l2.042-2.042c1.974-1.972 5.07-2.076 6.915-.23 1.848 1.845 1.744 4.94-.23 6.915l-2.042 2.042c-1.463 1.463-3.543 1.9-5.273 1.274l-.594.596c.62 1.728.183 3.802-1.277 5.262L8.22 19.45c-1.973 1.973-5.07 2.077-6.914.23-1.846-1.844-1.742-4.94.232-6.914l2.042-2.042c1.457-1.46 3.53-1.896 5.256-1.28l.604-.604zm2.78-2.773c.104-.203.242-.393.413-.565l2.043-2.042c.845-.845 2.172-.89 2.963-.1.79.792.744 2.12-.1 2.964l-2.043 2.043c-.19.188-.4.337-.626.445.557-.587.55-1.51-.03-2.09l-.58-.582c-.56-.56-1.45-.588-2.042-.073zm-3.433 8.827c-.107.216-.252.42-.435.604L6.31 17.54c-.846.845-2.173.89-2.963.1-.79-.792-.747-2.12.1-2.964l2.04-2.043c.18-.18.38-.322.594-.43-.51.59-.49 1.48.075 2.044l.58.582c.565.56 1.462.586 2.053.063z" fill="#3398DB" fill-rule="evenodd"/></svg><svg width="22" height="23" viewBox="-1 -1 22 23" x="74" y="432"><title>pen</title><path d="M6.078 18.97S1.004 20.46.582 20.038c-.423-.422 1.254-5.31 1.254-5.31L12.733 3.83l2.416-2.416c.78-.78 2.046-.777 2.823 0L19.39 2.83c.78.78.787 2.04 0 2.827l-2.415 2.416L6.078 18.97zm9.77-16.84c.394-.395 1.027-.4 1.427 0l1.4 1.4c.395.394.4 1.027 0 1.427l-1.4 1.4c-.394.395-1.027.4-1.427 0l-1.4-1.4c-.395-.394-.4-1.027 0-1.427l1.4-1.4z" fill="#3398DB" fill-rule="evenodd"/></svg><svg width="23" height="23" viewBox="-1 -1 23 23" x="611" y="346"><title>plus</title><g fill="none" fill-rule="evenodd"><ellipse fill="#3398DB" cx="10.5" cy="10.5" rx="10.5" ry="10.5"/><path d="M9 9H5.03v3.01H9V16h2.96v-3.99h4.07V9h-4.07V5H9v4z" fill="#fff"/></g></svg><svg width="30" height="39" viewBox="-1 -1 30 39" x="529" y="159"><title>the-pointer</title><defs><radialGradient fx="50%" fy="50%" id="m"><stop stop-opacity=".3" offset="0%"/><stop stop-opacity="0" offset="100%"/></radialGradient></defs><g transform="translate(0 1)" fill="none" fill-rule="evenodd"><ellipse fill="url(#m)" cx="14" cy="32" rx="14" ry="4"/><path d="M13.98 30.903s9.98-15.41 9.98-20.923c0-5.512-4.468-9.98-9.98-9.98C8.468 0 4 4.468 4 9.98c0 5.512 9.98 20.923 9.98 20.923zm-.028-18c2.182 0 3.95-1.77 3.95-3.95C17.902 6.77 16.134 5 13.952 5 11.77 5 10 6.77 10 8.952s1.77 3.95 3.952 3.95z" stroke="#1F8B4C" fill="#27AE60"/></g></svg><svg width="21" height="21" viewBox="-1 -1 21 21" x="472" y="300"><title>review_ico_annotation</title><g stroke="#2C3E50" fill="none" fill-rule="evenodd"><path d="M9.5 13C7.57 13 6 11.43 6 9.5 6 7.573 7.57 6 9.5 6S13 7.572 13 9.5c0 1.93-1.57 3.5-3.5 3.5z" stroke-width="1.5" stroke-linecap="round" stroke-linejoin="round"/><path d="M9.5 17.543V1.5m-8 8h16" stroke-linecap="square"/><path d="M9.5 18C4.813 18 1 14.186 1 9.5S4.813 1 9.5 1C14.187 1 18 4.814 18 9.5S14.187 18 9.5 18z" stroke-width="1.5" stroke-linecap="round" stroke-linejoin="round"/></g></svg><svg width="20" height="17" viewBox="-1 -1 20 17" x="518" y="407"><title>review_ico_freeform</title><path d="M17.032 2.61v6.824c0 .703-.255 1.305-.766 1.807-.51.505-1.118.756-1.822.756H9.756c-.034 0-.677.186-3.696 2.975v-2.96H2.62c-.704 0-1.31-.25-1.822-.75-.51-.525-.766-1.133-.766-1.825V2.612c0-.736.267-1.355.8-1.857C1.366.253 1.962.002 2.62.002h11.824c.727 0 1.334.25 1.822.753.51.513.766 1.132.766 1.858z" fill="#2C3E50" fill-rule="evenodd"/></svg><svg width="19" height="14" viewBox="-1 -1 19 14" x="426" y="345"><title>review_ico_multichoice</title><g fill="#2C3E50" fill-rule="evenodd"><rect y="6" width="5" height="6" rx="1"/><rect x="6" y="4" width="5" height="8" rx="1"/><rect x="12" width="5" height="12" rx="1"/></g></svg><svg width="26" height="26" viewBox="-1 -1 26 26" x="426" y="274"><title>show-annotation</title><g fill="none" fill-rule="evenodd"><path d="M12 24c6.627 0 12-5.373 12-12S18.627 0 12 0 0 5.373 0 12s5.373 12 12 12z" fill="#3398DB"/><path d="M12 19s5-6.24 5-9-2.24-5-5-5-5 2.24-5 5 5 9 5 9zm-1.65-8.87c.36.526.965.87 1.65.87 1.105 0 2-.895 2-2s-.895-2-2-2-2 .895-2 2c0 .42.13.81.35 1.13z" fill="#fff"/></g></svg><svg width="26" height="26" viewBox="-1 -1 26 26" x="452" y="274"><title>show-heatmap</title><g fill="none" fill-rule="evenodd"><ellipse fill="#3398DB" cx="12" cy="12" rx="12" ry="12"/><path d="M14.156 11.97l2.188-2.188L6.5 6.502l3.282 9.84 2.187-2.186 3.935 3.937 2.187-2.187-3.937-3.937z" fill="#fff"/></g></svg><svg width="53" height="45" viewBox="-1 -1 53 45" x="562" y="506"><title>small_average</title><g stroke-linecap="round" stroke-width="1.5" stroke="#3398DB" fill="none" fill-rule="evenodd"><path d="M49.303 31.793c0 1.564-1.298 2.83-2.898 2.83 0 0-11.927 1.643-21.98 1.643-7.697 0-20.777-1.642-20.777-1.642-1.6 0-2.898-1.267-2.898-2.83V3.83C.75 2.267 2.048 1 3.648 1h42.757c1.6 0 2.898 1.267 2.898 2.832v27.96zM4.853 4.46h40.244v26.59H4.854V4.46zM21.79 36.234c-.15.355-.305.68-.46 1.122-3.443.324-5.858 1.088-5.858 1.978 0 1.186 4.29 2.148 9.582 2.148 5.292 0 9.58-.962 9.58-2.148 0-.89-2.412-1.653-5.853-1.978-.165-.473-.272-.793-.423-1.162l-6.567.04zm.206-17.724c0 1.25-1.04 2.266-2.32 2.266-1.282 0-2.32-1.016-2.32-2.265 0-1.25 1.038-2.266 2.32-2.266 1.28 0 2.32 1.015 2.32 2.268zm15.868-5.806c-1.28 0-2.32-1.015-2.32-2.266 0-1.252 1.04-2.267 2.32-2.267 1.28 0 2.32 1.017 2.32 2.27 0 1.25-1.04 2.265-2.32 2.265z" stroke-linejoin="round"/><path d="M9.42 31.013s1.74-3.165 3.468-5.333c.584-.732 3.468-3.367 3.468-3.367M16.856 25.173c-.072-.337-.5-2.86-.5-2.86M13.065 22.313h3.29M21.837 17.99s2.757-2.332 5.148-3.738c.807-.474 4.444-1.903 4.444-1.903M30.873 15.198c.052-.34.556-2.85.556-2.85M28.354 11.17l3.075 1.18"/></g></svg><svg width="18" height="17" viewBox="-1 -1 18 17" x="385" y="432"><title>Path 2</title><path d="M1.46 6.578l3.928 3.514S10.245 3.67 15.358 0L16 1.373C10.454 7.01 6.165 15 6.165 15L0 8.24l1.46-1.662z" fill="#fff" fill-rule="evenodd"/></svg><svg width="18" height="20" viewBox="-1 -1 18 20" x="615" y="526"><title>Rectangle 68</title><path d="M12 3h3c.552 0 1 .444 1 1 0 .552-.445 1-1 1h-1v10.994C14 17.102 13.098 18 11.99 18H4.01C2.9 18 2 17.103 2 15.994V5H1c-.552 0-1-.444-1-1 0-.552.445-1 1-1h3v-.5C4 1.12 5.112 0 6.51 0h2.98C10.877 0 12 1.11 12 2.5V3zM9.97 3H6.03c.11-.575.502-1 .98-1h1.98c.472 0 .868.422.98 1zM6 6v10H5c-.552 0-1-.456-1-.995V6h2zm6 0v9.005c0 .55-.444.995-1 .995h-1V6h2zM7 6h2v10H7V6z" fill="#E74C3C" fill-rule="evenodd"/></svg><svg width="21" height="23" viewBox="-1 -1 21 23" x="472" y="322"><title>user</title><path d="M17.88 20.128c-.652.58-1.518.872-2.6.872H3.577c-1.08 0-1.947-.29-2.598-.872-.653-.58-.98-1.936-.98-2.94 0-.443.017-.875.048-1.298.03-.422.094-.878.187-1.367.094-.49.212-.943.355-1.362.142-.416.334-.823.575-1.22.24-.398.518-.737.83-1.017.313-.28.695-.504 1.146-.67.453-.168.95-.252 1.495-.252.09 0 .28.09.576.27.295.18.62.38.978.603.358.222.835.422 1.434.602.6.18 1.2.27 1.81.27.606 0 1.208-.09 1.807-.27.597-.18 1.074-.38 1.432-.602.357-.222.683-.422.977-.602.294-.18.486-.27.575-.27.545 0 1.043.085 1.494.25.45.17.83.393 1.144.673.312.28.59.62.83 1.016.24.397.433.804.576 1.222.143.42.26.873.355 1.363.094.49.156.945.187 1.367.032.423.047.855.047 1.3 0 1.002-.327 2.357-.98 2.938zM9.43 10c2.76 0 5-2.24 5-5s-2.24-5-5-5c-2.763 0-5 2.24-5 5s2.237 5 5 5z" fill="#2C3E50" fill-rule="evenodd"/></svg><svg width="9" height="9" viewBox="-1 -1 9 9" x="624" y="386"><title>×</title><text transform="translate(-6 -6)" font-weight="bold" font-family="Roboto" fill="#fff" font-size="13" fill-rule="evenodd"><tspan x="6.047" y="14">×</tspan></text></svg></svg>
