<?xml version="1.0" encoding="UTF-8" standalone="no"?>
<svg width="51px" height="43px" viewBox="0 0 51 43" version="1.1" xmlns="http://www.w3.org/2000/svg" xmlns:xlink="http://www.w3.org/1999/xlink" xmlns:sketch="http://www.bohemiancoding.com/sketch/ns">
    <!-- Generator: Sketch 3.2.2 (9983) - http://www.bohemiancoding.com/sketch -->
    <title>small_average</title>
    <desc>Created with Sketch.</desc>
    <defs></defs>
    <g id="Page-1" stroke="none" stroke-width="1" fill="none" fill-rule="evenodd" sketch:type="MSPage">
        <g id="03-TASKS" sketch:type="MSArtboardGroup" transform="translate(-900.000000, -402.000000)" stroke-linecap="round" stroke-width="1.5" stroke="#3398DB">
            <g id="small_average" sketch:type="MSLayerGroup" transform="translate(900.750000, 403.000000)">
                <g id="Group" sketch:type="MSShapeGroup">
                    <path d="M48.553066,30.7934789 C48.553066,32.3569898 47.2546901,33.6236626 45.6549503,33.6236626 C45.6549503,33.6236626 33.7276385,35.2656762 23.6754795,35.2656762 C15.9781443,35.2656762 2.89811577,33.6236626 2.89811577,33.6236626 C1.29753883,33.6236626 0,32.3569898 0,30.7934789 L0,2.83181925 C0,1.26749057 1.29753883,0 2.89811577,0 L45.6549503,0 C47.2546901,0 48.553066,1.26749057 48.553066,2.83181925 L48.553066,30.7934789 L48.553066,30.7934789 Z" id="Path" stroke-linejoin="round"></path>
                    <path d="M4.1035712,3.46065811 L44.347366,3.46065811 L44.347366,30.050157 L4.1035712,30.050157 L4.1035712,3.46065811 Z" id="Path" stroke-linejoin="round"></path>
                    <path d="M21.0385458,35.2337845 C20.8903752,35.5894996 20.7346706,35.913323 20.5789659,36.3557181 C17.1367209,36.6795415 14.7216245,37.4441245 14.7216245,38.3338211 C14.7216245,39.5203558 19.0118738,40.4820132 24.304158,40.4820132 C29.5956051,40.4820132 33.8841802,39.5203558 33.8841802,38.3338211 C33.8841802,37.4441245 31.4715951,36.681177 28.0310244,36.3557181 C27.8644372,35.8830668 27.7572856,35.5625143 27.6057665,35.1937155 L21.0385458,35.2337845 Z" id="Path" stroke-linejoin="round"></path>
                    <path d="M21.2455541,17.5105953 C21.2455541,18.7600957 20.2066859,19.7757236 18.9258895,19.7757236 C17.644256,19.7757236 16.6045506,18.7600957 16.6045506,17.5105953 C16.6045506,16.257824 17.644256,15.2430138 18.9258895,15.2430138 C20.2066859,15.2430138 21.2455541,16.257824 21.2455541,17.5105953 L21.2455541,17.5105953 Z" id="Path" stroke-linejoin="round"></path>
                    <path d="M37.1140354,11.7042706 C35.833239,11.7042706 34.7943708,10.6886427 34.7943708,9.43750683 C34.7943708,8.18637098 35.833239,7.17074306 37.1140354,7.17074306 C38.3948318,7.17074306 39.4353743,8.18637098 39.4353743,9.43750683 C39.4353743,10.6886427 38.3948318,11.7042706 37.1140354,11.7042706 Z" id="Path" stroke-linejoin="round"></path>
                    <path d="M8.67019036,30.0126455 C8.67019036,30.0126455 10.4097208,26.8482324 12.1382665,24.6802915 C12.7217716,23.9484598 15.6063427,21.313328 15.6063427,21.313328" id="Line"></path>
                    <path d="M16.1064794,24.1726945 C16.0335413,23.8364021 15.6063427,21.313328 15.6063427,21.313328" id="Line-6"></path>
                    <path d="M12.3146385,21.313328 L15.6063427,21.313328" id="Line-7"></path>
                    <g id="Line-10-+-Line-8-+-Line-9" transform="translate(26.444081, 13.918908) rotate(21.000000) translate(-26.444081, -13.918908) translate(22.542495, 8.699318)">
                        <path d="M1.24344979e-14,10.0042152 C1.24344979e-14,10.0042152 1.73953043,6.83980201 3.46807615,4.67186113 C4.05158119,3.94002949 6.93615229,1.30489763 6.93615229,1.30489763" id="Line-10"></path>
                        <path d="M7.43628903,4.16426412 C7.3633509,3.82797176 6.93615229,1.30489763 6.93615229,1.30489763" id="Line-8"></path>
                        <path d="M3.64444809,1.30489763 L6.93615229,1.30489763" id="Line-9"></path>
                    </g>
                </g>
            </g>
        </g>
    </g>
</svg>
