<?xml version="1.0" encoding="UTF-8" standalone="no"?>
<svg width="149px" height="149px" viewBox="0 0 149 149" version="1.1" xmlns="http://www.w3.org/2000/svg" xmlns:xlink="http://www.w3.org/1999/xlink" xmlns:sketch="http://www.bohemiancoding.com/sketch/ns">
    <!-- Generator: Sketch 3.2 (9961) - http://www.bohemiancoding.com/sketch -->
    <title>Icon-Plan</title>
    <desc>Created with Sketch.</desc>
    <defs>
        <circle id="path-1" cx="74.5" cy="74.5" r="72.5"></circle>
    </defs>
    <g id="Page-1" stroke="none" stroke-width="1" fill="none" fill-rule="evenodd" sketch:type="MSPage">
        <g id="Icon-Plan" sketch:type="MSArtboardGroup">
            <g id="Plan-Icon" sketch:type="MSLayerGroup">
                <circle id="Oval-82" stroke="#FFFFFF" stroke-width="2" sketch:type="MSShapeGroup" cx="74.5" cy="74.5" r="74.5"></circle>
                <mask id="mask-2" sketch:name="Mask 2" fill="white">
                    <use xlink:href="#path-1"></use>
                </mask>
                <use id="Mask-2" sketch:type="MSShapeGroup" xlink:href="#path-1"></use>
                <g id="Plan-icon" mask="url(#mask-2)">
                    <g transform="translate(36.000000, -11.000000)">
                        <path d="M78.9999996,62.5 C-15.5000004,83 151.5,115 39.9999996,143" id="Path-83" stroke="#FFFFFF" stroke-width="4" stroke-linecap="round" stroke-dasharray="9" fill="none" sketch:type="MSShapeGroup"></path>
                        <rect id="Rectangle-137" stroke="none" fill="#8264A3" fill-rule="evenodd" sketch:type="MSShapeGroup" x="42" y="13" width="34" height="31"></rect>
                        <text id="x" stroke="none" fill="none" sketch:type="MSTextLayer" font-family="Hannotate TC" font-size="72" font-weight="normal">
                            <tspan x="78" y="76" fill="#FFFFFF">x</tspan>
                        </text>
                        <path d="M10.5,93.1050148 L17.8097324,100.13384" id="Line" stroke="#8264A3" stroke-width="2" stroke-linecap="square" fill="none" sketch:type="MSShapeGroup"></path>
                        <path d="M41.5,92 L50,100.5" id="Line" stroke="#8264A3" stroke-width="2" stroke-linecap="round" fill="none" sketch:type="MSShapeGroup"></path>
                        <rect id="Rectangle-135" stroke="#8264A3" stroke-width="2" stroke-linecap="round" stroke-linejoin="bevel" fill="none" sketch:type="MSShapeGroup" x="8.51645749" y="90.5490782" width="33.6328045" height="34.5051437" rx="1"></rect>
                        <rect id="Rectangle-136" stroke="#8264A3" stroke-width="2" stroke-linecap="round" stroke-linejoin="bevel" fill="none" sketch:type="MSShapeGroup" x="17.3671955" y="99.4948563" width="33.6328045" height="34.5051437" rx="1"></rect>
                        <path d="M41,123.776254 L50,132.722032" id="Line" stroke="#8264A3" stroke-width="2" stroke-linecap="round" fill="none" sketch:type="MSShapeGroup"></path>
                        <path d="M9.5,124 L18,133" id="Line" stroke="#8264A3" stroke-width="2" stroke-linecap="round" fill="none" sketch:type="MSShapeGroup"></path>
                        <path d="M0.0178897656,96.780165 C2.93357198,90.3772223 3.16043876,91.3462347 6.33326621,97.0359093" id="Path-88" stroke="#FFFFFF" stroke-width="1" stroke-linecap="round" fill="none" sketch:type="MSShapeGroup"></path>
                        <path d="M0.0178897656,124.780165 C2.93357198,118.377222 3.16043876,119.346235 6.33326621,125.035909" id="Path-89" stroke="#FFFFFF" stroke-width="1" stroke-linecap="round" fill="none" sketch:type="MSShapeGroup" transform="translate(3.175578, 122.698814) scale(1, -1) translate(-3.175578, -122.698814) "></path>
                        <path d="M3,92.5 L2.99999997,98.8" id="Line" stroke="#FFFFFF" stroke-width="1" stroke-linecap="round" fill="none" sketch:type="MSShapeGroup"></path>
                        <path d="M3,118.5 L2.99999997,124.8" id="Line-2" stroke="#FFFFFF" stroke-width="1" stroke-linecap="round" fill="none" sketch:type="MSShapeGroup"></path>
                        <text id="6" stroke="none" fill="none" sketch:type="MSTextLayer" font-family="Hannotate TC" font-size="9" font-weight="normal">
                            <tspan x="1" y="112" fill="#FFFFFF">6</tspan>
                        </text>
                        <path d="M30.8542835,41.92496 C30.980653,41.7326284 31.1702044,41.5135873 31.4229434,41.2678303 C31.7767779,40.9472776 32.0421499,40.6961817 32.2190672,40.5145352 C32.3959845,40.3328887 32.4928663,40.2153545 32.5097155,40.161929 C32.5939619,40.044393 32.7076927,39.8894616 32.8509115,39.69713 C32.9941302,39.5047983 33.1584081,39.2857573 33.34375,39.0400002 C33.5122427,38.9224642 33.7060063,38.6686972 33.9250467,38.2786914 C34.1440872,37.8886856 34.3968224,37.3731378 34.6832599,36.7320324 C34.818054,36.561071 34.9612706,36.3553861 35.112914,36.1149716 C35.2645574,35.8745571 35.4498965,35.5887352 35.668937,35.2574974 C35.736334,35.0117404 35.8627016,34.7232473 36.0480435,34.3920095 C36.2333855,34.0607717 36.4692716,33.6921417 36.7557091,33.2861083 C37.1095437,32.901445 37.480222,32.52213 37.8677551,32.1481519 C38.2552882,31.7741738 38.8113056,31.4963656 39.535824,31.3147191 C39.8222615,31.4322551 40.0412987,31.5497893 40.192942,31.6673253 C40.3445854,31.7848613 40.420406,31.897053 40.420406,32.0039039 C40.420406,32.2710311 40.2308546,32.626305 39.8517461,33.0697363 C39.4726377,33.5131675 39.2830863,33.8150167 39.2830863,33.9752931 C39.2830863,34.0607738 39.3589068,34.1409108 39.5105502,34.2157064 C39.6453443,34.172966 39.889655,34.0447469 40.2434896,33.8310451 C40.5973242,33.6173433 41.060672,33.3288502 41.633547,32.9655572 C42.1053264,32.6877448 42.530764,32.4606901 42.9098725,32.2843861 C43.2889809,32.1080821 43.6470224,31.9985616 43.9840077,31.9558212 C44.2030482,31.9023958 44.4810569,31.8543136 44.8180422,31.8115733 C45.1550275,31.7688329 45.5341303,31.6993809 45.9553619,31.6032151 C46.1744024,31.5284194 46.351317,31.4536249 46.4861111,31.3788293 C46.604056,31.3147188 46.7893951,31.2506092 47.0421341,31.1864986 L47.4212407,31.2345813 C47.572884,31.3307471 47.9941093,31.4295827 48.6849292,31.5310911 C49.3757491,31.6325994 49.8138234,31.6833528 49.9991653,31.6833528 C50.1508087,31.7367783 50.3277233,31.8222577 50.5299145,31.9397937 C50.7321057,32.0573297 50.9932654,32.1855488 51.3134014,32.324455 C51.987372,32.5808971 52.6149978,32.9575409 53.1962974,33.4543976 C53.7775971,33.9512542 54.3041287,34.5683089 54.7759081,35.3055801 C55.213989,35.9787407 55.546757,36.6198365 55.7742221,37.2288866 C56.0016872,37.8379367 56.115418,38.4256078 56.115418,38.9919176 C56.115418,40.7763275 55.7615887,42.3256423 55.0539196,43.6399083 C54.3462505,44.9541743 53.2763382,46.0333522 51.8441506,46.8774743 C51.7093565,46.962955 51.5450786,47.067133 51.3513121,47.1900116 C51.1575456,47.3128901 50.9174471,47.4598079 50.6310096,47.6307693 L50.6310096,47.8070724 C50.5973111,47.9139233 50.5004293,48.0287863 50.3403612,48.1516648 C50.1802932,48.2745434 49.9570438,48.4161187 49.6706063,48.576395 C49.0471835,48.9396881 48.4153455,49.3056469 47.7750735,49.6742825 C47.1348014,50.0429181 46.4776899,50.4035344 45.8037193,50.7561424 C44.961256,51.2156013 44.1609279,51.5788889 43.402711,51.8460161 C42.6444941,52.1131433 41.911562,52.3001296 41.2038929,52.4069805 C40.9006061,52.5779419 40.5257156,52.7088323 40.0792101,52.7996556 C39.6327045,52.8904788 39.0893239,52.9358898 38.4490518,52.9358898 C37.505493,52.9358898 36.7388629,52.8958213 36.1491386,52.8156831 C35.5594143,52.735545 35.138189,52.620682 34.8854501,52.4710907 C34.7338067,52.3749249 34.556892,52.2787605 34.3547009,52.1825947 C34.1525097,52.0864289 33.9166235,51.9635522 33.6470353,51.813961 C33.3605977,51.6750548 33.0910136,51.4212877 32.8382746,51.0526522 C32.5855356,50.6840166 32.3580739,50.205866 32.1558827,49.618186 C32.0210886,49.1800974 31.9157823,48.7553714 31.8399606,48.3439955 C31.7641389,47.9326195 31.7262286,47.5506333 31.7262286,47.1980254 C31.7262286,47.0911745 31.7683512,46.9148731 31.8525975,46.6691161 C31.9368438,46.423359 31.9705418,46.2363727 31.9536926,46.1081517 C31.9536926,45.8623946 31.9368436,45.648696 31.903145,45.4670495 C31.903145,45.2747179 31.9958146,44.9701974 32.1811565,44.5534789 C32.3664984,44.1367604 32.459168,43.8055276 32.459168,43.5597705 C32.459168,43.5063451 32.408621,43.4262081 32.3075254,43.3193572 C32.0379371,43.5116888 31.8441735,43.6879902 31.7262286,43.8482665 C31.625133,43.9551174 31.50719,44.0352544 31.3723958,44.0886798 C31.2376017,44.1421053 31.1112341,44.1688176 30.9932893,44.1688176 C30.8079473,44.1688176 30.6605185,44.1207354 30.5509983,44.0245696 C30.441478,43.9284038 30.3867188,43.7841573 30.3867188,43.5918256 C30.3867188,43.4636046 30.4330535,43.2712758 30.5257245,43.0148337 C30.6183955,42.7583915 30.6647302,42.5607203 30.6647302,42.4218142 C30.6647302,42.282908 30.727914,42.1172916 30.8542835,41.92496 Z M45.9127101,34.5843401 C45.4205918,34.5843401 44.9182287,34.6163949 44.4056055,34.6805055 C43.8929823,34.744616 43.3701145,34.8354379 42.8369864,34.9529739 L39.8535344,35.6421587 C39.6484851,35.6955842 39.4178081,35.7810636 39.1614965,35.8985996 C38.9051849,36.0161356 38.6232464,36.1764095 38.3156725,36.3794262 L36.9008396,37.2929968 C36.4497312,37.5708091 36.0498911,38.0783433 35.7013073,38.8156145 C35.3527236,39.5528857 35.0451543,40.5145293 34.7785902,41.7005742 C34.5735409,42.6088069 34.4300086,43.4555875 34.3479889,44.2409416 C34.2659692,45.0262957 34.2249599,45.7501996 34.2249599,46.4126752 C34.2249599,47.7696816 34.6248,48.7820786 35.4244922,49.4498967 C36.2241844,50.1177148 37.4339569,50.4516189 39.0538462,50.4516189 C39.8125285,50.4516189 40.6634702,50.3474408 41.6066969,50.1390816 C42.5499235,49.9307223 43.5751545,49.6128457 44.6824206,49.1854421 C45.6256473,48.822149 46.4560844,48.4561902 47.1737568,48.0875546 C47.8914293,47.718919 48.4860633,47.3422753 48.9576766,46.957612 C49.1627259,46.8080208 49.4856736,46.4928154 49.9265296,46.0119863 C50.3673855,45.5311573 50.9773979,44.8740342 51.7565852,44.0405972 C52.2692084,43.4315471 52.6690484,42.8144924 52.9561174,42.1894146 C53.2431864,41.5643369 53.3867188,40.9205699 53.3867188,40.2580944 C53.2636892,39.9375417 53.1304092,39.6223363 52.9868747,39.3124687 L53.2021753,38.6232838 C52.9971261,38.4950627 52.8228368,38.3775285 52.6793023,38.2706776 C52.6177875,38.1851969 52.566526,38.1157449 52.5255161,38.0623194 C51.8898634,36.9083297 51.0286693,36.0401792 49.9419082,35.4578419 C48.855147,34.8755045 47.5120944,34.5843401 45.9127101,34.5843401 L45.9127101,34.5843401 Z" id="O" stroke="none" fill="#FFFFFF" fill-rule="evenodd" sketch:type="MSShapeGroup"></path>
                        <text id="4.675" stroke="none" fill="none" sketch:type="MSTextLayer" font-family="Mistral" font-size="18" font-weight="normal">
                            <tspan x="82" y="104" fill="#FFFFFF">4</tspan>
                            <tspan x="89.0751953" y="104" fill="#FFFFFF">.675</tspan>
                        </text>
                    </g>
                </g>
                <path d="M28.5,47.5 L55.5,47.5" id="Line" stroke="#FFFFFF" stroke-linecap="square" sketch:type="MSShapeGroup" mask="url(#mask-2)"></path>
                <path d="M32.1636453,61.9214926 C40.5760299,63.6463711 48.9582091,61.6338567 57.2750059,61.6338567" id="Path-127" stroke="#8264A3" sketch:type="MSShapeGroup" mask="url(#mask-2)"></path>
                <path d="M33.1773274,63.9489498 C41.4449048,65.1029676 49.6313801,64.4033871 57.7066215,63.4597422" id="Path-128" stroke="#8264A3" sketch:type="MSShapeGroup" mask="url(#mask-2)"></path>
                <text id="--5,630" sketch:type="MSTextLayer" mask="url(#mask-2)" font-family="Mistral" font-size="12" font-weight="normal" fill="#FFFFFF">
                    <tspan x="27" y="31">  5,630</tspan>
                    <tspan x="27" y="45">+  870</tspan>
                    <tspan x="27" y="59">  6,500</tspan>
                </text>
                <rect id="Rectangle-152" stroke="#8264A3" stroke-width="1.5" stroke-linecap="round" stroke-linejoin="round" stroke-dasharray="3" sketch:type="MSShapeGroup" mask="url(#mask-2)" x="-3" y="53" width="16" height="14"></rect>
                <rect id="Rectangle-148" stroke="#8264A3" stroke-dasharray="3" sketch:type="MSShapeGroup" mask="url(#mask-2)" x="-14" y="72" width="16" height="14"></rect>
                <rect id="Rectangle-151" stroke="#8264A3" stroke-width="1.5" stroke-linecap="round" stroke-linejoin="round" stroke-dasharray="3" sketch:type="MSShapeGroup" mask="url(#mask-2)" x="5" y="71" width="16" height="14"></rect>
                <rect id="Rectangle-153" stroke="#8264A3" stroke-width="1.5" stroke-linecap="round" stroke-linejoin="round" stroke-dasharray="3" sketch:type="MSShapeGroup" mask="url(#mask-2)" x="14" y="89" width="16" height="14"></rect>
                <rect id="Rectangle-154" stroke="#8264A3" stroke-width="1.5" stroke-linecap="round" stroke-linejoin="round" stroke-dasharray="3" sketch:type="MSShapeGroup" mask="url(#mask-2)" x="-6" y="89" width="16" height="14"></rect>
            </g>
        </g>
    </g>
</svg>