<?xml version="1.0" encoding="UTF-8" standalone="no"?>
<svg width="32px" height="20px" viewBox="0 0 32 20" version="1.1" xmlns="http://www.w3.org/2000/svg" xmlns:xlink="http://www.w3.org/1999/xlink" xmlns:sketch="http://www.bohemiancoding.com/sketch/ns">
    <!-- Generator: Sketch 3.3.1 (12005) - http://www.bohemiancoding.com/sketch -->
    <title>Imported Layers</title>
    <desc>Created with Sketch.</desc>
    <defs></defs>
    <g id="Blue-Grid-01" stroke="none" stroke-width="1" fill="none" fill-rule="evenodd" sketch:type="MSPage">
        <g id="Desktop" sketch:type="MSArtboardGroup" transform="translate(-169.000000, -1108.000000)" fill="#FFFFFF">
            <g id="UI-Libary" sketch:type="MSLayerGroup" transform="translate(-2.000000, 111.000000)">
                <g id="Tool-icons" transform="translate(3.000000, 282.000000)" sketch:type="MSShapeGroup">
                    <g id="Imported-Layers" transform="translate(167.500000, 715.000000)">
                        <path d="M13.723,5.981 C13.989,6.249 14.123,6.573 14.123,6.956 C14.123,7.338 13.989,7.663 13.723,7.93 C13.455,8.198 13.13,8.331 12.748,8.331 C12.365,8.331 12.041,8.198 11.774,7.93 C11.506,7.663 11.372,7.338 11.372,6.956 C11.372,6.573 11.506,6.249 11.774,5.981 C12.041,5.714 12.365,5.581 12.748,5.581 C13.13,5.581 13.455,5.714 13.723,5.981" id="Fill-1"></path>
                        <path d="M23.5,14.765 L9.525,14.765 L9.525,12.859 L12.701,9.682 L14.29,11.27 L19.372,6.188 L23.5,10.317 L23.5,14.765 Z" id="Fill-2"></path>
                        <path d="M2.5,2.765 L30.5,2.765 L30.5,17.765 L2.5,17.765 L2.5,2.765 Z M0.5,19.765 L32.5,19.765 L32.5,0.765 L0.5,0.765 L0.5,19.765 Z" id="Fill-3"></path>
                    </g>
                </g>
            </g>
        </g>
    </g>
</svg>